<?xml version="1.0" standalone="no"?>
<!DOCTYPE svg PUBLIC "-//W3C//DTD SVG 20010904//EN"
 "http://www.w3.org/TR/2001/REC-SVG-20010904/DTD/svg10.dtd">
<svg version="1.0" xmlns="http://www.w3.org/2000/svg"
 width="301.000000pt" height="200.000000pt" viewBox="0 0 301.000000 200.000000"
 preserveAspectRatio="xMidYMid meet">

<g transform="translate(0.000000,200.000000) scale(0.100000,-0.100000)"
fill="#000000" stroke="none">
<path d="M0 1845 c0 -131 2 -155 15 -155 8 0 15 -4 15 -9 0 -5 52 -12 115 -16
88 -6 115 -11 115 -21 0 -8 5 -14 10 -14 6 0 10 -11 10 -25 0 -24 3 -25 55
-25 30 0 55 -4 55 -10 0 -6 -33 -7 -90 -3 -79 5 -90 4 -90 -10 0 -21 51 -31
135 -25 81 5 84 -9 13 -55 -33 -21 -36 -37 -8 -37 11 0 20 6 20 14 0 20 13 27
30 16 13 -8 12 -12 -5 -24 -20 -15 -20 -15 3 -16 26 0 29 -15 5 -29 -13 -8 17
-11 107 -11 69 0 150 -3 180 -6 46 -6 53 -4 43 7 -9 9 -13 49 -13 123 l0 109
125 -7 c69 -3 152 -9 184 -12 l59 -7 7 -112 7 -112 61 -7 c95 -10 137 -7 153
9 14 13 13 17 -2 32 -13 13 -19 14 -22 5 -6 -19 -22 -14 -22 8 0 19 4 20 53
15 38 -5 48 -4 37 4 -8 6 -28 11 -45 11 -23 0 -27 3 -15 10 8 5 32 10 53 10
23 0 36 4 32 10 -12 20 15 9 40 -15 29 -30 32 -45 9 -45 -17 0 -38 -19 -41
-38 -2 -6 2 -12 7 -12 6 0 10 7 10 15 0 8 5 15 11 15 6 0 9 -6 6 -14 -4 -9 1
-17 11 -19 9 -3 1 -6 -18 -8 -19 -1 28 -6 105 -10 77 -5 150 -9 163 -11 36 -4
25 -26 -16 -33 -28 -4 -38 -11 -39 -26 -2 -22 25 -26 33 -4 4 8 11 15 16 15 7
0 6 -5 -1 -13 -6 -8 -7 -17 -3 -22 4 -4 -239 -5 -540 -2 -403 4 -548 3 -548
-6 0 -8 -4 -7 -12 1 -8 8 -61 12 -173 12 l-162 0 8 -47 c4 -27 8 -72 8 -100 1
-29 5 -53 10 -53 5 0 10 -75 11 -170 0 -112 -3 -170 -10 -170 -5 0 -10 -7 -10
-15 0 -8 -8 -15 -19 -15 -19 0 -23 17 -38 195 -3 39 -10 73 -15 76 -12 8 -14
249 -2 258 5 3 15 14 23 24 13 16 7 17 -97 17 l-110 0 -2 -190 c-1 -184 0
-190 19 -190 14 0 19 -5 15 -15 -4 -8 -12 -15 -20 -15 -12 0 -14 -68 -14 -425
l0 -425 293 2 c273 3 292 4 291 21 -2 13 3 16 20 12 20 -6 20 -5 1 6 -19 12
-19 12 0 21 16 7 15 8 -7 5 -16 -3 -28 0 -28 5 0 5 -4 6 -10 3 -5 -3 -10 -2
-10 3 0 6 7 12 15 16 8 3 15 1 15 -3 0 -5 18 -4 40 1 33 9 40 15 40 34 0 17
-6 24 -19 24 -11 0 -22 -6 -24 -12 -4 -10 -8 -9 -16 2 -7 11 -7 16 2 18 7 2
19 6 27 10 14 6 54 10 128 12 17 0 32 4 32 8 0 4 10 8 23 8 95 6 166 21 185
41 17 17 32 17 32 0 0 -8 -21 -19 -48 -26 -26 -6 -60 -16 -77 -21 -28 -9 -27
-9 10 -5 22 2 35 1 30 -3 -6 -4 -16 -19 -22 -33 -10 -24 -17 -26 -68 -27 -32
0 -62 -5 -68 -11 -8 -8 2 -11 33 -10 48 1 147 16 118 18 -23 1 -13 27 15 37
32 10 97 12 97 2 0 -4 9 -8 20 -8 11 0 20 4 20 10 0 5 -7 7 -15 4 -8 -4 -15
-2 -15 4 0 5 14 12 30 16 27 5 43 26 20 26 -5 0 -10 -4 -10 -10 0 -5 -13 -1
-30 8 -30 17 -39 32 -20 32 6 0 10 5 10 10 0 6 -36 10 -87 10 -61 0 -83 3 -73
10 11 7 1 10 -35 10 -27 0 -85 5 -128 12 -59 9 -77 15 -75 26 3 15 13 22 62
41 16 7 26 14 23 17 -6 6 -79 -17 -125 -39 -23 -11 -134 5 -157 22 -30 23 -41
19 -41 -15 0 -25 4 -34 17 -34 17 0 32 -23 22 -34 -4 -3 -13 -6 -22 -6 -14 0
-14 2 -1 10 19 12 9 20 -26 23 -21 1 -31 -4 -39 -20 -5 -13 -15 -23 -21 -23
-15 0 -61 52 -66 75 -2 11 -10 19 -16 17 -17 -3 -15 35 2 41 8 3 16 16 19 29
l4 23 2 -23 c1 -23 1 -23 22 -3 12 11 26 18 33 17 6 -2 8 -1 4 1 -16 9 -7 25
11 20 10 -2 25 -1 32 4 12 7 11 9 -1 10 -10 0 -8 3 5 9 15 7 11 8 -19 7 -31
-2 -39 2 -42 17 -2 14 2 17 22 13 19 -3 22 -2 13 9 -6 7 -20 12 -31 11 -12 -1
-23 3 -25 9 -2 6 11 11 32 12 21 1 35 -3 35 -11 0 -7 12 -18 27 -24 33 -16 46
-16 38 -3 -4 6 7 10 24 10 33 0 38 8 19 30 -11 12 -10 12 4 1 9 -7 29 -11 44
-9 23 3 27 8 28 36 1 24 -3 32 -16 32 -10 0 -18 -3 -18 -7 0 -5 -18 -8 -41 -7
-36 1 -40 -2 -35 -20 5 -19 4 -20 -8 -3 -15 20 -41 23 -33 4 3 -8 -3 -13 -17
-14 -11 0 -15 1 -9 4 20 7 15 23 -7 23 -11 0 -20 -7 -20 -15 0 -8 -7 -15 -15
-15 -9 0 -12 6 -9 15 4 8 1 15 -6 15 -8 0 -8 4 2 13 9 9 35 13 81 11 37 -1 67
2 67 6 0 4 20 10 45 12 25 2 45 0 45 -4 0 -5 9 -8 20 -8 11 0 20 -5 20 -10 0
-6 -8 -10 -17 -8 -12 2 -17 -2 -14 -12 2 -8 4 -21 4 -27 1 -23 27 -14 28 10 1
16 2 18 6 5 3 -11 13 -18 26 -17 17 1 18 2 5 6 -20 5 -25 24 -6 20 7 -1 12 3
13 10 0 6 4 15 8 20 5 4 7 2 5 -6 -2 -7 3 -16 10 -18 6 -3 12 0 12 5 0 7 11 7
32 1 47 -13 92 -11 124 6 l29 15 -32 0 c-61 0 -130 21 -151 45 -17 19 -18 24
-6 29 8 3 13 2 10 -3 -18 -29 70 -61 169 -61 41 0 64 18 50 40 -10 17 -45 18
-54 2 -15 -26 -22 -9 -26 53 l-3 57 31 -6 c17 -4 33 -10 37 -14 10 -13 33 -13
42 0 7 10 9 10 5 -2 -2 -8 -15 -15 -30 -15 -14 0 -29 -3 -33 -7 -4 -5 4 -8 18
-8 14 0 28 -7 32 -15 3 -9 18 -15 36 -15 16 0 30 -4 30 -10 0 -5 5 -10 11 -10
6 0 9 6 6 13 -6 16 26 19 73 7 32 -8 33 -8 16 5 -17 13 -17 15 -4 15 23 0 32
-18 18 -35 -14 -17 -5 -35 16 -35 9 0 12 -5 8 -12 -4 -7 -3 -8 4 -4 6 3 27 7
47 8 19 1 35 5 35 10 0 4 -4 8 -10 8 -5 0 -10 5 -10 10 0 17 18 11 25 -9 7
-22 45 -18 45 5 0 8 6 14 13 14 8 0 7 3 -3 10 -12 8 -12 10 3 16 9 3 24 1 32
-6 13 -11 14 -10 9 4 -4 12 -2 15 9 10 8 -3 18 -1 21 5 3 5 -8 12 -25 16 -22
5 -34 3 -42 -9 -9 -11 -16 -13 -27 -6 -8 5 -12 10 -7 10 18 0 -37 41 -63 47
-27 5 -30 3 -30 -20 0 -25 16 -37 48 -37 15 0 15 2 2 11 -12 8 -12 10 5 7 12
-2 21 -12 23 -26 2 -12 11 -22 20 -23 9 0 12 -3 5 -5 -6 -3 -26 2 -43 11 -18
9 -29 12 -26 6 4 -6 2 -19 -4 -28 -11 -17 -11 -17 -6 0 3 9 1 17 -5 17 -6 0
-7 4 -4 10 3 5 2 10 -4 10 -5 0 -13 -5 -16 -10 -4 -7 -14 -2 -26 11 -24 28
-24 33 1 26 11 -3 20 -1 20 4 0 5 -7 9 -15 9 -8 0 -15 7 -15 16 0 8 -4 12 -10
9 -5 -3 -10 -15 -10 -26 0 -10 -5 -19 -11 -19 -5 0 -8 4 -5 9 4 5 0 11 -6 14
-9 3 -6 11 10 26 12 12 26 19 32 16 5 -3 45 -6 89 -7 45 0 81 -5 81 -9 0 -5
24 -9 54 -9 31 0 56 -5 58 -11 5 -15 61 -15 66 0 5 14 52 15 52 1 0 -5 -6 -11
-12 -11 -7 -1 -17 -2 -23 -4 -5 -1 -16 -3 -22 -3 -7 -1 -13 -9 -13 -17 0 -9
-6 -12 -17 -8 -11 5 -14 3 -8 -6 4 -7 18 -11 31 -8 13 2 25 -1 28 -8 3 -9 -2
-11 -16 -7 -13 3 -26 -1 -33 -12 -7 -9 -46 -27 -86 -40 l-74 -24 45 -2 c75 -4
113 -1 120 10 3 5 15 11 25 13 11 1 26 6 32 10 7 4 28 9 48 11 19 2 42 9 51
16 13 12 17 11 25 -1 8 -12 10 -12 19 1 6 10 10 11 10 3 0 -18 27 -16 34 2 4
11 -2 15 -22 17 -46 2 -50 3 -58 11 -10 9 79 3 95 -8 8 -4 16 -3 20 4 10 15
66 31 116 32 22 1 -11 6 -73 10 -73 6 -118 14 -127 23 -8 7 -24 12 -37 11 -13
-1 -15 0 -5 2 12 3 16 10 13 20 -5 13 -4 14 8 4 8 -7 20 -10 26 -6 5 3 10 0
10 -8 0 -11 14 -15 53 -15 45 -1 50 1 35 12 -20 15 -14 28 9 19 8 -3 18 -1 22
6 9 14 41 4 41 -13 0 -6 11 -11 25 -11 14 0 25 3 25 7 0 4 8 5 18 1 15 -5 15
-4 -2 9 -16 13 -8 14 75 11 74 -2 88 -1 64 8 -16 5 -51 7 -77 4 -29 -3 -48 -2
-48 4 0 5 -9 9 -19 8 -11 0 -19 -6 -18 -11 1 -5 -6 -12 -17 -14 -11 -2 -16 0
-12 6 4 7 -10 12 -36 15 l-43 4 43 1 c31 2 42 6 42 18 0 13 7 15 37 9 21 -4
40 -10 43 -15 6 -9 112 -19 215 -20 49 -1 64 -4 50 -10 -11 -5 -14 -9 -7 -9 6
-1 12 -7 12 -15 0 -22 23 -26 136 -26 89 0 104 -2 104 -16 0 -11 6 -15 19 -11
10 2 25 1 32 -4 9 -6 -25 -9 -87 -8 -56 1 -106 -1 -110 -3 -5 -3 -39 -2 -76 1
-44 4 -68 3 -68 -4 0 -5 -7 -2 -14 8 -7 9 -21 17 -30 17 -11 0 -16 6 -14 18 2
12 17 19 48 24 37 5 34 5 -15 2 -87 -5 -84 -3 -72 -41 8 -25 18 -36 41 -42
l31 -9 -32 -1 c-18 -1 -33 3 -33 8 0 17 -59 33 -95 27 -27 -5 -35 -12 -35 -28
0 -15 4 -18 17 -14 10 4 14 3 9 -1 -4 -4 -22 -8 -39 -8 -24 0 -32 -4 -31 -17
1 -10 -1 -16 -5 -14 -3 2 -17 -1 -31 -6 -20 -7 -22 -11 -10 -18 8 -5 29 -10
47 -10 26 0 30 3 26 20 -4 17 -1 20 23 19 22 -1 24 -3 8 -6 -15 -3 -20 -10
-17 -22 4 -14 18 -20 66 -24 35 -3 63 -2 65 4 5 12 32 12 32 0 0 -5 9 -7 20
-4 11 3 20 0 20 -6 0 -8 48 -11 155 -11 108 0 155 3 155 11 0 8 4 8 14 0 11
-9 16 -9 21 0 4 6 1 15 -6 20 -10 6 -2 9 22 9 59 0 149 22 149 36 0 7 5 14 10
16 6 2 -16 4 -50 5 -53 1 -60 -1 -60 -18 0 -17 -8 -18 -81 -18 -65 0 -79 3
-75 15 6 16 -67 40 -86 28 -17 -11 -59 -14 -72 -6 -18 11 34 20 129 22 103 3
240 15 210 20 -11 1 -25 2 -32 1 -6 -1 -15 4 -19 10 -4 7 -3 9 4 5 6 -3 18 2
28 11 17 17 18 17 11 -1 -6 -15 -3 -18 18 -14 13 3 22 1 19 -3 -3 -5 11 -9 30
-9 29 0 36 4 36 19 0 20 -34 31 -93 31 -32 0 -81 13 -132 36 l-30 13 30 1 c23
0 26 3 15 10 -26 16 3 31 69 34 33 2 61 0 61 -5 0 -5 -9 -9 -20 -9 -11 0 -20
-4 -20 -9 0 -5 -17 -13 -37 -18 -35 -9 -32 -10 47 -16 47 -3 92 -6 100 -5 8 0
39 -2 69 -7 39 -5 52 -4 47 4 -4 6 -11 9 -14 7 -4 -2 -23 -1 -42 4 -33 8 -33
8 17 9 57 1 86 -6 77 -20 -3 -5 7 -9 23 -9 19 0 24 3 14 9 -10 6 -10 10 -1 16
16 10 140 -4 140 -16 0 -5 7 -9 15 -9 8 0 15 7 15 15 0 9 -9 15 -23 15 -12 0
-31 6 -42 14 -27 18 -73 25 -172 27 -46 1 -83 5 -83 10 0 5 -7 6 -15 3 -11 -5
-13 -2 -9 10 8 20 63 21 119 1 21 -8 80 -17 130 -21 l91 -6 2 42 c3 39 2 41
-13 26 -9 -9 -21 -16 -27 -16 -5 0 -8 -7 -4 -15 6 -16 -3 -19 -30 -8 -16 6
-16 7 2 15 14 6 12 7 -9 3 -20 -4 -29 -1 -34 12 -9 25 -23 33 -58 31 -23 0
-25 -2 -7 -5 39 -8 24 -23 -23 -23 -25 0 -45 5 -45 10 0 6 -21 10 -46 10 -32
0 -44 4 -41 13 2 6 11 11 20 9 9 -1 21 6 27 17 8 16 17 19 39 15 15 -3 45 -1
65 5 30 8 47 7 77 -6 21 -8 39 -19 39 -23 0 -4 16 -10 35 -12 l35 -4 0 182 c0
162 -2 182 -16 180 -9 0 -19 4 -21 11 -3 7 3 10 16 6 19 -5 19 2 20 255 l1
260 -22 6 c-13 3 -33 6 -45 6 -13 0 -23 5 -23 10 0 6 9 10 20 10 11 0 20 5 20
10 0 6 10 10 23 10 19 0 22 6 24 40 l3 40 -503 -1 c-448 0 -497 -2 -457 -15
25 -7 57 -14 72 -14 20 0 26 -4 22 -15 -4 -9 0 -15 10 -15 13 0 16 -13 16 -79
l0 -79 -36 9 c-19 6 -54 12 -77 13 -97 7 -87 -5 -87 101 l0 95 -135 0 -135 0
0 -80 0 -80 -47 7 c-27 3 -50 9 -53 13 -3 4 -35 10 -73 14 -108 11 -117 17
-117 76 l0 50 -165 0 -165 0 0 -30 c0 -26 -4 -30 -26 -30 -14 0 -23 4 -20 9 4
5 -29 12 -71 15 -69 6 -171 19 -258 33 -20 3 -26 2 -17 -4 9 -7 15 -61 20
-184 5 -96 7 -176 6 -178 -2 -2 -54 2 -116 8 -63 6 -143 11 -179 11 -35 0 -81
3 -101 6 -33 6 -38 10 -38 34 0 23 7 30 43 44 36 13 46 23 56 54 9 26 10 45 2
64 -13 34 -51 78 -67 78 -7 0 -17 6 -21 13 -4 8 -16 16 -25 20 -10 3 -18 11
-18 16 0 6 6 8 14 5 8 -3 23 -1 33 4 12 7 -30 11 -140 11 l-157 2 0 -156z
m990 56 c0 -11 2 -25 3 -33 2 -7 2 -10 0 -5 -3 4 -12 7 -22 7 -11 0 -17 9 -19
25 -1 19 3 25 18 25 13 0 20 -7 20 -19z m-704 -16 c4 -8 12 -15 19 -15 7 0 16
-7 19 -16 8 -21 8 -24 -5 -24 -6 0 -17 -7 -25 -15 -10 -9 -24 -13 -40 -9 -13
3 -31 1 -38 -5 -12 -10 -13 -8 -9 8 4 15 1 21 -11 21 -9 0 -16 -6 -16 -12 0
-9 -3 -9 -8 -2 -4 6 -15 13 -24 17 -10 3 -18 13 -18 22 0 8 8 15 18 15 9 0 26
7 36 15 26 20 95 20 102 0z m749 5 c3 -5 -1 -10 -9 -10 -9 0 -16 5 -16 10 0 6
4 10 9 10 6 0 13 -4 16 -10z m133 -20 l11 -29 -47 3 c-51 4 -72 26 -24 26 17
0 32 6 36 15 8 22 13 19 24 -15z m210 24 l30 -6 6 -137 c4 -75 8 -154 10 -176
2 -22 2 -33 0 -24 -6 19 -68 29 -176 29 -39 0 -68 4 -68 10 0 6 -20 10 -45 10
-43 0 -45 1 -45 29 l0 28 90 -5 90 -5 0 127 0 126 39 0 c21 0 52 -3 69 -6z
m-348 -34 c0 -5 -4 -10 -10 -10 -5 0 -10 5 -10 10 0 6 5 10 10 10 6 0 10 -4
10 -10z m1377 4 c-3 -3 -12 -4 -19 -1 -8 3 -5 6 6 6 11 1 17 -2 13 -5z m-484
-49 l37 -6 0 -72 c0 -40 -4 -67 -8 -61 -9 15 -142 45 -142 32 0 -16 -25 -36
-51 -40 -23 -4 -23 -5 5 -13 40 -11 64 -37 70 -77 3 -18 13 -38 22 -45 16 -12
16 -13 -4 -13 -13 0 -22 6 -22 15 0 21 -20 19 -21 -2 0 -11 -3 -13 -6 -5 -2 6
-16 12 -30 12 -13 0 -31 7 -39 15 -9 8 -24 15 -34 15 -40 0 -46 78 -8 93 8 4
7 6 -4 6 -10 1 -18 7 -18 15 0 10 9 12 38 6 l37 -6 -3 81 -3 82 73 -13 c40 -7
90 -16 111 -19z m484 29 c-3 -3 -12 -4 -19 -1 -8 3 -5 6 6 6 11 1 17 -2 13 -5z
m-1423 -36 c-4 -6 -3 -8 3 -5 6 4 24 2 41 -4 22 -8 29 -15 25 -27 -4 -13 -2
-12 10 3 14 17 16 17 17 4 0 -20 -22 -30 -40 -19 -8 5 -22 4 -32 -1 -20 -11
-24 1 -7 18 9 9 7 11 -7 7 -12 -3 -23 2 -30 14 -10 15 -8 18 7 19 12 1 17 -3
13 -9z m136 3 c0 -6 19 -11 42 -13 36 -3 43 -7 49 -31 4 -16 3 -25 -2 -21 -12
7 -12 -3 0 -25 9 -16 4 -18 -42 -19 -38 -2 -48 0 -37 8 8 5 10 10 4 10 -6 0
-10 15 -9 35 1 35 -17 49 -29 23 -3 -10 -1 25 3 40 2 7 21 1 21 -7z m1269 -41
c1 -13 0 -13 -9 0 -5 8 -9 24 -9 35 l0 20 9 -20 c5 -11 9 -27 9 -35z m128 -22
c-2 -13 -4 -5 -4 17 -1 22 1 32 4 23 2 -10 2 -28 0 -40z m-204 -16 c9 -8 17
-20 17 -25 0 -6 -3 -7 -7 -4 -5 6 -18 -10 -39 -51 -3 -7 2 -22 11 -32 17 -19
17 -20 -1 -21 -16 0 -15 -2 5 -10 32 -13 39 -4 44 56 3 49 3 49 5 -12 l2 -61
-30 2 c-16 1 -30 -1 -30 -6 0 -4 16 -8 35 -8 54 0 82 -18 99 -64 18 -47 21
-116 6 -116 -6 0 -9 -6 -8 -12 2 -10 -25 -14 -105 -16 -70 -2 -107 0 -103 7 4
5 -6 11 -21 13 -22 2 -28 8 -27 26 0 16 -4 22 -15 19 -9 -2 -15 -9 -13 -15 4
-21 -15 -13 -21 9 -3 12 -10 18 -16 14 -6 -3 -11 -1 -11 4 0 12 26 15 33 4 2
-5 2 -3 1 4 -2 6 5 14 14 16 9 2 1 2 -18 0 -19 -3 -36 -9 -38 -14 -6 -15 -19
-10 -19 6 0 8 4 15 9 15 4 0 8 8 9 18 0 10 3 12 6 5 2 -7 11 -13 19 -13 8 0
14 6 14 13 0 9 3 9 9 -1 14 -23 46 -10 49 21 3 22 -1 27 -17 27 -12 0 -21 -3
-21 -7 0 -5 -16 -9 -36 -10 -44 -2 -46 -4 -49 -44 -1 -21 -8 -33 -19 -35 -9
-1 -16 2 -16 7 0 5 4 9 8 9 5 0 14 18 21 41 8 28 17 39 26 35 8 -3 17 -2 19 3
3 4 19 8 37 9 17 0 33 2 35 4 2 2 6 52 10 111 l7 107 56 -6 c31 -4 64 -14 74
-22z m44 4 c-8 -8 -17 -12 -21 -9 -3 3 2 12 12 19 22 16 29 9 9 -10z m-287 4
c10 -6 11 -10 3 -10 -7 0 -13 -7 -13 -16 0 -11 -5 -14 -16 -10 -9 3 -18 6 -20
6 -2 0 -4 9 -4 20 0 22 24 27 50 10z m44 -18 c-6 -4 -14 -14 -17 -22 -4 -10
-6 -8 -6 8 -1 15 5 22 17 22 10 0 13 -3 6 -8z m-454 -87 c0 -8 -7 -15 -15 -15
-9 0 -12 6 -9 15 4 8 10 15 15 15 5 0 9 -7 9 -15z m267 -20 c0 -8 -4 -15 -9
-15 -10 0 -11 14 -1 23 9 10 10 9 10 -8z m-407 -25 c0 -5 -4 -10 -10 -10 -5 0
-10 5 -10 10 0 6 5 10 10 10 6 0 10 -4 10 -10z m140 0 c0 -5 -7 -10 -15 -10
-8 0 -15 5 -15 10 0 6 7 10 15 10 8 0 15 -4 15 -10z m-49 -58 c-7 -2 -18 1
-23 6 -8 8 -4 9 13 5 13 -4 18 -8 10 -11z m344 -12 c-3 -5 -10 -10 -16 -10 -5
0 -9 5 -9 10 0 6 7 10 16 10 8 0 12 -4 9 -10z m85 -11 c0 -6 -7 -17 -15 -25
-13 -14 -15 -13 -15 4 0 10 3 22 7 25 10 11 23 8 23 -4z m-120 -9 c0 -5 -6
-10 -14 -10 -8 0 -18 5 -21 10 -3 6 3 10 14 10 12 0 21 -4 21 -10z m-587 -17
c-7 -2 -19 -2 -25 0 -7 3 -2 5 12 5 14 0 19 -2 13 -5z m567 -4 c13 -9 12 -10
-2 -5 -10 3 -28 1 -40 -4 -20 -7 -17 -9 17 -10 30 0 36 -3 25 -10 -12 -8 -12
-10 -1 -10 8 0 12 -3 9 -6 -3 -3 -14 -1 -25 5 -10 5 -33 16 -51 23 l-33 13 28
6 c43 10 57 10 73 -2z m650 1 c8 -5 11 -10 5 -10 -5 0 -17 5 -25 10 -8 5 -10
10 -5 10 6 0 17 -5 25 -10z m157 -27 c-7 -6 -46 10 -41 18 3 5 14 3 24 -3 11
-7 18 -13 17 -15z m-984 10 c-7 -2 -21 -2 -30 0 -10 3 -4 5 12 5 17 0 24 -2
18 -5z m284 -19 c2 -13 1 -15 -4 -4 -3 8 -11 19 -17 23 -7 6 -6 7 4 4 8 -2 16
-12 17 -23z m-50 10 c-3 -3 -12 -4 -19 -1 -8 3 -5 6 6 6 11 1 17 -2 13 -5z
m703 -24 c0 -5 -4 -10 -10 -10 -18 0 -11 -15 13 -25 12 -6 21 -16 20 -23 -2
-6 4 -9 12 -6 9 4 15 0 15 -7 1 -10 5 -9 14 4 16 21 26 22 26 2 0 -8 -7 -16
-15 -16 -24 -2 -29 -4 -45 -13 -8 -5 -12 -6 -8 -1 4 4 0 14 -8 22 -8 8 -12 19
-9 24 4 5 -3 9 -14 9 -13 0 -21 7 -22 18 0 10 -3 12 -6 5 -5 -15 -23 -18 -23
-5 0 8 36 30 53 31 4 1 7 -3 7 -9z m-603 -18 c1 -15 -4 -18 -23 -14 -30 5 -30
10 -1 22 12 5 22 9 22 9 1 1 1 -7 2 -17z m653 -2 c0 -5 -4 -10 -10 -10 -5 0
-10 5 -10 10 0 6 5 10 10 10 6 0 10 -4 10 -10z m-997 -17 c-7 -2 -19 -2 -25 0
-7 3 -2 5 12 5 14 0 19 -2 13 -5z m412 -23 c-3 -5 -14 -10 -23 -9 -14 0 -13 2
3 9 27 11 27 11 20 0z m473 -25 c-3 -3 -9 2 -12 12 -6 14 -5 15 5 6 7 -7 10
-15 7 -18z m-575 -12 c-24 -2 -62 -2 -85 0 -24 2 -5 4 42 4 47 0 66 -2 43 -4z
m640 0 c-7 -2 -21 -2 -30 0 -10 3 -4 5 12 5 17 0 24 -2 18 -5z m-43 -174 c0
-38 -4 -69 -10 -69 -5 0 -11 -28 -13 -62 -2 -46 -4 -35 -5 37 -2 110 6 178 19
169 5 -3 9 -36 9 -75z m340 71 c0 -5 -4 -10 -10 -10 -5 0 -10 5 -10 10 0 6 5
10 10 10 6 0 10 -4 10 -10z m-2215 -151 c4 -77 4 -143 0 -147 -9 -10 -117 -8
-187 2 -51 8 -58 7 -58 -8 0 -12 -10 -16 -39 -16 -22 0 -43 5 -46 10 -9 14
-21 12 -40 -7 -14 -14 -18 -14 -26 -2 -5 8 -9 10 -10 4 -4 -24 -18 86 -18 143
-1 34 -5 62 -11 62 -5 0 -10 23 -10 50 l0 50 219 0 219 0 7 -141z m467 61 c-2
-54 -7 -80 -15 -79 -28 3 -39 -2 -33 -16 3 -8 -2 -19 -12 -24 -10 -6 -12 -11
-4 -11 6 0 12 -5 12 -12 0 -6 -9 -3 -20 7 -17 16 -20 31 -20 117 l0 98 48 0
47 0 -3 -80z m613 70 c-12 -5 -14 -9 -6 -9 11 -1 9 -7 -7 -24 -12 -13 -22 -26
-22 -30 0 -8 -37 -47 -45 -47 -3 0 -5 27 -5 60 l0 60 53 -1 c38 0 47 -3 32 -9z
m635 -11 c0 -14 -17 -10 -23 5 -4 10 -1 13 9 9 7 -3 14 -9 14 -14z m-1358 -49
c3 -38 2 -40 -24 -40 -26 0 -28 3 -28 40 0 36 3 40 24 40 21 0 24 -6 28 -40z
m1358 20 c0 -5 -4 -10 -10 -10 -5 0 -10 5 -10 10 0 6 5 10 10 10 6 0 10 -4 10
-10z m467 -32 c-3 -8 -6 -5 -6 6 -1 11 2 17 5 13 3 -3 4 -12 1 -19z m-467 2
c0 -5 -4 -10 -10 -10 -5 0 -10 5 -10 10 0 6 5 10 10 10 6 0 10 -4 10 -10z m0
-40 c0 -11 -4 -20 -10 -20 -5 0 -10 9 -10 20 0 11 5 20 10 20 6 0 10 -9 10
-20z m-43 -107 c-3 -10 -5 -4 -5 12 0 17 2 24 5 18 2 -7 2 -21 0 -30z m-80 1
c-3 -3 -12 -4 -19 -1 -8 3 -5 6 6 6 11 1 17 -2 13 -5z m-887 -44 c0 -5 12 -11
28 -12 17 0 10 -3 -18 -7 -54 -8 -56 -7 -39 13 16 18 29 20 29 6z m1180 -9 c0
-11 3 -26 6 -35 3 -9 1 -16 -6 -16 -6 0 -9 4 -6 9 3 5 -1 11 -9 15 -20 7 -20
46 0 46 8 0 15 -9 15 -19z m30 9 c0 -5 -4 -10 -10 -10 -5 0 -10 5 -10 10 0 6
5 10 10 10 6 0 10 -4 10 -10z m-1270 -14 c0 -3 -4 -8 -10 -11 -5 -3 -10 -1
-10 4 0 6 5 11 10 11 6 0 10 -2 10 -4z m1155 -7 c11 -17 0 -20 -21 -4 -17 13
-17 14 -2 15 9 0 20 -5 23 -11z m-1682 -6 c-7 -2 -19 -2 -25 0 -7 3 -2 5 12 5
14 0 19 -2 13 -5z m937 -13 c0 -5 -9 -10 -19 -10 -11 0 -23 5 -26 10 -4 6 5
10 19 10 14 0 26 -4 26 -10z m798 -15 c-3 -3 -9 2 -12 12 -6 14 -5 15 5 6 7
-7 10 -15 7 -18z m-878 -5 c0 -11 -4 -20 -10 -20 -21 0 -9 -20 15 -26 34 -8
23 -22 -17 -20 -31 2 -33 4 -35 44 -3 39 -1 42 22 42 18 0 25 -5 25 -20z m83
-7 c-7 -2 -19 -2 -25 0 -7 3 -2 5 12 5 14 0 19 -2 13 -5z m-963 -23 c0 -11 -7
-20 -15 -20 -8 0 -15 6 -15 14 0 8 -6 17 -12 19 -7 3 -1 6 15 6 21 1 27 -4 27
-19z m314 4 c15 -14 17 -14 32 0 18 18 28 21 18 5 -3 -6 -1 -15 6 -19 7 -4 -2
-7 -21 -5 -48 4 -46 3 -53 20 -7 19 -1 19 18 -1z m1061 5 c9 -14 -4 -27 -13
-13 -4 6 -14 14 -22 17 -10 4 -8 6 7 6 12 1 25 -4 28 -10z m42 5 c-3 -3 -12
-4 -19 -1 -8 3 -5 6 6 6 11 1 17 -2 13 -5z m125 -19 c-4 -25 -32 -36 -32 -12
0 8 -4 7 -10 -3 -8 -12 -10 -11 -10 7 0 22 12 31 41 32 12 1 15 -6 11 -24z
m52 10 c-4 -8 -8 -15 -10 -15 -2 0 -4 7 -4 15 0 8 4 15 10 15 5 0 7 -7 4 -15z
m226 -5 c0 -5 -4 -10 -10 -10 -5 0 -10 5 -10 10 0 6 5 10 10 10 6 0 10 -4 10
-10z m-1847 -32 c4 -10 7 -10 18 0 18 17 39 15 39 -3 0 -8 -4 -15 -10 -15 -5
0 -10 6 -10 13 0 8 -3 8 -9 -2 -5 -8 -16 -11 -24 -8 -25 10 -29 -6 -5 -20 18
-10 19 -12 6 -13 -10 0 -23 9 -30 20 -7 11 -19 20 -26 20 -7 0 -10 5 -7 10 9
14 52 12 58 -2z m249 -2 c15 1 25 -3 22 -8 -3 -5 -26 -7 -50 -5 -31 4 -49 1
-59 -10 -8 -8 -15 -10 -15 -4 0 21 32 42 54 34 11 -4 33 -7 48 -7z m1228 4 c0
-5 10 -11 23 -11 l22 -2 -22 -4 c-13 -2 -23 -9 -23 -15 0 -5 -5 -8 -12 -6 -16
6 -18 48 -1 48 7 0 13 -4 13 -10z m-987 -7 c-7 -2 -19 -2 -25 0 -7 3 -2 5 12
5 14 0 19 -2 13 -5z m272 -31 c-7 -8 -35 13 -35 26 0 13 3 12 19 -4 10 -10 17
-20 16 -22z m-665 8 c0 -5 -4 -10 -9 -10 -6 0 -13 5 -16 10 -3 6 1 10 9 10 9
0 16 -4 16 -10z m128 -2 c8 -8 6 -16 -10 -30 -12 -10 -22 -18 -23 -18 -1 0 0
14 3 30 5 32 11 37 30 18z m57 2 c-3 -5 -14 -10 -23 -9 -14 0 -13 2 3 9 27 11
27 11 20 0z m1232 -6 c-3 -3 -12 -4 -19 -1 -8 3 -5 6 6 6 11 1 17 -2 13 -5z
m-1540 -50 c-3 -3 -12 -4 -19 -1 -8 3 -5 6 6 6 11 1 17 -2 13 -5z m43 2 c0 -2
-7 -6 -15 -10 -8 -3 -15 -1 -15 4 0 6 7 10 15 10 8 0 15 -2 15 -4z m-55 -44
c-3 -3 -11 0 -18 7 -9 10 -8 11 6 5 10 -3 15 -9 12 -12z m795 6 c46 -2 57 -10
36 -27 -11 -10 -17 -8 -25 6 -10 17 -12 17 -25 1 -14 -20 -36 -24 -36 -8 0 6
5 10 12 10 6 0 3 7 -8 16 -10 8 -14 13 -7 10 6 -3 30 -7 53 -8z m590 2 c0 -5
-7 -10 -16 -10 -8 0 -12 5 -9 10 3 6 10 10 16 10 5 0 9 -4 9 -10z m-33 -35 c8
-8 20 -15 26 -15 7 0 6 -4 -2 -9 -10 -7 -18 -5 -26 5 -8 12 -19 13 -53 6 -24
-6 -39 -6 -36 -1 3 5 0 9 -5 9 -21 0 -11 19 12 23 31 6 67 -1 84 -18z m463 10
c0 -7 -30 -13 -34 -7 -3 4 4 9 15 9 10 1 19 0 19 -2z m-2326 -27 c25 -1 23 -2
-14 -8 l-45 -7 43 -1 c23 -1 42 -6 42 -12 0 -5 8 -10 18 -11 15 0 15 -1 -2 -8
-18 -7 -18 -8 0 -26 17 -17 17 -18 2 -12 -14 5 -18 1 -19 -16 0 -12 -3 -16 -6
-9 -2 6 -13 12 -24 12 -10 0 -19 5 -19 10 0 15 -16 12 -34 -6 -15 -14 -17 -14
-32 0 -14 15 -14 16 4 16 11 0 22 7 26 15 3 10 20 15 48 16 42 2 35 4 -49 15
-45 5 -59 23 -20 25 21 0 21 1 2 10 -16 7 -12 8 14 4 18 -3 48 -6 65 -7z m646
2 c0 -5 -9 -10 -21 -10 -11 0 -17 5 -14 10 3 6 13 10 21 10 8 0 14 -4 14 -10z
m-240 -8 c0 -4 -8 -14 -17 -22 -16 -14 -20 -13 -35 2 -16 16 -15 17 5 21 38 7
47 7 47 -1z m1737 -18 c-3 -3 -12 -4 -19 -1 -8 3 -5 6 6 6 11 1 17 -2 13 -5z
m-1842 -64 c8 -13 -25 -13 -45 0 -12 8 -9 10 12 10 15 0 30 -4 33 -10z m-125
-20 c13 -8 13 -10 -2 -10 -9 0 -20 5 -23 10 -8 13 5 13 25 0z m-260 -47 c0 -7
-4 -13 -10 -13 -5 0 -10 12 -10 28 0 21 2 24 10 12 5 -8 10 -21 10 -27z m38
12 c-3 -3 -9 2 -12 12 -6 14 -5 15 5 6 7 -7 10 -15 7 -18z m110 -13 c2 -7 -3
-12 -12 -12 -9 0 -16 7 -16 16 0 17 22 14 28 -4z m-78 -32 c6 -11 9 -20 8 -20
-2 0 -11 9 -21 20 -9 11 -13 20 -7 20 5 0 14 -9 20 -20z m30 -55 c0 -8 -7 -15
-15 -15 -9 0 -12 6 -9 15 4 8 10 15 15 15 5 0 9 -7 9 -15z m123 -122 c-19 -7
-16 -23 5 -23 14 0 15 -2 2 -10 -10 -6 -17 -5 -23 6 -9 17 -1 34 16 33 9 0 9
-2 0 -6z m167 -57 c0 -8 8 -17 18 -19 11 -3 7 -5 -10 -6 -15 0 -34 6 -43 16
-14 13 -18 14 -25 3 -12 -20 -2 -32 21 -25 11 4 19 2 19 -4 0 -6 8 -11 18 -11
15 -1 15 -2 1 -13 -8 -7 -21 -21 -27 -32 -10 -17 -11 -18 -12 -2 0 9 -6 17
-12 17 -9 0 -8 3 2 10 18 11 7 25 -15 17 -8 -4 -15 -18 -15 -32 0 -37 -15 -30
-28 14 -15 49 -15 51 4 51 8 0 22 7 30 15 20 19 74 20 74 1z m214 -8 c-3 -4
-9 -8 -15 -8 -5 0 -9 4 -9 8 0 5 7 9 15 9 8 0 12 -4 9 -9z m-365 -18 c-9 -5
-28 -6 -45 0 -27 8 -26 8 16 9 32 0 40 -2 29 -9z m636 -19 c-8 -13 -55 -15
-55 -2 0 5 8 7 19 4 10 -3 22 0 26 7 4 6 9 9 12 6 3 -2 2 -9 -2 -15z m-428
-17 c-3 -3 -12 -4 -19 -1 -8 3 -5 6 6 6 11 1 17 -2 13 -5z m-33 -50 c3 -15 -2
-19 -25 -19 -31 0 -39 12 -14 21 8 4 15 13 15 22 0 21 19 2 24 -24z m46 -8 c0
-3 -4 -8 -10 -11 -5 -3 -10 -1 -10 4 0 6 5 11 10 11 6 0 10 -2 10 -4z m-110
-61 c0 -8 -4 -15 -10 -15 -5 0 -10 7 -10 15 0 8 5 15 10 15 6 0 10 -7 10 -15z"/>
<path d="M1708 1623 c5 -10 7 -24 4 -32 -4 -12 -3 -12 10 -1 13 12 13 16 -1
32 -20 23 -24 23 -13 1z"/>
<path d="M1760 1590 c0 -5 9 -10 20 -10 11 0 20 5 20 10 0 6 -9 10 -20 10 -11
0 -20 -4 -20 -10z"/>
<path d="M1770 1560 c0 -5 7 -10 16 -10 8 0 12 5 9 10 -3 6 -10 10 -16 10 -5
0 -9 -4 -9 -10z"/>
<path d="M1177 1783 c-14 -13 -7 -42 8 -37 8 4 15 15 15 25 0 19 -11 25 -23
12z"/>
<path d="M1180 1720 c0 -5 5 -10 10 -10 6 0 10 5 10 10 0 6 -4 10 -10 10 -5 0
-10 -4 -10 -10z"/>
<path d="M2255 1570 c-16 -7 -17 -9 -3 -9 9 -1 20 4 23 9 7 11 7 11 -20 0z"/>
<path d="M2202 1515 c0 -16 2 -22 5 -12 2 9 2 23 0 30 -3 6 -5 -1 -5 -18z"/>
<path d="M2220 1531 c0 -31 14 -41 60 -41 38 0 50 4 53 18 4 16 5 16 6 0 1
-14 10 -18 36 -18 36 0 44 12 22 34 -15 15 -177 21 -177 7z"/>
<path d="M2358 1373 c6 -2 18 -2 25 0 6 3 1 5 -13 5 -14 0 -19 -2 -12 -5z"/>
<path d="M257 586 c-4 -10 -1 -13 9 -9 15 6 19 23 5 23 -5 0 -11 -7 -14 -14z"/>
<path d="M475 200 c-3 -5 -1 -10 4 -10 6 0 11 5 11 10 0 6 -2 10 -4 10 -3 0
-8 -4 -11 -10z"/>
<path d="M461 1996 c12 -10 79 -16 79 -6 0 5 -19 10 -42 10 -23 0 -39 -2 -37
-4z"/>
<path d="M529 1953 c-13 -16 -12 -17 4 -4 9 7 17 15 17 17 0 8 -8 3 -21 -13z"/>
<path d="M598 1933 c7 -3 16 -2 19 1 4 3 -2 6 -13 5 -11 0 -14 -3 -6 -6z"/>
<path d="M177 1518 c1 -24 2 -60 2 -80 1 -35 3 -38 31 -38 35 0 41 19 8 22
-13 0 -3 4 22 7 53 7 58 25 15 49 -43 25 -55 38 -55 61 0 12 -6 21 -12 21 -9
0 -12 -14 -11 -42z m68 -48 c3 -5 -3 -10 -14 -10 -12 0 -21 5 -21 10 0 6 6 10
14 10 8 0 18 -4 21 -10z"/>
<path d="M807 1504 c2 -7 0 -15 -6 -19 -6 -3 -11 -29 -11 -57 l0 -51 43 8 c23
4 52 8 65 8 37 3 29 41 -13 57 -49 19 -44 30 14 30 89 0 141 -19 93 -35 -11
-3 -24 -18 -31 -33 -10 -23 -10 -25 2 -9 17 21 27 22 27 2 0 -9 9 -15 23 -16
21 0 21 -1 2 -9 -19 -8 -19 -9 4 -9 17 -1 22 3 17 15 -3 9 -6 36 -6 61 0 36
-3 44 -15 39 -9 -3 -15 0 -15 8 0 8 -16 16 -37 20 -64 10 -93 7 -93 -9 0 -8
-4 -15 -10 -15 -5 0 -10 6 -10 13 0 6 -11 12 -24 12 -13 0 -22 -5 -19 -11z
m23 -37 c0 -8 -6 -14 -14 -14 -8 0 -12 6 -9 14 3 7 9 13 14 13 5 0 9 -6 9 -13z
m60 -37 c0 -5 -4 -10 -10 -10 -5 0 -10 5 -10 10 0 6 5 10 10 10 6 0 10 -4 10
-10z m120 -12 c0 -19 -2 -20 -10 -8 -13 19 -13 30 0 30 6 0 10 -10 10 -22z"/>
<path d="M1380 1440 c0 -5 9 -10 21 -10 11 0 17 5 14 10 -3 6 -13 10 -21 10
-8 0 -14 -4 -14 -10z"/>
<path d="M1340 1390 c0 -12 28 -25 36 -17 3 3 -4 10 -15 17 -15 7 -21 7 -21 0z"/>
<path d="M943 1373 c9 -2 25 -2 35 0 9 3 1 5 -18 5 -19 0 -27 -2 -17 -5z"/>
<path d="M1930 800 c0 -5 -9 -10 -20 -10 -11 0 -20 -7 -20 -15 0 -11 11 -15
40 -15 36 0 40 3 40 25 0 18 -5 25 -20 25 -11 0 -20 -4 -20 -10z"/>
<path d="M2628 793 c6 -2 18 -2 25 0 6 3 1 5 -13 5 -14 0 -19 -2 -12 -5z"/>
<path d="M2975 779 c-4 -6 -4 -13 -1 -16 8 -8 36 5 36 17 0 13 -27 13 -35 -1z"/>
<path d="M1800 770 c0 -5 7 -10 15 -10 8 0 15 5 15 10 0 6 -7 10 -15 10 -8 0
-15 -4 -15 -10z"/>
<path d="M850 746 c0 -15 21 -26 48 -26 13 1 11 4 -6 13 -12 7 -19 16 -16 20
4 4 0 7 -9 7 -9 0 -17 -6 -17 -14z"/>
<path d="M2178 753 c7 -3 16 -2 19 1 4 3 -2 6 -13 5 -11 0 -14 -3 -6 -6z"/>
<path d="M2677 746 c-5 -11 1 -12 31 -4 58 15 60 16 16 17 -27 1 -44 -4 -47
-13z"/>
<path d="M2640 726 c0 -2 7 -7 16 -10 8 -3 12 -2 9 4 -6 10 -25 14 -25 6z"/>
<path d="M2742 714 c-7 -8 -8 -14 -3 -14 10 0 25 19 20 25 -2 1 -10 -3 -17
-11z"/>
<path d="M928 698 c5 -5 16 -8 23 -6 8 3 3 7 -10 11 -17 4 -21 3 -13 -5z"/>
<path d="M1040 688 c0 -33 18 -48 57 -48 38 0 41 8 13 33 -25 21 -30 21 -30 2
0 -8 -7 -15 -16 -15 -11 0 -15 6 -11 20 3 11 1 23 -4 26 -5 3 -9 -5 -9 -18z"/>
<path d="M1321 674 c-12 -14 -11 -16 4 -12 10 1 20 9 23 16 5 17 -10 15 -27
-4z"/>
<path d="M2900 680 c0 -5 5 -10 11 -10 5 0 7 5 4 10 -3 6 -8 10 -11 10 -2 0
-4 -4 -4 -10z"/>
<path d="M1672 650 c14 -22 63 -27 71 -7 3 7 6 6 6 -5 1 -9 10 -20 21 -23 11
-3 27 -13 35 -22 14 -14 14 -18 -1 -41 -15 -24 -15 -25 1 -19 34 14 71 19 56
9 -10 -7 -2 -11 27 -14 22 -2 38 0 36 4 -10 15 -74 40 -86 32 -10 -5 -10 -4
-1 6 9 10 22 10 60 2 26 -6 75 -15 108 -19 52 -6 56 -8 30 -14 -28 -6 -28 -7
10 -8 22 -1 51 -4 64 -8 17 -4 22 -3 17 5 -11 18 26 2 45 -20 9 -10 24 -18 33
-18 10 0 15 -4 11 -10 -3 -5 7 -5 25 1 28 10 42 29 20 29 -5 0 -10 -4 -10 -10
0 -5 -7 -10 -15 -10 -8 0 -15 4 -15 10 0 5 -11 12 -25 16 -26 6 -26 15 -2 21
66 15 67 15 61 0 -4 -12 5 -15 55 -13 58 1 76 8 49 19 -13 6 52 12 86 8 11 -1
23 4 27 11 6 9 13 9 33 -2 14 -7 28 -11 31 -8 3 3 -8 11 -25 18 -27 11 -44 10
-108 -3 -71 -16 -145 -16 -234 -2 -15 2 -29 1 -32 -3 -2 -4 -30 -5 -63 -3 -42
2 -52 6 -38 12 14 5 7 8 -27 8 -27 1 -48 5 -48 10 0 5 -17 11 -37 14 -38 5
-134 31 -163 44 -8 3 -22 5 -31 4 -9 -1 -28 3 -42 8 -25 10 -26 9 -15 -9z"/>
<path d="M2760 656 c0 -2 9 -6 20 -9 11 -3 18 -1 14 4 -5 9 -34 13 -34 5z"/>
<path d="M1640 625 c0 -8 5 -15 10 -15 6 0 10 7 10 15 0 8 -4 15 -10 15 -5 0
-10 -7 -10 -15z"/>
<path d="M2850 630 c0 -13 11 -13 30 0 12 8 11 10 -7 10 -13 0 -23 -4 -23 -10z"/>
<path d="M2973 626 c0 -8 6 -12 14 -9 7 3 13 9 13 14 0 5 -6 9 -13 9 -8 0 -14
-6 -14 -14z"/>
<path d="M1248 623 c7 -3 16 -2 19 1 4 3 -2 6 -13 5 -11 0 -14 -3 -6 -6z"/>
<path d="M2638 623 c6 -2 18 -2 25 0 6 3 1 5 -13 5 -14 0 -19 -2 -12 -5z"/>
<path d="M1580 608 c0 -5 9 -8 19 -8 11 0 22 3 24 8 3 4 -6 7 -19 7 -13 0 -24
-3 -24 -7z"/>
<path d="M2673 613 c-17 -6 -16 -28 2 -43 10 -9 15 -9 15 -1 0 6 -4 11 -10 11
-18 0 -10 17 13 28 22 11 4 15 -20 5z"/>
<path d="M2563 603 c-26 -5 -29 -15 -10 -31 18 -15 67 -3 67 17 0 14 2 14 10
1 8 -13 10 -12 10 3 0 10 -8 17 -20 17 -10 0 -24 -8 -30 -17 -11 -17 -11 -17
-6 0 3 9 4 16 3 16 -1 -1 -12 -4 -24 -6z"/>
<path d="M2889 582 c10 -35 6 -42 -23 -42 -15 0 -17 -3 -8 -9 11 -7 10 -10 -3
-15 -24 -9 -27 -8 -19 6 4 7 3 8 -4 4 -7 -4 -23 4 -37 18 -31 31 -30 31 -32 6
-1 -12 5 -20 15 -21 9 0 4 -5 -13 -11 -16 -6 -32 -14 -35 -18 -3 -4 -17 -10
-32 -14 -33 -8 -38 -26 -5 -19 12 2 4 -5 -18 -16 -43 -21 -62 -18 -30 5 18 13
17 14 -15 9 l-35 -6 25 16 c22 14 23 15 3 10 -16 -4 -25 0 -33 15 -6 11 -16
20 -23 20 -8 0 -8 -3 2 -9 19 -12 23 -61 5 -61 -8 0 -14 -5 -14 -11 0 -6 9 -9
20 -6 23 6 25 1 8 -17 -17 -16 -44 -26 -87 -31 -20 -2 -28 -1 -18 1 24 7 21
34 -4 34 -11 0 -18 4 -14 10 3 5 12 7 20 3 21 -8 19 20 -3 33 -15 10 -18 8
-19 -9 -1 -11 -8 -24 -15 -28 -10 -7 -10 -9 0 -9 22 0 13 -19 -13 -26 -14 -3
-25 -10 -25 -14 0 -4 11 -5 25 -2 16 3 25 0 25 -8 0 -7 -6 -10 -14 -7 -7 3
-17 2 -22 -2 -15 -14 -74 -21 -74 -10 0 6 4 8 8 5 11 -7 38 11 29 20 -8 8 -85
-15 -94 -29 -3 -5 3 -6 15 -3 11 4 23 2 27 -4 3 -5 -1 -10 -9 -10 -9 0 -16 -4
-16 -10 0 -5 25 -10 55 -10 30 0 55 5 55 10 0 6 23 10 50 10 28 0 50 -4 50 -9
0 -4 54 -10 120 -13 66 -3 123 -8 127 -11 13 -13 -19 -100 -47 -127 -32 -32
-36 -40 -19 -40 14 0 109 91 109 105 0 6 18 18 40 29 36 18 43 18 99 3 l61
-15 0 179 c0 137 -3 179 -12 179 -23 0 -39 -16 -32 -33 5 -13 1 -17 -16 -17
-13 0 -19 4 -14 12 4 6 3 8 -4 4 -6 -3 -20 3 -31 15 l-21 22 9 -31z m-91 -84
c-4 -12 -69 -40 -77 -33 -8 8 12 25 30 25 10 0 19 5 19 10 0 6 7 10 16 10 9 0
14 -6 12 -12z m100 -176 c2 -16 -3 -25 -20 -31 -15 -6 -24 -5 -27 3 -2 6 -10
17 -18 24 -11 11 -13 11 -13 0 0 -10 -3 -9 -10 2 -14 21 -12 28 8 32 37 8 77
-7 80 -30z"/>
<path d="M700 590 c0 -5 5 -10 10 -10 6 0 10 5 10 10 0 6 -4 10 -10 10 -5 0
-10 -4 -10 -10z"/>
<path d="M1740 590 c0 -5 5 -10 10 -10 6 0 10 5 10 10 0 6 -4 10 -10 10 -5 0
-10 -4 -10 -10z"/>
<path d="M2775 590 c-3 -5 -1 -10 4 -10 6 0 11 5 11 10 0 6 -2 10 -4 10 -3 0
-8 -4 -11 -10z"/>
<path d="M1700 570 c0 -5 -15 -7 -32 -5 l-33 5 30 -12 c17 -6 35 -17 40 -24 7
-8 16 -9 30 -3 18 9 18 9 -3 5 -19 -4 -21 -2 -11 10 9 11 9 14 0 14 -7 0 -9 5
-6 10 3 6 1 10 -4 10 -6 0 -11 -4 -11 -10z"/>
<path d="M1751 566 c-19 -23 14 -28 40 -5 l22 19 -25 0 c-14 0 -31 -6 -37 -14z"/>
<path d="M2810 550 c0 -5 7 -10 15 -10 8 0 15 5 15 10 0 6 -7 10 -15 10 -8 0
-15 -4 -15 -10z"/>
<path d="M2405 540 c-18 -8 -17 -9 8 -9 16 -1 26 3 22 9 -3 6 -7 10 -8 9 -1 0
-11 -4 -22 -9z"/>
<path d="M2722 538 c5 -15 28 -23 28 -10 0 5 -7 13 -16 16 -10 4 -14 1 -12 -6z"/>
<path d="M2210 530 c-9 -6 -10 -10 -3 -10 6 0 15 5 18 10 8 12 4 12 -15 0z"/>
<path d="M1955 520 c-3 -6 1 -7 9 -4 18 7 21 14 7 14 -6 0 -13 -4 -16 -10z"/>
<path d="M2471 513 c-7 -8 -10 -17 -6 -21 3 -3 9 -2 13 4 4 6 21 16 37 21 l30
11 -30 -1 c-17 0 -36 -6 -44 -14z"/>
<path d="M2683 515 c-19 -21 -16 -27 7 -13 11 7 20 16 20 20 0 12 -14 9 -27
-7z"/>
<path d="M1720 500 c0 -5 5 -10 10 -10 6 0 10 5 10 10 0 6 -4 10 -10 10 -5 0
-10 -4 -10 -10z"/>
<path d="M2100 501 c0 -5 6 -21 14 -36 10 -19 16 -23 22 -14 4 7 3 14 -3 16
-6 2 -9 13 -6 23 4 14 0 20 -11 20 -9 0 -16 -4 -16 -9z"/>
<path d="M2153 479 c9 -6 15 -14 12 -20 -10 -15 5 -10 23 8 16 16 16 16 0 10
-10 -3 -18 -2 -18 3 0 6 -8 10 -17 10 -17 -1 -17 -1 0 -11z"/>
<path d="M2368 483 c-10 -2 -18 -9 -18 -14 0 -14 16 -11 30 6 7 8 11 14 9 14
-2 -1 -12 -3 -21 -6z"/>
<path d="M2058 468 c9 -9 15 -9 24 0 9 9 7 12 -12 12 -19 0 -21 -3 -12 -12z"/>
<path d="M2310 470 c0 -5 5 -10 10 -10 6 0 10 5 10 10 0 6 -4 10 -10 10 -5 0
-10 -4 -10 -10z"/>
<path d="M1720 460 c0 -5 5 -10 10 -10 6 0 10 5 10 10 0 6 -4 10 -10 10 -5 0
-10 -4 -10 -10z"/>
<path d="M2280 460 c-9 -6 -10 -10 -3 -10 6 0 15 5 18 10 8 12 4 12 -15 0z"/>
<path d="M2062 449 c-48 -10 -54 -23 -7 -14 22 4 42 9 44 11 9 9 -6 10 -37 3z"/>
<path d="M1876 442 c-10 -9 -7 -22 5 -22 5 0 7 4 4 10 -3 5 0 7 8 5 7 -3 24
-2 38 3 22 9 21 10 -13 10 -20 0 -39 -3 -42 -6z"/>
<path d="M2170 430 c-8 -5 -10 -10 -5 -10 6 0 17 5 25 10 8 5 11 10 5 10 -5 0
-17 -5 -25 -10z"/>
<path d="M2113 423 c-15 -5 -17 -23 -4 -23 5 0 11 7 15 15 3 8 4 15 3 14 -1 0
-8 -3 -14 -6z"/>
<path d="M2284 414 c9 -8 16 -23 17 -32 0 -10 3 -12 5 -5 7 15 -13 53 -27 53
-6 0 -3 -7 5 -16z"/>
<path d="M2511 414 c0 -11 3 -14 6 -6 3 7 2 16 -1 19 -3 4 -6 -2 -5 -13z"/>
<path d="M380 410 c0 -5 -12 -10 -26 -10 -33 0 -64 -17 -64 -35 0 -8 8 -15 18
-15 14 0 15 -2 2 -10 -13 -8 -12 -10 3 -10 9 0 17 7 17 15 0 8 5 15 10 15 6 0
10 4 10 10 0 5 -7 7 -15 4 -8 -4 -15 -1 -15 4 0 6 20 12 44 14 36 2 41 5 30
16 -8 7 -14 8 -14 2z"/>
<path d="M1890 411 c0 -11 26 -22 34 -14 3 4 6 11 6 17 0 6 -5 4 -10 -4 -6
-10 -10 -11 -10 -2 0 6 -4 12 -10 12 -5 0 -10 -4 -10 -9z"/>
<path d="M1975 410 c3 -5 10 -10 16 -10 5 0 9 5 9 10 0 6 -7 10 -16 10 -8 0
-12 -4 -9 -10z"/>
<path d="M2060 405 c0 -8 7 -15 15 -15 9 0 12 6 9 15 -4 8 -10 15 -15 15 -5 0
-9 -7 -9 -15z"/>
<path d="M2381 404 c0 -11 3 -14 6 -6 3 7 2 16 -1 19 -3 4 -6 -2 -5 -13z"/>
<path d="M2340 390 c0 -5 7 -7 15 -4 8 4 15 8 15 10 0 2 -7 4 -15 4 -8 0 -15
-4 -15 -10z"/>
<path d="M1655 379 c-14 -7 -5 -8 32 -4 30 3 54 1 58 -5 3 -5 18 -9 33 -9 21
1 22 2 7 6 -11 3 -24 9 -29 14 -13 12 -75 10 -101 -2z"/>
<path d="M2110 380 c-8 -5 -10 -10 -5 -10 6 0 17 5 25 10 8 5 11 10 5 10 -5 0
-17 -5 -25 -10z"/>
<path d="M1970 370 c-8 -5 -10 -10 -5 -10 6 0 11 -10 12 -22 1 -11 6 -24 11
-27 6 -3 12 -14 14 -25 2 -15 -7 -21 -44 -33 -27 -7 -48 -17 -48 -22 0 -4 -25
-13 -55 -20 -42 -10 -55 -17 -55 -31 0 -25 -10 -50 -21 -50 -5 0 -9 9 -9 20 0
11 5 20 10 20 6 0 10 5 10 10 0 6 -7 10 -15 10 -10 0 -15 -11 -15 -35 0 -34
-1 -34 -68 -54 -38 -12 -83 -24 -100 -27 -26 -5 -29 -8 -17 -20 7 -7 11 -23 8
-34 -5 -20 -1 -20 206 -20 116 0 211 3 211 6 0 3 -7 13 -16 21 -12 13 -15 31
-12 78 3 53 8 66 36 93 18 17 32 39 32 49 0 15 2 16 10 3 8 -13 10 -13 10 1 0
19 30 35 30 16 0 -9 2 -9 8 -1 4 6 29 14 56 17 27 4 53 11 56 18 4 6 10 10 14
10 20 -3 26 1 26 15 0 12 -7 14 -32 9 -18 -4 -35 -10 -38 -14 -7 -9 -152 -42
-158 -36 -3 3 1 5 9 6 8 0 4 4 -8 9 -13 5 -23 18 -23 29 0 11 -5 23 -12 27 -8
5 -6 10 8 15 13 5 14 8 4 8 -8 0 -22 -4 -30 -9z m30 -140 c0 -5 -4 -10 -10
-10 -5 0 -10 5 -10 10 0 6 5 10 10 10 6 0 10 -4 10 -10z"/>
<path d="M1574 361 c12 -5 16 -10 9 -14 -6 -4 -18 -4 -27 -1 -18 7 -86 -14
-86 -27 0 -5 7 -9 15 -9 8 0 15 -7 15 -16 0 -11 5 -14 16 -10 9 3 18 6 20 6
10 0 3 39 -8 43 -7 3 -3 6 9 6 17 1 21 -3 17 -16 -5 -15 -4 -16 5 -3 10 13 12
13 21 0 8 -12 10 -11 10 8 0 16 6 22 23 23 21 1 21 1 -3 9 -32 10 -62 11 -36
1z"/>
<path d="M1902 354 c-14 -16 -5 -18 17 -5 7 5 9 11 5 14 -5 3 -15 -1 -22 -9z"/>
<path d="M830 349 c0 -5 5 -7 10 -4 6 3 10 8 10 11 0 2 -4 4 -10 4 -5 0 -10
-5 -10 -11z"/>
<path d="M928 353 c7 -3 16 -2 19 1 4 3 -2 6 -13 5 -11 0 -14 -3 -6 -6z"/>
<path d="M1843 349 c-14 -14 -6 -39 13 -39 20 0 17 18 -3 23 -17 4 -17 5 0 6
9 0 17 6 17 11 0 13 -13 13 -27 -1z"/>
<path d="M2178 343 c7 -3 16 -2 19 1 4 3 -2 6 -13 5 -11 0 -14 -3 -6 -6z"/>
<path d="M2057 321 c-3 -14 -1 -18 9 -14 8 3 14 11 14 19 0 21 -17 17 -23 -5z"/>
<path d="M1600 320 c0 -5 5 -10 10 -10 6 0 10 5 10 10 0 6 -4 10 -10 10 -5 0
-10 -4 -10 -10z"/>
<path d="M2100 320 c0 -5 5 -10 10 -10 6 0 10 5 10 10 0 6 -4 10 -10 10 -5 0
-10 -4 -10 -10z"/>
<path d="M1720 306 c0 -2 9 -6 20 -9 11 -3 18 -1 14 4 -5 9 -34 13 -34 5z"/>
<path d="M1410 289 c0 -5 5 -7 10 -4 6 3 10 8 10 11 0 2 -4 4 -10 4 -5 0 -10
-5 -10 -11z"/>
<path d="M1708 288 c5 -5 16 -8 23 -6 8 3 3 7 -10 11 -17 4 -21 3 -13 -5z"/>
<path d="M1925 290 c-3 -6 1 -7 9 -4 18 7 21 14 7 14 -6 0 -13 -4 -16 -10z"/>
<path d="M1360 280 c11 -7 11 -10 2 -10 -11 0 -62 -46 -62 -56 0 -10 31 -2 44
12 9 9 30 18 48 21 17 2 37 11 45 18 11 12 7 13 -23 8 -23 -4 -35 -2 -31 3 3
6 -4 11 -16 11 -17 2 -19 0 -7 -7z"/>
<path d="M1470 280 c0 -5 5 -10 10 -10 6 0 10 5 10 10 0 6 -4 10 -10 10 -5 0
-10 -4 -10 -10z"/>
<path d="M1660 279 c0 -5 5 -7 10 -4 6 3 10 8 10 11 0 2 -4 4 -10 4 -5 0 -10
-5 -10 -11z"/>
<path d="M1804 267 c2 -12 -1 -30 -6 -40 -8 -17 -7 -18 14 -12 12 4 25 12 26
16 2 5 12 9 22 9 10 0 21 4 24 9 4 5 -3 7 -14 4 -11 -3 -20 -1 -20 4 0 5 -11
15 -25 21 -23 11 -24 10 -21 -11z"/>
<path d="M1271 276 c2 -2 18 -6 34 -10 22 -5 26 -4 15 4 -14 9 -59 15 -49 6z"/>
<path d="M1160 251 c0 -4 -17 -8 -37 -7 -27 1 -38 -3 -41 -15 -2 -13 4 -17 22
-15 15 0 26 7 26 15 0 10 3 11 14 2 10 -9 15 -8 19 4 4 8 13 12 22 9 19 -8 20
-24 0 -24 -8 0 -15 -4 -15 -10 0 -5 -10 -10 -22 -11 -22 0 -22 -1 -3 -8 23
-10 85 -3 100 10 5 5 17 9 27 9 9 0 22 9 27 19 14 25 -4 32 -53 21 -21 -4 -36
-4 -36 1 0 5 -11 9 -25 9 -14 0 -25 -4 -25 -9z"/>
<path d="M1545 250 c-8 -13 5 -13 25 0 13 8 13 10 -2 10 -9 0 -20 -4 -23 -10z"/>
<path d="M1426 224 c-8 -22 -8 -22 14 -34 16 -9 18 -8 14 5 -4 8 -1 15 6 15 7
0 6 5 -4 15 -18 19 -22 19 -30 -1z"/>
<path d="M1581 224 c0 -11 3 -14 6 -6 3 7 2 16 -1 19 -3 4 -6 -2 -5 -13z"/>
<path d="M1600 225 c0 -8 5 -15 10 -15 6 0 10 7 10 15 0 8 -4 15 -10 15 -5 0
-10 -7 -10 -15z"/>
<path d="M1711 224 c0 -11 3 -14 6 -6 3 7 2 16 -1 19 -3 4 -6 -2 -5 -13z"/>
<path d="M1635 209 c-31 -7 -41 -14 -41 -29 0 -13 7 -20 18 -20 11 0 18 7 18
20 0 11 7 20 15 20 8 0 15 -4 15 -10 0 -5 4 -10 8 -10 4 0 8 9 8 20 0 11 0 20
-1 19 0 -1 -18 -5 -40 -10z"/>
<path d="M1385 190 c-3 -6 1 -7 9 -4 18 7 21 14 7 14 -6 0 -13 -4 -16 -10z"/>
<path d="M1500 185 c0 -9 5 -13 10 -10 6 4 10 -5 10 -19 0 -16 6 -26 15 -26
24 0 17 36 -10 54 -23 15 -25 15 -25 1z"/>
<path d="M1320 179 c-12 -9 -12 -10 4 -5 11 4 23 1 27 -6 4 -7 11 -9 16 -5 4
5 1 12 -7 17 -19 12 -22 12 -40 -1z"/>
<path d="M1215 170 c-3 -5 -13 -7 -23 -4 -14 5 -15 4 -2 -5 13 -9 13 -11 -2
-11 -10 0 -18 -4 -18 -10 0 -16 37 -12 44 5 3 8 12 15 20 15 8 0 18 5 21 10 3
6 -3 10 -14 10 -11 0 -22 -4 -26 -10z"/>
<path d="M765 160 c-21 -4 -41 -13 -43 -19 -2 -6 -13 -11 -24 -11 -33 0 -12
-13 27 -17 36 -4 44 4 23 25 -9 9 -6 12 15 12 15 0 27 -4 27 -10 0 -5 9 -10
20 -10 11 0 20 6 20 13 0 8 4 7 10 -3 6 -10 10 -11 10 -2 0 6 8 12 18 13 14 0
14 2 -3 9 -24 10 -47 10 -100 0z"/>
<path d="M1386 148 c12 -38 44 -62 44 -33 0 8 -4 15 -10 15 -5 0 -10 9 -10 20
0 11 -7 20 -16 20 -11 0 -14 -6 -8 -22z"/>
<path d="M1336 147 c3 -10 9 -15 12 -12 3 3 0 11 -7 18 -10 9 -11 8 -5 -6z"/>
<path d="M1660 139 c0 -11 5 -17 10 -14 6 3 10 13 10 21 0 8 -4 14 -10 14 -5
0 -10 -9 -10 -21z"/>
<path d="M1127 136 c-4 -11 -13 -16 -22 -12 -8 3 -17 1 -21 -5 -3 -6 -13 -8
-21 -5 -8 3 -11 1 -8 -4 3 -6 1 -10 -6 -10 -7 0 -10 -2 -8 -5 3 -2 22 2 44 9
26 9 48 11 65 5 21 -8 22 -7 9 3 -9 7 -18 20 -21 27 -3 12 -6 11 -11 -3z"/>
<path d="M1620 140 c0 -5 -6 -10 -12 -10 -27 0 -88 -21 -88 -30 0 -6 7 -10 15
-10 8 0 15 3 15 8 0 4 16 7 36 8 20 0 40 7 45 15 12 19 11 29 -1 29 -5 0 -10
-4 -10 -10z"/>
<path d="M2737 134 c-4 -4 -7 -14 -7 -22 0 -12 9 -13 46 -8 70 9 91 27 27 23
-29 -2 -54 1 -55 5 -2 5 -7 6 -11 2z"/>
<path d="M1371 118 c0 -9 -7 -18 -13 -21 -7 -2 -10 -8 -5 -12 11 -13 29 11 24
31 -4 16 -5 16 -6 2z"/>
<path d="M2633 113 c3 -5 -18 -9 -46 -10 -28 -1 -65 -8 -81 -14 -27 -12 -28
-13 -7 -20 11 -5 21 -14 20 -21 0 -10 -2 -10 -6 0 -6 16 -43 16 -43 0 0 -9 -4
-8 -10 2 -9 13 -11 13 -19 1 -9 -14 -21 -18 -71 -25 -14 -2 -33 -7 -42 -11 -9
-4 -22 -4 -28 0 -5 3 -10 1 -10 -4 0 -17 103 -13 146 5 21 9 65 17 98 17 34 1
53 3 43 5 -33 6 -17 21 31 28 26 4 50 12 54 18 14 20 8 36 -13 36 -11 0 -18
-3 -16 -7z"/>
<path d="M1251 101 c-15 -10 -8 -41 9 -41 5 0 10 9 10 20 0 11 7 20 15 20 8 0
15 -7 15 -15 0 -17 25 -21 35 -6 13 22 -56 40 -84 22z"/>
<path d="M680 90 c0 -8 34 -20 58 -20 6 0 12 6 12 13 0 7 -15 13 -35 14 -19 1
-35 -2 -35 -7z"/>
<path d="M1120 82 c0 -12 -3 -22 -7 -22 -5 0 -13 -11 -19 -24 -10 -21 -8 -23
15 -22 24 1 26 4 23 41 -4 44 -12 62 -12 27z"/>
<path d="M1470 85 c0 -8 5 -15 10 -15 6 0 10 7 10 15 0 8 -4 15 -10 15 -5 0
-10 -7 -10 -15z"/>
<path d="M990 80 c0 -5 5 -10 11 -10 5 0 7 5 4 10 -3 6 -8 10 -11 10 -2 0 -4
-4 -4 -10z"/>
<path d="M938 73 c6 -2 18 -2 25 0 6 3 1 5 -13 5 -14 0 -19 -2 -12 -5z"/>
<path d="M1410 70 c0 -5 5 -10 10 -10 6 0 10 5 10 10 0 6 -4 10 -10 10 -5 0
-10 -4 -10 -10z"/>
<path d="M803 63 c-7 -2 -13 -11 -13 -19 0 -8 -7 -11 -17 -8 -15 5 -16 4 -3
-5 18 -13 43 -14 35 -2 -3 5 2 17 11 25 15 16 11 19 -13 9z"/>
<path d="M1180 50 c0 -17 5 -19 26 -16 31 6 40 13 30 23 -4 4 -11 2 -15 -6 -7
-10 -10 -9 -14 3 -9 23 -27 20 -27 -4z"/>
<path d="M1335 63 c-22 -6 -35 -21 -35 -40 0 -7 7 -10 16 -6 9 3 25 6 37 7 15
1 23 9 25 24 3 22 -3 25 -43 15z"/>
<path d="M970 46 c0 -8 6 -17 13 -19 6 -3 3 -6 -8 -7 l-20 -1 20 -9 c11 -5 34
-9 52 -9 25 -1 31 3 27 14 -4 8 -15 15 -25 15 -11 0 -22 7 -25 15 -8 19 -34
20 -34 1z"/>
<path d="M1050 51 c0 -10 19 -25 25 -20 1 2 -3 10 -11 17 -8 7 -14 8 -14 3z"/>
<path d="M2600 46 c0 -8 -10 -22 -22 -30 -21 -15 -21 -16 -3 -16 27 0 41 11
49 38 6 16 3 22 -8 22 -9 0 -16 -6 -16 -14z"/>
<path d="M720 15 c14 -8 36 -14 50 -14 23 0 23 1 5 8 -11 4 -33 11 -50 15
l-30 6 25 -15z"/>
<path d="M1250 15 c0 -8 5 -15 10 -15 6 0 10 7 10 15 0 8 -4 15 -10 15 -5 0
-10 -7 -10 -15z"/>
<path d="M1455 21 c-6 -5 -19 -11 -30 -14 -13 -3 -9 -5 13 -6 22 -1 32 4 32
14 0 17 -2 18 -15 6z"/>
<path d="M880 10 c0 -5 5 -10 11 -10 5 0 7 5 4 10 -3 6 -8 10 -11 10 -2 0 -4
-4 -4 -10z"/>
<path d="M1218 13 c7 -3 16 -2 19 1 4 3 -2 6 -13 5 -11 0 -14 -3 -6 -6z"/>
<path d="M818 3 c7 -3 16 -2 19 1 4 3 -2 6 -13 5 -11 0 -14 -3 -6 -6z"/>
</g>
</svg>
