<?xml version="1.0" standalone="no"?>
<!DOCTYPE svg PUBLIC "-//W3C//DTD SVG 20010904//EN"
 "http://www.w3.org/TR/2001/REC-SVG-20010904/DTD/svg10.dtd">
<svg version="1.0" xmlns="http://www.w3.org/2000/svg"
 width="284.000000pt" height="177.000000pt" viewBox="0 0 284.000000 177.000000"
 preserveAspectRatio="xMidYMid meet">

<g transform="translate(0.000000,177.000000) scale(0.100000,-0.100000)"
fill="#000000" stroke="none">
<path d="M0 1651 c0 -71 4 -122 10 -126 6 -4 28 -8 50 -10 l40 -4 1 42 c1 23
1 45 1 48 0 3 3 22 8 42 5 22 4 37 -1 37 -6 0 -5 8 1 19 5 11 10 31 10 45 0
25 -2 26 -60 26 l-60 0 0 -119z"/>
<path d="M130 1742 c0 -17 8 -32 20 -40 24 -15 18 -32 -11 -32 -26 0 -24 -27
4 -51 l22 -19 -22 -6 c-13 -3 -23 -12 -23 -19 0 -10 7 -11 28 -6 15 5 62 6
105 3 73 -4 77 -4 77 16 0 11 5 24 11 28 7 4 9 22 4 50 -4 30 -1 52 10 73 l16
31 -121 0 -120 0 0 -28z"/>
<path d="M377 1688 c-10 -121 -9 -166 3 -148 5 8 7 23 4 33 -3 9 -1 17 4 17 5
0 12 -8 14 -18 4 -14 22 -21 76 -30 39 -7 86 -12 105 -12 19 0 47 -7 63 -14
16 -8 58 -18 94 -21 36 -4 76 -9 90 -11 31 -6 83 -11 133 -13 21 0 36 -5 33
-10 -3 -5 -18 -7 -33 -6 -59 6 -267 13 -245 8 12 -2 22 -8 22 -13 0 -4 -9 -6
-20 -3 -29 8 -27 -35 3 -47 12 -5 16 -9 10 -9 -7 -1 -13 -8 -13 -17 0 -10 -6
-14 -14 -11 -8 3 -17 0 -19 -8 -6 -13 16 -15 29 -2 10 10 46 9 40 -1 -3 -5 9
-8 26 -8 21 1 34 7 40 21 8 18 8 18 4 -2 -3 -16 1 -23 11 -23 10 0 14 6 10 20
-3 11 -1 18 4 14 5 -3 9 -11 9 -19 0 -16 108 -26 114 -10 3 6 5 4 5 -2 1 -7 6
-13 12 -13 6 0 8 9 4 23 -6 21 -5 21 6 2 18 -30 19 -31 30 -15 8 11 12 12 16
3 8 -20 26 -15 21 5 -3 11 0 19 8 19 7 0 11 -3 9 -7 -2 -3 0 -12 5 -19 6 -10
10 -8 15 8 5 17 10 20 20 11 9 -7 15 -8 19 -1 4 6 13 8 20 5 8 -3 17 0 21 6 6
9 9 9 15 0 5 -8 13 -9 21 -4 8 4 35 7 62 6 l47 -2 -15 30 c-8 16 -15 33 -15
37 1 4 10 -9 21 -29 23 -46 44 -41 60 12 8 27 8 43 0 58 -14 26 -14 35 0 26 7
-4 10 -1 7 7 -3 8 -42 24 -89 36 -46 12 -185 54 -309 94 -147 47 -245 73 -282
75 -32 1 -62 5 -67 8 -5 4 -13 1 -17 -5 -5 -8 -3 -9 7 -4 12 8 12 6 0 -8 -12
-15 -31 -15 -31 -1 0 3 5 2 12 -2 7 -4 8 -3 4 5 -5 8 -15 6 -33 -9 -30 -23
-47 -26 -40 -6 4 11 0 13 -16 10 -61 -14 -97 -12 -97 4 0 23 -17 2 -23 -28 -2
-14 -5 1 -6 33 -2 85 -17 69 -24 -25z m962 -206 c7 -13 6 -19 -2 -19 -7 0 -13
9 -13 19 0 10 1 18 3 18 1 0 7 -8 12 -18z m-149 -17 c14 -19 14 -19 -2 -6 -10
7 -18 18 -18 24 0 6 1 8 3 6 1 -2 9 -13 17 -24z m-46 -1 c3 -8 2 -12 -4 -9 -6
3 -10 10 -10 16 0 14 7 11 14 -7z m150 0 c3 -8 2 -12 -4 -9 -6 3 -10 10 -10
16 0 14 7 11 14 -7z m-241 -1 c-7 -2 -21 -2 -30 0 -10 3 -4 5 12 5 17 0 24 -2
18 -5z m-256 -69 c-3 -3 -12 -4 -19 -1 -8 3 -5 6 6 6 11 1 17 -2 13 -5z m151
-24 c-15 -23 -43 -26 -51 -6 -4 10 -1 13 8 10 8 -3 22 -1 32 5 25 14 25 14 11
-9z m-64 -6 c3 -8 2 -12 -4 -9 -6 3 -10 10 -10 16 0 14 7 11 14 -7z"/>
<path d="M955 1760 c4 -6 13 -9 21 -6 8 3 14 1 14 -5 0 -6 5 -7 10 -4 6 3 10
1 10 -5 0 -6 4 -9 8 -6 13 8 92 -15 87 -25 -3 -4 -16 -5 -28 0 -12 4 -35 7
-52 7 -16 -1 -33 4 -37 9 -5 6 -8 3 -8 -6 0 -9 7 -19 15 -23 8 -3 15 -1 15 5
0 6 7 3 16 -6 13 -12 19 -13 31 -4 11 10 14 10 11 -2 -2 -8 2 -13 9 -12 7 2
10 -3 7 -10 -3 -8 4 -13 17 -14 14 -1 18 2 12 11 -4 6 -1 4 8 -6 9 -9 20 -14
23 -10 4 3 12 0 17 -8 8 -11 9 -9 4 10 l-6 25 20 -25 c16 -20 23 -22 32 -13 9
9 9 16 1 25 -7 10 -8 18 -1 28 9 13 10 13 6 0 -6 -21 32 -72 46 -64 7 4 9 4 5
-1 -4 -4 -1 -14 7 -21 15 -16 29 -19 20 -5 -13 23 16 19 31 -3 10 -17 24 -25
39 -24 13 1 22 5 19 9 -2 4 1 20 8 35 l13 28 5 -37 c3 -21 9 -37 14 -36 5 0
13 -5 17 -13 7 -10 9 -9 9 4 0 21 -17 32 -24 16 -3 -7 -3 -1 0 14 4 18 0 32
-13 45 -22 23 -27 47 -15 70 8 13 10 10 10 -12 0 -15 6 -31 13 -36 8 -5 10 -9
6 -9 -5 0 4 -22 18 -49 21 -38 32 -48 50 -47 19 1 21 4 14 23 -6 17 -5 21 5
17 8 -3 17 -15 21 -27 6 -19 8 -20 12 -4 2 9 9 15 14 12 10 -7 13 28 2 38 -3
4 -13 1 -22 -6 -14 -11 -14 -10 -2 6 12 15 11 17 -13 17 -14 0 -26 -6 -26 -12
0 -7 -7 -2 -16 10 -8 12 -18 20 -22 18 -4 -2 -7 7 -7 20 l0 24 17 -23 c10 -12
18 -25 18 -28 0 -3 11 -4 25 -2 24 5 24 6 9 35 -9 16 -14 32 -11 34 2 2 10 -7
17 -21 8 -16 19 -24 28 -20 10 4 12 0 8 -11 -6 -15 29 -85 46 -92 4 -2 8 -9 8
-17 0 -20 27 -39 34 -23 3 7 4 4 1 -8 -5 -18 -1 -21 29 -21 l35 0 -15 29 c-8
15 -18 28 -23 28 -5 0 -11 8 -15 18 -5 17 -26 52 -36 62 -3 3 -13 18 -23 33
-10 15 -22 25 -27 22 -6 -3 -8 0 -5 7 3 7 -4 27 -15 45 l-19 32 -296 1 c-211
0 -294 -3 -290 -10z m496 -35 c5 3 6 -1 3 -10 -6 -14 -8 -14 -20 2 -7 10 -13
23 -13 28 0 6 4 2 10 -8 6 -9 14 -15 20 -12z m-107 -64 c-4 -3 -9 -1 -11 6 -2
7 -10 11 -16 9 -7 -1 -8 -1 -4 2 4 2 0 16 -9 30 -13 22 -10 20 15 -7 18 -18
29 -36 25 -40z m-169 43 c8 3 15 1 15 -4 0 -11 -30 -13 -54 -4 -9 3 -13 10
-10 16 3 5 11 4 20 -3 7 -6 21 -9 29 -5z m102 -31 c-2 -2 -15 1 -28 6 -13 5
-18 10 -11 10 8 1 10 6 6 14 -4 6 2 3 14 -7 12 -11 20 -21 19 -23z m97 -49 c3
-8 2 -12 -4 -9 -6 3 -10 10 -10 16 0 14 7 11 14 -7z m233 0 c-3 -3 -12 -4 -19
-1 -8 3 -5 6 6 6 11 1 17 -2 13 -5z m-254 -29 c-3 -9 -8 -14 -10 -11 -3 3 -2
9 2 15 9 16 15 13 8 -4z"/>
<path d="M1587 1711 c19 -31 44 -65 54 -77 10 -11 19 -24 19 -28 0 -10 81
-116 89 -116 4 0 13 6 20 13 11 10 11 8 2 -10 -6 -13 -10 -23 -9 -24 49 -13
88 -17 83 -8 -4 5 -11 6 -17 3 -7 -5 -9 -1 -5 9 7 19 -60 100 -76 90 -6 -3 -7
-1 -3 6 4 6 2 18 -4 26 -8 10 -9 15 -2 15 6 0 13 -9 17 -19 3 -11 26 -38 50
-60 25 -23 42 -41 39 -41 -3 0 2 -7 11 -16 12 -12 19 -13 29 -5 11 9 16 9 22
0 5 -8 3 -9 -6 -4 -9 5 -11 4 -6 -4 6 -8 12 -9 20 -2 7 6 16 8 19 4 4 -3 7 1
7 11 0 9 -4 14 -10 11 -5 -3 -15 -3 -21 1 -8 4 -7 9 2 15 10 6 2 20 -35 56
-28 26 -48 48 -46 48 3 0 -24 37 -59 82 l-64 83 -78 -2 -77 -1 35 -56z m71 4
c-3 -3 -9 2 -12 12 -6 14 -5 15 5 6 7 -7 10 -15 7 -18z m72 -87 c0 -4 -5 -10
-12 -14 -7 -5 -8 -3 -3 5 4 7 -1 22 -12 34 -11 12 -24 29 -28 37 -4 8 6 -1 23
-20 17 -19 31 -38 32 -42z"/>
<path d="M1727 1758 c66 -88 148 -188 153 -188 4 0 13 6 19 14 12 15 47 11 57
-6 4 -6 -5 -8 -24 -3 -38 8 -50 -9 -26 -36 17 -19 18 -19 41 3 13 12 23 16 23
10 0 -7 6 -11 13 -9 6 1 11 -4 10 -10 -2 -7 2 -13 7 -13 15 0 12 19 -5 36 -8
9 -15 12 -15 8 0 -4 -11 10 -25 30 -13 20 -45 57 -69 83 -25 26 -43 49 -40 52
2 3 12 -5 20 -18 9 -13 22 -20 31 -17 8 3 11 1 8 -5 -4 -6 1 -19 11 -30 16
-18 18 -18 38 -2 l21 18 -20 -23 c-19 -23 -19 -24 0 -38 25 -18 35 -18 52 4
10 10 9 6 -2 -11 -16 -28 -16 -28 4 -17 12 6 21 15 21 21 0 6 5 7 10 4 26 -16
-21 56 -67 102 -50 50 -55 53 -104 53 -47 0 -50 -1 -38 -17 13 -17 13 -17 -7
0 -25 21 -113 25 -97 5z"/>
<path d="M1946 1759 c4 -6 25 -28 47 -48 22 -20 46 -42 53 -48 9 -10 13 -9 18
3 3 8 2 13 -3 10 -10 -7 -8 45 3 62 14 23 -6 32 -65 32 -42 0 -58 -3 -53 -11z"/>
<path d="M2100 1761 c0 -10 67 -78 129 -131 49 -41 90 -97 96 -131 10 -52 25
-76 48 -73 12 1 32 3 43 3 17 1 20 6 16 27 l-5 25 -26 -23 -26 -23 23 26 c22
25 23 30 11 68 -7 23 -15 41 -18 41 -2 0 -19 -12 -35 -27 -28 -25 -28 -25 3 9
l34 37 -23 35 c-12 20 -26 34 -31 31 -5 -4 -6 1 -3 9 3 9 -5 21 -23 33 -15 10
-32 23 -38 29 -37 42 -124 59 -154 32 -11 -10 -13 -10 -7 0 4 6 2 12 -3 12 -6
0 -11 -4 -11 -9z"/>
<path d="M2265 1745 c17 -13 45 -35 62 -47 18 -13 33 -27 33 -31 0 -5 8 -21
19 -35 14 -21 52 -116 56 -142 7 -44 16 -57 40 -54 14 1 32 7 40 14 10 8 14 8
18 -2 2 -7 7 -10 11 -7 3 3 -4 34 -16 68 -20 55 -24 60 -35 45 -16 -22 -17
-10 -2 14 15 23 -12 110 -50 164 l-26 38 -90 0 -90 0 30 -25z"/>
<path d="M2436 1758 c4 -7 19 -28 32 -45 13 -18 22 -33 19 -33 -6 0 65 -209
81 -235 6 -11 12 -14 12 -7 0 7 13 12 33 12 53 0 60 10 41 56 -21 52 -20 51
-52 23 l-27 -24 27 30 28 31 -34 99 -33 100 -67 3 c-53 2 -66 0 -60 -10z m104
-11 c0 -2 -10 -12 -22 -23 l-23 -19 19 23 c18 21 26 27 26 19z"/>
<path d="M2580 1761 c0 -4 5 -22 11 -40 11 -31 12 -32 33 -14 21 17 21 17 -1
-6 l-21 -24 23 -61 c13 -33 31 -79 41 -101 10 -22 17 -43 16 -47 -1 -3 4 -5
11 -4 20 3 37 16 37 29 0 7 -7 4 -14 -6 -8 -10 -17 -14 -20 -9 -3 5 6 20 19
32 19 18 22 26 13 31 -10 7 -10 11 0 21 9 9 12 9 12 0 0 -7 5 -12 10 -12 15 0
12 22 -9 76 -11 27 -27 70 -37 97 -14 41 -19 45 -32 35 -13 -10 -14 -10 -8 0
5 9 -5 12 -38 12 -25 0 -46 -4 -46 -9z m140 -108 c0 -5 -17 -21 -38 -37 l-37
-29 34 36 c36 39 41 42 41 30z"/>
<path d="M2715 1733 c16 -39 23 -49 28 -42 1 2 18 21 36 42 l35 37 -57 0 -57
0 15 -37z"/>
<path d="M2778 1711 c-41 -38 -41 -39 -28 -72 18 -47 25 -52 48 -40 12 7 22
25 25 48 3 21 8 53 11 71 7 42 -5 41 -56 -7z"/>
<path d="M685 1730 c3 -5 11 -10 16 -10 6 0 7 5 4 10 -3 6 -11 10 -16 10 -6 0
-7 -4 -4 -10z"/>
<path d="M2065 1731 c-3 -5 -1 -12 4 -15 5 -3 11 1 15 9 6 16 -9 21 -19 6z"/>
<path d="M946 1723 c5 -5 12 -12 16 -18 4 -6 8 -2 8 8 0 9 -7 17 -17 17 -9 0
-12 -3 -7 -7z"/>
<path d="M2091 1698 c0 -22 1 -22 10 -3 7 16 8 14 4 -10 -3 -16 -8 -38 -12
-49 -3 -12 -1 -16 6 -12 7 4 9 1 5 -8 -6 -17 39 -51 55 -41 7 3 8 0 5 -10 -9
-21 36 -57 54 -43 11 9 11 13 0 21 -10 7 -9 8 3 4 9 -3 23 0 30 6 8 7 1 -2
-14 -19 -23 -26 -27 -36 -18 -50 28 -50 28 -50 62 -19 25 23 29 25 18 8 -8
-13 -17 -23 -20 -23 -4 0 -9 -9 -12 -21 -4 -15 -2 -19 10 -15 8 3 24 6 35 6
18 0 20 4 14 33 -13 64 -56 131 -116 182 -33 27 -60 52 -60 55 0 6 -44 30 -55
30 -3 0 -5 -10 -4 -22z"/>
<path d="M1220 1626 c0 -8 5 -18 10 -21 6 -3 10 1 10 9 0 8 -4 18 -10 21 -5 3
-10 -1 -10 -9z"/>
<path d="M1306 1597 c3 -10 9 -15 12 -12 3 3 0 11 -7 18 -10 9 -11 8 -5 -6z"/>
<path d="M2082 1604 c1 -5 -4 -26 -11 -47 -10 -30 -10 -41 0 -53 10 -13 14
-12 33 3 21 18 21 18 4 -3 -24 -27 -23 -31 10 -48 27 -14 30 -13 52 7 l22 22
-15 -25 c-11 -17 -13 -30 -7 -40 8 -12 10 -10 10 10 0 14 3 20 8 14 4 -6 17
-15 30 -19 l23 -7 -24 45 c-20 39 -142 166 -135 141z"/>
<path d="M2810 1580 c-9 -6 -10 -10 -3 -10 6 0 15 5 18 10 8 12 4 12 -15 0z"/>
<path d="M1572 1563 c-13 -24 5 -64 19 -42 7 11 9 10 9 -3 0 -10 7 -18 16 -18
13 0 12 6 -7 38 -12 20 -24 39 -25 40 -1 2 -7 -5 -12 -15z"/>
<path d="M1947 1526 c-4 -10 0 -12 14 -9 10 3 16 9 13 14 -8 13 -21 11 -27 -5z"/>
<path d="M1409 1520 c-5 -38 -4 -120 2 -120 5 0 5 7 2 17 -4 10 -2 14 5 9 6
-3 14 -1 18 6 5 8 10 6 15 -8 7 -17 8 -17 8 5 1 17 5 21 17 17 8 -3 12 -2 9 4
-3 6 -1 10 4 10 14 0 14 27 1 35 -6 4 -10 3 -9 -2 3 -20 -2 -34 -11 -28 -5 3
-10 0 -10 -7 0 -8 -4 -7 -11 4 -6 11 -16 15 -27 11 -15 -6 -15 -5 -3 11 11 13
11 20 3 28 -7 7 -12 10 -13 8z"/>
<path d="M1440 1500 c0 -13 18 -22 24 -11 3 5 -1 11 -9 15 -8 3 -15 1 -15 -4z"/>
<path d="M2050 1470 c0 -17 2 -19 14 -8 14 13 12 28 -5 28 -5 0 -9 -9 -9 -20z"/>
<path d="M1551 1463 c8 -9 9 -14 3 -10 -7 4 -10 -2 -7 -17 3 -15 11 -23 21
-21 10 1 20 -3 24 -9 4 -6 10 -7 14 -3 4 3 1 13 -6 21 -6 9 -10 21 -8 28 3 7
13 -2 23 -19 17 -29 20 -30 33 -15 11 14 13 14 9 2 -3 -11 2 -16 18 -16 20 0
22 3 14 19 -10 18 -9 18 15 1 24 -15 26 -15 20 0 -3 9 -12 17 -20 17 -17 2
-25 4 -44 12 -8 4 -30 8 -48 10 -17 2 -35 7 -39 10 -3 4 -13 7 -21 7 -12 0
-12 -2 -1 -17z"/>
<path d="M1708 1473 c7 -3 16 -2 19 1 4 3 -2 6 -13 5 -11 0 -14 -3 -6 -6z"/>
<path d="M370 1409 l0 -42 -42 9 c-24 4 -63 8 -88 7 -32 0 -39 2 -25 8 19 7
19 8 -2 8 -31 1 -35 -10 -37 -108 -2 -48 -6 -92 -9 -98 -4 -7 -3 -14 3 -18 6
-4 8 -11 5 -16 -4 -5 10 -9 29 -9 l35 0 4 58 3 57 2 -62 c2 -51 5 -61 17 -57
8 4 15 1 15 -6 0 -9 4 -9 13 -2 6 5 24 9 40 7 l27 -3 0 84 c0 77 2 84 20 84
18 0 20 -7 20 -85 0 -74 2 -85 18 -86 11 -1 9 -4 -8 -9 -21 -7 -19 -8 17 -9
23 -1 44 2 47 7 2 4 26 5 53 3 45 -4 46 -5 18 -12 -22 -6 -17 -7 15 -3 25 3
56 7 70 8 23 3 25 6 23 56 -2 63 14 54 19 -10 3 -48 16 -58 64 -46 21 6 24 12
24 56 l0 50 34 0 c19 0 37 -4 41 -10 3 -5 11 -8 18 -6 7 1 9 1 5 -1 -5 -3 -8
-23 -8 -46 l0 -42 64 -2 65 -2 -2 42 -2 42 -43 1 c-24 1 -46 5 -50 9 -4 3 18
5 48 3 52 -3 55 -5 61 -33 l7 -30 1 30 c2 47 21 9 21 -42 0 -24 5 -43 10 -43
6 0 10 5 10 11 0 8 5 8 15 -1 9 -8 15 -8 15 -2 0 7 17 9 45 6 40 -5 45 -3 45
15 0 12 -6 21 -14 21 -8 0 -17 7 -20 16 -3 8 -2 12 4 9 6 -3 10 0 11 7 0 7 4
4 9 -7 7 -17 9 -17 9 -2 1 9 4 17 9 17 4 0 6 -19 4 -42 -2 -29 0 -39 6 -29 8
11 10 11 15 0 3 -8 6 -2 6 14 1 15 -3 27 -8 27 -5 0 -7 9 -4 20 3 12 0 20 -6
20 -7 0 -10 4 -6 10 8 14 31 2 43 -23 10 -20 11 -19 5 8 -8 41 -11 45 -36 45
-59 1 -136 8 -145 14 -5 3 -12 2 -16 -1 -10 -11 -46 -11 -46 0 0 5 -7 3 -17
-4 -15 -13 -15 -12 -4 9 11 21 10 22 -33 22 -25 0 -48 5 -52 12 -5 8 -2 9 9 5
10 -3 17 -2 17 3 0 6 -17 10 -37 11 -21 0 -45 2 -53 3 -8 2 -64 6 -123 10
-134 8 -279 33 -290 49 -4 7 -6 27 -3 45 3 23 1 32 -10 32 -10 0 -14 -12 -14
-41z m490 -123 c0 -11 14 -16 48 -19 36 -3 30 -4 -25 -5 -40 -1 -73 2 -73 7 0
5 -10 7 -22 5 -21 -4 -21 -4 -3 5 13 5 25 5 33 -2 7 -6 12 -6 11 -1 -3 18 1
24 16 24 8 0 15 -7 15 -14z m-390 -106 c0 -27 -3 -50 -7 -50 -5 0 -6 22 -5 50
5 65 12 65 12 0z m648 15 c-3 -3 -9 2 -12 12 -6 14 -5 15 5 6 7 -7 10 -15 7
-18z m37 15 c3 -5 1 -10 -4 -10 -6 0 -11 5 -11 10 0 6 2 10 4 10 3 0 8 -4 11
-10z m-205 -44 c0 -14 -4 -28 -10 -31 -5 -3 -10 0 -10 9 0 8 -3 21 -6 30 -4
11 -1 16 10 16 10 0 16 -9 16 -24z m150 4 c-8 -5 -26 -10 -40 -10 -20 0 -22 2
-10 10 8 5 26 10 40 10 20 0 22 -2 10 -10z"/>
<path d="M196 1431 c-6 -9 3 -12 87 -27 29 -5 30 -4 17 9 -18 18 -96 32 -104
18z"/>
<path d="M416 1403 c-7 -18 12 -35 30 -29 6 3 31 0 55 -6 41 -9 96 -16 143
-18 10 -1 24 4 30 10 8 8 4 10 -16 6 -15 -2 -40 -1 -55 4 -15 5 -55 14 -88 21
-33 7 -64 16 -69 21 -15 12 -23 10 -30 -9z"/>
<path d="M90 1398 c0 -6 -3 -9 -6 -5 -4 3 -13 0 -20 -8 -8 -7 -18 -15 -24 -17
-5 -1 -13 -39 -17 -83 -4 -52 -9 -73 -14 -60 -4 12 -8 -18 -8 -72 -1 -50 3
-102 8 -115 14 -37 25 -328 13 -328 -6 0 -13 27 -15 63 -2 34 -4 -126 -5 -356
l-2 -417 1397 0 c1094 0 1400 3 1412 13 12 9 13 9 7 0 -4 -8 -1 -13 8 -13 13
0 16 12 16 54 0 54 0 54 -40 70 -54 21 -62 20 -56 -6 4 -16 2 -15 -6 4 -7 15
-25 32 -42 38 -17 7 -48 19 -69 28 -43 18 -53 13 -37 -20 11 -22 10 -22 -4 -4
-9 11 -16 25 -16 31 0 7 -28 20 -62 30 -35 9 -72 21 -83 26 -100 42 -121 45
-95 14 7 -9 10 -18 6 -22 -3 -4 -12 7 -18 25 -11 28 -37 43 -75 44 -5 0 -14 4
-20 10 -16 13 -17 3 -2 -24 8 -15 8 -19 -1 -13 -6 4 -16 18 -21 32 -5 14 -12
23 -15 20 -3 -3 -17 1 -32 9 -34 17 -37 13 -18 -25 9 -16 16 -34 16 -38 -1 -4
-12 13 -26 40 -13 26 -31 47 -40 47 -8 0 -27 8 -41 17 -26 17 -27 17 -20 -2 6
-17 5 -18 -5 -5 -16 18 -92 55 -82 39 3 -6 -5 -3 -20 6 -14 10 -26 15 -26 11
0 -3 -16 3 -36 15 -46 25 -52 19 -22 -21 22 -30 23 -31 28 -10 5 19 8 17 28
-22 19 -34 20 -38 4 -19 -10 13 -24 21 -30 17 -6 -3 -21 8 -34 25 -38 50 -69
82 -75 76 -3 -3 6 -21 19 -39 28 -37 64 -123 48 -113 -5 3 -10 12 -10 18 0 21
-71 128 -81 122 -4 -3 0 -28 11 -56 30 -76 24 -72 -18 10 -40 79 -82 122 -82
82 0 -11 7 -39 16 -61 9 -23 15 -43 12 -45 -2 -2 -13 18 -23 45 -11 28 -27 53
-37 56 -10 3 -16 10 -13 15 4 5 -1 9 -10 9 -11 0 -15 5 -11 15 7 18 0 19 -18
3 -10 -10 -10 -17 1 -38 7 -14 13 -32 13 -40 -1 -8 -10 7 -22 33 -28 63 -54
57 -34 -8 4 -11 -8 10 -27 46 -27 53 -35 63 -45 52 -9 -9 -10 -18 -2 -32 5
-11 10 -26 9 -33 -1 -12 -18 23 -41 82 -7 20 -11 22 -18 10 -6 -8 -8 -31 -5
-50 2 -19 2 -26 -1 -15 -16 56 -45 103 -66 107 -13 3 -31 9 -41 13 -13 5 -16
3 -11 -9 3 -8 9 -15 12 -14 26 3 52 -4 47 -12 -3 -5 -2 -10 4 -10 6 0 7 -8 4
-17 -6 -15 -8 -14 -16 5 -12 26 -37 29 -37 5 -1 -11 -6 -6 -14 12 -11 27 -13
28 -23 11 -10 -19 -11 -18 -17 2 -4 12 -12 22 -17 22 -5 0 -9 9 -9 20 0 11 -4
21 -10 21 -5 1 -14 2 -19 3 -5 0 -13 4 -17 9 -15 14 -24 7 -14 -12 5 -11 10
-26 9 -33 0 -7 -7 4 -16 25 -10 25 -22 37 -37 38 -34 2 -50 -2 -58 -14 -5 -8
-8 -8 -8 -1 0 5 5 15 12 22 11 11 10 13 -41 28 -8 3 -19 -1 -24 -8 -6 -10 -7
-9 -4 4 4 11 -2 18 -16 22 -34 9 -36 8 -30 -16 3 -13 3 -21 0 -18 -3 3 -7 14
-9 25 -3 21 -86 56 -293 127 -49 16 -112 40 -140 53 -80 36 -99 40 -92 21 5
-11 1 -16 -13 -16 -19 0 -24 10 -21 36 1 10 -25 19 -84 30 -5 1 -13 3 -17 4
-5 1 -11 3 -15 4 -20 4 -139 51 -143 56 -3 4 -18 15 -35 24 -28 16 -22 17 17
1 15 -6 17 6 17 134 0 78 -2 141 -4 141 -3 0 -5 -5 -5 -12z m-58 -246 c-2 -7
-7 -10 -10 -7 -9 9 -12 38 -5 49 8 13 22 -25 15 -42z m162 -279 c3 -21 8 -99
11 -173 4 -74 9 -147 11 -162 3 -22 0 -28 -13 -29 -15 0 -15 -2 -3 -7 11 -5
16 -29 19 -98 3 -78 1 -91 -13 -91 -22 0 -23 9 -36 267 -6 124 -13 249 -15
278 -3 45 -1 52 15 52 13 0 20 -10 24 -37z m764 -114 c-3 -8 -7 -3 -11 10 -4
17 -3 21 5 13 5 -5 8 -16 6 -23z m122 -39 c0 -5 -2 -10 -4 -10 -3 0 -8 5 -11
10 -3 6 -1 10 4 10 6 0 11 -4 11 -10z m108 -35 c-3 -3 -9 2 -12 12 -6 14 -5
15 5 6 7 -7 10 -15 7 -18z m149 -107 c-3 -8 -6 -5 -6 6 -1 11 2 17 5 13 3 -3
4 -12 1 -19z m617 -194 c3 -8 2 -12 -4 -9 -6 3 -10 10 -10 16 0 14 7 11 14 -7z
m-74 -29 c14 -19 14 -19 -2 -6 -10 7 -18 18 -18 24 0 6 1 8 3 6 1 -2 9 -13 17
-24z m175 -21 c9 -15 12 -23 6 -20 -11 7 -35 46 -28 46 3 0 12 -12 22 -26z
m-110 -15 c9 -17 14 -33 12 -35 -2 -3 -10 10 -18 28 -13 31 -13 31 -19 9 -5
-23 -6 -23 -20 -5 -9 10 -10 15 -2 10 7 -4 12 -1 12 8 0 26 18 18 35 -15z m65
-19 c6 -11 9 -20 7 -20 -2 0 -12 9 -22 20 -10 11 -13 20 -7 20 6 0 16 -9 22
-20z m95 -51 c9 -17 15 -33 13 -35 -3 -2 -12 12 -21 31 -21 43 -13 47 8 4z
m106 -61 c15 -28 5 -21 -21 15 -15 20 -17 27 -6 18 9 -8 22 -23 27 -33z m249
17 c14 -19 14 -19 -2 -6 -10 7 -18 18 -18 24 0 6 1 8 3 6 1 -2 9 -13 17 -24z
m-138 -59 c11 -20 10 -20 -9 -3 -11 9 -25 17 -32 17 -7 0 -10 4 -6 10 8 14 34
1 47 -24z m153 -78 l30 -33 -38 35 c-21 19 -41 34 -45 32 -3 -2 -8 2 -10 8 -7
20 30 -4 63 -42z m324 -22 c-2 -2 -13 8 -23 22 l-19 27 24 -22 c12 -12 21 -24
18 -27z m-173 -29 c5 -9 4 -9 -7 1 -7 6 -33 13 -58 13 -45 2 -45 2 -11 8 37 7
64 0 76 -22z"/>
<path d="M2478 1373 c6 -2 18 -2 25 0 6 3 1 5 -13 5 -14 0 -19 -2 -12 -5z"/>
<path d="M111 1294 c0 -43 4 -88 8 -99 5 -11 6 23 4 75 -6 117 -13 131 -12 24z"/>
<path d="M2238 1343 c7 -3 16 -2 19 1 4 3 -2 6 -13 5 -11 0 -14 -3 -6 -6z"/>
<path d="M2496 1322 c-2 -4 13 -50 34 -102 21 -52 40 -88 42 -80 3 8 4 6 2 -5
-4 -24 6 -40 24 -40 6 0 11 -4 10 -10 -2 -5 -7 -9 -11 -7 -10 3 -10 4 18 -50
10 -21 21 -38 24 -38 18 1 44 33 44 54 0 14 2 24 6 22 4 -3 7 4 7 14 0 10 -5
18 -11 17 -5 -1 -10 7 -10 18 0 26 -20 21 -21 -5 -2 -29 -8 -32 -30 -16 -10 8
-16 18 -12 22 4 4 16 1 25 -7 17 -13 17 -13 3 5 -8 11 -15 22 -15 25 0 3 -3 5
-6 4 -4 -1 -5 6 -2 17 4 16 9 18 24 9 24 -12 24 -1 2 45 -14 31 -19 34 -37 24
-20 -11 -20 -10 -3 9 25 28 6 83 -29 83 -13 0 -24 -5 -24 -11 0 -6 -5 -7 -12
-2 -18 10 -37 13 -42 5z m176 -249 c-6 -3 -10 -8 -7 -12 2 -4 -8 -7 -23 -5
-35 3 -34 2 -27 14 5 8 11 8 20 0 9 -7 16 -6 25 5 7 9 16 13 19 9 3 -4 0 -9
-7 -11z"/>
<path d="M2618 1323 c7 -3 16 -2 19 1 4 3 -2 6 -13 5 -11 0 -14 -3 -6 -6z"/>
<path d="M2650 1320 c0 -5 5 -10 10 -10 6 0 10 5 10 10 0 6 -4 10 -10 10 -5 0
-10 -4 -10 -10z"/>
<path d="M2418 1313 c-33 -5 -33 -5 -9 -74 39 -112 57 -131 83 -89 13 21 38
27 38 10 0 -5 -6 -10 -13 -10 -8 0 -24 -11 -36 -24 -22 -23 -22 -24 -4 -65 10
-22 20 -41 23 -41 4 0 16 9 29 21 19 18 22 28 17 69 -8 71 -65 210 -85 209 -9
-1 -28 -4 -43 -6z m52 -56 c0 -2 -10 -12 -22 -23 l-23 -19 19 23 c18 21 26 27
26 19z m40 -167 c0 -5 -4 -10 -10 -10 -5 0 -10 5 -10 10 0 6 5 10 10 10 6 0
10 -4 10 -10z"/>
<path d="M2345 1300 c-3 -5 -17 -10 -30 -10 -23 0 -23 -1 -10 -44 7 -24 19
-52 26 -63 11 -18 15 -19 38 -7 14 7 28 11 31 7 3 -3 -1 -8 -7 -10 -7 -3 -13
-12 -13 -21 0 -15 2 -15 11 -2 8 11 9 1 5 -38 -4 -39 -2 -51 7 -46 7 4 4 -2
-5 -13 -24 -26 -23 -39 5 -47 57 -15 97 1 70 28 -5 4 -9 12 -9 17 -1 5 -2 14
-3 19 0 6 -6 10 -12 10 -5 0 -7 -5 -3 -11 4 -7 1 -10 -7 -7 -16 5 -20 40 -6
49 7 5 -12 71 -48 162 -4 10 -14 16 -21 13 -8 -3 -11 0 -7 10 6 16 -3 19 -12
4z m105 -254 c0 -2 -7 -7 -16 -10 -8 -3 -12 -2 -9 4 6 10 25 14 25 6z"/>
<path d="M2620 1305 c0 -3 4 -13 9 -23 5 -9 16 -37 25 -62 13 -37 20 -45 41
-45 16 0 23 5 21 12 -3 7 -1 15 3 17 13 8 10 56 -3 57 -6 1 -21 3 -34 4 -13 1
-28 7 -33 12 -7 7 -1 9 18 7 16 -2 19 -1 8 2 -11 3 -24 10 -29 15 -11 10 -26
12 -26 4z"/>
<path d="M2239 1271 c-16 -13 -24 -30 -24 -49 0 -17 3 -28 8 -25 4 2 7 0 7 -6
0 -6 6 -8 14 -5 11 4 13 -3 9 -38 -4 -38 -3 -41 10 -26 8 10 17 15 20 11 4 -3
7 -1 7 5 0 7 -4 12 -10 12 -19 0 -10 22 11 27 22 6 21 25 -3 86 -12 32 -18 33
-49 8z"/>
<path d="M2137 1273 c-12 -3 -16 -10 -13 -20 3 -8 9 -26 12 -39 8 -30 29 -31
39 -1 4 13 8 17 12 9 10 -25 22 -1 12 26 -9 27 -25 33 -62 25z"/>
<path d="M1690 1261 c0 -5 5 -13 10 -16 6 -3 10 -2 10 4 0 5 -4 13 -10 16 -5
3 -10 2 -10 -4z"/>
<path d="M1227 1220 c3 -11 9 -18 13 -15 12 7 19 -32 8 -43 -6 -6 -17 -8 -24
-5 -8 3 -14 0 -14 -7 0 -21 28 -40 59 -40 27 0 31 4 31 26 0 20 -4 25 -16 20
-12 -4 -14 -1 -9 14 4 12 2 20 -5 20 -7 0 -11 9 -8 23 4 18 0 23 -18 25 -17 1
-21 -3 -17 -18z m38 -80 c3 -5 1 -10 -4 -10 -6 0 -11 5 -11 10 0 6 2 10 4 10
3 0 8 -4 11 -10z"/>
<path d="M2110 1204 c5 -19 11 -38 14 -41 8 -8 7 26 0 55 -10 37 -23 25 -14
-14z"/>
<path d="M1275 1220 c-3 -5 1 -10 9 -10 9 0 13 -7 11 -18 -4 -25 28 -26 50 -2
16 18 16 19 -3 17 -11 0 -18 -6 -16 -12 3 -5 -3 0 -14 13 -23 25 -28 27 -37
12z"/>
<path d="M1606 1222 c-3 -4 4 -9 15 -9 23 -2 25 3 4 10 -8 4 -16 3 -19 -1z"/>
<path d="M1698 1212 c-12 -15 -11 -16 5 -3 18 14 24 2 7 -15 -6 -6 -5 -17 6
-32 18 -26 38 -19 28 10 -3 11 -1 24 5 28 7 4 3 11 -13 18 -20 9 -27 8 -38 -6z"/>
<path d="M2790 1221 c0 -5 -8 -7 -18 -4 -21 5 -47 -21 -37 -37 3 -5 17 -10 31
-10 15 0 24 -6 24 -16 0 -8 4 -13 10 -9 6 4 6 15 0 31 -12 32 -12 37 0 29 6
-3 7 1 4 9 -7 18 -14 21 -14 7z"/>
<path d="M771 1166 c2 -37 7 -56 15 -56 7 0 16 5 19 10 5 8 11 7 21 -1 13 -11
15 -5 12 42 -3 53 -4 54 -36 57 l-33 3 2 -55z"/>
<path d="M1450 1209 c0 -6 -6 -9 -13 -6 -21 8 -38 -7 -39 -34 -1 -13 -6 -31
-12 -39 -10 -13 -9 -13 7 -1 9 7 16 20 15 29 -4 20 30 24 41 5 7 -13 9 -13 14
1 4 11 3 15 -4 11 -6 -4 -7 3 -3 19 3 14 3 26 0 26 -3 0 -6 -5 -6 -11z"/>
<path d="M1880 1205 c-7 -8 -8 -15 -2 -15 5 0 15 7 22 15 7 8 8 15 2 15 -5 0
-15 -7 -22 -15z"/>
<path d="M1795 1200 c-4 -6 7 -10 24 -10 17 0 31 5 31 10 0 6 -11 10 -24 10
-14 0 -28 -4 -31 -10z"/>
<path d="M1345 1180 c-3 -5 1 -10 9 -10 9 0 16 5 16 10 0 6 -4 10 -9 10 -6 0
-13 -4 -16 -10z"/>
<path d="M1310 1138 c0 -12 8 -18 21 -18 15 0 19 5 15 16 -3 8 -2 12 4 9 6 -3
10 -2 10 3 0 6 -11 9 -25 8 -17 -1 -25 -7 -25 -18z"/>
<path d="M1425 1138 c-8 -32 0 -48 25 -48 13 0 17 7 16 24 0 13 -4 22 -8 20
-4 -3 -11 3 -17 13 -8 16 -10 15 -16 -9z"/>
<path d="M990 1135 c0 -8 4 -15 8 -15 5 0 9 7 9 15 0 8 -4 15 -9 15 -4 0 -8
-7 -8 -15z"/>
<path d="M1702 1110 c-3 -38 -2 -40 28 -40 33 0 38 11 14 31 -13 10 -17 10
-25 -2 -5 -8 -9 -9 -9 -3 0 5 5 15 10 20 8 8 7 14 -3 22 -11 9 -14 4 -15 -28z"/>
<path d="M2112 1130 c-1 -8 -5 -33 -8 -55 -5 -31 -4 -37 5 -29 7 7 11 29 8 55
-2 24 -4 37 -5 29z"/>
<path d="M2357 1134 c-4 -4 -7 -11 -7 -15 0 -9 27 -5 37 6 4 4 3 5 -4 2 -6 -4
-13 -2 -15 4 -2 5 -7 7 -11 3z"/>
<path d="M208 1123 c7 -3 16 -2 19 1 4 3 -2 6 -13 5 -11 0 -14 -3 -6 -6z"/>
<path d="M1492 1110 c0 -14 2 -19 5 -12 2 6 2 18 0 25 -3 6 -5 1 -5 -13z"/>
<path d="M2725 1120 c-3 -5 -1 -10 4 -10 6 0 11 5 11 10 0 6 -2 10 -4 10 -3 0
-8 -4 -11 -10z"/>
<path d="M2756 1122 c-2 -4 -1 -14 4 -22 7 -11 9 -9 7 8 -1 24 -3 26 -11 14z"/>
<path d="M2785 1120 c-3 -5 -1 -10 4 -10 6 0 11 5 11 10 0 6 -2 10 -4 10 -3 0
-8 -4 -11 -10z"/>
<path d="M2276 1105 c-16 -12 -17 -15 -4 -15 9 0 18 7 22 15 7 18 6 18 -18 0z"/>
<path d="M1376 1098 c3 -4 11 -5 19 -1 21 7 19 12 -4 10 -11 0 -18 -5 -15 -9z"/>
<path d="M1971 1080 c-9 -26 -8 -30 8 -30 14 0 17 6 13 30 -2 17 -6 30 -7 30
-2 0 -8 -13 -14 -30z"/>
<path d="M2238 1079 c-3 -13 -8 -31 -12 -39 -5 -11 0 -16 19 -18 25 -2 34 11
15 23 -6 4 -8 11 -5 16 4 5 2 16 -3 25 -8 14 -10 13 -14 -7z"/>
<path d="M2775 1063 c-8 -20 -13 -44 -10 -53 3 -10 0 -17 -9 -17 -9 0 -13 4
-10 9 3 4 0 8 -6 8 -6 0 -8 5 -4 12 8 12 1 10 -48 -14 -16 -7 -28 -16 -28 -19
0 -3 26 -6 58 -6 32 0 63 -3 69 -6 7 -5 14 8 18 34 5 27 3 44 -4 49 -7 3 -9
14 -5 23 13 34 -6 16 -21 -20z"/>
<path d="M1790 1070 c0 -5 5 -10 11 -10 5 0 7 5 4 10 -3 6 -8 10 -11 10 -2 0
-4 -4 -4 -10z"/>
<path d="M2370 1071 c0 -6 4 -13 10 -16 6 -3 7 1 4 9 -7 18 -14 21 -14 7z"/>
<path d="M2297 1052 c-10 -10 -17 -21 -17 -24 0 -11 49 -15 54 -4 2 6 5 5 5
-3 1 -11 5 -10 15 5 10 13 11 23 4 31 -14 18 -31 16 -25 -1 6 -15 -29 -33 -40
-22 -4 3 1 6 10 6 10 0 17 7 17 15 0 19 -3 19 -23 -3z"/>
<path d="M2570 1059 c0 -8 -16 -23 -35 -33 -19 -11 -35 -23 -35 -28 0 -4 27
-8 60 -8 l60 0 -21 38 c-26 46 -29 49 -29 31z"/>
<path d="M2707 1053 c-4 -3 -7 -11 -7 -17 0 -6 5 -5 12 2 6 6 9 14 7 17 -3 3
-9 2 -12 -2z"/>
<path d="M2165 1030 c3 -5 8 -10 11 -10 2 0 4 5 4 10 0 6 -5 10 -11 10 -5 0
-7 -4 -4 -10z"/>
<path d="M430 1014 c19 -9 40 -17 45 -18 6 -1 20 -7 31 -14 25 -13 101 -41
199 -72 39 -12 86 -29 105 -37 34 -16 148 -53 162 -53 4 0 5 8 2 18 -4 13 -2
12 7 -3 15 -24 29 -35 47 -35 7 0 10 5 6 12 -4 7 -3 8 5 4 6 -4 9 -11 6 -16
-6 -10 42 -23 56 -14 6 3 16 -1 22 -9 14 -18 63 -35 53 -18 -4 6 -2 11 3 11 6
0 11 -3 11 -8 0 -4 9 -13 20 -19 16 -11 18 -10 13 4 -4 11 -3 14 5 9 7 -4 12
-13 12 -20 0 -8 9 -16 21 -19 14 -4 19 -1 16 7 -3 7 5 13 20 14 17 1 29 -6 41
-28 9 -16 24 -30 32 -29 10 0 11 2 2 6 -6 2 -10 9 -6 14 9 14 24 10 24 -7 0
-8 4 -12 10 -9 5 3 7 0 4 -8 -3 -9 3 -16 15 -20 17 -4 19 -2 11 13 -13 24 -13
40 0 40 5 0 9 -3 8 -7 -3 -14 13 -53 22 -53 5 0 13 7 18 16 7 13 11 11 23 -13
15 -29 39 -42 39 -20 0 6 -4 27 -9 45 -12 42 -5 41 13 -2 7 -18 23 -35 34 -38
18 -5 19 -3 11 24 -4 17 -13 36 -20 44 -6 7 -9 19 -7 25 3 10 27 -37 42 -83 3
-10 13 -18 22 -18 22 0 12 57 -23 126 -29 58 -53 68 -48 20 l4 -31 -22 38
c-19 32 -27 37 -55 35 -23 -1 -31 -6 -27 -16 2 -7 0 -10 -5 -7 -13 8 -13 -11
1 -38 10 -22 10 -22 -6 -2 -9 11 -20 21 -25 21 -6 1 -13 2 -17 3 -4 0 -2 6 5
13 8 8 8 17 1 30 -8 15 -7 24 6 38 16 18 16 19 -2 17 -11 0 -20 -8 -19 -15 1
-8 -5 -17 -13 -20 -9 -3 -12 0 -9 10 4 8 0 15 -7 15 -10 0 -11 -6 -2 -26 6
-14 16 -29 21 -33 5 -3 10 -16 11 -29 2 -19 0 -20 -9 -6 -6 8 -19 30 -29 48
-13 24 -21 29 -29 21 -9 -9 -16 -7 -30 5 -17 15 -20 15 -28 3 -7 -12 -12 -8
-21 18 -6 19 -17 32 -27 31 -10 0 -12 -3 -5 -5 7 -3 9 -12 6 -21 -4 -11 -2
-14 5 -9 8 5 10 2 6 -8 -7 -18 -24 -12 -24 8 0 8 -8 20 -17 27 -10 8 -14 9
-10 2 4 -6 3 -14 -2 -17 -5 -4 -12 -2 -16 4 -13 21 -24 10 -15 -15 5 -14 7
-25 5 -25 -3 0 -10 11 -15 25 -12 32 -34 34 -25 3 l7 -23 -16 22 c-15 21 -22
21 -162 19 -80 -1 -147 1 -150 5 -4 6 132 15 293 18 26 1 30 4 26 21 -3 11 -9
20 -14 20 -5 0 -6 -7 -3 -15 4 -8 2 -15 -4 -15 -6 0 -12 6 -14 12 -3 9 -10 8
-23 -5 -17 -18 -18 -17 -36 10 -20 30 -26 25 -9 -8 7 -13 7 -19 0 -19 -5 0
-10 3 -10 8 0 4 -10 18 -21 32 -17 21 -19 22 -10 3 16 -32 13 -52 -4 -23 l-14
25 -2 -25 c-1 -17 -3 -20 -6 -7 -5 18 -43 24 -43 6 0 -6 -9 -1 -21 12 -11 13
-17 17 -13 9 7 -13 5 -13 -9 -1 -14 11 -17 11 -17 0 0 -11 -2 -11 -10 1 -11
17 -1 16 -155 20 l-120 4 80 6 80 6 -105 4 c-104 3 -104 4 -35 9 39 3 65 9 59
13 -11 8 -43 9 -134 7 -30 -1 -66 1 -80 5 -15 4 -11 0 10 -10z m894 -205 c-2
-4 2 -9 8 -12 7 -2 10 -7 7 -11 -3 -3 -13 2 -22 12 -14 15 -15 19 -2 19 8 0
12 -4 9 -8z m-171 -32 c-7 -11 -23 2 -23 19 0 12 2 12 14 2 8 -7 12 -16 9 -21z
m347 13 c-9 -5 -8 -15 4 -39 9 -17 14 -31 11 -31 -4 0 -45 75 -45 84 0 2 9 2
21 -1 14 -4 17 -8 9 -13z m-130 -60 c0 -5 -5 -10 -11 -10 -5 0 -7 5 -4 10 3 6
8 10 11 10 2 0 4 -4 4 -10z m110 -28 c0 -15 -2 -15 -10 -2 -13 20 -13 33 0 25
6 -3 10 -14 10 -23z"/>
<path d="M1348 968 c5 -5 16 -8 23 -6 8 3 3 7 -10 11 -17 4 -21 3 -13 -5z"/>
<path d="M1743 965 c0 -8 4 -12 9 -9 5 3 6 10 3 15 -9 13 -12 11 -12 -6z"/>
<path d="M2085 972 c-11 -2 -24 -7 -28 -11 -12 -11 14 -63 29 -57 7 3 15 -2
18 -10 6 -15 36 -20 36 -5 0 5 -7 11 -15 15 -8 3 -15 10 -15 16 0 6 5 8 11 4
8 -4 8 -1 1 12 -5 11 -11 24 -13 29 -2 6 -13 9 -24 7z m12 -27 c9 -24 -1 -27
-15 -5 -8 13 -8 20 -2 20 6 0 13 -7 17 -15z"/>
<path d="M2215 960 c4 -14 12 -32 17 -40 8 -12 9 -12 4 2 -4 12 -1 15 11 11
12 -5 14 -1 8 16 -6 20 -5 21 14 9 22 -14 28 -28 11 -28 -5 0 -10 -7 -10 -16
0 -8 -5 -12 -10 -9 -13 8 -26 -25 -14 -34 5 -3 10 -16 11 -29 4 -34 31 -92 42
-92 6 0 11 5 11 11 0 5 -4 8 -9 5 -5 -3 -11 0 -14 8 -4 9 2 13 17 12 17 -1 22
-6 18 -19 -4 -15 0 -17 22 -11 17 4 26 2 26 -6 0 -6 -4 -9 -9 -6 -5 3 -11 0
-14 -8 -4 -10 4 -18 24 -25 35 -12 35 -11 1 59 -27 55 -49 68 -80 46 -21 -15
-22 -2 -1 24 16 21 20 23 29 10 14 -20 3 26 -19 83 -13 35 -21 42 -44 43 -22
1 -27 -2 -23 -15 4 -11 1 -10 -10 4 -16 19 -16 19 -9 -5z m67 -112 c-7 -7 -12
-8 -12 -2 0 14 12 26 19 19 2 -3 -1 -11 -7 -17z"/>
<path d="M2310 969 c0 -24 31 -108 56 -153 13 -23 24 -38 24 -33 0 4 11 0 25
-9 14 -9 22 -20 19 -25 -3 -5 2 -9 10 -9 9 0 16 8 16 18 0 9 4 13 8 7 4 -5 16
-17 26 -25 18 -14 19 -14 6 10 -33 62 -41 70 -62 59 -13 -7 -23 -7 -32 0 -7 6
-15 9 -18 6 -2 -3 -4 4 -3 15 1 11 5 23 10 27 4 5 5 3 1 -4 -8 -14 10 -27 19
-13 9 14 27 1 19 -13 -5 -9 -4 -9 5 -1 10 9 10 17 1 33 -6 12 -14 19 -18 17
-5 -3 -14 0 -22 6 -12 8 -11 9 4 4 14 -5 17 -2 12 10 -3 8 -6 18 -6 21 0 3 -8
-3 -17 -13 -24 -26 -40 -27 -46 -4 -3 13 -1 17 9 13 17 -6 46 15 38 28 -3 5
-9 7 -14 4 -4 -3 -14 3 -21 12 -12 14 -11 15 9 9 13 -5 22 -3 22 3 0 6 -13 11
-30 11 -17 0 -30 -5 -30 -12 0 -9 -4 -8 -10 2 -9 13 -10 13 -10 -1z"/>
<path d="M2405 970 c3 -5 11 -10 16 -10 6 0 7 5 4 10 -3 6 -11 10 -16 10 -6 0
-7 -4 -4 -10z"/>
<path d="M1810 960 c-8 -5 -11 -12 -7 -16 4 -4 13 -2 19 4 15 15 7 24 -12 12z"/>
<path d="M2175 959 c-11 -4 -14 -8 -6 -8 17 -1 5 -16 -12 -16 -16 0 -15 -20 2
-44 11 -15 18 -17 36 -9 20 9 21 15 15 45 -10 42 -10 42 -35 32z"/>
<path d="M2454 955 c-4 -8 -12 -15 -20 -15 -8 0 -14 -7 -14 -15 0 -8 4 -15 8
-15 4 0 13 -14 20 -32 12 -31 12 -31 33 -12 l21 19 -6 -31 c-7 -30 -6 -31 30
-32 20 -1 43 -7 52 -14 17 -14 16 -11 -13 45 -18 36 -35 49 -35 26 0 -5 -5 -7
-11 -4 -6 5 -5 11 5 18 14 11 14 15 -4 42 -11 17 -20 24 -20 15 -1 -12 -3 -11
-11 3 -12 21 -28 22 -35 2z m20 -63 c3 -5 -1 -9 -9 -9 -8 0 -15 4 -15 9 0 4 4
8 9 8 6 0 12 -4 15 -8z"/>
<path d="M2528 961 c8 -4 13 -11 13 -15 -3 -18 0 -26 9 -26 6 0 10 9 10 19 0
15 5 18 23 14 12 -3 19 -3 16 0 -3 4 -23 9 -45 12 -23 3 -34 1 -26 -4z"/>
<path d="M2688 939 c-16 -17 -15 -23 3 -21 4 1 6 -4 5 -11 -2 -23 19 -22 22 1
2 12 -1 22 -7 22 -6 0 -8 7 -5 15 8 19 3 18 -18 -6z"/>
<path d="M1150 941 c0 -14 21 -25 51 -26 19 -1 25 3 22 13 -5 11 -7 11 -14 0
-7 -10 -9 -11 -9 0 0 7 -4 11 -9 7 -5 -3 -12 -1 -16 5 -8 13 -25 13 -25 1z"/>
<path d="M1415 940 c-8 -13 5 -13 25 0 13 8 13 10 -2 10 -9 0 -20 -4 -23 -10z"/>
<path d="M1487 932 c5 -11 2 -13 -6 -7 -10 6 -11 3 -2 -14 7 -11 14 -21 17
-21 3 0 2 5 -1 10 -3 6 1 17 9 25 13 14 16 13 25 -2 7 -12 10 -13 11 -4 0 7 6
11 14 8 10 -4 13 -1 9 9 -4 11 -9 12 -19 3 -8 -7 -14 -7 -14 -1 0 5 -11 10
-24 10 -18 0 -23 -5 -19 -16z"/>
<path d="M1646 937 c3 -10 9 -15 12 -12 3 3 0 11 -7 18 -10 9 -11 8 -5 -6z"/>
<path d="M1940 935 c0 -8 7 -15 15 -15 8 0 15 -7 15 -16 0 -10 -6 -14 -15 -11
-21 9 -26 -5 -14 -46 7 -27 15 -37 30 -37 13 0 18 -4 13 -12 -6 -9 -3 -9 9 0
14 12 15 18 3 45 -7 18 -16 49 -20 70 -7 36 -36 54 -36 22z"/>
<path d="M1987 930 c4 -16 7 -17 19 -5 19 18 18 25 -5 25 -14 0 -18 -5 -14
-20z"/>
<path d="M2023 924 c-10 -21 -9 -24 8 -24 10 0 19 -4 19 -9 0 -4 -11 -6 -25
-3 -19 3 -25 0 -25 -12 0 -11 5 -14 12 -10 7 4 8 3 4 -4 -11 -18 5 -64 20 -58
7 3 15 -3 17 -12 4 -16 5 -15 6 1 0 9 5 17 10 17 10 0 -2 60 -21 107 l-13 31
-12 -24z m31 -89 c-4 -8 -8 -15 -10 -15 -2 0 -4 7 -4 15 0 8 4 15 10 15 5 0 7
-7 4 -15z"/>
<path d="M2635 941 c6 -11 4 -13 -7 -9 -8 4 -29 -1 -46 -9 l-31 -15 25 -49
c13 -27 29 -49 35 -49 5 0 21 11 34 25 14 13 25 21 25 18 0 -4 5 -2 11 4 13
13 -6 57 -21 48 -6 -3 -7 0 -4 8 3 8 -3 20 -12 28 -15 12 -17 12 -9 0z"/>
<path d="M2743 941 c-15 -4 -20 -10 -15 -18 7 -10 12 -10 28 1 23 17 17 25
-13 17z"/>
<path d="M1130 931 c0 -5 5 -13 10 -16 6 -3 10 -2 10 4 0 5 -4 13 -10 16 -5 3
-10 2 -10 -4z"/>
<path d="M1596 931 c-4 -5 3 -7 14 -4 23 6 26 13 6 13 -8 0 -17 -4 -20 -9z"/>
<path d="M1666 924 c-9 -23 0 -32 29 -27 20 4 23 8 14 24 -12 23 -35 25 -43 3z"/>
<path d="M1724 930 c3 -8 9 -22 12 -31 5 -14 54 -25 54 -12 0 12 -22 43 -31
43 -6 0 -7 -6 -3 -12 4 -7 -3 -4 -16 7 -15 13 -21 15 -16 5z"/>
<path d="M2820 930 c0 -5 5 -10 11 -10 5 0 7 5 4 10 -3 6 -8 10 -11 10 -2 0
-4 -4 -4 -10z"/>
<path d="M1795 920 c3 -5 8 -10 11 -10 2 0 4 5 4 10 0 6 -5 10 -11 10 -5 0 -7
-4 -4 -10z"/>
<path d="M1623 901 c1 -15 4 -17 14 -9 7 5 10 14 7 19 -10 16 -23 9 -21 -10z"/>
<path d="M1813 909 c-13 -13 -5 -51 9 -43 6 4 7 -2 3 -16 -5 -15 -3 -20 3 -16
6 3 13 2 17 -4 3 -5 11 -10 18 -10 6 0 2 7 -9 15 -15 12 -16 16 -5 24 9 6 10
11 2 15 -6 4 -9 11 -6 16 8 14 -20 31 -32 19z"/>
<path d="M2794 914 c3 -7 -4 -11 -20 -11 -14 0 -35 -9 -46 -20 -19 -20 -19
-20 3 -57 15 -26 25 -34 33 -27 7 6 16 7 22 2 5 -5 18 -11 29 -13 19 -4 19 -5
-4 -17 -17 -9 -26 -10 -34 -2 -8 8 -8 11 2 11 7 0 9 5 5 11 -4 8 -9 8 -17 0
-8 -8 -2 -24 21 -56 18 -25 32 -50 32 -55 0 -5 5 -12 10 -15 7 -5 10 20 9 74
l-2 81 -33 0 c-18 0 -36 5 -39 10 -4 6 10 10 34 10 49 0 54 18 15 58 -15 15
-24 22 -20 16z m6 -29 c-7 -8 -17 -15 -23 -15 -6 0 -2 7 9 15 25 19 30 19 14
0z"/>
<path d="M1860 900 c0 -5 5 -10 11 -10 5 0 7 5 4 10 -3 6 -8 10 -11 10 -2 0
-4 -4 -4 -10z"/>
<path d="M1257 894 c-8 -8 1 -24 14 -24 5 0 9 7 9 15 0 15 -12 20 -23 9z"/>
<path d="M1301 887 c9 -7 14 -19 11 -27 -2 -8 4 -5 13 8 9 13 23 21 31 18 8
-3 14 -1 14 4 0 6 -19 10 -42 10 -36 -1 -40 -3 -27 -13z"/>
<path d="M1561 897 c2 -1 12 -9 22 -16 15 -12 17 -12 11 3 -3 9 -13 16 -22 16
-8 0 -13 -1 -11 -3z"/>
<path d="M1660 870 c6 -11 13 -20 16 -20 2 0 0 9 -6 20 -6 11 -13 20 -16 20
-2 0 0 -9 6 -20z"/>
<path d="M1694 874 c9 -8 24 -13 34 -11 16 4 16 5 0 6 -10 0 -18 6 -18 11 0 6
-7 10 -16 10 -14 0 -14 -1 0 -16z"/>
<path d="M1875 869 c-4 -6 -4 -13 -1 -16 3 -4 6 -1 6 6 0 7 5 9 10 6 6 -4 8
-15 5 -26 -8 -23 7 -25 25 -4 8 10 9 15 2 15 -6 0 -9 7 -6 15 7 18 -31 22 -41
4z"/>
<path d="M2080 861 c0 -11 7 -26 15 -34 8 -8 11 -18 7 -22 -4 -4 3 -2 16 4 24
13 30 3 10 -17 -9 -9 -8 -15 8 -27 29 -22 42 -18 36 10 -2 14 -8 25 -13 25 -4
0 -6 10 -4 21 3 12 0 29 -5 38 -8 13 -9 14 -10 1 0 -10 -3 -11 -8 -4 -4 6 -17
14 -29 18 -19 6 -23 4 -23 -13z"/>
<path d="M2213 865 c4 -8 2 -17 -3 -20 -6 -4 -10 -2 -10 4 0 6 -6 8 -14 5 -15
-6 -18 -44 -4 -44 4 0 7 -3 7 -7 -1 -5 -1 -17 0 -28 1 -15 3 -17 10 -7 4 8 11
13 15 13 18 -3 18 0 0 15 -18 14 -18 14 6 3 35 -17 36 -18 14 -33 -10 -8 -16
-18 -12 -22 4 -4 14 -1 22 5 9 7 17 8 20 2 3 -5 0 -11 -6 -14 -7 -3 -3 -5 8
-4 l22 1 -24 37 c-12 20 -20 39 -17 42 7 8 -20 67 -31 67 -4 0 -6 -7 -3 -15z"/>
<path d="M1460 850 c0 -13 7 -20 20 -20 23 0 26 10 8 28 -18 18 -28 15 -28 -8z"/>
<path d="M1517 848 c19 -22 19 -22 26 -4 4 11 1 13 -10 9 -10 -4 -14 -2 -10 4
3 5 0 10 -8 10 -13 0 -12 -4 2 -19z"/>
<path d="M1787 864 c-4 -4 -7 -14 -7 -23 0 -11 3 -12 11 -4 6 6 10 16 7 23 -2
6 -7 8 -11 4z"/>
<path d="M1420 845 c-9 -11 -9 -15 -1 -15 7 0 10 -4 6 -9 -3 -5 -1 -12 4 -15
5 -3 12 1 15 10 9 23 8 26 -6 18 -8 -5 -9 -2 -5 9 8 21 3 22 -13 2z"/>
<path d="M2680 838 c0 -6 -3 -9 -6 -5 -3 3 -11 1 -18 -4 -6 -5 -20 -17 -31
-25 -11 -9 -14 -13 -8 -9 8 4 11 1 8 -7 -3 -8 4 -23 15 -35 11 -12 20 -27 20
-33 0 -14 16 -13 53 5 23 12 27 12 15 2 -10 -8 -15 -17 -11 -20 6 -6 -19 -11
-39 -8 -4 0 -5 -6 -2 -14 4 -8 9 -15 13 -16 3 0 16 -2 29 -5 14 -2 21 0 17 6
-3 5 -2 10 3 10 17 0 19 -35 4 -50 -14 -13 -15 -12 -10 1 4 10 0 15 -12 15
-15 0 -16 -4 -7 -23 12 -27 20 -29 37 -8 9 11 16 13 24 5 7 -7 4 -15 -11 -25
-22 -15 -22 -52 0 -38 5 3 7 1 4 -4 -4 -6 4 -27 18 -47 14 -20 25 -41 25 -45
0 -5 7 -14 15 -21 13 -11 15 0 15 85 l0 97 -24 -4 c-16 -3 -27 0 -31 9 -6 17
2 33 16 33 6 0 7 -5 3 -12 -4 -7 -3 -8 5 -4 13 9 -33 93 -49 89 -6 -2 -11 3
-11 10 -1 6 -2 17 -3 22 0 6 -11 27 -24 48 -23 36 -42 48 -42 25z m105 -148
c3 -5 -1 -10 -9 -10 -9 0 -16 5 -16 10 0 6 4 10 9 10 6 0 13 -4 16 -10z"/>
<path d="M1550 830 c0 -5 5 -10 11 -10 5 0 7 5 4 10 -3 6 -8 10 -11 10 -2 0
-4 -4 -4 -10z"/>
<path d="M1580 829 c0 -5 5 -7 10 -4 6 3 10 8 10 11 0 2 -4 4 -10 4 -5 0 -10
-5 -10 -11z"/>
<path d="M1610 830 c0 -5 5 -10 11 -10 5 0 7 5 4 10 -3 6 -8 10 -11 10 -2 0
-4 -4 -4 -10z"/>
<path d="M1659 838 c-7 -29 -5 -38 9 -39 10 0 12 -3 6 -5 -7 -3 -4 -29 10 -79
18 -63 24 -75 42 -75 20 0 21 3 12 40 -6 22 -15 40 -20 40 -5 0 -6 4 -3 10 3
5 1 27 -6 49 -9 29 -16 38 -27 33 -10 -3 -13 -1 -8 6 3 6 2 13 -4 17 -5 3 -10
5 -11 3z"/>
<path d="M2415 829 c-4 -6 -5 -12 -2 -15 2 -3 7 2 10 11 7 17 1 20 -8 4z"/>
<path d="M1710 816 c0 -8 8 -13 18 -12 10 0 16 -5 13 -14 -7 -27 -4 -64 8
-107 9 -34 15 -40 32 -36 11 3 18 11 16 17 -2 6 -12 41 -23 78 -13 49 -24 70
-41 77 -18 8 -23 8 -23 -3z m53 -69 c3 -8 1 -20 -4 -28 -6 -10 -9 -7 -9 14 0
29 5 35 13 14z"/>
<path d="M1599 796 c5 -6 20 -42 33 -80 17 -47 31 -70 43 -72 14 -2 16 3 11
29 -14 73 -56 151 -56 105 0 -6 -3 -8 -6 -5 -4 4 -2 13 5 21 9 11 7 14 -14 14
-17 0 -23 -4 -16 -12z"/>
<path d="M1774 793 c4 -9 11 -37 17 -62 16 -74 19 -81 40 -81 21 0 25 25 9 50
-8 12 -12 13 -19 2 -6 -11 -10 -10 -15 3 -9 23 -8 25 9 25 18 0 18 7 4 49 -7
21 -18 31 -31 31 -15 0 -18 -5 -14 -17z"/>
<path d="M2495 800 c-3 -6 3 -22 14 -36 12 -15 21 -34 21 -43 1 -14 2 -14 13
1 9 11 18 14 28 7 12 -7 11 -9 -3 -9 -26 0 -32 -19 -12 -42 14 -15 27 -19 52
-14 37 6 62 -1 62 -17 0 -6 -3 -7 -6 -4 -4 3 -15 2 -25 -4 -11 -5 -19 -6 -19
-2 0 4 -11 8 -24 8 l-24 0 22 -39 c11 -21 25 -46 30 -55 8 -16 12 -16 53 3 23
11 43 23 43 26 0 18 -74 129 -80 120 -4 -6 -13 -5 -26 5 -18 14 -18 14 4 8 26
-6 27 -2 7 37 -9 17 -22 30 -31 30 -8 0 -17 7 -20 15 -4 8 -11 15 -16 15 -6 0
-5 -7 2 -16 11 -13 10 -19 -8 -37 -12 -12 -22 -16 -22 -10 0 6 8 14 18 18 15
6 15 8 -7 26 -26 21 -37 24 -46 9z"/>
<path d="M1830 794 c0 -20 24 -94 30 -94 5 0 6 -9 3 -20 -4 -16 0 -20 21 -20
17 0 26 5 26 16 0 8 -4 13 -9 9 -5 -3 -12 -1 -16 5 -3 5 -1 10 4 10 15 0 14
20 -4 54 -8 15 -12 32 -9 37 3 5 -6 9 -20 9 -14 0 -26 -3 -26 -6z"/>
<path d="M1893 774 c18 -64 19 -65 35 -59 14 5 15 4 5 -6 -23 -23 -15 -39 18
-39 26 0 30 3 24 18 -4 9 -10 25 -12 34 -3 10 -9 16 -13 13 -5 -3 -6 4 -3 15
3 11 0 21 -6 21 -21 3 -26 4 -40 13 -10 6 -12 4 -8 -10z"/>
<path d="M1970 751 c0 -10 5 -33 11 -50 9 -26 16 -32 33 -27 11 3 24 6 28 6 3
0 1 15 -4 33 -6 17 -12 38 -14 45 -2 6 -15 12 -29 12 -18 0 -25 -5 -25 -19z"/>
<path d="M2390 765 c0 -16 39 -75 50 -75 5 0 7 -7 4 -15 -8 -20 15 -48 30 -36
7 6 16 4 23 -4 8 -9 9 -16 3 -20 -6 -3 -10 -1 -10 4 0 6 -4 11 -10 11 -12 0
-13 -10 -2 -28 7 -10 16 -9 45 3 20 8 37 21 37 28 -1 30 -68 76 -92 61 -7 -4
-5 2 5 13 9 11 17 23 17 27 0 5 -8 5 -17 1 -36 -14 -48 -12 -65 14 -10 14 -18
22 -18 16z m100 -100 c0 -2 -9 -3 -19 -2 -11 0 -18 5 -15 9 4 6 34 0 34 -7z"/>
<path d="M2066 737 c-22 -16 -13 -57 12 -57 13 0 14 2 3 9 -10 7 -10 10 -1 16
7 4 16 2 21 -6 13 -22 20 -4 10 25 -12 29 -19 32 -45 13z m34 -6 c0 -5 -7 -11
-15 -15 -15 -5 -20 5 -8 17 9 10 23 9 23 -2z"/>
<path d="M2128 733 c6 -2 18 -2 25 0 6 3 1 5 -13 5 -14 0 -19 -2 -12 -5z"/>
<path d="M1290 721 c0 -6 9 -15 21 -21 18 -10 20 -9 17 7 -3 19 -38 32 -38 14z"/>
<path d="M2168 716 c-24 -17 -23 -27 2 -23 22 4 39 17 21 17 -7 0 -9 5 -6 10
8 13 4 12 -17 -4z"/>
<path d="M2500 716 c0 -2 7 -9 15 -16 13 -11 14 -10 9 4 -5 14 -24 23 -24 12z"/>
<path d="M1220 690 c6 -11 15 -20 20 -20 16 0 11 27 -6 34 -24 9 -26 8 -14
-14z"/>
<path d="M2340 691 c-12 -8 -12 -13 0 -35 17 -32 28 -33 40 -3 6 15 9 17 9 6
1 -9 -6 -22 -14 -29 -21 -18 -19 -35 3 -19 15 12 16 12 4 -2 -10 -13 -6 -28
23 -85 20 -38 40 -68 44 -67 5 1 8 -5 7 -15 -1 -11 6 -16 17 -16 13 2 15 -1 7
-11 -8 -10 -5 -22 10 -47 32 -53 23 -57 -10 -5 -16 26 -30 52 -30 57 0 6 -5 9
-12 7 -7 -1 -12 5 -13 13 -1 25 -16 60 -26 60 -5 0 -9 7 -9 15 0 36 -92 192
-103 174 -1 -2 -10 -14 -20 -26 -18 -20 -18 -23 -2 -57 19 -39 35 -45 59 -20
16 16 18 14 16 -23 -1 -5 -12 -7 -25 -5 -14 2 -25 1 -25 -2 0 -3 20 -45 44
-93 43 -83 73 -153 62 -143 -2 3 -30 56 -61 118 -34 67 -61 109 -67 105 -7 -4
-8 -1 -3 6 5 10 -28 96 -51 129 -6 9 -74 -12 -71 -22 3 -6 9 -10 15 -9 5 1 8
-7 5 -17 -3 -11 0 -20 6 -20 6 0 11 -8 11 -17 1 -26 23 -50 40 -46 12 4 12 3
2 -5 -11 -7 -8 -21 15 -71 16 -34 33 -58 38 -54 4 4 5 2 1 -4 -4 -7 -1 -23 5
-35 11 -21 11 -22 -4 -10 -9 8 -23 35 -32 60 -9 26 -25 61 -36 77 -10 17 -33
60 -51 98 -33 70 -42 77 -74 51 -10 -8 -12 -12 -4 -8 12 6 13 5 3 -7 -10 -12
-7 -23 12 -56 12 -23 21 -44 18 -47 -8 -7 -53 82 -53 105 0 20 -24 26 -35 9
-4 -6 -11 -8 -16 -5 -12 8 -11 -2 5 -55 22 -73 82 -181 108 -194 57 -30 58
-28 22 50 -19 41 -30 73 -26 70 4 -2 19 -27 32 -55 13 -30 30 -51 39 -51 13 0
13 -2 2 -9 -11 -7 -9 -13 8 -30 11 -11 30 -21 41 -21 11 0 20 -4 20 -10 0 -5
7 -10 15 -10 8 0 15 5 15 12 0 7 6 4 13 -5 14 -19 111 -52 100 -34 -4 7 1 5
11 -3 17 -13 60 -32 111 -47 19 -6 19 -6 2 20 -21 32 -21 33 -1 41 13 5 14 3
6 -6 -7 -9 -6 -18 4 -32 7 -10 11 -23 8 -27 -3 -5 8 -11 23 -14 15 -4 43 -13
61 -21 18 -8 40 -14 50 -14 9 -1 50 -14 90 -29 l72 -29 0 129 c0 71 -4 129 -8
129 -5 0 -15 12 -22 28 l-13 27 -8 -25 c-4 -14 -7 -19 -8 -12 -1 6 -11 12 -23
13 -22 1 -22 1 2 8 36 10 36 34 1 85 l-31 44 -42 -21 c-24 -12 -45 -23 -46
-24 -2 -1 4 -15 14 -32 10 -16 21 -28 26 -25 4 3 5 -1 2 -9 -3 -8 2 -20 11
-27 8 -7 15 -19 15 -26 0 -8 15 -35 33 -61 44 -63 96 -158 68 -123 -11 14 -23
33 -27 43 -3 9 -10 17 -15 17 -5 0 -9 6 -9 14 0 7 -16 34 -35 59 -19 25 -35
49 -35 54 0 18 -87 153 -94 146 -4 -4 -5 -1 -2 7 3 8 -1 23 -8 33 -13 17 -16
17 -38 3 -14 -9 -27 -14 -30 -11 -3 3 -10 -1 -17 -9 -9 -11 -9 -17 1 -27 7 -8
29 -45 48 -84 19 -38 43 -78 52 -87 10 -10 13 -20 8 -23 -6 -3 -19 10 -31 29
-12 20 -26 36 -32 36 -7 0 -22 8 -35 18 -22 17 -22 18 -2 18 11 0 20 -6 20
-13 0 -7 4 -13 10 -13 14 0 4 23 -58 133 -30 53 -58 97 -64 97 -5 0 -6 -4 -3
-10 3 -5 1 -10 -4 -10 -14 0 -14 13 1 28 7 7 10 12 8 13 -17 3 -37 8 -50 13
-8 3 -22 2 -30 -3z m-130 -41 c0 -5 -5 -10 -11 -10 -5 0 -7 5 -4 10 3 6 8 10
11 10 2 0 4 -4 4 -10z m109 -19 c8 -5 9 -11 3 -15 -5 -3 -15 1 -22 9 -14 16
-3 20 19 6z m-109 -11 c0 -5 -4 -10 -10 -10 -5 0 -10 5 -10 10 0 6 5 10 10 10
6 0 10 -4 10 -10z m205 0 c3 -5 1 -10 -4 -10 -6 0 -11 5 -11 10 0 6 2 10 4 10
3 0 8 -4 11 -10z m165 -69 c0 -5 -9 -7 -20 -4 -11 3 -20 7 -20 9 0 2 9 4 20 4
11 0 20 -4 20 -9z m15 -61 c-3 -5 -14 -10 -23 -9 -14 0 -13 2 3 9 27 11 27 11
20 0z m85 -95 c0 -8 -2 -15 -4 -15 -2 0 -6 7 -10 15 -3 8 -1 15 4 15 6 0 10
-7 10 -15z m-21 -121 c12 -20 20 -39 17 -41 -2 -3 -14 13 -26 36 -25 51 -20
54 9 5z"/>
<path d="M2245 680 c-16 -7 -17 -9 -3 -9 9 -1 20 4 23 9 7 11 7 11 -20 0z"/>
<path d="M1480 651 c0 -6 4 -13 10 -16 6 -3 7 1 4 9 -7 18 -14 21 -14 7z"/>
<path d="M2628 653 c7 -3 16 -2 19 1 4 3 -2 6 -13 5 -11 0 -14 -3 -6 -6z"/>
<path d="M1902 643 c-27 -4 -32 -8 -27 -21 4 -9 11 -33 16 -52 24 -90 33 -111
46 -106 8 3 12 2 9 -3 -3 -5 5 -11 19 -13 14 -3 25 -2 25 1 0 15 -37 60 -44
54 -5 -5 -5 2 -2 15 4 12 4 22 -1 22 -4 0 -9 24 -10 53 -1 28 1 45 4 37 2 -8
7 -22 10 -30 3 -8 7 -22 9 -30 7 -36 11 -48 34 -94 20 -42 25 -46 31 -30 7 18
8 17 8 -3 1 -19 35 -42 47 -31 2 3 -14 41 -36 86 -21 45 -42 97 -46 117 -7 38
-8 38 -92 28z"/>
<path d="M1824 612 c3 -9 10 -36 16 -59 12 -46 53 -96 58 -70 2 7 -3 27 -9 43
-7 16 -11 33 -10 38 1 5 -3 21 -9 36 -12 29 -54 41 -46 12z"/>
<path d="M1678 613 c7 -3 16 -2 19 1 4 3 -2 6 -13 5 -11 0 -14 -3 -6 -6z"/>
<path d="M1710 610 c0 -5 5 -10 11 -10 6 0 8 -8 4 -19 -6 -21 25 -61 48 -61 7
0 8 3 2 8 -5 4 -11 25 -12 47 -2 40 -2 40 10 13 9 -20 16 -25 25 -18 9 7 9 7
2 -2 -23 -28 -7 -64 24 -52 11 4 13 11 6 27 -5 12 -11 34 -14 50 -6 25 -10 27
-56 27 -28 0 -50 -4 -50 -10z"/>
<path d="M1580 600 c19 -13 30 -13 30 0 0 6 -10 10 -22 10 -19 0 -20 -2 -8
-10z"/>
<path d="M1627 590 c3 -11 6 -20 7 -20 1 0 15 -4 33 -9 26 -7 31 -7 26 5 -3 8
1 14 8 14 10 0 11 2 0 13 -10 10 -15 9 -24 -4 -14 -18 -37 -14 -37 7 0 8 -4
14 -9 14 -5 0 -7 -9 -4 -20z"/>
<path d="M1487 580 c6 -22 24 -22 31 0 3 7 0 10 -7 6 -6 -4 -11 -2 -11 3 0 6
-4 11 -9 11 -5 0 -7 -9 -4 -20z"/>
<path d="M1610 540 c0 -5 5 -10 11 -10 5 0 7 5 4 10 -3 6 -8 10 -11 10 -2 0
-4 -4 -4 -10z"/>
<path d="M1706 495 c4 -8 10 -12 15 -9 14 8 10 24 -6 24 -9 0 -12 -6 -9 -15z"/>
</g>
</svg>
