<?xml version="1.0" standalone="no"?>
<!DOCTYPE svg PUBLIC "-//W3C//DTD SVG 20010904//EN"
 "http://www.w3.org/TR/2001/REC-SVG-20010904/DTD/svg10.dtd">
<svg version="1.0" xmlns="http://www.w3.org/2000/svg"
 width="970.000000pt" height="546.000000pt" viewBox="0 0 970.000000 546.000000"
 preserveAspectRatio="xMidYMid meet">

<g transform="translate(0.000000,546.000000) scale(0.100000,-0.100000)"
fill="#000000" stroke="none">
<path d="M0 5010 c0 -247 1 -450 3 -450 1 0 18 5 37 11 50 15 172 12 290 -7
48 -8 81 -35 130 -107 14 -20 41 -46 60 -56 19 -10 37 -27 40 -39 3 -11 16
-29 30 -39 34 -26 182 -95 250 -118 30 -10 64 -21 75 -26 11 -4 31 -10 45 -12
40 -8 107 -36 90 -38 -8 -1 -19 0 -25 1 -5 1 -26 7 -45 11 -99 26 -242 49
-302 49 l-67 0 10 -32 c5 -17 13 -36 19 -42 16 -16 160 -34 199 -25 20 5 43 3
54 -3 26 -13 226 -7 235 8 5 8 50 12 131 13 68 1 128 4 133 7 13 9 9 -8 -7
-26 -14 -15 -11 -18 36 -33 28 -10 60 -17 71 -17 11 0 29 -5 41 -12 18 -9 56
-21 104 -31 31 -7 24 -19 -7 -13 -42 8 -79 14 -140 22 -25 4 -51 11 -58 17 -7
5 -22 11 -35 13 -12 2 -42 9 -67 15 -50 13 -204 23 -225 15 -8 -3 -11 -13 -8
-25 4 -15 17 -21 56 -26 29 -4 67 -13 86 -22 18 -8 44 -13 57 -10 14 2 25 -1
28 -9 3 -8 12 -14 21 -14 10 0 15 -10 15 -30 0 -29 2 -30 45 -30 37 0 45 -3
45 -18 0 -19 18 -42 33 -42 4 0 5 5 2 10 -3 6 3 10 14 10 14 0 21 -6 21 -19 0
-15 10 -21 40 -26 65 -11 55 -23 -14 -18 -36 3 -73 2 -83 -2 -26 -11 -136 -6
-218 11 -38 8 -88 14 -110 14 -22 0 -82 9 -132 19 -90 17 -93 17 -93 -1 0 -11
-7 -18 -20 -18 -18 0 -26 -20 -21 -52 0 -5 -16 -9 -36 -9 -21 -1 -29 -4 -17
-6 31 -6 21 -53 -12 -53 -27 0 -44 -20 -17 -21 16 0 16 -1 -2 -9 -17 -7 -17
-9 -2 -9 28 -1 19 -21 -10 -22 -25 0 -26 -1 -8 -9 19 -9 19 -9 -2 -16 -27 -8
-30 -21 -5 -27 9 -3 -23 -5 -73 -6 -66 0 -85 2 -72 10 15 9 15 12 3 24 -8 8
-33 17 -55 21 -29 5 -40 11 -39 21 2 9 -4 19 -12 23 -8 4 -33 17 -55 29 -22
12 -47 25 -57 28 -9 3 -19 21 -23 41 -4 21 -12 40 -18 44 -6 3 -15 21 -21 39
-6 18 -17 34 -24 37 -7 2 -12 0 -10 -5 4 -15 -14 -138 -23 -153 -7 -13 -8 -12
-9 2 0 35 -10 253 -12 265 -2 14 -29 21 -123 28 -90 8 -103 10 -111 18 -4 4
-11 7 -16 7 -4 0 -8 -137 -8 -304 l0 -305 54 -15 c30 -9 84 -17 119 -17 61 -1
65 -3 70 -26 5 -25 4 -25 -47 -19 -28 3 -84 9 -123 13 l-73 6 0 -34 c0 -30 3
-34 28 -35 116 -6 179 -17 198 -35 22 -21 34 -16 34 12 0 16 4 17 26 9 14 -6
49 -10 79 -10 29 0 111 -7 182 -14 152 -18 308 -24 319 -13 4 4 3 7 -2 8 -5 0
-56 7 -114 15 -58 8 -142 19 -188 24 -45 5 -99 14 -120 19 -20 6 -56 11 -78
11 -23 0 -56 3 -73 6 -26 6 -31 11 -31 35 0 29 13 38 25 19 8 -12 85 -13 104
-1 7 5 11 13 7 19 -10 17 378 0 419 -18 11 -5 52 -14 90 -20 39 -6 90 -14 115
-19 25 -5 92 -16 150 -26 115 -20 150 -35 80 -35 -50 0 -65 -7 -65 -30 0 -8 5
-19 10 -23 6 -4 -10 -5 -35 -2 -108 13 -263 24 -271 19 -19 -11 -8 -22 29 -28
43 -8 65 -11 186 -25 49 -6 91 -13 94 -15 6 -7 32 20 32 33 0 6 11 11 25 11
16 0 25 -6 25 -15 0 -9 -9 -15 -25 -15 -28 0 -29 -3 -15 -29 6 -13 5 -27 -3
-45 -13 -29 -27 -34 -27 -11 0 13 -13 15 -77 13 -56 -2 -77 -7 -75 -15 1 -7
-2 -13 -8 -13 -5 0 -10 5 -10 10 0 6 -8 10 -18 10 -32 0 -43 -39 -40 -135 l3
-90 39 -5 c36 -5 40 -9 51 -45 12 -42 11 -42 81 -29 40 8 46 -9 35 -91 -5 -33
-6 -65 -4 -72 3 -7 45 -13 111 -17 59 -3 144 -8 189 -11 52 -2 85 0 89 7 4 5
6 33 4 62 -4 100 -2 152 9 196 6 25 11 62 11 83 l0 37 64 0 c39 0 67 5 72 13
5 6 9 33 9 60 -1 46 0 47 30 46 16 0 23 -3 15 -6 -23 -9 -29 -24 -20 -49 6
-14 5 -26 0 -29 -7 -4 -6 -14 1 -26 7 -14 16 -18 30 -14 25 8 81 -13 72 -27
-3 -6 -5 -46 -4 -90 1 -53 -2 -85 -11 -95 -11 -14 -14 -7 -23 43 -9 54 -12 59
-37 62 -18 2 -28 -2 -29 -10 -4 -42 -20 -98 -28 -98 -4 0 -12 5 -17 10 -7 7
-16 4 -28 -9 -13 -14 -16 -33 -14 -82 l3 -64 80 -3 c53 -2 85 -8 96 -18 14
-13 17 -13 22 -1 4 11 17 13 51 10 24 -3 55 -3 68 0 23 6 23 8 23 156 0 82 -3
152 -6 155 -3 3 -29 9 -59 13 -31 5 -55 14 -58 22 -4 11 6 12 50 7 65 -8 88
-1 88 28 0 11 7 30 15 40 14 18 20 19 73 8 70 -14 147 -16 171 -2 24 12 63 1
97 -29 19 -16 42 -25 69 -27 22 -1 113 -5 203 -8 90 -4 175 -12 190 -17 15 -6
63 -13 107 -15 182 -11 225 -15 345 -33 36 -6 73 -8 83 -5 10 3 23 1 30 -4 7
-5 73 -17 147 -25 74 -9 155 -19 180 -22 25 -3 63 -8 85 -10 22 -3 45 -6 50
-7 6 -1 23 2 38 6 26 6 33 -1 28 -28 -1 -4 11 -5 26 -2 21 5 24 4 13 -4 -13
-9 -13 -11 0 -20 11 -7 8 -9 -15 -7 -28 2 -30 0 -36 -43 -6 -43 -6 -43 -9 -10
-1 19 -4 28 -7 19 -2 -10 -13 -19 -24 -22 -14 -4 -19 -14 -19 -36 0 -25 -4
-31 -22 -32 -19 -1 -17 -3 7 -9 27 -7 25 -8 -18 -9 -53 -1 -67 -18 -59 -71 4
-26 6 -27 85 -34 45 -3 145 -6 222 -6 111 0 145 -3 163 -16 15 -10 22 -11 22
-3 0 9 55 10 238 4 130 -5 311 -9 402 -10 91 -1 235 -7 320 -13 167 -12 365
-19 775 -27 143 -3 373 -10 510 -15 321 -12 585 -22 705 -25 52 -2 175 -6 272
-10 l176 -7 0 45 0 44 -56 6 c-51 5 -60 4 -82 -18 -22 -21 -36 -25 -83 -25
-50 0 -57 2 -57 20 0 11 -6 20 -14 20 -8 0 -20 2 -28 5 -7 3 -21 -7 -30 -22
-15 -24 -18 -25 -18 -8 -1 18 -2 18 -13 4 -15 -19 -121 -26 -132 -9 -6 9 -10
9 -16 -1 -5 -8 -9 -9 -9 -4 0 15 13 31 30 37 11 3 5 10 -17 21 -40 21 -73 22
-73 2 0 -9 9 -15 23 -15 19 -1 20 -2 6 -10 -10 -6 -32 -10 -50 -9 -112 1 -248
8 -269 13 -21 6 -22 5 -5 -3 17 -8 16 -10 -12 -10 -23 -1 -33 4 -33 14 0 17
-18 18 -74 6 -46 -11 -66 -5 -66 19 0 9 -9 25 -20 35 -15 13 -17 22 -10 36 6
10 10 27 10 39 0 11 12 32 28 45 25 23 34 24 111 21 72 -3 86 -7 100 -25 13
-17 19 -19 29 -9 6 6 12 17 12 23 0 19 59 5 65 -16 8 -25 35 -25 35 0 0 20 25
35 53 32 15 -2 22 14 18 42 0 4 4 7 10 7 7 0 9 -10 5 -25 -5 -20 -2 -26 19
-31 14 -3 25 -12 25 -20 0 -8 4 -14 8 -14 16 0 105 49 114 62 6 10 10 10 18
-2 8 -13 10 -13 10 1 0 16 39 39 65 39 8 0 15 5 15 11 0 5 -4 8 -9 5 -5 -4
-20 -2 -32 3 l-23 8 22 14 c12 8 28 32 34 54 6 22 13 34 15 28 3 -7 10 -13 17
-13 19 0 97 61 91 71 -4 5 0 6 8 3 8 -3 21 2 30 10 17 17 107 23 107 7 0 -5 9
-13 20 -16 11 -4 18 -11 15 -16 -4 -5 0 -9 7 -9 10 0 10 -2 -1 -9 -8 -5 -11
-16 -7 -26 4 -11 -4 -27 -24 -47 -34 -34 -32 -44 13 -56 22 -6 33 -15 35 -31
4 -27 -23 -61 -49 -61 -10 0 -21 -4 -24 -10 -8 -12 -48 -13 -61 -1 -5 4 -22
11 -39 14 -16 4 -25 4 -19 1 7 -3 10 -13 7 -23 -3 -14 3 -20 27 -25 18 -3 36
-3 41 0 16 10 69 -7 69 -21 0 -8 6 -12 14 -9 7 3 20 -2 29 -10 27 -28 43 -19
44 25 1 22 6 55 12 72 5 18 9 128 10 245 l0 213 -199 -3 c-110 -2 -200 0 -200
5 0 4 26 8 58 9 31 0 68 2 82 3 14 1 72 4 130 6 120 3 130 6 130 26 0 12 -15
14 -83 12 -45 -2 -87 -1 -92 3 -6 3 -23 8 -38 12 -15 4 -25 11 -22 16 3 6 1
10 -4 10 -6 0 -11 -5 -11 -11 0 -7 -12 -10 -30 -7 -23 4 -30 1 -30 -12 0 -22
-9 -30 -26 -23 -9 3 -11 9 -5 17 6 7 4 16 -5 24 -12 11 -14 9 -14 -12 0 -14
-4 -28 -10 -31 -6 -4 -10 5 -10 20 0 15 -4 24 -10 20 -5 -3 -10 -2 -10 3 0 6
-9 8 -20 5 -16 -4 -20 2 -26 46 -6 48 -8 51 -35 51 -16 0 -29 5 -29 10 0 6 14
10 30 10 34 0 41 23 13 39 -14 8 -4 11 42 12 33 1 67 2 75 1 14 -1 30 15 30
30 0 11 -84 5 -92 -7 -5 -7 -8 -6 -8 1 0 6 -11 10 -25 9 -14 -2 -27 1 -31 6
-5 9 13 13 52 10 11 -1 21 4 21 11 0 8 -12 13 -31 12 -17 -1 -35 4 -39 10 -6
8 -10 7 -14 -1 -7 -18 -23 -16 -23 2 0 10 10 15 30 15 32 0 42 23 14 34 -22 9
-24 8 -24 -11 -1 -17 -1 -17 -10 -1 -12 19 -90 23 -102 4 -5 -6 -8 -2 -8 11 0
19 7 22 55 28 37 5 55 12 55 21 0 17 16 18 24 2 5 -10 7 -10 12 0 7 15 34 16
34 1 0 -7 10 -5 25 5 14 9 25 12 25 6 0 -17 37 -11 44 7 5 12 10 13 18 5 14
-14 48 6 41 25 -3 7 0 13 6 13 6 0 10 -3 10 -7 -3 -19 2 -33 11 -33 6 0 10 11
10 25 0 14 3 25 8 26 4 1 25 3 47 4 83 8 191 32 181 42 -3 3 -1 12 5 19 12 15
20 72 23 179 1 44 5 86 10 93 4 7 3 19 -3 26 -7 9 -7 16 1 24 8 8 8 15 -3 28
-11 13 -11 18 -2 21 19 7 16 31 -4 36 -17 4 -17 5 0 6 20 1 24 37 5 44 -9 3
-7 9 7 20 19 15 19 16 2 22 -10 4 -31 5 -47 1 -17 -3 -30 -1 -30 4 0 6 13 10
28 10 16 0 37 7 48 15 18 14 17 16 -8 19 -18 2 -22 26 -4 26 9 0 16 7 16 15 0
15 -4 15 -125 -2 -22 -3 -51 -6 -65 -7 -14 -1 -29 -4 -35 -7 -5 -4 -32 -6 -58
-5 -27 1 -50 -1 -53 -6 -3 -4 -12 -8 -21 -8 -11 0 -14 6 -9 24 3 14 1 28 -4
31 -8 5 -8 11 0 20 8 9 8 20 2 32 -5 10 -7 24 -4 32 3 9 0 11 -7 7 -7 -4 -9
-16 -6 -26 3 -10 2 -21 -4 -24 -5 -3 -8 -25 -6 -48 1 -24 -2 -48 -7 -55 -5 -7
-5 -14 2 -18 11 -7 4 -25 -11 -25 -5 0 -9 34 -9 75 0 58 -3 75 -14 75 -10 0
-14 -14 -15 -47 -3 -83 -6 -103 -15 -103 -5 0 -9 32 -8 71 1 60 -2 70 -15 67
-13 -2 -17 -15 -17 -52 -1 -28 -6 -51 -13 -53 -8 -3 -10 18 -9 71 2 68 1 76
-16 76 -10 0 -18 -7 -18 -15 0 -8 5 -15 12 -15 9 0 9 -3 0 -12 -7 -7 -12 -42
-12 -85 0 -45 -4 -73 -11 -73 -6 0 -9 26 -8 73 2 65 0 72 -17 75 -17 2 -20 -3
-19 -45 0 -26 -4 -48 -10 -48 -6 0 -10 36 -10 89 0 57 -4 91 -11 93 -13 4 -24
-61 -19 -113 2 -23 -1 -34 -10 -34 -9 0 -12 18 -11 68 2 77 -3 114 -15 107 -4
-3 -11 -26 -15 -50 -3 -25 -9 -45 -13 -45 -8 0 -6 90 4 203 5 54 4 77 -4 77
-6 0 -11 7 -11 15 0 9 9 15 25 15 13 0 28 6 32 13 7 11 28 14 142 20 19 1 36
7 38 13 2 6 17 8 35 6 29 -4 30 -3 24 22 -4 18 -3 25 4 21 5 -3 10 -13 10 -21
0 -8 9 -14 20 -14 25 0 26 29 5 70 -22 43 -9 37 20 -10 41 -65 75 -44 40 24
-17 33 -18 36 -7 36 4 0 16 -15 27 -32 18 -33 33 -48 48 -48 12 0 8 22 -16 81
-25 58 -25 100 -1 54 8 -15 14 -34 14 -41 0 -8 3 -14 8 -14 4 0 15 -14 25 -32
27 -48 42 -22 19 33 -28 66 -36 102 -20 97 7 -3 15 -15 18 -29 3 -13 12 -24
20 -24 8 0 15 -9 16 -20 2 -36 4 -39 15 -28 9 9 7 30 -5 85 -32 136 -37 161
-32 165 2 2 14 -21 27 -51 12 -31 26 -56 30 -56 4 0 9 13 11 29 2 17 1 28 -4
25 -4 -3 -8 21 -8 54 0 32 -9 84 -19 115 -11 32 -16 57 -11 57 12 0 50 -83 50
-110 0 -22 1 -23 16 -8 15 14 15 18 -1 42 -16 24 -16 26 -1 26 15 0 15 3 1 36
-8 20 -15 54 -15 75 l0 39 -1621 0 -1621 0 4 -25 c3 -14 1 -25 -4 -25 -5 0 -7
-8 -4 -17 6 -20 17 -87 19 -119 2 -25 25 -54 42 -54 7 0 28 -14 46 -30 18 -18
38 -29 47 -25 21 8 62 -22 62 -45 0 -11 9 -24 20 -30 24 -13 26 -30 5 -30 -8
0 -15 -9 -15 -20 0 -12 -7 -20 -17 -20 -15 0 -14 -3 5 -18 16 -12 22 -27 21
-47 -1 -17 4 -50 11 -75 6 -25 16 -73 22 -107 6 -37 14 -60 20 -57 6 4 5 -2
-1 -14 -6 -11 -10 -54 -8 -96 l2 -76 60 -1 c33 0 82 0 109 1 82 3 43 -17 -51
-26 -68 -6 -81 -9 -58 -15 17 -3 24 -7 16 -8 -8 0 -11 -4 -7 -8 13 -14 84 -30
113 -27 15 1 30 -2 34 -7 3 -5 22 -10 42 -11 21 -1 42 -7 48 -15 6 -7 19 -13
28 -14 10 0 11 -2 3 -6 -21 -8 -13 -23 13 -23 17 0 25 -5 25 -17 0 -30 -16
-46 -39 -40 -12 3 -21 1 -21 -5 0 -5 -4 -6 -10 -3 -5 3 -10 1 -10 -4 0 -6 7
-11 15 -11 8 0 15 -4 15 -10 0 -5 -10 -9 -22 -7 -15 1 -22 -3 -20 -11 1 -9 -2
-11 -10 -6 -15 10 -212 9 -227 -1 -6 -3 -11 -1 -11 4 0 6 -16 11 -35 11 -27 0
-35 4 -35 18 0 10 -5 23 -12 30 -9 9 -9 12 2 12 9 0 11 3 4 10 -5 5 -27 7 -48
3 -38 -6 -38 -6 -15 -19 l24 -13 -22 -1 c-18 0 -23 -6 -23 -25 0 -30 -25 -34
-33 -5 -3 11 -11 20 -17 20 -10 0 -10 -3 -1 -14 8 -10 9 -16 1 -21 -5 -3 -10
-1 -10 4 0 6 -4 11 -10 11 -5 0 -10 -9 -10 -20 0 -11 -3 -20 -7 -20 -13 1 -39
24 -46 40 -4 12 -6 11 -6 -2 -1 -10 -6 -18 -12 -18 -6 0 -9 9 -6 20 7 25 -13
38 -25 16 -5 -9 -16 -16 -23 -16 -8 0 -15 -9 -15 -20 0 -11 -4 -20 -10 -20 -5
0 -10 6 -10 14 0 8 5 18 10 21 15 9 12 25 -5 25 -9 0 -15 -9 -15 -24 0 -35
-17 -76 -35 -82 -19 -8 -34 4 -20 14 11 7 14 72 4 72 -3 0 -5 10 -4 23 3 33
-5 46 -23 40 -11 -3 -9 2 6 14 21 17 22 21 8 32 -9 7 -13 17 -10 22 3 5 0 9
-6 9 -6 0 -8 5 -5 10 7 12 -42 13 -100 2 -45 -9 -78 -5 -70 8 9 15 -6 18 -124
25 -78 4 -118 11 -128 21 -8 8 -22 14 -31 14 -15 0 -15 -2 -2 -10 13 -9 13
-10 0 -10 -19 0 -42 15 -41 26 0 5 -9 8 -19 6 -11 -2 -20 1 -20 7 0 5 -3 18
-7 28 -6 17 -6 17 14 1 22 -20 33 -23 33 -8 0 6 -7 10 -15 10 -8 0 -15 5 -15
10 0 6 6 10 13 10 6 0 23 12 36 25 13 14 32 25 42 25 10 0 19 5 19 11 0 6 7 8
15 5 19 -7 98 19 103 34 2 5 10 10 18 10 8 0 14 4 14 10 0 5 5 9 11 7 6 -1 16
7 22 18 7 11 16 23 20 26 5 3 13 57 19 120 6 70 15 117 22 121 7 4 14 29 14
55 3 65 19 111 42 118 11 3 30 19 43 35 23 27 28 28 81 23 31 -3 56 -2 56 3 0
5 14 25 30 44 16 19 30 45 30 57 0 12 4 23 9 25 6 2 13 29 16 61 l6 57 -2165
0 -2166 0 0 -450z m7500 280 c0 -5 -2 -10 -4 -10 -3 0 -8 5 -11 10 -3 6 -1 10
4 10 6 0 11 -4 11 -10z m-136 -296 c3 -8 2 -12 -4 -9 -6 3 -10 10 -10 16 0 14
7 11 14 -7z m-5361 -198 c15 -4 27 -11 27 -16 0 -5 7 -7 14 -4 38 15 157 -125
172 -200 3 -20 10 -36 14 -36 5 0 12 -9 15 -20 7 -21 -28 -90 -45 -90 -5 0
-10 -10 -12 -22 -2 -13 -9 -22 -15 -21 -6 1 -9 -5 -8 -15 13 -66 16 -72 34
-72 12 0 21 -8 23 -21 2 -15 11 -23 30 -25 92 -9 88 -30 -7 -39 -41 -4 -75
-11 -75 -16 0 -4 21 -10 48 -14 60 -7 141 -24 167 -35 11 -4 61 -18 110 -30
166 -42 221 -86 134 -108 -31 -8 -47 -7 -61 1 -15 9 -20 9 -27 -1 -6 -10 -34
-14 -102 -13 -175 1 -399 13 -399 22 0 5 -12 9 -27 9 -43 0 -54 13 -63 71 l-8
54 -1 -67 c-1 -70 -13 -86 -41 -54 -6 8 -18 12 -26 9 -8 -3 -14 0 -14 6 0 6
-18 20 -39 31 -22 11 -42 29 -46 40 -8 26 -41 34 -123 26 -63 -5 -65 -5 -37 9
17 8 46 18 65 22 24 5 -29 11 -175 19 -299 17 -364 24 -485 51 -22 6 -21 7 15
15 22 4 81 12 130 18 178 18 270 32 275 40 3 4 32 11 65 15 61 8 89 20 79 36
-8 14 9 10 30 -6 39 -30 129 -13 184 34 17 15 21 24 14 38 -5 10 -19 37 -31
59 -11 23 -21 54 -21 68 0 15 -9 37 -20 49 -20 21 -20 22 -1 37 10 8 22 25 26
38 13 46 88 99 160 115 20 5 28 4 78 -7z m-258 -56 c0 -22 -29 -18 -33 3 -3
14 1 18 15 15 10 -2 18 -10 18 -18z m5239 -86 c-1 -53 -7 -101 -13 -107 -7 -7
-8 21 -4 87 l6 97 -39 -7 c-22 -3 -44 -11 -51 -16 -7 -5 -14 -5 -18 1 -4 7
-12 7 -25 -1 -11 -7 -22 -9 -26 -5 -15 15 13 27 71 32 32 3 61 8 64 10 2 3 12
5 20 5 14 0 16 -14 15 -96z m-202 40 c-6 -11 -11 -13 -16 -5 -4 6 -17 12 -29
12 -13 1 -8 4 13 8 42 8 44 7 32 -15z m-152 -14 c-18 -12 -43 -13 -36 -2 2 4
15 8 28 9 18 2 19 0 8 -7z m244 -86 c3 -8 2 -12 -4 -9 -6 3 -10 10 -10 16 0
14 7 11 14 -7z m54 -19 c-3 -42 -18 -47 -18 -7 0 26 7 42 17 42 2 0 3 -16 1
-35z m-3273 6 c-6 -5 -21 -12 -34 -16 -21 -6 -22 -5 -10 8 8 9 23 16 34 17 11
0 15 -3 10 -9z m3312 -83 c-3 -7 -5 -2 -5 12 0 14 2 19 5 13 2 -7 2 -19 0 -25z
m-43 7 c3 -8 1 -15 -4 -15 -6 0 -10 7 -10 15 0 8 2 15 4 15 2 0 6 -7 10 -15z
m46 -47 c0 -16 -3 -19 -11 -11 -6 6 -8 16 -5 22 11 17 16 13 16 -11z m-105 3
c3 -5 1 -12 -5 -16 -5 -3 -10 1 -10 9 0 18 6 21 15 7z m51 -18 c-10 -10 -19 5
-10 18 6 11 8 11 12 0 2 -7 1 -15 -2 -18z m-2936 -23 c-20 -13 -50 -13 -50 0
0 6 15 10 33 10 24 0 28 -3 17 -10z m2877 -57 c-2 -16 -4 -5 -4 22 0 28 2 40
4 28 2 -13 2 -35 0 -50z m163 52 c0 -8 -4 -15 -10 -15 -5 0 -10 7 -10 15 0 8
5 15 10 15 6 0 10 -7 10 -15z m-100 -5 c0 -5 -5 -10 -11 -10 -5 0 -7 5 -4 10
3 6 8 10 11 10 2 0 4 -4 4 -10z m50 0 c0 -5 -4 -10 -10 -10 -5 0 -10 5 -10 10
0 6 5 10 10 10 6 0 10 -4 10 -10z m51 -43 c-13 -13 -26 -3 -16 12 3 6 11 8 17
5 6 -4 6 -10 -1 -17z m-114 -9 c-3 -8 -6 -5 -6 6 -1 11 2 17 5 13 3 -3 4 -12
1 -19z m58 13 c3 -5 1 -12 -5 -16 -5 -3 -10 1 -10 9 0 18 6 21 15 7z m654 -31
c-6 -4 -19 -5 -29 -3 -10 3 -21 0 -24 -6 -9 -15 -36 -2 -29 14 3 10 14 12 34
8 20 -4 29 -1 29 7 0 10 3 10 15 0 12 -10 13 -15 4 -20z m71 9 c0 -5 -11 -9
-25 -9 -26 0 -34 15 -12 23 16 5 37 -3 37 -14z m-624 -26 c-10 -10 -19 5 -10
18 6 11 8 11 12 0 2 -7 1 -15 -2 -18z m389 6 c0 -9 -9 -13 -24 -11 -13 1 -29
-3 -36 -8 -9 -8 -15 -8 -20 0 -11 17 3 28 30 22 15 -2 25 0 25 8 0 6 6 10 13
8 6 -3 12 -11 12 -19z m59 12 c3 -5 -1 -14 -8 -20 -16 -13 -32 2 -21 19 8 12
22 13 29 1z m-549 -10 c3 -5 1 -12 -5 -16 -5 -3 -10 1 -10 9 0 18 6 21 15 7z
m55 -6 c0 -8 -4 -15 -10 -15 -5 0 -10 7 -10 15 0 8 5 15 10 15 6 0 10 -7 10
-15z m-113 -17 c-3 -8 -6 -5 -6 6 -1 11 2 17 5 13 3 -3 4 -12 1 -19z m-50 -10
c-3 -8 -6 -5 -6 6 -1 11 2 17 5 13 3 -3 4 -12 1 -19z m378 -20 c-1 -18 -7 -34
-12 -35 -5 -2 -9 13 -7 34 2 47 2 45 13 39 5 -3 8 -20 6 -38z m-2205 17 c0 -8
-2 -15 -4 -15 -2 0 -6 7 -10 15 -3 8 -1 15 4 15 6 0 10 -7 10 -15z m2584 -6
c-3 -5 -10 -7 -15 -3 -5 3 -7 10 -3 15 3 5 10 7 15 3 5 -3 7 -10 3 -15z
m-3024 -6 c0 -2 -7 -11 -15 -19 -8 -9 -15 -11 -15 -5 0 21 -29 11 -33 -11 -4
-20 -4 -19 -6 5 -1 20 5 30 22 36 21 8 47 5 47 -6z m407 -5 c-3 -8 -6 -5 -6 6
-1 11 2 17 5 13 3 -3 4 -12 1 -19z m2073 7 c0 -8 -4 -15 -10 -15 -5 0 -10 7
-10 15 0 8 5 15 10 15 6 0 10 -7 10 -15z m55 5 c3 -5 -1 -10 -10 -10 -9 0 -13
5 -10 10 3 6 8 10 10 10 2 0 7 -4 10 -10z m440 0 c3 -5 -1 -10 -9 -10 -9 0
-16 5 -16 10 0 6 4 10 9 10 6 0 13 -4 16 -10z m-608 -22 c-3 -8 -6 -5 -6 6 -1
11 2 17 5 13 3 -3 4 -12 1 -19z m379 -15 c-11 -11 -19 6 -11 24 8 17 8 17 12
0 3 -10 2 -21 -1 -24z m64 16 c0 -5 -7 -9 -15 -9 -15 0 -20 12 -9 23 8 8 24
-1 24 -14z m58 9 c-6 -18 -28 -21 -28 -4 0 9 7 16 16 16 9 0 14 -5 12 -12z
m52 2 c0 -5 -4 -10 -9 -10 -6 0 -13 5 -16 10 -3 6 1 10 9 10 9 0 16 -4 16 -10z
m-600 -10 c0 -5 -5 -10 -11 -10 -5 0 -7 5 -4 10 3 6 8 10 11 10 2 0 4 -4 4
-10z m375 -19 c-9 -16 -25 -3 -18 15 4 10 9 12 15 6 6 -6 7 -15 3 -21z m-114
-18 c-9 -16 -10 -14 -11 12 0 21 3 26 11 18 8 -8 8 -16 0 -30z m-55 0 c-10
-10 -19 5 -10 18 6 11 8 11 12 0 2 -7 1 -15 -2 -18z m-2753 -25 c-8 -23 -13
-55 -12 -72 1 -17 1 -44 0 -61 -1 -23 -3 -27 -11 -15 -8 12 -6 78 4 155 2 16
16 35 25 35 5 0 2 -19 -6 -42z m147 32 c0 -5 -9 -10 -21 -10 -11 0 -17 5 -14
10 3 6 13 10 21 10 8 0 14 -4 14 -10z m2556 -17 c-10 -10 -19 5 -10 18 6 11 8
11 12 0 2 -7 1 -15 -2 -18z m494 17 c0 -5 -5 -10 -11 -10 -5 0 -7 5 -4 10 3 6
8 10 11 10 2 0 4 -4 4 -10z m67 4 c-3 -3 -12 -4 -19 -1 -8 3 -5 6 6 6 11 1 17
-2 13 -5z m-620 -26 c-3 -8 -6 -5 -6 6 -1 11 2 17 5 13 3 -3 4 -12 1 -19z
m443 6 c0 -8 -4 -12 -10 -9 -5 3 -10 10 -10 16 0 5 5 9 10 9 6 0 10 -7 10 -16z
m-3140 -4 c0 -5 -2 -10 -4 -10 -3 0 -8 5 -11 10 -3 6 -1 10 4 10 6 0 11 -4 11
-10z m2548 -15 c-3 -3 -9 2 -12 12 -6 14 -5 15 5 6 7 -7 10 -15 7 -18z m49 3
c-3 -8 -6 -5 -6 6 -1 11 2 17 5 13 3 -3 4 -12 1 -19z m433 7 c0 -8 -4 -15 -10
-15 -5 0 -10 7 -10 15 0 8 5 15 10 15 6 0 10 -7 10 -15z m60 5 c0 -5 -7 -10
-15 -10 -8 0 -15 5 -15 10 0 6 7 10 15 10 8 0 15 -4 15 -10z m-598 -60 c-1
-29 -3 -55 -6 -58 -3 -3 -6 23 -6 58 0 35 3 61 6 57 3 -3 6 -29 6 -57z m423
51 c3 -5 1 -12 -5 -16 -5 -3 -10 1 -10 9 0 18 6 21 15 7z m60 0 c3 -5 1 -12
-4 -15 -5 -3 -11 1 -15 9 -6 16 9 21 19 6z m-105 -11 c0 -5 -4 -10 -10 -10 -5
0 -10 5 -10 10 0 6 5 10 10 10 6 0 10 -4 10 -10z m-60 -10 c0 -5 -2 -10 -4
-10 -3 0 -8 5 -11 10 -3 6 -1 10 4 10 6 0 11 -4 11 -10z m440 6 c0 -3 -4 -8
-10 -11 -5 -3 -10 -1 -10 4 0 6 5 11 10 11 6 0 10 -2 10 -4z m-713 -28 c-3 -8
-6 -5 -6 6 -1 11 2 17 5 13 3 -3 4 -12 1 -19z m113 6 c0 -8 -5 -12 -10 -9 -6
4 -8 11 -5 16 9 14 15 11 15 -7z m110 6 c0 -5 -2 -10 -4 -10 -3 0 -8 5 -11 10
-3 6 -1 10 4 10 6 0 11 -4 11 -10z m160 -26 c0 -8 -4 -12 -10 -9 -5 3 -10 13
-10 21 0 8 5 12 10 9 6 -3 10 -13 10 -21z m46 -1 c-10 -10 -19 5 -10 18 6 11
8 11 12 0 2 -7 1 -15 -2 -18z m64 17 c0 -5 -5 -10 -11 -10 -5 0 -7 5 -4 10 3
6 8 10 11 10 2 0 4 -4 4 -10z m50 0 c0 -5 -4 -10 -10 -10 -5 0 -10 5 -10 10 0
6 5 10 10 10 6 0 10 -4 10 -10z m-325 -30 c3 -5 1 -10 -4 -10 -6 0 -11 5 -11
10 0 6 2 10 4 10 3 0 8 -4 11 -10z m-107 -25 c-3 -3 -9 2 -12 12 -6 14 -5 15
5 6 7 -7 10 -15 7 -18z m62 21 c0 -3 -4 -8 -10 -11 -5 -3 -10 -1 -10 4 0 6 5
11 10 11 6 0 10 -2 10 -4z m-173 -28 c-3 -8 -6 -5 -6 6 -1 11 2 17 5 13 3 -3
4 -12 1 -19z m383 2 c0 -5 -4 -10 -10 -10 -5 0 -10 5 -10 10 0 6 5 10 10 10 6
0 10 -4 10 -10z m50 6 c0 -3 -4 -8 -10 -11 -5 -3 -10 -1 -10 4 0 6 5 11 10 11
6 0 10 -2 10 -4z m-165 -16 c3 -5 1 -10 -4 -10 -6 0 -11 5 -11 10 0 6 2 10 4
10 3 0 8 -4 11 -10z m60 0 c3 -5 -1 -10 -10 -10 -9 0 -13 5 -10 10 3 6 8 10
10 10 2 0 7 -4 10 -10z m-270 -20 c3 -5 1 -10 -4 -10 -6 0 -11 5 -11 10 0 6 2
10 4 10 3 0 8 -4 11 -10z m55 0 c0 -5 -5 -10 -11 -10 -5 0 -7 5 -4 10 3 6 8
10 11 10 2 0 4 -4 4 -10z m-158 -35 c2 -19 0 -35 -4 -35 -4 0 -8 16 -8 35 0
19 2 35 4 35 2 0 6 -16 8 -35z m58 25 c0 -5 -4 -10 -10 -10 -5 0 -10 5 -10 10
0 6 5 10 10 10 6 0 10 -4 10 -10z m-1134 -32 c6 4 14 14 17 22 4 12 6 11 6 -2
1 -21 26 -24 34 -5 6 16 56 15 67 -3 4 -7 13 -9 20 -5 8 5 18 1 25 -9 12 -15
13 -15 20 1 7 16 9 15 15 -7 4 -17 13 -24 27 -23 16 2 20 -4 21 -27 0 -17 4
-39 7 -51 5 -16 9 -18 21 -8 12 10 14 -4 11 -102 -2 -63 0 -125 4 -139 6 -22
7 -23 8 -4 1 12 8 27 16 34 13 11 15 8 15 -18 0 -37 15 -49 29 -25 9 15 10 13
11 -14 0 -35 -4 -33 75 -38 14 -1 19 -7 18 -21 -1 -13 4 -21 13 -21 8 0 13 6
10 14 -3 8 1 16 10 20 20 7 29 -3 16 -20 -8 -10 -6 -13 9 -14 13 -1 19 5 19
18 0 10 5 19 11 19 5 0 9 -10 7 -22 -2 -15 2 -23 12 -23 9 0 16 11 18 28 2 16
8 26 15 24 7 -2 11 -14 10 -26 -2 -11 2 -21 7 -21 6 0 10 11 10 25 0 21 5 25
30 25 23 0 30 5 30 19 0 11 4 22 9 25 5 4 7 -2 4 -13 -6 -22 14 -38 30 -22 7
7 15 7 22 1 16 -13 61 9 76 38 15 27 34 23 33 -7 0 -11 3 -21 8 -21 4 0 8 8 8
18 1 9 7 28 15 42 14 24 14 24 15 3 0 -27 18 -40 26 -19 9 24 24 19 24 -8 0
-14 4 -27 9 -31 11 -6 25 13 26 32 0 23 20 13 21 -10 2 -52 4 -70 10 -65 3 4
7 14 8 24 4 25 26 30 26 5 0 -25 19 -38 30 -20 5 7 7 16 4 20 -2 4 0 10 5 13
11 7 25 -44 14 -55 -4 -4 -18 -9 -31 -11 -12 -1 -23 -6 -22 -10 0 -5 0 -21 0
-38 0 -20 5 -30 15 -30 8 0 15 5 15 12 0 6 7 3 16 -8 8 -10 13 -14 10 -8 -3 6
1 11 9 11 8 0 12 -5 9 -11 -3 -6 2 -2 10 8 16 19 16 19 16 -2 0 -18 -6 -22
-30 -22 -16 0 -30 -4 -30 -10 0 -5 7 -7 15 -4 8 4 15 1 15 -6 0 -7 6 -10 13
-7 8 3 20 2 27 -3 9 -6 7 -10 -9 -15 -12 -4 -28 -2 -35 4 -10 9 -15 8 -20 -4
-3 -8 -1 -15 4 -15 5 0 6 -8 3 -17 -7 -17 -6 -17 19 -1 21 14 27 15 31 4 7
-18 -1 -26 -28 -26 -19 0 -22 -5 -21 -47 1 -44 -1 -48 -21 -46 -17 2 -24 -4
-29 -22 -7 -30 -34 -33 -34 -4 0 12 -4 17 -11 14 -6 -4 -8 -13 -5 -21 6 -17
-15 -19 -31 -3 -8 8 -14 6 -22 -9 -8 -16 -7 -21 5 -26 23 -9 36 -7 29 4 -3 6
-1 10 4 10 6 0 11 -4 11 -10 0 -5 9 -10 20 -10 11 0 20 6 20 13 0 9 2 9 9 -1
5 -9 30 -12 84 -10 42 1 79 -1 83 -5 4 -4 -6 -8 -22 -8 -16 -1 -49 -3 -74 -5
-25 -1 -124 -5 -220 -8 -182 -5 -283 0 -274 16 3 5 11 8 17 7 7 -1 21 -1 31 0
19 1 19 1 0 22 -17 19 -19 19 -31 3 -8 -12 -13 -13 -13 -5 0 9 -8 11 -22 8
-12 -4 -28 -1 -35 5 -9 7 -13 7 -13 -1 0 -6 -7 -11 -15 -11 -8 0 -15 5 -15 10
0 6 -7 10 -15 10 -8 0 -15 -5 -15 -12 0 -6 -8 -4 -19 6 -11 10 -25 15 -30 11
-6 -3 -17 -3 -23 2 -7 4 -24 9 -38 10 -14 1 -42 4 -62 5 -45 4 -53 11 -40 35
10 17 11 17 17 1 10 -27 25 -22 25 8 0 16 5 24 13 21 6 -2 11 -12 11 -21 -1
-9 5 -16 13 -16 8 0 11 5 8 10 -3 6 2 13 12 16 10 3 25 9 34 14 20 10 29 3 29
-22 0 -26 20 -22 21 5 3 114 -4 167 -21 167 -5 0 -7 -18 -7 -40 1 -22 -2 -41
-8 -42 -5 -2 -9 16 -8 40 1 44 -11 57 -20 22 -4 -17 -11 -19 -31 -14 -23 5
-26 3 -27 -22 l-2 -29 -4 28 c-4 26 -7 27 -39 21 -30 -6 -34 -4 -28 12 6 18 6
18 -8 0 -8 -10 -19 -16 -24 -13 -6 3 -16 2 -24 -3 -9 -5 -20 -5 -28 2 -9 8
-16 8 -24 0 -8 -8 -15 -9 -25 0 -11 8 -13 4 -11 -23 0 -19 -4 -72 -10 -118 -7
-46 -9 -94 -6 -107 5 -18 2 -24 -10 -24 -14 0 -15 19 -13 156 1 85 1 157 -2
159 -2 3 -10 0 -17 -6 -8 -7 -14 -7 -19 1 -11 18 -25 11 -25 -15 0 -33 -15
-32 -16 1 -3 35 -12 41 -29 18 -8 -11 -15 -14 -15 -6 0 15 -30 16 -30 1 0 -8
-4 -8 -14 0 -7 6 -20 9 -28 6 -19 -7 -29 25 -16 49 9 17 3 18 -95 19 -27 0
-36 4 -33 14 4 9 -4 14 -22 15 -82 5 -98 6 -107 8 -5 1 -14 2 -19 1 -4 -1 -14
3 -21 9 -7 6 -25 8 -40 4 -30 -7 -47 9 -38 34 5 11 9 9 18 -9 l13 -22 6 21 c8
23 26 30 26 10 0 -6 6 -4 13 7 8 10 18 15 24 12 5 -3 25 -2 45 2 19 5 42 4 51
0 10 -6 18 -5 22 1 4 6 10 8 15 5 5 -3 11 -1 15 5 4 6 11 8 16 5 14 -9 49 5
46 18 -1 7 6 11 16 11 9 -1 17 1 18 5 0 3 2 44 5 91 3 46 9 87 13 90 8 5 40
73 41 88 0 4 8 7 18 7 12 0 20 12 27 39 8 32 10 36 15 18 3 -13 10 -18 16 -14z
m1504 16 c0 -8 -4 -12 -10 -9 -5 3 -10 10 -10 16 0 5 5 9 10 9 6 0 10 -7 10
-16z m55 6 c-3 -5 -10 -10 -16 -10 -5 0 -9 5 -9 10 0 6 7 10 16 10 8 0 12 -4
9 -10z m-160 -10 c3 -5 -1 -10 -10 -10 -9 0 -13 5 -10 10 3 6 8 10 10 10 2 0
7 -4 10 -10z m45 0 c0 -5 -4 -10 -10 -10 -5 0 -10 5 -10 10 0 6 5 10 10 10 6
0 10 -4 10 -10z m-318 -47 c-4 -55 -12 -54 -12 2 0 27 3 45 7 41 4 -4 6 -23 5
-43z m165 31 c-3 -3 -12 -4 -19 -1 -8 3 -5 6 6 6 11 1 17 -2 13 -5z m-2667 -8
c0 -3 -4 -8 -10 -11 -5 -3 -10 -1 -10 4 0 6 5 11 10 11 6 0 10 -2 10 -4z
m1320 -6 c0 -5 -4 -10 -10 -10 -5 0 -10 5 -10 10 0 6 5 10 10 10 6 0 10 -4 10
-10z m1610 -4 c0 -3 -4 -8 -10 -11 -5 -3 -10 -1 -10 4 0 6 5 11 10 11 6 0 10
-2 10 -4z m-5340 -16 c0 -5 -4 -10 -10 -10 -5 0 -10 5 -10 10 0 6 5 10 10 10
6 0 10 -4 10 -10z m5016 -27 c-10 -10 -19 5 -10 18 6 11 8 11 12 0 2 -7 1 -15
-2 -18z m114 17 c0 -5 -7 -10 -15 -10 -8 0 -15 5 -15 10 0 6 7 10 15 10 8 0
15 -4 15 -10z m-2723 -6 c-3 -3 -12 -4 -19 -1 -8 3 -5 6 6 6 11 1 17 -2 13 -5z
m2450 -26 c-3 -8 -6 -5 -6 6 -1 11 2 17 5 13 3 -3 4 -12 1 -19z m-4855 -35
c11 -14 12 -183 1 -232 -5 -19 -13 -36 -19 -38 -8 -3 -11 41 -9 144 3 163 5
189 12 158 3 -11 10 -25 15 -32z m2402 16 c-3 -6 2 -19 13 -31 10 -11 17 -22
16 -24 -4 -9 10 -44 18 -44 31 0 26 -181 -6 -206 -21 -16 -18 -26 5 -19 21 7
27 -4 10 -21 -6 -6 0 -10 18 -12 15 -1 36 -6 47 -11 11 -5 33 -14 49 -20 27
-11 27 -13 11 -25 -17 -12 -15 -14 15 -24 18 -7 41 -12 51 -12 11 0 19 -6 19
-14 0 -9 -7 -12 -20 -9 -15 4 -20 0 -21 -13 0 -11 -3 -14 -6 -6 -7 17 -23 15
-23 -3 0 -13 -4 -14 -20 -5 -11 6 -20 7 -20 3 0 -5 -15 -9 -32 -8 -21 0 -39
-7 -50 -20 -13 -16 -18 -17 -18 -5 -1 8 -6 4 -11 -10 -8 -19 -12 -22 -19 -10
-7 11 -10 8 -14 -11 -14 -69 -13 -92 6 -97 10 -2 18 -11 18 -18 0 -8 6 -14 13
-14 6 0 37 -3 67 -6 69 -8 89 -24 32 -25 -23 -1 -46 -3 -52 -4 -5 -1 -18 -3
-27 -4 -16 -1 -16 -3 -3 -11 17 -11 15 -11 -55 -15 -27 -2 -56 2 -62 7 -9 7
-13 7 -13 -1 0 -8 -22 -11 -67 -10 -38 0 -73 1 -78 0 -6 -1 -17 -17 -24 -36
-7 -19 -16 -35 -21 -35 -5 0 -10 -12 -12 -27 -4 -35 -37 -42 -63 -13 -10 11
-26 20 -37 20 -24 0 -23 12 2 35 11 10 20 24 20 31 0 16 -43 29 -65 20 -11 -4
-15 1 -15 19 0 21 5 24 48 27 46 3 47 4 19 16 -15 6 -41 13 -57 14 -17 1 -30
7 -30 14 0 7 10 9 25 6 33 -6 115 7 115 19 0 5 -9 9 -20 9 -13 0 -20 7 -20 20
0 11 5 20 10 20 6 0 10 17 10 38 0 21 5 43 10 48 8 8 7 19 -1 38 -11 23 -10
29 2 37 9 6 -1 9 -33 9 -27 0 -48 4 -48 9 0 5 -30 11 -67 15 -95 8 -93 8 -93
24 0 8 6 12 15 9 8 -4 17 -2 20 3 3 5 12 7 20 3 8 -3 23 -2 33 2 9 4 55 9 101
11 85 4 161 21 145 33 -5 3 -10 15 -11 26 0 11 -9 40 -18 64 -13 36 -14 46 -3
53 11 8 11 10 0 15 -8 3 -10 9 -4 16 5 7 12 24 16 39 3 14 20 40 37 57 53 53
158 75 160 32 0 -13 1 -14 6 -1 9 25 25 40 34 34 5 -3 7 -10 3 -15z m2776 11
c0 -5 -5 -10 -11 -10 -5 0 -7 5 -4 10 3 6 8 10 11 10 2 0 4 -4 4 -10z m-273
-22 c-3 -8 -6 -5 -6 6 -1 11 2 17 5 13 3 -3 4 -12 1 -19z m158 12 c3 -5 1 -10
-4 -10 -6 0 -11 5 -11 10 0 6 2 10 4 10 3 0 8 -4 11 -10z m65 6 c0 -3 -4 -8
-10 -11 -5 -3 -10 -1 -10 4 0 6 5 11 10 11 6 0 10 -2 10 -4z m-273 -38 c-3 -7
-5 -2 -5 12 0 14 2 19 5 13 2 -7 2 -19 0 -25z m113 22 c0 -5 -4 -10 -10 -10
-5 0 -10 5 -10 10 0 6 5 10 10 10 6 0 10 -4 10 -10z m-63 -52 c-3 -7 -5 -2 -5
12 0 14 2 19 5 13 2 -7 2 -19 0 -25z m273 22 c0 -5 -2 -10 -4 -10 -3 0 -8 5
-11 10 -3 6 -1 10 4 10 6 0 11 -4 11 -10z m-160 -10 c0 -5 -5 -10 -11 -10 -5
0 -7 5 -4 10 3 6 8 10 11 10 2 0 4 -4 4 -10z m-4013 -36 c8 -8 19 -14 24 -14
15 0 89 -71 89 -85 0 -8 6 -20 13 -27 6 -7 13 -26 14 -43 11 -135 13 -143 45
-154 17 -6 44 -11 60 -11 16 0 38 -4 48 -10 10 -5 53 -11 94 -12 42 -2 76 -6
76 -10 0 -4 7 -5 16 -1 12 4 15 2 12 -8 -5 -14 33 -39 58 -39 8 0 14 -5 14
-11 0 -5 4 -8 9 -5 11 7 36 -31 43 -66 5 -24 2 -28 -18 -28 -13 0 -24 3 -24 8
0 4 -21 7 -47 7 -27 0 -66 3 -88 6 -22 3 -33 4 -24 2 11 -3 15 -12 11 -29 -6
-34 -20 -39 -16 -6 2 15 -2 8 -8 -15 -6 -24 -15 -43 -19 -43 -5 0 -9 -9 -9
-20 0 -11 -9 -25 -20 -32 -11 -7 -20 -21 -20 -30 0 -11 -8 -18 -19 -18 -14 0
-20 -9 -23 -35 -4 -32 -2 -34 17 -29 11 4 22 11 23 15 2 5 16 0 32 -11 15 -11
33 -20 39 -20 7 0 23 -7 36 -16 13 -8 32 -14 42 -13 10 2 54 -2 98 -9 44 -6
100 -14 125 -17 77 -10 72 -21 -7 -17 -48 3 -79 0 -86 -7 -17 -17 9 -31 60
-31 23 0 45 -4 48 -10 9 -15 -68 -12 -118 5 -24 8 -92 17 -153 20 -60 3 -127
10 -149 16 -22 6 -60 14 -85 18 -25 5 -52 11 -60 14 -8 3 -48 8 -89 11 -69 4
-114 22 -83 33 18 7 15 20 -8 26 -11 3 -20 11 -20 17 0 8 9 10 23 7 19 -5 137
-10 175 -8 6 1 12 5 12 10 0 5 -30 9 -66 10 -71 1 -100 10 -69 21 23 8 27 48
8 77 -13 19 -12 22 4 26 16 4 9 5 -59 11 -7 1 -12 -5 -10 -11 1 -7 -2 -13 -7
-13 -4 0 -11 28 -14 63 -3 34 -8 73 -11 86 -6 25 -16 41 -16 24 0 -5 -13 -8
-29 -5 -16 2 -32 -1 -35 -6 -4 -8 -16 -8 -36 0 -17 5 -37 8 -45 4 -29 -11 -26
16 4 45 17 16 31 31 31 33 0 2 -91 24 -179 42 -40 9 -4 24 56 24 29 0 63 5 77
11 l25 12 -19 38 c-21 41 -26 84 -11 93 10 7 9 31 -2 42 -10 10 78 92 107 100
14 3 26 11 26 16 0 15 90 0 107 -18z m3800 4 c-3 -8 -6 -5 -6 6 -1 11 2 17 5
13 3 -3 4 -12 1 -19z m-5774 -35 c-7 -2 -21 -2 -30 0 -10 3 -4 5 12 5 17 0 24
-2 18 -5z m6707 -43 c0 -5 -7 -7 -15 -4 -8 4 -12 10 -9 15 6 11 24 2 24 -11z
m-6780 -10 c0 -5 -4 -10 -10 -10 -5 0 -10 5 -10 10 0 6 5 10 10 10 6 0 10 -4
10 -10z m5160 -30 c0 -5 -2 -10 -4 -10 -3 0 -8 5 -11 10 -3 6 -1 10 4 10 6 0
11 -4 11 -10z m730 -37 c0 -27 -4 -43 -9 -37 -8 8 -4 84 5 84 2 0 4 -21 4 -47z
m-103 15 c-3 -8 -6 -5 -6 6 -1 11 2 17 5 13 3 -3 4 -12 1 -19z m50 0 c-3 -8
-6 -5 -6 6 -1 11 2 17 5 13 3 -3 4 -12 1 -19z m648 -7 c-3 -6 -11 -8 -17 -5
-6 4 -5 9 3 15 16 10 23 4 14 -10z m-785 -1 c0 -5 -4 -10 -9 -10 -6 0 -13 5
-16 10 -3 6 1 10 9 10 9 0 16 -4 16 -10z m-119 -53 c-10 -9 -11 -8 -5 6 3 10
9 15 12 12 3 -3 0 -11 -7 -18z m674 3 c3 -5 1 -10 -4 -10 -6 0 -11 5 -11 10 0
6 2 10 4 10 3 0 8 -4 11 -10z m-1005 -9 c0 -6 -4 -13 -10 -16 -5 -3 -10 1 -10
9 0 9 5 16 10 16 6 0 10 -4 10 -9z m903 -46 c-3 -8 -9 -15 -14 -15 -10 0 -12
24 -3 33 11 11 24 -3 17 -18z m-153 1 c0 -7 -9 -16 -20 -19 -15 -4 -20 0 -20
14 0 12 7 19 20 19 11 0 20 -6 20 -14z m103 5 c5 -1 6 -5 2 -10 -9 -15 -85
-11 -85 5 0 9 11 12 38 9 20 -2 41 -4 45 -4z m-6293 -61 c8 -13 10 -12 10 3 0
11 5 17 13 14 6 -2 11 -9 10 -16 -2 -6 8 -13 22 -17 14 -3 23 -10 20 -15 -3
-4 18 -9 47 -11 29 -2 52 -7 51 -13 -3 -13 -43 -19 -43 -6 0 6 -25 10 -62 9
-94 -2 -120 1 -113 12 4 6 -7 10 -25 10 -17 0 -37 6 -44 12 -11 11 -9 15 11
23 36 15 92 12 103 -5z m3057 -2 c-3 -8 -6 -5 -6 6 -1 11 2 17 5 13 3 -3 4
-12 1 -19z m3070 -3 c-4 -8 -13 -15 -22 -15 -13 0 -12 3 2 20 19 22 29 19 20
-5z m310 3 c-3 -8 -6 -5 -6 6 -1 11 2 17 5 13 3 -3 4 -12 1 -19z m-5217 -45
c0 -35 -4 -53 -9 -47 -9 8 -3 104 5 104 2 0 4 -26 4 -57z m3330 29 c1 -16 2
-16 14 1 16 21 26 22 26 2 0 -8 5 -15 11 -15 7 0 20 -10 30 -22 11 -11 19 -16
19 -10 0 25 19 11 22 -15 2 -16 8 -27 16 -25 6 1 12 -2 12 -8 0 -5 -6 -10 -12
-11 -10 0 -10 -2 0 -6 8 -3 12 -25 11 -66 -1 -47 -3 -55 -8 -32 l-7 30 -6 -35
c-7 -42 -8 -40 28 -43 26 -2 43 -13 44 -28 1 -24 -237 -31 -480 -13 -52 4
-101 7 -107 5 -7 -1 -13 5 -13 14 0 9 9 15 23 15 50 1 174 10 211 16 25 4 34
9 26 14 -8 5 -15 33 -16 71 -3 65 3 90 16 69 5 -8 12 -1 21 19 8 17 22 34 31
37 10 3 18 14 18 25 0 10 5 19 10 19 6 0 10 -4 10 -10 0 -18 18 -10 25 10 7
23 25 17 25 -8z m1740 24 c0 -3 -4 -8 -10 -11 -5 -3 -10 -1 -10 4 0 6 5 11 10
11 6 0 10 -2 10 -4z m-1401 -13 c0 -5 -4 -17 -9 -28 -8 -18 -9 -17 -9 8 -1 15
4 27 9 27 6 0 10 -3 9 -7z m1291 -3 c0 -5 -2 -10 -4 -10 -3 0 -8 5 -11 10 -3
6 -1 10 4 10 6 0 11 -4 11 -10z m260 -25 c0 -8 -7 -15 -16 -15 -14 0 -14 3 -4
15 7 8 14 15 16 15 2 0 4 -7 4 -15z m55 5 c3 -5 -1 -10 -10 -10 -9 0 -13 5
-10 10 3 6 8 10 10 10 2 0 7 -4 10 -10z m-155 -21 c0 -5 -4 -9 -10 -9 -5 0
-10 7 -10 16 0 8 5 12 10 9 6 -3 10 -10 10 -16z m50 11 c0 -5 -4 -10 -10 -10
-5 0 -10 5 -10 10 0 6 5 10 10 10 6 0 10 -4 10 -10z m-160 -10 c0 -5 -7 -10
-16 -10 -8 0 -12 5 -9 10 3 6 10 10 16 10 5 0 9 -4 9 -10z m70 0 c0 -5 -6 -10
-14 -10 -8 0 -18 5 -21 10 -3 6 3 10 14 10 12 0 21 -4 21 -10z m187 -52 c-3
-8 -6 -5 -6 6 -1 11 2 17 5 13 3 -3 4 -12 1 -19z m-262 3 c3 -5 1 -12 -5 -16
-5 -3 -10 1 -10 9 0 18 6 21 15 7z m115 5 c0 -3 -4 -8 -10 -11 -5 -3 -10 -1
-10 4 0 6 5 11 10 11 6 0 10 -2 10 -4z m44 -11 c-4 -8 -8 -15 -10 -15 -2 0 -4
7 -4 15 0 8 4 15 10 15 5 0 7 -7 4 -15z m-954 -25 c0 -5 -7 -10 -16 -10 -8 0
-12 5 -9 10 3 6 10 10 16 10 5 0 9 -4 9 -10z m-143 -6 c-3 -3 -12 -4 -19 -1
-8 3 -5 6 6 6 11 1 17 -2 13 -5z m1107 -3 c3 -5 -12 -11 -35 -13 -48 -4 -64 9
-17 15 18 2 36 5 40 5 4 1 9 -2 12 -7z m66 -7 c0 -2 -9 -4 -21 -4 -11 0 -18 4
-14 10 5 8 35 3 35 -6z m-225 -4 c-3 -5 -10 -10 -16 -10 -5 0 -9 5 -9 10 0 6
7 10 16 10 8 0 12 -4 9 -10z m58 3 c-7 -2 -19 -2 -25 0 -7 3 -2 5 12 5 14 0
19 -2 13 -5z m-916 -35 c-3 -8 -6 -5 -6 6 -1 11 2 17 5 13 3 -3 4 -12 1 -19z
m38 13 c3 -5 1 -12 -5 -16 -5 -3 -10 1 -10 9 0 18 6 21 15 7z m54 -20 c-15 -5
-22 6 -14 19 6 9 10 9 16 -1 5 -8 4 -15 -2 -18z m1037 9 c8 0 14 -4 14 -10 0
-5 -9 -10 -20 -10 -14 0 -20 6 -19 23 0 12 3 16 6 10 2 -7 11 -13 19 -13z
m-1266 -11 c0 -5 -4 -9 -10 -9 -5 0 -10 7 -10 16 0 8 5 12 10 9 6 -3 10 -10
10 -16z m-1570 1 c0 -5 -4 -10 -10 -10 -5 0 -10 5 -10 10 0 6 5 10 10 10 6 0
10 -4 10 -10z m1607 -12 c-3 -8 -6 -5 -6 6 -1 11 2 17 5 13 3 -3 4 -12 1 -19z
m957 7 c3 -8 1 -15 -4 -15 -6 0 -10 7 -10 15 0 8 2 15 4 15 2 0 6 -7 10 -15z
m111 5 c3 -5 -1 -10 -10 -10 -9 0 -13 5 -10 10 3 6 8 10 10 10 2 0 7 -4 10
-10z m50 0 c3 -5 -1 -10 -9 -10 -9 0 -16 5 -16 10 0 6 4 10 9 10 6 0 13 -4 16
-10z m50 0 c3 -5 1 -10 -4 -10 -6 0 -11 5 -11 10 0 6 2 10 4 10 3 0 8 -4 11
-10z m-257 -9 c11 -7 10 -10 -3 -15 -20 -7 -38 1 -30 15 7 11 16 11 33 0z
m-2531 -33 c-3 -8 -6 -5 -6 6 -1 11 2 17 5 13 3 -3 4 -12 1 -19z m1533 -3 c0
-8 -4 -15 -10 -15 -5 0 -10 7 -10 15 0 8 5 15 10 15 6 0 10 -7 10 -15z m47
-20 c2 -14 0 -25 -5 -25 -5 0 -9 14 -10 31 -1 35 10 31 15 -6z m52 -14 c2 -26
-13 -1 -16 27 -2 23 -1 24 7 7 5 -11 9 -26 9 -34z m1231 34 c0 -8 -9 -15 -20
-15 -11 0 -20 7 -20 15 0 8 9 15 20 15 11 0 20 -7 20 -15z m-332 -13 c2 -7 -5
-12 -17 -12 -14 0 -19 5 -14 15 6 17 25 15 31 -3z m272 8 c0 -5 -5 -10 -11
-10 -5 0 -7 5 -4 10 3 6 8 10 11 10 2 0 4 -4 4 -10z m-220 -9 c0 -5 -9 -7 -20
-4 -11 3 -20 7 -20 9 0 2 9 4 20 4 11 0 20 -4 20 -9z m-2540 -21 c0 -11 -4
-20 -9 -20 -5 0 -7 9 -4 20 3 11 7 20 9 20 2 0 4 -9 4 -20z m-1015 -9 c-3 -6
-14 -9 -25 -8 -24 2 -15 17 11 17 11 0 18 -4 14 -9z m480 -1 c3 -5 1 -10 -4
-10 -6 0 -11 5 -11 10 0 6 2 10 4 10 3 0 8 -4 11 -10z m2975 -21 c0 -5 -4 -9
-10 -9 -5 0 -10 7 -10 16 0 8 5 12 10 9 6 -3 10 -10 10 -16z m-5473 -14 c25
-2 51 -9 57 -16 8 -9 -1 -10 -38 -5 -27 3 -62 6 -77 6 -20 0 -29 5 -29 16 0
11 6 14 20 9 11 -4 41 -8 67 -10z m1553 -5 c0 -5 -8 -10 -17 -10 -15 0 -16 2
-3 10 19 12 20 12 20 0z m-1250 -9 c0 -5 8 -12 18 -14 9 -3 -2 -5 -25 -6 -40
-1 -60 9 -46 23 10 9 53 7 53 -3z m160 -12 c0 -5 10 -9 23 -10 21 -1 21 -1 -3
-9 -53 -17 -140 -4 -126 19 7 10 106 11 106 0z m2057 -21 c-3 -7 -5 -2 -5 12
0 14 2 19 5 13 2 -7 2 -19 0 -25z m3243 23 c0 -12 -73 -17 -130 -10 l-45 5 40
5 c77 9 135 9 135 0z m30 -1 c0 -5 -4 -10 -10 -10 -5 0 -10 5 -10 10 0 6 5 10
10 10 6 0 10 -4 10 -10z m120 0 c0 -5 -7 -10 -15 -10 -8 0 -15 5 -15 10 0 6 7
10 15 10 8 0 15 -4 15 -10z m-5013 -26 c0 -10 -4 -11 -11 -4 -5 5 -23 10 -38
10 -15 0 -28 3 -28 8 0 4 17 6 38 4 25 -3 39 -9 39 -18z m2960 4 c-3 -8 -6 -5
-6 6 -1 11 2 17 5 13 3 -3 4 -12 1 -19z m1108 11 c6 -1 -19 -5 -55 -9 -65 -6
-91 -3 -72 9 9 6 104 6 127 0z m-4409 -8 c-3 -5 9 -11 27 -15 19 -4 33 -2 35
4 5 15 32 12 77 -10 l40 -19 -34 -1 c-64 0 -161 21 -161 36 0 8 5 14 11 14 5
0 8 -4 5 -9z m529 -6 c86 -8 177 -25 190 -37 6 -6 -27 -8 -82 -6 -50 2 -89 6
-86 11 2 4 -1 7 -6 7 -6 0 -11 -6 -11 -12 0 -8 -3 -9 -8 -3 -7 10 -17 12 -106
24 -28 3 -51 12 -54 20 -3 10 6 12 44 7 27 -3 81 -8 119 -11z m3625 11 c0 -9
-50 -12 -62 -5 -8 6 1 9 25 9 20 0 37 -2 37 -4z m108 -1 c-10 -10 -88 -14 -88
-4 0 5 21 9 47 9 25 0 44 -2 41 -5z m-3899 -37 c25 1 60 -2 76 -6 21 -7 -5 -9
-90 -10 -133 -1 -196 9 -105 18 30 3 59 3 64 1 5 -2 30 -4 55 -3z m1041 8 c0
-3 -4 -8 -10 -11 -5 -3 -10 -1 -10 4 0 6 5 11 10 11 6 0 10 -2 10 -4z m-595
-26 c-8 -13 -35 -13 -55 0 -11 7 -5 10 23 10 23 0 36 -4 32 -10z m3898 -132
c6 -46 -11 -72 -55 -83 -30 -8 -58 11 -58 38 0 11 -7 13 -22 9 -22 -5 -22 -5
-5 21 10 15 14 27 10 27 -5 0 5 8 21 18 18 11 43 16 66 14 36 -4 38 -6 43 -44z
m-740 -1 c32 -37 10 -96 -41 -109 -50 -13 -80 65 -46 117 13 20 22 24 43 18
14 -3 34 -15 44 -26z m-2078 -2 c126 -12 135 -15 133 -41 -2 -24 -23 -34 -30
-14 -4 12 -145 43 -159 34 -11 -6 -39 13 -39 28 0 5 8 7 18 4 9 -3 44 -8 77
-11z m1175 -35 c20 -28 21 -34 9 -63 -21 -53 -56 -62 -96 -25 -29 27 -30 71
-3 98 30 30 65 25 90 -10z m1335 20 c-3 -5 0 -10 8 -10 20 0 40 -51 32 -83 -5
-20 -3 -28 9 -33 9 -3 16 -10 16 -15 0 -11 -174 -10 -210 1 l-25 7 27 8 c16 4
35 4 44 1 13 -5 14 -2 9 11 -21 46 -5 89 37 108 39 17 62 19 53 5z m-788 -6
c-3 -3 -12 -4 -19 -1 -8 3 -5 6 6 6 11 1 17 -2 13 -5z m43 -8 c0 -11 -19 -15
-25 -6 -3 5 1 10 9 10 9 0 16 -2 16 -4z m870 -10 c0 -8 -4 -18 -10 -21 -5 -3
-10 3 -10 14 0 12 5 21 10 21 6 0 10 -6 10 -14z m-2663 -22 c-3 -3 -12 -4 -19
-1 -8 3 -5 6 6 6 11 1 17 -2 13 -5z m1655 -31 c28 -32 42 -67 29 -71 -6 -2
-11 -8 -11 -14 0 -6 -7 -16 -16 -23 -27 -19 -114 18 -114 48 0 18 62 77 80 77
9 0 24 -8 32 -17z m-3932 -53 c0 -29 -4 -40 -15 -40 -17 0 -18 4 -9 49 9 44
24 39 24 -9z m2722 -82 l-9 -33 -7 34 c-6 24 -4 36 5 42 19 11 22 -2 11 -43z
m1833 12 c-3 -5 -10 -10 -16 -10 -5 0 -9 5 -9 10 0 6 7 10 16 10 8 0 12 -4 9
-10z m75 0 c0 -5 -4 -10 -10 -10 -5 0 -10 5 -10 10 0 6 5 10 10 10 6 0 10 -4
10 -10z m-4214 -31 c19 -21 19 -21 -9 -8 -15 7 -27 16 -27 21 0 14 16 9 36
-13z m4444 -39 c0 -11 7 -20 15 -20 8 0 15 7 15 16 0 8 5 12 10 9 12 -8 13
-85 1 -104 -5 -7 -14 -10 -20 -7 -19 12 -12 -2 11 -24 12 -11 16 -20 10 -20
-7 0 -12 -7 -12 -16 0 -8 -5 -12 -10 -9 -6 4 -7 11 -4 17 5 7 -5 8 -32 3 -21
-4 -42 -11 -45 -17 -3 -5 -9 1 -12 13 -5 19 -9 21 -19 11 -19 -19 -28 -14 -28
18 0 17 -5 30 -11 30 -7 0 -8 7 -4 18 4 9 8 28 10 42 3 42 6 46 15 25 7 -17 9
-17 9 -2 1 13 10 17 41 17 22 0 40 5 40 10 0 6 5 10 10 10 6 0 10 -9 10 -20z
m-182 -38 c25 3 27 0 24 -27 -2 -16 -7 -32 -12 -35 -4 -3 -10 -14 -13 -25 -4
-19 -5 -19 -6 2 0 12 -9 24 -18 26 -14 4 -12 5 5 6 12 0 22 6 22 12 0 7 -16 8
-47 3 -45 -7 -46 -6 -40 17 4 13 7 27 7 31 0 13 35 14 43 0 5 -7 21 -12 35
-10z m317 18 c3 -5 1 -10 -4 -10 -6 0 -11 5 -11 10 0 6 2 10 4 10 3 0 8 -4 11
-10z m-489 -68 c-15 -15 -16 -15 -16 2 0 9 6 27 12 39 l13 22 3 -24 c2 -13 -3
-31 -12 -39z m444 42 c0 -8 -5 -12 -10 -9 -6 4 -8 11 -5 16 9 14 15 11 15 -7z
m57 -96 c-3 -8 -6 -5 -6 6 -1 11 2 17 5 13 3 -3 4 -12 1 -19z m42 -16 c0 -24
-1 -25 -9 -7 -12 28 -12 47 0 40 6 -3 10 -18 9 -33z"/>
<path d="M5986 3764 c-4 -19 -10 -42 -13 -50 -3 -8 1 -14 8 -14 10 0 15 16 16
50 3 59 -2 64 -11 14z"/>
<path d="M6640 3649 c0 -5 5 -7 10 -4 6 3 10 8 10 11 0 2 -4 4 -10 4 -5 0 -10
-5 -10 -11z"/>
<path d="M6740 3565 c0 -8 5 -15 10 -15 6 0 10 7 10 15 0 8 -4 15 -10 15 -5 0
-10 -7 -10 -15z"/>
<path d="M5640 3560 c0 -5 5 -10 10 -10 6 0 10 5 10 10 0 6 -4 10 -10 10 -5 0
-10 -4 -10 -10z"/>
<path d="M6737 3524 c-8 -8 1 -24 14 -24 5 0 9 7 9 15 0 15 -12 20 -23 9z"/>
<path d="M6805 3470 c3 -5 8 -10 11 -10 2 0 4 5 4 10 0 6 -5 10 -11 10 -5 0
-7 -4 -4 -10z"/>
<path d="M6230 3419 c0 -27 4 -39 12 -37 17 6 19 78 1 78 -9 0 -13 -13 -13
-41z"/>
<path d="M6786 3423 c5 -5 12 -12 15 -16 3 -5 9 -2 12 7 5 12 0 16 -15 16 -12
0 -17 -3 -12 -7z"/>
<path d="M6236 3362 c-2 -4 -1 -14 3 -21 6 -9 10 -7 14 8 5 20 -7 29 -17 13z"/>
<path d="M6795 3330 c-3 -5 3 -10 15 -10 12 0 18 5 15 10 -3 6 -10 10 -15 10
-5 0 -12 -4 -15 -10z"/>
<path d="M6145 3310 c3 -5 8 -10 11 -10 2 0 4 5 4 10 0 6 -5 10 -11 10 -5 0
-7 -4 -4 -10z"/>
<path d="M6640 3240 c-13 -9 -13 -11 0 -20 18 -11 39 5 24 20 -6 6 -15 6 -24
0z"/>
<path d="M3300 3320 c0 -5 5 -10 10 -10 6 0 10 5 10 10 0 6 -4 10 -10 10 -5 0
-10 -4 -10 -10z"/>
<path d="M3300 3280 c0 -5 7 -10 15 -10 8 0 15 5 15 10 0 6 -7 10 -15 10 -8 0
-15 -4 -15 -10z"/>
<path d="M6290 2650 c0 -5 5 -10 11 -10 5 0 7 5 4 10 -3 6 -8 10 -11 10 -2 0
-4 -4 -4 -10z"/>
<path d="M7630 5438 c1 -21 2 -21 11 -5 6 9 14 15 20 12 5 -4 9 -1 9 4 0 6 -9
11 -20 11 -14 0 -20 -7 -20 -22z"/>
<path d="M8735 5413 c-4 -27 -13 -61 -20 -78 -7 -16 -15 -43 -17 -60 -3 -16
-3 -24 -1 -17 3 7 8 10 13 7 9 -6 22 53 14 66 -3 5 -1 9 5 9 6 0 13 17 16 38
3 20 8 47 11 60 2 12 0 22 -5 22 -5 0 -13 -21 -16 -47z"/>
<path d="M8823 5423 c-10 -21 -24 -37 -31 -35 -8 1 -12 -12 -12 -39 0 -28 4
-38 12 -33 8 5 9 2 5 -10 -4 -10 -7 -22 -7 -27 0 -23 -20 -6 -21 19 0 15 -3
21 -6 15 -2 -7 -10 -13 -17 -13 -6 0 -17 -24 -24 -54 -7 -30 -19 -68 -27 -84
-9 -16 -17 -47 -20 -68 -2 -22 -11 -70 -19 -108 -9 -38 -13 -79 -10 -91 4 -15
0 -24 -10 -28 -11 -5 -16 0 -16 14 0 12 -4 17 -11 14 -6 -4 -8 -14 -5 -22 3
-8 -3 -36 -13 -61 -11 -26 -25 -71 -31 -101 -13 -56 -33 -54 -24 4 l5 30 -14
-30 c-8 -16 -20 -55 -27 -85 -7 -30 -19 -71 -26 -90 -8 -20 -16 -88 -19 -160
-6 -165 -37 -745 -65 -1210 -25 -421 -30 -514 -36 -663 l-6 -157 36 -15 c20
-9 36 -20 36 -27 0 -6 -3 -8 -7 -5 -3 4 -15 0 -25 -10 -16 -15 -44 -16 -273
-10 l-255 7 -17 -33 c-16 -29 -25 -104 -23 -196 0 -26 -3 -32 -15 -27 -12 4
-14 0 -9 -22 4 -15 10 -32 15 -37 9 -13 -5 -83 -20 -98 -17 -17 -13 -24 19
-35 27 -10 29 -13 20 -37 -7 -18 -6 -31 2 -44 15 -25 4 -52 -19 -45 -13 5 -12
2 4 -10 18 -14 21 -24 18 -71 -2 -42 0 -55 11 -55 17 0 18 -12 3 -27 -8 -8 -7
-19 4 -40 8 -15 20 -41 26 -56 6 -16 21 -31 32 -34 19 -5 20 -12 17 -100 -3
-94 -3 -94 -31 -100 -36 -7 -44 -21 -16 -31 21 -8 21 -10 -15 -37 -20 -15 -35
-33 -33 -39 2 -6 33 -11 73 -11 56 0 69 -3 72 -17 2 -9 -6 -22 -17 -28 -21
-11 -29 -50 -11 -50 6 0 10 -7 10 -15 0 -8 -6 -15 -14 -15 -20 0 -30 -18 -17
-33 13 -16 6 -26 -47 -61 -54 -37 -58 -44 -36 -60 22 -16 12 -46 -16 -46 -11
0 -30 -11 -42 -25 -24 -28 -38 -24 -38 11 0 14 -4 23 -8 20 -5 -3 -7 -18 -4
-34 2 -16 -1 -33 -7 -36 -20 -13 -11 -23 32 -36 l42 -13 -35 -12 c-40 -13 -51
-46 -27 -73 41 -45 27 -106 -22 -100 -23 3 -26 -1 -26 -25 -1 -16 -8 -33 -17
-38 -36 -20 -49 -40 -37 -55 10 -12 3 -23 -34 -59 -25 -24 -55 -49 -66 -54
-21 -12 -64 -15 -74 -5 -19 19 69 126 106 129 27 2 30 15 11 40 -15 20 -16 20
-41 -9 -20 -24 -28 -27 -42 -19 -10 6 -33 10 -51 9 -27 -2 -34 2 -42 26 -6 15
-14 28 -19 28 -16 0 -21 -27 -9 -49 9 -18 7 -23 -14 -32 -30 -14 -41 -59 -19
-76 8 -6 12 -17 8 -23 -5 -8 -16 3 -31 28 -27 46 -52 56 -89 36 -20 -10 -32
-11 -46 -3 -11 5 -29 7 -39 4 -21 -7 -23 -4 -24 54 -2 55 -22 48 -29 -10 -6
-50 -20 -72 -42 -65 -5 1 -10 18 -11 36 0 21 -6 35 -15 38 -38 10 -88 36 -93
48 -8 21 -29 17 -77 -15 -43 -29 -63 -32 -53 -8 3 10 -6 13 -35 11 -21 -1 -43
-4 -49 -8 -22 -14 -20 13 3 38 27 29 24 54 -9 61 -29 7 -86 2 -86 -8 0 -4 12
-31 26 -59 30 -59 23 -75 -27 -55 -19 8 -40 12 -46 10 -7 -3 -17 7 -23 22 -7
19 -15 25 -26 21 -43 -16 -67 -18 -74 -5 -7 10 -11 7 -19 -13 -7 -20 -15 -25
-30 -21 -12 3 -21 11 -21 18 0 7 -8 12 -17 11 -12 0 -19 7 -21 22 -3 17 -10
22 -31 22 -15 0 -32 -5 -39 -12 -9 -9 -17 -9 -36 2 -21 11 -28 11 -41 0 -13
-11 -19 -9 -38 9 -46 44 -113 99 -135 110 -13 7 -30 27 -37 44 -22 53 -67 89
-106 85 l-34 -3 0 -77 c0 -42 -3 -80 -7 -83 -4 -4 -21 3 -38 15 -36 26 -48 20
-32 -15 10 -21 9 -27 -3 -31 -8 -4 -23 -3 -32 1 -12 5 -14 9 -6 12 14 5 9 70
-7 108 -5 11 -11 27 -13 35 -4 9 -6 6 -6 -7 -1 -25 8 -23 -174 -29 l-69 -1 6
30 c10 51 -28 75 -66 40 -16 -14 -23 -15 -38 -5 -24 15 -60 16 -60 2 0 -5 -6
-10 -14 -10 -8 0 -16 -4 -18 -10 -1 -5 -20 -11 -41 -12 -25 -2 -39 -9 -43 -20
-3 -10 -10 -18 -16 -18 -6 0 -7 7 -3 18 5 9 10 32 13 50 7 52 -27 43 -61 -17
-27 -48 -56 -69 -77 -56 -6 4 -17 22 -25 41 -12 30 -17 34 -40 28 -25 -6 -26
-5 -23 27 2 27 0 33 -13 31 -37 -6 -59 58 -30 87 11 11 23 36 27 56 7 37 6 37
-17 24 -13 -7 -31 -12 -40 -11 -17 3 -56 -35 -46 -44 4 -4 -2 -19 -12 -33 -10
-14 -21 -35 -25 -45 -3 -10 -9 -16 -13 -12 -3 3 -13 0 -22 -8 -27 -23 -60 -26
-71 -7 -5 10 -21 26 -36 36 -21 13 -28 14 -34 4 -6 -9 -12 -8 -25 5 -10 9 -24
15 -33 11 -18 -7 -41 22 -42 55 -1 24 -1 25 -16 5 -14 -19 -15 -19 -20 3 -4
12 -10 22 -15 22 -18 0 -68 -60 -76 -91 l-9 -33 -13 33 c-9 20 -20 31 -30 29
-9 -2 -26 7 -38 20 -12 13 -27 21 -33 17 -6 -4 -19 3 -29 14 -26 30 -45 26
-59 -11 -11 -31 -13 -31 -29 -15 -13 13 -15 19 -5 29 14 14 16 54 3 63 -5 3
-16 -3 -23 -13 -14 -20 -58 -36 -58 -21 0 18 -42 9 -47 -11 -6 -23 -14 -25
-30 -9 -8 8 -15 4 -27 -12 -9 -13 -16 -20 -16 -15 0 21 25 93 37 108 23 26 -3
32 -41 10 -24 -14 -38 -17 -50 -10 -10 5 -20 8 -22 5 -3 -2 -6 -36 -7 -76 -2
-85 -18 -93 -67 -32 -37 47 -68 61 -85 37 -16 -22 -28 -20 -23 2 3 11 -1 30
-8 43 -7 13 -13 34 -14 47 0 12 -4 22 -9 22 -15 0 -21 -30 -15 -71 4 -26 3
-39 -5 -39 -6 0 -11 10 -11 23 -1 21 -1 21 -14 4 -19 -25 -63 -12 -82 24 -8
16 -18 29 -23 29 -18 0 -43 -40 -38 -60 4 -17 0 -16 -26 10 -35 34 -44 36 -73
15 -12 -8 -24 -12 -27 -8 -4 3 -13 0 -22 -7 -10 -8 -15 -9 -15 -1 0 6 5 11 10
11 18 0 10 18 -17 35 -21 14 -32 15 -59 7 -27 -8 -36 -7 -48 7 -9 10 -16 29
-16 42 0 18 -6 25 -20 26 -15 1 -20 -3 -16 -15 5 -13 -1 -17 -26 -19 -17 -1
-34 -6 -37 -10 -11 -15 -38 -13 -51 2 -7 8 -19 15 -26 15 -8 0 -13 6 -12 13 5
20 -81 10 -99 -13 -11 -13 -12 -12 -13 8 0 16 -6 22 -23 22 -15 0 -26 9 -35
30 -11 23 -20 30 -43 30 -16 0 -29 -3 -29 -8 0 -4 -9 -13 -20 -20 -17 -10 -26
-10 -52 4 -30 16 -31 16 -25 -6 5 -20 4 -21 -12 -6 -10 9 -28 16 -40 16 -12 0
-20 4 -17 9 3 5 -1 14 -9 21 -8 7 -15 9 -15 4 0 -5 -10 2 -21 16 -14 17 -22
21 -26 13 -6 -17 -40 -17 -45 -1 -3 9 -9 8 -22 -4 -15 -16 -19 -16 -51 4 -21
12 -42 17 -53 13 -9 -3 -18 -5 -20 -3 -2 2 -8 -5 -13 -15 -11 -19 -23 -18
-104 7 -27 9 -51 16 -52 16 -2 0 -3 -7 -3 -15 0 -8 -4 -15 -10 -15 -5 0 -10
10 -10 21 0 19 -4 20 -35 15 -21 -4 -35 -3 -35 3 0 17 -52 38 -107 44 -29 3
-58 9 -65 13 -31 19 -118 -6 -118 -34 0 -10 -7 -19 -15 -19 -12 0 -14 8 -9 34
6 30 4 33 -17 35 -13 0 -32 0 -43 -1 -10 0 -25 4 -32 10 -7 6 -21 8 -32 5 -10
-3 -26 0 -37 8 -13 9 -29 11 -54 5 -22 -5 -40 -4 -48 3 -7 5 -20 8 -28 4 -10
-4 -25 4 -40 22 -23 26 -23 26 -44 8 -19 -17 -26 -17 -88 -6 -37 7 -82 21
-100 31 -31 17 -52 11 -38 -11 3 -6 -1 -13 -11 -17 -9 -3 -20 0 -25 8 -25 42
-27 43 -43 30 -13 -11 -14 -17 -2 -40 14 -27 11 -51 -5 -51 -5 0 -9 9 -9 20 0
11 -6 20 -14 20 -8 0 -18 9 -21 20 -4 11 -19 27 -34 34 -15 8 -33 21 -39 29
-14 16 -88 21 -97 7 -8 -13 -37 0 -53 22 -9 13 -24 18 -47 16 -18 -1 -40 4
-49 11 -15 12 -20 8 -17 -12 2 -13 -11 -7 -24 10 -13 17 -14 17 -32 0 -11 -9
-27 -17 -36 -17 -9 0 -23 -10 -31 -22 -9 -12 -16 -18 -16 -11 0 6 -14 13 -31
17 -17 3 -33 13 -35 23 -4 15 -16 18 -72 17 -93 -1 -103 3 -95 33 5 23 4 24
-13 15 -15 -8 -24 -6 -42 11 l-22 21 -18 -24 c-32 -45 -33 -46 -39 -32 -2 6
-15 12 -28 12 -13 0 -27 5 -30 10 -3 5 -33 10 -66 10 -45 0 -59 -3 -59 -15 0
-9 6 -12 15 -9 8 4 15 1 15 -5 0 -7 -6 -14 -14 -17 -12 -5 -15 -33 -15 -145
-1 -96 3 -139 10 -139 8 0 9 -11 4 -32 -5 -18 -10 -291 -12 -605 l-3 -573 320
0 c314 0 320 0 320 20 0 17 6 20 31 18 18 -1 37 -10 43 -20 8 -14 24 -18 68
-18 50 0 58 3 58 18 0 22 34 65 44 55 11 -11 6 -41 -10 -57 -14 -15 -9 -16 58
-16 41 0 79 5 85 11 8 8 13 8 17 0 10 -16 216 -15 216 1 0 9 3 9 12 0 18 -18
629 -17 647 0 11 10 14 10 18 1 7 -19 2659 -19 2667 0 5 9 7 9 12 0 4 -10 105
-13 455 -13 403 0 449 2 449 16 0 9 6 14 13 11 6 -2 11 -10 10 -16 -4 -17
2083 -16 2090 2 4 10 6 10 6 0 1 -10 44 -13 181 -13 l180 0 0 28 c0 15 5 34
10 42 7 11 10 4 10 -27 0 -39 2 -43 24 -43 16 0 23 5 22 16 0 9 5 19 12 21 7
3 12 -4 12 -16 l0 -21 809 0 808 0 2 155 c1 142 0 155 -16 155 -17 1 -17 1 0
14 16 12 17 58 17 710 l0 696 -24 0 c-13 0 -26 7 -30 15 -3 8 -23 18 -46 21
-22 4 -40 10 -40 14 0 9 -46 30 -68 30 -23 1 -106 39 -99 46 3 3 15 1 26 -6
25 -13 28 -2 4 15 -10 8 -27 10 -43 5 -17 -5 -30 -3 -38 6 -7 8 -23 14 -36 14
-44 0 -189 68 -182 86 6 15 -28 34 -72 40 -126 17 -135 19 -138 36 -1 11 3 15
12 11 9 -3 14 2 14 14 0 15 -12 21 -57 31 -32 6 -75 23 -95 37 -20 14 -47 25
-60 25 -13 0 -30 5 -38 11 -11 7 -3 8 30 5 80 -10 85 -11 92 -22 4 -5 42 -11
84 -13 87 -2 94 -5 94 -31 0 -13 5 -18 15 -14 21 8 75 -15 75 -32 0 -11 9 -10
40 6 l39 20 16 -24 c12 -17 29 -26 63 -31 26 -4 55 -14 64 -22 11 -10 30 -14
55 -11 47 6 90 -8 104 -33 6 -12 20 -19 39 -19 17 0 38 -4 48 -9 61 -32 143
-71 147 -71 3 0 5 5 5 10 0 14 -71 76 -83 72 -5 -2 -18 5 -28 14 -10 9 -23 13
-29 9 -6 -4 -20 1 -31 11 -10 9 -19 13 -19 8 0 -5 -6 -2 -13 7 -26 34 -112 58
-145 40 -14 -7 -24 -6 -38 4 -11 8 -27 15 -36 15 -10 0 -18 5 -18 11 0 5 -4 8
-8 5 -13 -8 -52 23 -52 41 0 13 -3 13 -15 3 -9 -7 -18 -10 -21 -7 -3 3 -19 1
-36 -3 -24 -8 -38 -4 -71 17 -23 14 -45 30 -48 36 -4 6 -25 7 -49 4 -38 -5
-105 13 -120 32 -3 3 -23 7 -45 8 -116 7 -120 8 -133 31 -12 20 -14 21 -29 7
-14 -15 -17 -14 -33 0 -12 11 -26 14 -39 10 -13 -4 -21 -2 -21 5 0 7 -6 10
-14 7 -13 -5 -46 21 -46 37 0 4 35 5 78 2 42 -4 83 -6 90 -6 104 1 139 -1 159
-12 17 -9 32 -8 61 1 30 10 44 11 61 2 12 -7 31 -9 43 -5 14 4 18 2 14 -5 -4
-6 -2 -11 3 -11 6 0 11 5 11 11 0 10 89 8 206 -5 40 -5 40 -4 36 25 -4 24 -1
29 16 29 21 0 40 -32 23 -38 -21 -7 -11 -29 12 -28 12 1 27 -2 34 -7 8 -5 21
-3 35 7 28 20 42 20 35 2 -7 -18 5 -22 76 -25 32 -1 69 -6 81 -11 13 -4 28 -5
35 -1 6 4 34 6 61 5 l50 -3 0 249 0 249 -32 3 c-18 2 -33 9 -33 16 0 6 -4 12
-10 11 -5 0 -9 -7 -7 -15 3 -13 -2 -15 -25 -14 -5 1 -7 10 -5 20 5 30 -15 24
-26 -7 -6 -16 -11 -21 -11 -12 -1 25 -31 33 -31 8 0 -16 -3 -18 -19 -9 -27 14
-31 13 -31 -7 0 -15 -1 -15 -18 0 -14 13 -21 14 -31 4 -9 -9 -14 -9 -21 3 -7
10 -10 11 -10 2 0 -8 -9 -11 -26 -8 -15 3 -35 1 -45 -5 -14 -7 -19 -6 -19 3 0
10 -2 10 -8 1 -5 -7 -39 -11 -102 -9 -95 1 -95 1 -92 26 6 48 32 90 55 90 29
0 53 15 38 24 -5 4 -19 1 -30 -6 -28 -17 -34 -7 -39 62 -4 50 -2 60 12 60 9 0
16 -8 16 -21 0 -11 4 -18 9 -14 5 3 12 -7 14 -22 3 -19 5 -14 6 17 2 46 15 72
41 83 10 4 9 6 -6 6 -22 1 -34 19 -34 51 0 10 -6 21 -12 24 -9 3 -8 8 5 16 26
17 52 71 37 80 -8 5 -10 24 -6 61 4 30 8 88 10 129 5 81 13 120 27 120 5 0 9
7 9 15 0 8 -3 14 -7 14 -5 -1 -17 -1 -28 0 -17 1 -18 3 -5 12 10 7 11 12 3 15
-8 4 -8 15 0 42 5 20 9 48 9 61 -2 17 2 22 13 17 8 -3 15 -2 15 2 0 4 8 12 19
17 128 69 193 97 226 100 43 4 105 31 105 45 0 5 7 7 15 4 8 -4 15 -15 15 -26
0 -10 5 -16 10 -13 6 3 10 17 10 31 0 13 5 24 10 24 6 0 10 -4 10 -9 0 -5 7
-11 15 -15 13 -5 15 81 15 736 l0 741 -21 -19 -22 -19 7 30 c4 17 14 37 22 46
8 8 14 34 14 57 l0 42 -429 0 -429 0 -19 -37z m-86 -304 c-9 -13 -17 -16 -22
-10 -3 6 -2 11 3 11 6 0 13 12 18 28 5 20 8 22 11 10 3 -10 -2 -27 -10 -39z
m-27 -113 c0 -8 -7 -16 -15 -20 -17 -6 -18 -4 -9 18 8 20 24 21 24 2z m-176
-381 c-4 -8 -8 -15 -10 -15 -2 0 -4 7 -4 15 0 8 4 15 10 15 5 0 7 -7 4 -15z
m-17 -57 c-3 -7 -5 -2 -5 12 0 14 2 19 5 13 2 -7 2 -19 0 -25z m-13 -33 c-4
-8 -8 -15 -10 -15 -2 0 -4 7 -4 15 0 8 4 15 10 15 5 0 7 -7 4 -15z m1131 -575
c3 -5 1 -10 -4 -10 -6 0 -11 5 -11 10 0 6 2 10 4 10 3 0 8 -4 11 -10z m-238
-112 c-3 -8 -6 -5 -6 6 -1 11 2 17 5 13 3 -3 4 -12 1 -19z m-77 -13 c0 -8 -7
-15 -16 -15 -14 0 -14 3 -4 15 7 8 14 15 16 15 2 0 4 -7 4 -15z m-305 -965 c3
-5 -1 -10 -10 -10 -9 0 -13 5 -10 10 3 6 8 10 10 10 2 0 7 -4 10 -10z m202
-562 c-3 -7 -5 -2 -5 12 0 14 2 19 5 13 2 -7 2 -19 0 -25z m-582 -98 c-3 -5
-13 -10 -21 -10 -8 0 -14 5 -14 10 0 6 9 10 21 10 11 0 17 -4 14 -10z m65
-444 c0 -3 -4 -8 -10 -11 -5 -3 -10 -1 -10 4 0 6 5 11 10 11 6 0 10 -2 10 -4z
m-8444 -361 c-9 -9 -16 -23 -16 -31 0 -8 -9 -14 -19 -14 -11 0 -23 -4 -26 -10
-10 -16 -23 -12 -30 11 -4 13 -14 20 -28 18 -52 -4 -61 2 -23 16 22 8 44 12
48 9 5 -3 16 0 24 7 11 9 18 9 26 1 17 -17 26 -15 33 9 5 15 10 18 17 11 8 -8
6 -16 -6 -27z m-202 -16 c-3 -5 -10 -7 -15 -3 -5 3 -7 10 -3 15 3 5 10 7 15 3
5 -3 7 -10 3 -15z m779 14 c-7 -2 -19 -2 -25 0 -7 3 -2 5 12 5 14 0 19 -2 13
-5z m7562 -3 c3 -5 -1 -10 -9 -10 -9 0 -16 5 -16 10 0 6 4 10 9 10 6 0 13 -4
16 -10z m-7215 -65 c10 -12 10 -15 -4 -15 -9 0 -16 7 -16 15 0 8 2 15 4 15 2
0 9 -7 16 -15z m-617 -55 c-3 -11 -9 -17 -15 -14 -5 3 -4 12 3 20 16 19 18 18
12 -6z m1105 -31 c-2 -6 -8 -10 -13 -10 -5 0 -11 4 -13 10 -2 6 4 11 13 11 9
0 15 -5 13 -11z m-1536 -84 c2 -19 -2 -29 -9 -28 -6 2 -29 -15 -49 -37 -21
-22 -41 -40 -44 -40 -3 0 -5 15 -5 33 0 22 6 34 18 40 11 4 21 16 24 27 3 11
9 20 13 20 4 0 10 10 14 22 5 20 7 21 20 8 8 -8 16 -28 18 -45z m7842 30 c7
-20 -24 -20 -50 0 -18 14 -17 14 12 15 19 0 34 -6 38 -15z m316 5 c0 -5 -7
-10 -15 -10 -8 0 -15 5 -15 10 0 6 7 10 15 10 8 0 15 -4 15 -10z m410 -63 c0
-7 -7 -22 -15 -33 -12 -16 -14 -17 -15 -2 0 23 11 48 21 48 5 0 9 -6 9 -13z
m-8480 -21 c-7 -19 -4 -28 11 -42 16 -15 18 -20 7 -29 -7 -5 -22 -27 -33 -48
-11 -21 -23 -41 -27 -43 -15 -9 -8 57 7 72 15 15 10 76 -6 82 -17 7 4 32 27
32 21 0 22 -3 14 -24z m8035 4 c3 -5 1 -10 -4 -10 -6 0 -11 5 -11 10 0 6 2 10
4 10 3 0 8 -4 11 -10z m595 0 c0 -5 -4 -10 -10 -10 -5 0 -10 5 -10 10 0 6 5
10 10 10 6 0 10 -4 10 -10z m-8468 -32 c-14 -15 -22 -18 -22 -9 0 15 32 43 39
35 3 -3 -5 -14 -17 -26z m994 -9 c7 -12 -42 -67 -51 -57 -7 6 27 68 37 68 4 0
10 -5 14 -11z m-346 -35 c0 -13 -4 -24 -9 -24 -13 0 -24 37 -16 50 10 16 25 1
25 -26z m460 16 c0 -5 -4 -10 -10 -10 -5 0 -10 5 -10 10 0 6 5 10 10 10 6 0
10 -4 10 -10z m940 -5 c0 -8 -4 -15 -10 -15 -5 0 -10 7 -10 15 0 8 5 15 10 15
6 0 10 -7 10 -15z m6800 5 c0 -5 -4 -10 -10 -10 -5 0 -10 5 -10 10 0 6 5 10
10 10 6 0 10 -4 10 -10z m-9116 -16 c9 -22 -3 -32 -14 -14 -12 19 -12 30 -1
30 5 0 12 -7 15 -16z m0 -77 c4 -19 3 -26 -4 -22 -5 3 -10 18 -10 32 0 32 5
28 14 -10z m514 11 c14 -14 16 -42 2 -33 -14 9 -32 45 -22 45 4 0 13 -5 20
-12z m1287 3 c3 -5 1 -12 -5 -16 -5 -3 -10 1 -10 9 0 18 6 21 15 7z m6522 -13
c-3 -8 -6 -5 -6 6 -1 11 2 17 5 13 3 -3 4 -12 1 -19z m-7161 -2 c9 -9 10 -17
4 -21 -5 -3 -10 -20 -10 -36 0 -32 -24 -49 -42 -31 -8 8 -6 18 6 37 10 15 14
34 11 45 -7 24 10 27 31 6z m1141 -8 c-3 -8 -6 -5 -6 6 -1 11 2 17 5 13 3 -3
4 -12 1 -19z m5823 2 c0 11 3 11 12 2 10 -10 10 -15 -2 -22 -22 -14 -26 -12
-27 12 -2 18 0 20 7 8 8 -13 10 -13 10 0z m-8005 -10 c-3 -5 -11 -10 -16 -10
-6 0 -7 5 -4 10 3 6 11 10 16 10 6 0 7 -4 4 -10z m8573 -26 c-10 -10 -28 6
-28 24 0 15 1 15 17 -1 9 -9 14 -19 11 -23z m-7462 -9 c19 19 44 20 44 1 0
-19 -27 -39 -45 -33 -19 8 -30 -10 -16 -26 5 -7 6 -18 2 -25 -14 -24 -30 11
-26 56 6 54 19 77 23 39 3 -24 5 -25 18 -12z m2269 5 c3 -5 1 -10 -4 -10 -6 0
-11 5 -11 10 0 6 2 10 4 10 3 0 8 -4 11 -10z m-1760 -41 c-4 -5 -13 -9 -21 -9
-12 0 -12 2 -2 14 14 15 32 11 23 -5z m6055 -50 c0 -10 -4 -20 -10 -24 -10 -6
-30 55 -22 69 7 12 32 -23 32 -45z m-5831 -23 c-11 -20 -25 -36 -29 -36 -5 0
-10 -8 -13 -17 -4 -16 -5 -16 -12 1 -6 13 -4 21 3 24 7 2 12 8 12 14 0 6 12
27 27 47 35 45 44 21 12 -33z m6501 60 c0 -2 -7 -6 -15 -10 -8 -3 -15 -1 -15
4 0 6 7 10 15 10 8 0 15 -2 15 -4z m-8415 -36 c-3 -5 -12 -10 -18 -10 -7 0 -6
4 3 10 19 12 23 12 15 0z m9308 3 c-7 -2 -19 -2 -25 0 -7 3 -2 5 12 5 14 0 19
-2 13 -5z m-7595 -38 c-6 -13 -15 -22 -19 -19 -11 6 8 44 21 44 6 0 5 -10 -2
-25z m289 19 c-3 -3 -12 -4 -19 -1 -8 3 -5 6 6 6 11 1 17 -2 13 -5z m7233 -9
c0 -8 -7 -15 -15 -15 -8 0 -15 7 -15 15 0 8 7 15 15 15 8 0 15 -7 15 -15z
m-6975 -15 c-8 -12 -55 -33 -62 -27 -2 3 11 14 29 25 33 21 45 22 33 2z m2038
-15 c-5 -13 -7 -13 -19 2 -19 26 -17 35 6 23 11 -6 17 -16 13 -25z m107 20 c0
-8 -4 -15 -10 -15 -5 0 -7 7 -4 15 4 8 8 15 10 15 2 0 4 -7 4 -15z m-2010 -11
c0 -8 -5 -12 -10 -9 -6 4 -8 11 -5 16 9 14 15 11 15 -7z m-2200 -3 c0 -5 -9
-11 -20 -14 -13 -3 -20 0 -20 9 0 8 9 14 20 14 11 0 20 -4 20 -9z m2090 -28
c-1 -18 -18 -35 -24 -24 -4 6 -4 16 -1 21 7 12 25 13 25 3z m5403 -33 c-5 -20
-23 -38 -23 -23 1 22 13 52 20 48 5 -3 6 -14 3 -25z m-6793 16 c0 -2 -3 -11
-6 -20 -9 -23 -34 -20 -34 4 0 13 7 20 20 20 11 0 20 -2 20 -4z m30 -36 c0 -5
-4 -10 -10 -10 -5 0 -10 5 -10 10 0 6 5 10 10 10 6 0 10 -4 10 -10z m-1030
-15 c10 -12 10 -19 2 -27 -15 -15 -48 14 -38 31 10 15 21 14 36 -4z m4720 -1
c0 -8 -5 -12 -10 -9 -6 4 -8 11 -5 16 9 14 15 11 15 -7z m-1683 -31 c-16 -16
-17 -16 -17 3 0 26 11 37 24 24 7 -7 5 -16 -7 -27z m5393 28 c0 -5 -6 -11 -12
-14 -18 -6 -39 3 -32 14 7 12 44 12 44 0z m-7469 -14 c-1 -4 -1 -16 -1 -27 0
-11 -4 -20 -10 -20 -5 0 -10 14 -10 31 0 17 5 29 11 27 6 -2 10 -7 10 -11z
m219 -1 c0 -11 -19 -15 -25 -6 -3 5 1 10 9 10 9 0 16 -2 16 -4z m7638 -23 c-5
-25 -28 -28 -28 -4 0 12 6 21 16 21 9 0 14 -7 12 -17z m502 3 c0 -8 -4 -18
-10 -21 -5 -3 -10 3 -10 14 0 12 5 21 10 21 6 0 10 -6 10 -14z m-590 -11 c0
-8 -4 -15 -9 -15 -13 0 -22 16 -14 24 11 11 23 6 23 -9z m-6824 -22 c-10 -10
-19 5 -10 18 6 11 8 11 12 0 2 -7 1 -15 -2 -18z m-776 8 c0 -5 -7 -14 -15 -21
-12 -10 -15 -10 -15 2 0 8 3 18 7 21 9 10 23 9 23 -2z m2080 -1 c0 -5 -5 -10
-11 -10 -5 0 -7 5 -4 10 3 6 8 10 11 10 2 0 4 -4 4 -10z m-2300 -15 c0 -7 -70
-38 -76 -32 -10 10 28 37 52 37 13 0 24 -2 24 -5z m1548 -17 c-16 -24 -38 -35
-38 -20 0 14 29 42 42 42 6 0 4 -9 -4 -22z m5792 -24 c14 -42 9 -50 -19 -32
-24 15 -33 32 -25 53 10 26 32 16 44 -21z m-3476 4 c-6 -22 -25 -41 -32 -34
-6 6 21 56 30 56 5 0 6 -10 2 -22z m3276 -14 c0 -8 -4 -14 -10 -14 -5 0 -10 4
-10 9 0 5 -3 18 -7 28 -6 16 -5 16 10 4 9 -7 17 -20 17 -27z m-5800 11 c0 -7
-7 -18 -16 -23 -19 -11 -17 -23 8 -40 20 -14 16 -32 -7 -32 -8 0 -17 11 -21
24 -3 15 -14 26 -27 28 -14 2 -23 11 -25 26 -3 18 1 22 21 22 14 0 27 -6 30
-12 3 -9 7 -7 12 5 9 21 25 23 25 2z m846 -12 c-10 -10 -19 5 -10 18 6 11 8
11 12 0 2 -7 1 -15 -2 -18z m1352 -54 c-3 -20 -5 -19 -9 9 -3 20 -2 29 4 23 5
-5 7 -19 5 -32z m4679 -20 c-3 -10 0 -20 6 -22 6 -2 2 -6 -9 -9 -17 -4 -20 0
-21 34 -2 34 0 38 13 27 9 -7 13 -21 11 -30z m-7163 15 c10 -13 7 -26 -12 -65
-26 -53 -36 -59 -50 -32 -8 13 -14 7 -33 -33 -13 -27 -26 -58 -29 -69 -4 -12
-7 2 -7 32 -1 32 5 57 13 63 7 6 16 25 19 41 7 33 25 39 25 9 0 -44 21 -19 44
53 7 21 15 22 30 1z m1096 6 c0 -5 -5 -10 -11 -10 -7 0 -8 -11 -4 -30 4 -19 3
-30 -4 -30 -6 0 -11 14 -11 30 0 17 -4 30 -10 30 -5 0 -10 5 -10 10 0 6 11 10
25 10 14 0 25 -4 25 -10z m5358 -9 c3 -8 -1 -12 -9 -9 -7 2 -15 10 -17 17 -3
8 1 12 9 9 7 -2 15 -10 17 -17z m-6614 -45 c6 -29 4 -37 -6 -34 -18 6 -33 51
-24 74 9 24 22 7 30 -40z m641 44 c-3 -5 -11 -10 -16 -10 -6 0 -7 5 -4 10 3 6
11 10 16 10 6 0 7 -4 4 -10z m715 6 c0 -3 -4 -8 -10 -11 -5 -3 -10 -1 -10 4 0
6 5 11 10 11 6 0 10 -2 10 -4z m-550 -41 c0 -14 -4 -25 -10 -25 -5 0 -10 11
-10 25 0 14 5 25 10 25 6 0 10 -11 10 -25z m6584 -6 c-8 -13 -24 -1 -24 18 0
13 3 13 15 3 8 -7 12 -16 9 -21z m-734 -9 c0 -5 -2 -10 -4 -10 -3 0 -8 5 -11
10 -3 6 -1 10 4 10 6 0 11 -4 11 -10z m-4724 -10 c13 -13 5 -72 -8 -64 -5 3
-13 17 -19 31 -13 36 3 57 27 33z m704 6 c0 -3 -4 -8 -10 -11 -5 -3 -10 -1
-10 4 0 6 5 11 10 11 6 0 10 -2 10 -4z m-1135 -36 c-27 -28 -53 -41 -40 -20 3
6 1 10 -4 10 -6 0 -11 5 -11 11 0 6 8 8 19 4 10 -3 24 1 31 10 7 8 17 15 23
15 6 0 -2 -13 -18 -30z m-565 8 c0 -7 -5 -20 -10 -28 -12 -20 -33 0 -24 23 7
20 34 23 34 5z m6208 -23 c3 -32 -15 -65 -38 -69 -40 -6 -59 -19 -64 -41 -4
-14 -11 -25 -16 -25 -17 0 -11 26 10 45 11 10 20 24 20 32 0 7 4 13 8 13 5 0
15 18 22 40 11 32 18 40 34 38 15 -2 22 -11 24 -33z m-6381 -28 c-3 -22 -13
-47 -22 -56 -16 -15 -17 -13 -11 38 8 62 13 74 28 65 6 -4 8 -24 5 -47z m5191
41 c18 -18 16 -44 -2 -29 -7 6 -21 9 -30 5 -9 -3 -16 -2 -16 3 0 10 21 33 30
33 3 0 11 -5 18 -12z m-6443 -18 c3 -5 1 -10 -4 -10 -6 0 -11 5 -11 10 0 6 2
10 4 10 3 0 8 -4 11 -10z m225 -15 c0 -9 7 -30 16 -46 21 -41 13 -45 -25 -12
-29 26 -39 52 -24 66 12 13 33 7 33 -8z m426 1 c3 -8 12 -12 20 -9 8 3 14 1
14 -5 0 -5 -9 -12 -20 -15 -17 -4 -19 -11 -13 -55 5 -41 2 -54 -17 -80 -26
-35 -45 -33 -55 6 -3 15 -8 35 -11 45 -3 9 -1 17 5 17 6 0 11 -7 11 -15 0 -8
4 -15 9 -15 5 0 17 -7 25 -16 15 -14 16 -11 16 31 0 39 -4 47 -25 57 -29 13
-31 25 -8 50 19 22 42 23 49 4z m904 -25 c-6 -12 -20 -21 -30 -21 -30 0 -20
43 11 50 29 7 34 -1 19 -29z m2090 8 c0 -6 -4 -7 -10 -4 -5 3 -10 11 -10 16 0
6 5 7 10 4 6 -3 10 -11 10 -16z m2879 12 c18 -11 5 -31 -20 -31 -21 0 -22 1
-13 24 7 18 13 19 33 7z m-7529 -11 c0 -5 -7 -10 -16 -10 -8 0 -12 5 -9 10 3
6 10 10 16 10 5 0 9 -4 9 -10z m4070 -15 c0 -29 -15 -33 -29 -6 -11 20 -5 31
16 31 7 0 13 -11 13 -25z m5160 15 c0 -5 -5 -10 -11 -10 -5 0 -7 5 -4 10 3 6
8 10 11 10 2 0 4 -4 4 -10z m-7200 -43 c0 -26 -15 -12 -25 23 -7 22 -6 23 9
11 9 -7 16 -23 16 -34z m923 23 c-3 -11 -7 -20 -8 -20 -1 0 -5 9 -8 20 -3 12
0 20 8 20 8 0 11 -8 8 -20z m362 -10 c3 -5 1 -10 -4 -10 -6 0 -11 5 -11 10 0
6 2 10 4 10 3 0 8 -4 11 -10z m-1962 -27 c-3 -10 -9 -22 -13 -28 -5 -5 -10
-19 -13 -30 -2 -11 -5 -1 -6 22 -1 37 6 49 31 52 4 1 5 -7 1 -16z m1217 -18
c0 -8 -4 -15 -10 -15 -5 0 -10 7 -10 15 0 8 5 15 10 15 6 0 10 -7 10 -15z
m370 5 c0 -5 -4 -10 -10 -10 -5 0 -10 5 -10 10 0 6 5 10 10 10 6 0 10 -4 10
-10z m-900 -40 c0 -11 -7 -20 -15 -20 -8 0 -15 9 -15 20 0 11 7 20 15 20 8 0
15 -9 15 -20z m1712 -5 c3 -13 1 -22 -3 -19 -9 5 -13 44 -5 44 2 0 6 -11 8
-25z m-826 0 c-8 -8 -21 -15 -28 -15 -8 1 -6 6 6 15 26 20 42 19 22 0z m-1402
-10 c3 -9 0 -15 -9 -15 -9 0 -12 6 -9 15 4 8 7 15 9 15 2 0 5 -7 9 -15z
m-1259 -5 c8 0 11 -7 8 -20 -3 -11 0 -26 6 -34 14 -16 11 -67 -4 -78 -13 -10
-35 11 -35 33 0 37 -18 26 -44 -27 -28 -57 -45 -69 -26 -19 8 22 7 35 -8 64
l-19 36 41 27 c22 15 47 25 54 22 8 -2 20 -4 27 -4z m6500 0 c-3 -5 -10 -10
-16 -10 -5 0 -9 5 -9 10 0 6 7 10 16 10 8 0 12 -4 9 -10z m-6435 -9 c0 -6 -4
-13 -10 -16 -5 -3 -10 1 -10 9 0 9 5 16 10 16 6 0 10 -4 10 -9z m310 -9 c0 -9
-9 -23 -20 -30 -17 -10 -20 -10 -20 4 0 8 -4 12 -10 9 -5 -3 -10 -4 -10 -1 0
2 -3 11 -6 20 -5 13 1 16 30 16 28 0 36 -4 36 -18z m2590 -3 c0 -11 -4 -18
-10 -14 -5 3 -7 12 -3 20 7 21 13 19 13 -6z m-205 0 c10 -14 -24 -49 -41 -42
-18 7 -18 18 2 37 18 19 30 20 39 5z m117 -20 c-1 -12 -9 -30 -16 -38 -8 -9
-16 -25 -19 -36 -3 -12 -5 -5 -6 17 -1 46 15 91 32 85 6 -2 11 -15 9 -28z
m-372 3 c0 -11 -20 -33 -46 -52 -53 -38 -54 -30 -4 29 39 45 50 50 50 23z
m5654 2 c10 -25 7 -34 -9 -28 -8 4 -15 15 -15 25 0 23 16 25 24 3z m-7069 -14
c8 -13 -14 -42 -25 -35 -10 6 -1 45 11 45 4 0 11 -5 14 -10z m6680 -3 c28 -21
9 -40 -20 -21 -14 9 -22 20 -19 25 7 12 17 11 39 -4z m222 -9 c-3 -8 -6 -5 -6
6 -1 11 2 17 5 13 3 -3 4 -12 1 -19z m-7603 -17 c4 -5 -3 -7 -14 -4 -23 6 -26
13 -6 13 8 0 17 -4 20 -9z m5622 -28 c-11 -11 -17 4 -9 23 7 18 8 18 11 1 2
-10 1 -21 -2 -24z m-1906 17 c0 -5 -5 -10 -11 -10 -5 0 -7 5 -4 10 3 6 8 10
11 10 2 0 4 -4 4 -10z m3406 -1 c7 -12 -15 -31 -28 -23 -9 6 1 34 12 34 5 0
12 -5 16 -11z m-7992 -25 c6 -17 -9 -54 -23 -54 -5 0 -14 7 -21 15 -10 13 -10
19 5 35 22 24 31 25 39 4z m1206 -5 c0 -5 -4 -9 -10 -9 -5 0 -10 7 -10 16 0 8
5 12 10 9 6 -3 10 -10 10 -16z m1810 11 c0 -5 -4 -10 -10 -10 -5 0 -10 5 -10
10 0 6 5 10 10 10 6 0 10 -4 10 -10z m1440 -36 c0 -24 -4 -34 -12 -32 -24 8
-22 68 2 68 5 0 10 -16 10 -36z m2130 26 c0 -5 -7 -10 -15 -10 -8 0 -15 5 -15
10 0 6 7 10 15 10 8 0 15 -4 15 -10z m110 0 c0 -5 -5 -10 -11 -10 -5 0 -7 5
-4 10 3 6 8 10 11 10 2 0 4 -4 4 -10z m-5121 -43 c1 -5 -9 -7 -21 -5 -28 4
-36 35 -11 40 16 3 30 -12 32 -35z m5068 37 c-3 -3 -12 -4 -19 -1 -8 3 -5 6 6
6 11 1 17 -2 13 -5z m-4877 -14 c0 -5 -13 -10 -30 -10 -16 0 -30 5 -30 10 0 6
14 10 30 10 17 0 30 -4 30 -10z m1195 -10 c-10 -11 -23 -20 -28 -20 -6 0 -2 9
8 20 10 11 23 20 28 20 6 0 2 -9 -8 -20z m-1922 -17 c-7 -2 -19 -2 -25 0 -7 3
-2 5 12 5 14 0 19 -2 13 -5z m277 -14 c0 -15 -5 -20 -22 -17 -34 5 -37 38 -4
38 20 0 26 -5 26 -21z m720 1 c0 -11 -4 -20 -10 -20 -5 0 -10 2 -10 4 0 2 -3
11 -6 20 -4 11 -1 16 10 16 9 0 16 -8 16 -20z m5740 10 c0 -5 -4 -10 -9 -10
-6 0 -13 5 -16 10 -3 6 1 10 9 10 9 0 16 -4 16 -10z m-7510 -9 c0 -6 -4 -13
-10 -16 -5 -3 -10 1 -10 9 0 9 5 16 10 16 6 0 10 -4 10 -9z m170 5 c0 -2 -8
-10 -17 -17 -16 -13 -17 -12 -4 4 13 16 21 21 21 13z m8875 -6 c3 -5 -1 -10
-9 -10 -9 0 -16 5 -16 10 0 6 4 10 9 10 6 0 13 -4 16 -10z m-1795 -10 c0 -5
-5 -10 -11 -10 -5 0 -7 5 -4 10 3 6 8 10 11 10 2 0 4 -4 4 -10z"/>
<path d="M8645 5160 c-3 -5 -8 -33 -11 -62 -7 -66 11 -46 21 25 7 45 3 58 -10
37z"/>
<path d="M7585 5050 c3 -5 8 -10 11 -10 2 0 4 5 4 10 0 6 -5 10 -11 10 -5 0
-7 -4 -4 -10z"/>
<path d="M8610 5030 c0 -5 5 -10 10 -10 6 0 10 5 10 10 0 6 -4 10 -10 10 -5 0
-10 -4 -10 -10z"/>
<path d="M8593 4970 c-7 -19 -14 -47 -17 -62 -3 -15 -7 -32 -11 -38 -3 -5 -2
-10 4 -10 19 0 42 60 39 103 l-3 42 -12 -35z"/>
<path d="M8522 4878 c2 -12 8 -23 14 -25 7 -2 10 6 7 22 -6 30 -26 34 -21 3z"/>
<path d="M8426 4835 c-3 -8 -1 -15 4 -15 6 0 10 7 10 15 0 8 -2 15 -4 15 -2 0
-6 -7 -10 -15z"/>
<path d="M8511 4810 c0 -33 1 -34 10 -11 6 16 6 28 -1 35 -7 7 -10 -1 -9 -24z"/>
<path d="M8557 4833 c-4 -3 -7 -11 -7 -17 0 -6 5 -5 12 2 6 6 9 14 7 17 -3 3
-9 2 -12 -2z"/>
<path d="M8055 4820 c-3 -5 -2 -10 4 -10 5 0 13 5 16 10 3 6 2 10 -4 10 -5 0
-13 -4 -16 -10z"/>
<path d="M8467 4787 c-4 -10 -7 -26 -7 -35 1 -15 2 -15 11 1 6 10 9 25 7 35
-3 16 -4 15 -11 -1z"/>
<path d="M7360 4776 c0 -9 5 -16 10 -16 6 0 10 4 10 9 0 6 -4 13 -10 16 -5 3
-10 -1 -10 -9z"/>
<path d="M8437 4784 c-4 -4 -7 -17 -7 -28 1 -19 1 -20 11 -3 11 19 8 43 -4 31z"/>
<path d="M7257 4758 c-2 -7 0 -26 4 -42 5 -18 5 -34 -2 -42 -6 -7 -8 -18 -4
-24 4 -6 2 -17 -5 -25 -7 -9 -8 -15 0 -20 20 -12 26 4 28 76 2 40 5 76 8 81 3
4 -1 8 -10 8 -8 0 -16 -6 -19 -12z"/>
<path d="M7310 4759 c0 -5 5 -7 10 -4 6 3 10 8 10 11 0 2 -4 4 -10 4 -5 0 -10
-5 -10 -11z"/>
<path d="M7209 4758 c-1 -1 -3 -26 -4 -54 -1 -28 -5 -63 -9 -77 -3 -14 -2 -28
3 -32 14 -8 18 4 25 73 4 35 7 68 9 74 2 9 -21 25 -24 16z"/>
<path d="M7145 4651 c0 -55 3 -103 8 -107 4 -4 7 -3 8 2 0 5 3 29 6 54 11 94
9 145 -7 148 -13 2 -15 -14 -15 -97z"/>
<path d="M7360 4734 c0 -17 22 -14 28 4 2 7 -3 12 -12 12 -9 0 -16 -7 -16 -16z"/>
<path d="M7037 4733 c-7 -12 -1 -153 7 -161 14 -13 21 18 21 89 0 46 -4 74
-12 76 -6 2 -13 0 -16 -4z"/>
<path d="M7088 4664 c-2 -42 0 -78 4 -80 4 -3 5 -11 1 -19 -3 -8 0 -15 6 -15
6 0 12 8 13 18 13 155 13 172 -6 172 -11 0 -15 -19 -18 -76z"/>
<path d="M7310 4730 c-8 -5 -11 -12 -8 -16 10 -9 38 3 38 16 0 12 -10 13 -30
0z"/>
<path d="M8487 4706 c-4 -10 -1 -13 9 -9 7 3 14 9 14 14 0 14 -17 10 -23 -5z"/>
<path d="M7307 4680 c-3 -13 0 -20 9 -20 15 0 19 26 5 34 -5 3 -11 -3 -14 -14z"/>
<path d="M7365 4689 c-10 -15 3 -25 16 -12 7 7 7 13 1 17 -6 3 -14 1 -17 -5z"/>
<path d="M8420 4669 c0 -5 4 -8 9 -5 5 4 12 0 14 -6 3 -8 6 -6 6 5 1 9 -6 17
-14 17 -8 0 -15 -5 -15 -11z"/>
<path d="M7311 4636 c-8 -9 -11 -19 -7 -23 9 -9 29 13 24 27 -2 8 -8 7 -17 -4z"/>
<path d="M7361 4641 c-10 -6 -10 -10 -1 -16 13 -8 24 -1 19 14 -3 6 -10 7 -18
2z"/>
<path d="M8420 4630 c0 -5 6 -10 13 -10 8 0 8 -3 -2 -9 -12 -8 -12 -14 -2 -39
7 -17 10 -40 6 -51 -8 -26 -25 -28 -18 -2 3 10 0 22 -6 25 -18 11 -13 -40 5
-55 13 -10 17 -10 25 2 5 8 9 24 9 36 0 12 8 38 17 58 9 19 15 36 12 38 -12
11 -59 16 -59 7z m28 -65 c-3 -3 -9 2 -12 12 -6 14 -5 15 5 6 7 -7 10 -15 7
-18z"/>
<path d="M8025 4617 c-60 -36 -62 -39 -20 -32 37 6 54 18 55 38 0 10 -11 8
-35 -6z"/>
<path d="M7365 4590 c-3 -5 -1 -10 4 -10 6 0 11 5 11 10 0 6 -2 10 -4 10 -3 0
-8 -4 -11 -10z"/>
<path d="M7250 4580 c-13 -9 -13 -11 0 -20 15 -10 25 0 18 20 -2 6 -8 6 -18 0z"/>
<path d="M7305 4580 c-3 -5 1 -10 9 -10 9 0 16 5 16 10 0 6 -4 10 -9 10 -6 0
-13 -4 -16 -10z"/>
<path d="M7190 4565 c0 -8 7 -15 15 -15 8 0 15 7 15 15 0 8 -7 15 -15 15 -8 0
-15 -7 -15 -15z"/>
<path d="M7981 4554 c-76 -29 -79 -31 -56 -40 9 -4 20 -2 24 4 4 7 12 8 21 1
13 -8 13 -10 0 -19 -8 -5 -33 -12 -55 -16 -22 -3 -46 -11 -52 -16 -21 -17 -4
-28 25 -17 14 6 46 9 70 8 29 -2 46 2 53 11 8 13 10 13 19 0 5 -8 10 -13 11
-10 3 20 8 37 14 53 5 11 3 17 -6 17 -10 0 -10 3 -1 12 13 13 16 38 5 38 -5
-1 -37 -12 -72 -26z m44 -34 c-3 -5 -11 -10 -16 -10 -6 0 -7 5 -4 10 3 6 11
10 16 10 6 0 7 -4 4 -10z"/>
<path d="M7752 4545 c-11 -12 -10 -15 3 -15 8 0 15 7 15 15 0 18 -2 18 -18 0z"/>
<path d="M7304 4535 c-17 -13 -17 -14 -2 -15 9 0 20 5 23 11 11 17 0 20 -21 4z"/>
<path d="M7357 4543 c-12 -11 -8 -23 8 -23 8 0 15 7 15 15 0 16 -12 20 -23 8z"/>
<path d="M7405 4540 c-3 -5 -1 -10 4 -10 6 0 11 5 11 10 0 6 -2 10 -4 10 -3 0
-8 -4 -11 -10z"/>
<path d="M7695 4540 c-3 -5 1 -10 9 -10 9 0 16 5 16 10 0 6 -4 10 -9 10 -6 0
-13 -4 -16 -10z"/>
<path d="M7245 4529 c-4 -6 -5 -13 -2 -16 7 -7 27 6 27 18 0 12 -17 12 -25 -2z"/>
<path d="M7137 4513 c-2 -5 -4 -23 -5 -40 -2 -23 2 -33 13 -33 10 0 14 10 13
35 -1 34 -12 54 -21 38z"/>
<path d="M7191 4504 c0 -11 3 -14 6 -6 3 7 2 16 -1 19 -3 4 -6 -2 -5 -13z"/>
<path d="M7813 4513 c-18 -6 -16 -23 1 -23 17 0 30 16 19 23 -5 2 -14 2 -20 0z"/>
<path d="M7860 4510 c0 -5 4 -10 9 -10 6 0 13 5 16 10 3 6 -1 10 -9 10 -9 0
-16 -4 -16 -10z"/>
<path d="M7696 4485 c-3 -8 -3 -15 0 -15 3 0 12 7 20 15 13 13 13 15 1 15 -8
0 -17 -7 -21 -15z"/>
<path d="M7750 4489 c0 -5 5 -7 10 -4 6 3 10 8 10 11 0 2 -4 4 -10 4 -5 0 -10
-5 -10 -11z"/>
<path d="M7240 4469 c0 -18 2 -19 15 -9 8 7 15 16 15 21 0 5 -7 9 -15 9 -9 0
-15 -9 -15 -21z"/>
<path d="M7640 4480 c0 -5 5 -10 10 -10 6 0 10 5 10 10 0 6 -4 10 -10 10 -5 0
-10 -4 -10 -10z"/>
<path d="M7298 4473 c7 -3 16 -2 19 1 4 3 -2 6 -13 5 -11 0 -14 -3 -6 -6z"/>
<path d="M7585 4470 c3 -5 8 -10 11 -10 2 0 4 5 4 10 0 6 -5 10 -11 10 -5 0
-7 -4 -4 -10z"/>
<path d="M4477 4449 c7 -7 15 -10 18 -7 3 3 -2 9 -12 12 -14 6 -15 5 -6 -5z"/>
<path d="M7400 4445 c0 -9 5 -15 11 -13 6 2 11 8 11 13 0 5 -5 11 -11 13 -6 2
-11 -4 -11 -13z"/>
<path d="M7745 4451 c-6 -11 9 -23 19 -14 9 9 7 23 -3 23 -6 0 -12 -4 -16 -9z"/>
<path d="M4445 4430 c3 -5 8 -10 11 -10 2 0 4 5 4 10 0 6 -5 10 -11 10 -5 0
-7 -4 -4 -10z"/>
<path d="M7695 4430 c-3 -5 -1 -10 4 -10 6 0 11 5 11 10 0 6 -2 10 -4 10 -3 0
-8 -4 -11 -10z"/>
<path d="M7525 4422 c-13 -9 -17 -32 -6 -32 13 0 33 28 24 33 -5 3 -13 3 -18
-1z"/>
<path d="M7576 4421 c-4 -7 -5 -15 -2 -18 9 -9 19 4 14 18 -4 11 -6 11 -12 0z"/>
<path d="M7407 4413 c-13 -12 -7 -33 8 -33 8 0 15 9 15 20 0 20 -11 26 -23 13z"/>
<path d="M7455 4411 c-8 -14 10 -22 30 -15 13 5 14 8 3 15 -17 11 -26 11 -33
0z"/>
<path d="M4440 4390 c0 -5 5 -10 10 -10 6 0 10 5 10 10 0 6 -4 10 -10 10 -5 0
-10 -4 -10 -10z"/>
<path d="M7920 4360 c0 -5 4 -10 9 -10 6 0 13 5 16 10 3 6 -1 10 -9 10 -9 0
-16 -4 -16 -10z"/>
<path d="M4400 4334 c0 -8 5 -12 10 -9 6 4 8 11 5 16 -9 14 -15 11 -15 -7z"/>
<path d="M4960 4340 c0 -13 11 -13 30 0 12 8 11 10 -7 10 -13 0 -23 -4 -23
-10z"/>
<path d="M7955 4330 c3 -5 8 -10 11 -10 2 0 4 5 4 10 0 6 -5 10 -11 10 -5 0
-7 -4 -4 -10z"/>
<path d="M7990 4324 c0 -8 5 -12 10 -9 6 3 10 10 10 16 0 5 -4 9 -10 9 -5 0
-10 -7 -10 -16z"/>
<path d="M4616 4295 c-3 -8 -1 -15 4 -15 13 0 22 18 11 24 -5 3 -11 -1 -15 -9z"/>
<path d="M4890 4289 c0 -5 5 -7 10 -4 6 3 10 8 10 11 0 2 -4 4 -10 4 -5 0 -10
-5 -10 -11z"/>
<path d="M7960 4232 c-24 -4 -40 -18 -40 -36 0 -5 7 -3 15 4 8 7 25 10 39 6
18 -4 24 -2 22 9 -3 20 -7 21 -36 17z"/>
<path d="M8322 3948 c2 -6 10 -14 16 -16 7 -2 10 2 6 12 -7 18 -28 22 -22 4z"/>
<path d="M8320 3886 c0 -8 5 -18 10 -21 6 -3 10 1 10 9 0 8 -4 18 -10 21 -5 3
-10 -1 -10 -9z"/>
<path d="M9380 3650 c0 -5 5 -10 10 -10 6 0 10 5 10 10 0 6 -4 10 -10 10 -5 0
-10 -4 -10 -10z"/>
<path d="M9680 3645 c0 -8 5 -15 10 -15 6 0 10 7 10 15 0 8 -4 15 -10 15 -5 0
-10 -7 -10 -15z"/>
<path d="M9603 3628 c-19 -9 -38 -56 -27 -68 8 -8 24 24 19 38 -2 6 0 12 5 12
6 0 10 -7 10 -15 0 -8 7 -15 15 -15 10 0 15 10 15 30 0 32 -4 34 -37 18z"/>
<path d="M7270 3590 c0 -5 5 -10 11 -10 5 0 7 5 4 10 -3 6 -8 10 -11 10 -2 0
-4 -4 -4 -10z"/>
<path d="M7908 3573 c7 -3 16 -2 19 1 4 3 -2 6 -13 5 -11 0 -14 -3 -6 -6z"/>
<path d="M7320 3535 c0 -8 2 -15 4 -15 2 0 6 7 10 15 3 8 1 15 -4 15 -6 0 -10
-7 -10 -15z"/>
<path d="M9510 3530 c0 -5 5 -10 10 -10 6 0 10 5 10 10 0 6 -4 10 -10 10 -5 0
-10 -4 -10 -10z"/>
<path d="M7888 3523 c6 -2 18 -2 25 0 6 3 1 5 -13 5 -14 0 -19 -2 -12 -5z"/>
<path d="M9460 3505 c0 -9 6 -12 15 -9 8 4 15 10 15 15 0 5 -7 9 -15 9 -8 0
-15 -7 -15 -15z"/>
<path d="M7405 3498 c-2 -7 -6 -29 -7 -48 -3 -30 -7 -35 -30 -38 -22 -3 -27
-8 -30 -43 -2 -22 0 -43 5 -46 13 -8 28 19 18 32 -14 19 -6 40 18 43 15 2 21
0 17 -7 -4 -6 -2 -11 3 -11 6 0 11 15 12 33 0 17 2 47 3 65 4 32 -1 42 -9 20z"/>
<path d="M9420 3474 c0 -8 5 -12 10 -9 6 3 10 10 10 16 0 5 -4 9 -10 9 -5 0
-10 -7 -10 -16z"/>
<path d="M9363 3456 c-22 -10 -31 -26 -15 -26 12 0 48 28 42 32 -3 2 -15 -1
-27 -6z"/>
<path d="M7278 3453 c-22 -5 -24 -33 -3 -33 8 0 15 -4 15 -10 0 -5 -7 -10 -15
-10 -8 0 -15 -4 -15 -10 0 -5 7 -10 16 -10 13 0 15 -7 11 -30 -4 -17 -2 -30 3
-30 6 0 10 31 10 70 0 39 -1 69 -2 69 -2 -1 -11 -3 -20 -6z"/>
<path d="M7316 3444 c-5 -12 -2 -15 11 -10 9 4 20 1 25 -6 5 -9 8 -6 8 10 0
26 -34 31 -44 6z"/>
<path d="M9676 3434 c-8 -22 1 -31 16 -16 9 9 9 15 1 23 -7 7 -12 5 -17 -7z"/>
<path d="M7370 3430 c0 -5 5 -10 10 -10 6 0 10 5 10 10 0 6 -4 10 -10 10 -5 0
-10 -4 -10 -10z"/>
<path d="M7672 3408 c5 -15 28 -23 28 -10 0 5 -7 13 -16 16 -10 4 -14 1 -12
-6z"/>
<path d="M8151 3407 c-12 -15 -5 -27 16 -27 7 0 13 9 13 20 0 23 -13 26 -29 7z"/>
<path d="M9627 3405 c-4 -8 -2 -17 3 -20 6 -4 10 3 10 14 0 25 -6 27 -13 6z"/>
<path d="M7620 3400 c-8 -5 -11 -12 -7 -16 4 -4 13 -2 19 4 15 15 7 24 -12 12z"/>
<path d="M530 3390 c8 -5 24 -10 34 -10 26 0 18 6 -19 14 -22 5 -26 4 -15 -4z"/>
<path d="M9565 3371 c-3 -5 -1 -12 5 -16 5 -3 10 1 10 9 0 18 -6 21 -15 7z"/>
<path d="M7402 3345 c0 -16 2 -22 5 -12 2 9 2 23 0 30 -3 6 -5 -1 -5 -18z"/>
<path d="M7456 3352 c-8 -14 12 -38 23 -27 6 6 4 14 -4 22 -8 7 -16 9 -19 5z"/>
<path d="M7505 3349 c-10 -15 3 -25 16 -12 7 7 7 13 1 17 -6 3 -14 1 -17 -5z"/>
<path d="M7560 3350 c0 -5 10 -10 23 -10 18 0 19 2 7 10 -19 13 -30 13 -30 0z"/>
<path d="M8132 3352 c-7 -5 -15 -25 -17 -45 -3 -20 -9 -55 -14 -76 -5 -22 -6
-42 -3 -46 3 -3 1 -5 -5 -5 -6 0 -13 10 -17 22 -4 17 -8 20 -17 11 -6 -6 -9
-19 -7 -29 2 -14 14 -18 61 -20 l57 -2 0 44 c0 24 -4 44 -9 44 -4 0 -6 11 -3
25 2 14 8 22 13 19 5 -3 9 8 9 24 0 18 -6 32 -16 36 -19 7 -16 7 -32 -2z"/>
<path d="M9515 3330 c-3 -5 -1 -10 4 -10 6 0 11 5 11 10 0 6 -2 10 -4 10 -3 0
-8 -4 -11 -10z"/>
<path d="M7880 3194 c-6 -15 -10 -37 -9 -48 1 -12 -1 -34 -6 -49 -9 -35 5 -52
37 -44 30 8 34 57 4 57 -19 0 -19 0 -1 13 17 13 32 73 15 62 -4 -3 -7 3 -6 12
2 28 -23 26 -34 -3z"/>
<path d="M9670 3204 c0 -8 5 -12 10 -9 6 3 10 10 10 16 0 5 -4 9 -10 9 -5 0
-10 -7 -10 -16z"/>
<path d="M9615 3191 c-3 -5 -1 -12 5 -16 5 -3 10 1 10 9 0 18 -6 21 -15 7z"/>
<path d="M9560 3160 c0 -5 5 -10 10 -10 6 0 10 5 10 10 0 6 -4 10 -10 10 -5 0
-10 -4 -10 -10z"/>
<path d="M9515 3141 c-3 -5 -1 -12 5 -16 5 -3 10 1 10 9 0 18 -6 21 -15 7z"/>
<path d="M230 3126 c0 -9 5 -16 10 -16 6 0 10 4 10 9 0 6 -4 13 -10 16 -5 3
-10 -1 -10 -9z"/>
<path d="M8096 3131 c-3 -5 -15 -7 -26 -4 -17 4 -20 0 -20 -24 0 -16 -5 -34
-12 -41 -9 -9 -9 -15 0 -24 15 -15 42 7 39 32 -3 30 16 28 24 -2 5 -19 3 -31
-7 -39 -10 -8 -11 -14 -4 -19 7 -4 5 -12 -6 -21 -12 -9 -15 -10 -10 -1 4 7 2
12 -4 12 -6 0 -8 5 -5 10 10 15 -25 12 -41 -4 -8 -8 -14 -26 -14 -40 0 -24 1
-25 75 -23 79 2 86 8 65 48 -9 15 -7 19 7 19 16 1 16 2 -2 16 -17 13 -18 16
-5 24 13 9 13 11 0 20 -13 8 -12 10 3 10 20 0 23 30 5 48 -14 14 -54 16 -62 3z"/>
<path d="M9470 3129 c0 -5 5 -7 10 -4 6 3 10 8 10 11 0 2 -4 4 -10 4 -5 0 -10
-5 -10 -11z"/>
<path d="M437 3081 c5 -19 10 -21 42 -15 59 11 58 18 -6 29 -39 6 -41 5 -36
-14z"/>
<path d="M560 3082 c0 -4 5 -13 11 -19 9 -9 5 -13 -17 -18 -16 -4 -34 -8 -40
-10 -8 -2 -14 -44 -18 -112 -4 -59 -9 -131 -12 -160 -5 -51 -6 -53 -42 -59
-24 -5 -37 -3 -40 5 -2 6 -11 11 -21 11 -21 0 -26 67 -10 118 8 24 8 37 0 45
-18 18 -25 0 -32 -81 -6 -55 -13 -80 -25 -89 -27 -20 -61 -16 -78 9 l-16 22
-16 -22 c-14 -20 -21 -22 -62 -17 -100 13 -120 39 -105 131 6 34 -5 53 -29 54
-5 0 -8 -47 -8 -105 l0 -106 93 1 c50 1 169 -1 262 -4 392 -13 572 -16 598
-10 32 7 35 29 6 60 -11 12 -21 35 -21 52 -1 16 -9 40 -18 52 -16 21 -27 23
-145 28 -102 4 -129 2 -136 -9 -5 -8 -9 -44 -9 -80 0 -66 -8 -82 -37 -72 -8 3
-9 12 -4 26 5 12 12 92 16 178 6 138 5 157 -10 172 -17 18 -35 22 -35 9z
m-533 -254 c-3 -7 -5 -2 -5 12 0 14 2 19 5 13 2 -7 2 -19 0 -25z"/>
<path d="M9675 3001 c-7 -12 2 -31 15 -31 9 0 8 26 -2 35 -3 4 -9 2 -13 -4z"/>
<path d="M1700 2990 c0 -5 7 -10 16 -10 8 0 12 5 9 10 -3 6 -10 10 -16 10 -5
0 -9 -4 -9 -10z"/>
<path d="M9616 2981 c-4 -7 -5 -15 -2 -18 9 -9 19 4 14 18 -4 11 -6 11 -12 0z"/>
<path d="M9567 2973 c-4 -3 -7 -11 -7 -17 0 -6 5 -5 12 2 6 6 9 14 7 17 -3 3
-9 2 -12 -2z"/>
<path d="M9520 2950 c0 -5 5 -10 10 -10 6 0 10 5 10 10 0 6 -4 10 -10 10 -5 0
-10 -4 -10 -10z"/>
<path d="M9430 2930 c0 -5 5 -10 11 -10 5 0 7 5 4 10 -3 6 -8 10 -11 10 -2 0
-4 -4 -4 -10z"/>
<path d="M8028 2923 c-21 -5 -19 3 -22 -103 -2 -52 1 -88 8 -93 8 -6 7 -10 -1
-14 -8 -3 -13 -23 -13 -48 0 -37 3 -44 23 -48 l22 -4 -22 -2 c-26 -1 -29 -11
-11 -29 9 -9 9 -12 -1 -12 -8 0 -11 -10 -9 -27 3 -26 6 -28 48 -28 33 0 45 -4
45 -15 0 -8 -7 -13 -15 -11 -56 15 -70 13 -79 -10 -13 -36 3 -47 70 -46 67 0
79 11 61 51 -6 15 -7 27 -1 33 11 11 16 99 6 109 -4 4 -13 2 -19 -4 -7 -7 -23
-12 -37 -11 -15 0 -20 3 -13 6 6 2 10 9 6 14 -3 5 0 9 5 9 6 0 11 -6 11 -12 0
-9 2 -10 8 -2 4 7 16 13 27 15 13 3 21 14 23 31 3 22 -2 27 -26 33 -16 3 -33
5 -38 3 -5 -2 -10 2 -12 7 -1 6 16 11 38 13 l40 3 0 45 c0 24 -4 44 -10 44 -5
0 -10 9 -10 20 0 11 7 20 15 20 9 0 15 9 15 25 0 30 -43 53 -66 35 -8 -7 -19
-8 -31 -2 -10 4 -26 7 -35 5z m66 -91 c-8 -29 -35 -29 -31 1 2 24 18 40 29 29
4 -4 5 -17 2 -30z m-17 -54 c-3 -8 -6 -5 -6 6 -1 11 2 17 5 13 3 -3 4 -12 1
-19z m-27 -58 c0 -5 -4 -10 -10 -10 -5 0 -10 5 -10 10 0 6 5 10 10 10 6 0 10
-4 10 -10z"/>
<path d="M9330 2917 c-14 -8 -32 -11 -39 -9 -8 3 -12 -1 -9 -8 6 -18 42 -22
63 -6 28 20 16 39 -15 23z"/>
<path d="M2863 2763 c-6 -81 -9 -151 -7 -155 3 -4 40 -7 82 -7 42 1 177 -2
298 -6 211 -7 222 -7 231 11 15 29 17 232 3 218 -7 -7 -11 -36 -8 -73 3 -55 1
-62 -17 -67 -12 -3 -34 0 -50 7 -17 7 -36 11 -43 10 -10 -2 -12 15 -10 71 3
65 5 73 22 70 10 -2 16 2 14 8 -2 6 -7 11 -11 11 -4 -1 -29 -1 -57 -1 l-50 0
0 -60 c0 -58 -12 -80 -23 -40 -3 11 -14 20 -24 20 -25 0 -63 -36 -63 -59 0
-39 -102 -29 -109 11 -10 61 -11 131 -2 118 9 -12 11 -11 11 7 0 17 -7 23 -35
29 -57 10 -65 2 -65 -64 0 -32 -5 -63 -12 -70 -7 -7 -8 -15 -1 -24 5 -7 8 -32
5 -55 -3 -31 -9 -44 -24 -49 -11 -3 -22 -3 -26 0 -11 11 -1 101 12 111 11 9
11 12 0 23 -9 9 -12 26 -8 56 7 47 -1 96 -14 96 -5 0 -13 -66 -19 -147z"/>
<path d="M7880 2859 c0 -5 9 -9 20 -9 11 0 20 2 20 4 0 2 -9 6 -20 9 -11 3
-20 1 -20 -4z"/>
<path d="M2090 2804 c0 -45 24 -42 28 4 2 24 -1 32 -12 32 -12 0 -16 -10 -16
-36z"/>
<path d="M2155 2820 c-3 -11 -3 -29 0 -40 5 -17 15 -20 61 -20 42 0 54 -3 54
-16 0 -11 -9 -15 -32 -14 -49 3 -58 1 -58 -10 0 -6 6 -10 13 -9 6 1 24 1 39 0
24 -1 25 -3 15 -25 -9 -19 -14 -22 -29 -12 -23 14 -53 -3 -53 -30 0 -17 8 -19
60 -18 142 1 167 4 162 17 -2 7 -18 11 -40 9 -20 -2 -44 1 -54 7 -10 6 -13 11
-6 11 8 0 8 7 0 30 -10 25 -9 33 3 40 13 9 13 10 0 11 -8 0 -1 5 15 10 17 5
36 7 43 4 8 -3 12 7 12 29 0 30 -4 34 -31 40 -17 3 -62 6 -100 6 -59 0 -68 -3
-74 -20z"/>
<path d="M7880 2830 c0 -5 5 -10 10 -10 6 0 10 5 10 10 0 6 -4 10 -10 10 -5 0
-10 -4 -10 -10z"/>
<path d="M222 2805 c0 -16 2 -22 5 -12 2 9 2 23 0 30 -3 6 -5 -1 -5 -18z"/>
<path d="M7347 2802 c-29 -6 -97 -79 -98 -104 0 -22 -1 -22 -8 -3 -8 19 -9 18
-22 -8 -10 -23 -18 -27 -43 -25 -26 2 -32 -1 -34 -19 -3 -18 2 -23 18 -23 13
0 20 -5 17 -12 -2 -7 -11 -12 -21 -10 -21 4 -21 -14 0 -22 17 -7 44 5 64 28
22 28 30 17 30 -39 0 -30 5 -55 10 -55 6 0 10 7 10 15 0 8 4 15 9 15 5 0 5 14
-1 33 -7 24 -6 41 6 70 9 20 21 37 26 37 6 0 10 10 10 21 0 18 2 19 15 9 19
-16 33 -4 17 12 -10 10 -8 16 10 29 17 13 20 21 12 36 -5 11 -17 17 -27 15z"/>
<path d="M8230 2776 c0 -17 14 -29 23 -20 8 8 -3 34 -14 34 -5 0 -9 -6 -9 -14z"/>
<path d="M9677 2783 c-12 -12 -7 -22 8 -17 8 4 15 10 15 15 0 11 -14 12 -23 2z"/>
<path d="M7930 2770 c0 -5 5 -10 10 -10 6 0 10 5 10 10 0 6 -4 10 -10 10 -5 0
-10 -4 -10 -10z"/>
<path d="M1080 2749 c-10 -17 -8 -25 9 -43 12 -12 21 -28 21 -35 0 -7 9 -11
23 -9 18 2 23 10 25 42 4 43 -1 51 -40 60 -21 5 -30 2 -38 -15z"/>
<path d="M2698 2688 c-2 -35 -1 -67 3 -72 4 -4 9 22 11 59 1 37 0 69 -4 71 -3
2 -8 -24 -10 -58z"/>
<path d="M1618 2710 c-3 -16 -1 -30 4 -30 4 0 8 14 8 30 0 17 -2 30 -4 30 -2
0 -6 -13 -8 -30z"/>
<path d="M2090 2720 c0 -5 5 -10 10 -10 6 0 10 5 10 10 0 6 -4 10 -10 10 -5 0
-10 -4 -10 -10z"/>
<path d="M2482 2678 c-13 -6 -21 -17 -18 -25 3 -7 -1 -13 -10 -13 -8 0 -12 5
-9 10 9 14 -7 12 -28 -4 -16 -13 -16 -14 5 -20 13 -3 61 -6 108 -6 69 1 82 3
70 13 -8 7 -20 21 -26 32 -13 23 -58 29 -92 13z"/>
<path d="M3597 2673 c-47 -4 -48 -5 -45 -36 3 -27 8 -33 32 -35 16 -2 39 1 50
8 12 6 32 9 46 8 19 -2 26 2 28 20 2 12 -1 23 -7 23 -26 3 -30 4 -37 12 -4 4
-10 6 -13 5 -3 -1 -28 -3 -54 -5z"/>
<path d="M3507 2653 c-4 -3 -7 -11 -7 -17 0 -6 5 -5 12 2 6 6 9 14 7 17 -3 3
-9 2 -12 -2z"/>
<path d="M3733 2635 c5 -37 17 -42 17 -7 0 18 -5 32 -10 32 -6 0 -9 -11 -7
-25z"/>
<path d="M1180 2561 c0 -12 6 -21 16 -21 9 0 14 7 12 17 -5 25 -28 28 -28 4z"/>
<path d="M1400 2560 c0 -11 5 -20 10 -20 6 0 10 9 10 20 0 11 -4 20 -10 20 -5
0 -10 -9 -10 -20z"/>
<path d="M1508 2573 c-19 -5 -25 -23 -9 -23 5 0 16 -3 25 -6 12 -4 16 0 16 15
0 21 -2 22 -32 14z"/>
<path d="M8212 2566 c1 -10 8 -17 13 -17 15 1 12 24 -3 29 -9 3 -13 -2 -10
-12z"/>
<path d="M1232 2552 c2 -9 14 -19 27 -20 30 -5 24 18 -8 29 -18 7 -22 6 -19
-9z"/>
<path d="M1621 2556 c-27 -10 -31 -14 -19 -23 10 -9 26 -9 58 -2 24 6 55 7 68
4 34 -8 82 4 82 21 0 18 -139 18 -189 0z"/>
<path d="M1836 2539 c12 -57 12 -74 -5 -81 -29 -12 -38 -8 -34 15 4 18 0 22
-24 23 -15 1 -35 3 -43 5 -11 3 -14 -3 -12 -20 2 -20 -1 -22 -22 -17 -15 4
-26 1 -28 -6 -7 -20 -30 3 -25 24 6 20 5 20 -17 -1 -31 -29 -76 -25 -76 7 0
13 -4 20 -10 17 -5 -3 -10 -15 -10 -26 0 -10 -6 -18 -12 -16 -7 1 -12 -6 -10
-15 2 -10 -2 -18 -8 -18 -5 0 -10 6 -10 13 0 15 -46 37 -77 37 -13 0 -23 -4
-23 -10 0 -5 -5 -10 -11 -10 -5 0 -8 4 -5 9 3 4 -12 13 -33 20 -53 15 -72 14
-64 -5 4 -12 0 -14 -21 -10 -14 4 -37 8 -51 11 -14 3 -23 10 -20 15 3 5 0 12
-6 16 -6 3 -14 1 -18 -5 -4 -6 -38 -13 -77 -15 -84 -5 -79 -3 -64 -21 10 -12
10 -15 -4 -15 -9 0 -16 8 -16 20 0 16 -6 19 -33 18 -19 -1 -39 2 -45 5 -18 12
-42 -4 -42 -29 0 -18 5 -24 22 -24 12 0 19 -3 16 -6 -9 -9 -78 7 -78 19 0 11
-30 36 -43 37 -5 0 -5 -4 -2 -10 7 -11 -57 -1 -65 11 -3 4 -32 4 -65 1 -69 -8
-108 -5 -100 9 4 5 2 9 -3 9 -11 0 -22 -24 -22 -46 0 -9 4 -13 9 -9 5 3 12 1
16 -5 8 -13 -4 -13 -44 1 -37 13 -40 26 -6 35 14 3 25 10 25 15 0 12 -17 11
-25 -1 -3 -5 -14 -10 -24 -10 -10 0 -24 -7 -31 -15 -15 -18 -53 -20 -81 -4
-14 7 -24 7 -33 0 -7 -6 -16 -8 -19 -4 -4 3 -7 0 -7 -7 0 -9 -6 -8 -20 5 -10
9 -19 20 -18 24 2 21 -5 31 -23 31 -16 0 -20 -5 -16 -19 6 -24 -10 -51 -30
-51 -10 0 -14 6 -10 19 3 14 -2 21 -17 25 -30 8 -91 7 -82 -1 4 -4 23 -6 43
-4 26 2 34 -1 31 -11 -3 -8 -21 -13 -51 -13 -25 0 -49 -3 -53 -7 -12 -12 -24
-9 -22 5 2 7 -9 13 -24 15 l-28 3 0 -269 c0 -297 -3 -286 63 -275 29 4 36 2
42 -16 3 -11 9 -21 13 -21 12 0 29 15 33 28 3 10 11 8 31 -7 19 -16 28 -18 32
-9 5 10 7 10 12 1 3 -7 20 -13 37 -13 17 0 38 -7 48 -16 14 -12 24 -14 46 -7
21 7 40 5 78 -10 27 -10 60 -21 73 -24 13 -3 22 -13 22 -24 0 -12 5 -16 15
-13 8 4 22 1 30 -6 8 -6 18 -9 23 -6 10 6 68 -20 77 -34 3 -5 21 -6 40 -3 25
4 41 1 54 -11 14 -13 28 -16 53 -11 25 5 38 2 47 -9 19 -23 44 -20 71 9 34 37
78 34 91 -5 6 -16 17 -30 25 -30 33 0 62 -23 61 -48 -2 -31 19 -41 28 -13 3
11 15 23 26 26 10 4 19 11 19 16 0 6 9 5 21 -2 23 -12 88 -6 148 13 30 9 36 8
50 -11 16 -21 17 -21 33 -2 13 16 25 18 60 14 24 -3 47 -9 52 -14 19 -17 47
-9 56 16 11 28 21 31 53 13 12 -7 55 -13 96 -15 97 -3 116 -18 95 -75 -18 -50
-18 -48 6 -48 14 0 22 10 28 33 7 27 13 33 41 35 18 2 42 -3 54 -11 28 -18
141 -41 162 -33 9 3 28 -3 43 -13 15 -10 40 -22 56 -26 26 -5 28 -4 16 10 -7
8 -10 18 -7 21 9 9 27 -6 27 -23 0 -13 3 -13 15 -3 9 8 15 8 15 2 0 -6 17 -11
38 -12 119 -3 140 -7 166 -26 25 -18 35 -20 79 -12 68 13 97 4 97 -28 0 -16 5
-24 13 -21 6 2 11 11 9 21 -2 9 4 16 13 16 8 0 24 5 35 12 15 10 22 9 38 -5
16 -14 24 -15 51 -6 27 9 35 9 42 -2 6 -10 9 -11 9 -1 0 6 11 12 25 12 14 0
25 -5 25 -10 0 -6 7 -6 19 2 15 9 24 8 44 -5 14 -9 33 -14 42 -11 11 5 18 0
22 -15 3 -11 8 -19 12 -16 16 9 159 5 196 -6 22 -6 52 -12 68 -12 15 0 28 -4
28 -8 1 -5 3 -13 4 -19 1 -5 3 -14 4 -20 2 -20 30 -10 54 20 14 17 29 30 34
30 11 0 43 -37 43 -50 0 -6 17 -10 38 -10 21 0 47 -7 59 -15 12 -8 28 -12 37
-9 10 4 18 -1 23 -11 5 -15 8 -16 17 -3 12 17 76 32 76 19 0 -5 12 -6 28 -2
27 8 57 -5 91 -37 8 -8 25 -12 41 -8 16 3 36 -1 49 -10 20 -14 23 -14 40 7 21
26 50 20 58 -12 4 -12 17 -22 35 -26 15 -3 31 -9 33 -13 6 -9 44 -2 60 11 14
10 59 6 77 -7 23 -18 68 -34 68 -25 0 13 30 7 39 -8 5 -8 24 -12 47 -11 57 4
63 2 57 -19 -5 -19 28 -47 40 -34 4 3 13 0 22 -7 12 -10 15 -10 15 4 0 9 6 16
14 16 8 0 19 14 25 30 10 31 25 38 36 19 4 -5 19 -9 33 -8 52 4 64 0 58 -19
-5 -14 -1 -17 19 -17 14 1 28 5 32 8 3 4 17 -3 30 -15 13 -12 23 -16 23 -10 0
7 7 12 15 12 9 0 15 -6 13 -12 -3 -18 12 -58 22 -58 5 0 12 9 15 20 8 25 35
26 42 2 7 -30 69 -25 119 9 48 33 59 35 68 14 3 -8 12 -15 20 -15 7 0 16 -9
19 -20 6 -22 51 -28 62 -9 5 7 13 5 25 -6 16 -14 18 -14 30 0 8 9 25 15 39 13
14 -1 31 1 38 5 6 4 14 3 18 -3 10 -16 23 -12 30 11 6 18 10 15 42 -25 20 -26
41 -46 48 -46 16 0 55 43 55 62 0 14 5 14 37 -3 50 -26 60 -36 45 -51 -21 -21
-13 -26 26 -18 21 4 48 3 60 -1 14 -6 28 -2 46 12 23 18 27 19 32 5 3 -9 10
-13 16 -10 5 3 28 1 51 -6 48 -13 97 -1 97 25 0 19 29 20 36 2 3 -8 18 -14 35
-14 20 0 38 -9 57 -30 15 -17 32 -28 39 -26 6 2 23 -9 38 -24 18 -19 29 -24
32 -15 3 6 11 12 19 12 8 0 14 6 14 14 0 17 27 29 35 16 3 -5 12 -7 20 -3 9 3
22 0 29 -6 10 -8 16 -9 21 -1 12 20 105 2 105 -21 0 -15 70 -41 94 -35 17 4
24 13 24 33 0 28 41 73 68 73 8 0 14 5 14 10 0 6 -4 10 -10 10 -5 0 -14 9 -21
21 -9 18 -6 26 21 54 20 21 39 31 49 28 9 -3 6 2 -6 11 -28 21 -29 36 -4 36
11 0 23 5 26 10 4 7 13 6 26 -1 27 -14 36 -3 20 23 -12 19 -9 24 21 54 22 22
45 34 68 36 33 3 35 6 40 43 5 38 7 41 47 49 23 5 44 16 47 25 3 9 9 23 12 31
4 12 4 12 -4 1 -8 -11 -12 -9 -22 9 -10 19 -9 21 7 18 10 -2 26 6 36 19 10 13
29 23 42 23 26 0 50 24 40 40 -3 5 0 10 7 10 20 1 58 36 58 54 0 8 5 18 10 21
6 4 8 10 5 15 -5 9 84 88 119 105 12 6 23 19 25 30 2 11 16 35 32 53 16 18 29
37 29 43 0 6 7 17 15 25 8 9 15 26 15 39 0 15 9 29 23 36 32 17 77 61 77 76 0
7 6 13 13 13 17 0 97 78 97 95 0 17 -45 24 -190 30 -371 14 -439 17 -480 21
-25 2 -79 6 -120 9 -41 2 -136 8 -210 13 -74 5 -153 10 -175 10 -292 8 -387
12 -480 18 -60 4 -156 7 -212 7 -57 -1 -103 3 -103 8 0 5 -17 8 -37 7 -21 -2
-137 1 -258 5 -372 15 -385 15 -391 5 -4 -7 -9 -6 -13 0 -4 6 -55 13 -116 16
-61 2 -168 7 -240 10 -71 4 -168 8 -215 10 -47 3 -98 7 -115 10 -62 11 -366
16 -360 6 3 -6 1 -10 -4 -10 -6 0 -11 4 -11 9 0 5 -9 11 -20 14 -11 3 -20 1
-20 -3 0 -5 -19 -1 -41 8 -23 9 -37 18 -31 20 6 2 8 10 6 17 -6 14 -21 13 -91
-1 -17 -3 -23 0 -23 14 0 17 6 18 50 14 32 -3 50 -1 50 6 0 6 -19 12 -42 12
-24 1 -61 2 -83 3 -22 1 -39 -2 -39 -8 1 -5 4 -23 8 -38 6 -25 4 -28 -16 -25
-17 2 -24 11 -26 31 -6 47 -22 29 -22 -24 0 -45 -2 -49 -15 -35 -9 8 -17 32
-18 53 -2 37 -1 38 38 44 31 4 36 7 22 14 -11 4 -34 3 -54 -3 -24 -7 -42 -8
-54 -2 -25 14 -33 12 -20 -4 17 -20 -9 -27 -40 -10 -32 18 -56 17 -63 -1 -3
-8 -16 -15 -28 -16 -17 -1 -14 -4 12 -11 19 -5 51 -19 71 -29 51 -27 70 -24
34 6 -27 22 -28 24 -9 25 11 0 30 -9 42 -20 12 -11 26 -20 32 -20 5 0 10 -5
10 -10 0 -6 -6 -10 -12 -9 -7 1 -30 -1 -51 -6 -28 -5 -42 -4 -55 8 -32 28 -62
31 -86 8 -20 -19 -24 -20 -36 -6 -7 8 -19 15 -26 15 -29 0 -12 26 31 49 25 13
44 29 42 34 -2 6 -28 11 -58 12 -29 1 -44 0 -31 -2 27 -5 29 -23 2 -23 -11 0
-20 -5 -20 -10 0 -6 10 -9 23 -7 12 2 16 2 10 0 -7 -3 -13 -8 -13 -13 0 -5 -9
-12 -20 -15 -11 -3 -20 -15 -20 -26 0 -12 -7 -19 -20 -19 -13 0 -20 7 -20 20
0 11 6 20 13 20 6 0 19 5 27 10 13 8 12 11 -5 25 -11 8 -30 13 -42 10 -16 -4
-23 -1 -23 9 0 23 -13 27 -111 32 -79 4 -90 2 -85 -11 3 -8 1 -15 -4 -15 -6 0
-10 5 -10 10 0 6 -23 10 -51 10 -43 0 -50 -3 -45 -16 10 -27 -134 -13 -170 15
-15 12 -30 18 -33 15 -3 -4 0 -9 7 -11 6 -3 12 -14 12 -25 0 -18 -5 -20 -40
-15 -30 4 -40 2 -40 -9 0 -8 -4 -14 -10 -14 -25 0 -1 41 30 52 8 3 -5 5 -29 5
-24 0 -47 6 -51 13 -6 9 -9 9 -15 0 -4 -6 -2 -17 4 -23 6 -6 11 -24 11 -39 0
-18 5 -28 15 -28 8 0 15 -4 15 -8 0 -4 -27 -9 -60 -10 -66 -3 -97 6 -64 19 17
7 17 8 -3 8 -13 1 -23 6 -23 11 0 7 -6 8 -16 2 -9 -5 -25 -7 -35 -5 -11 3 -19
0 -19 -6 0 -6 -7 -11 -15 -11 -8 0 -15 9 -15 21 0 19 5 20 73 17 75 -4 100
-13 110 -38 3 -9 6 -3 6 13 1 15 6 27 12 27 8 0 7 5 -2 16 -10 12 -23 14 -57
9 -37 -5 -47 -3 -63 14 -20 21 -77 29 -93 14 -4 -4 -37 -6 -74 -5 -37 1 -90
-1 -119 -6 -36 -6 -63 -5 -89 4 -20 7 -59 16 -86 19 l-50 7 8 -33z m152 -50
c-2 -6 -8 -10 -13 -10 -5 0 -11 4 -13 10 -2 6 4 11 13 11 9 0 15 -5 13 -11z
m1079 -4 c8 -9 12 -19 8 -23 -4 -4 -10 -1 -12 6 -3 6 -11 12 -18 12 -8 0 -17
5 -20 10 -10 16 25 12 42 -5z m323 5 c0 -5 -4 -10 -10 -10 -5 0 -10 5 -10 10
0 6 5 10 10 10 6 0 10 -4 10 -10z m-535 -20 c3 -5 -1 -10 -9 -10 -9 0 -16 -6
-16 -14 0 -9 -8 -12 -26 -8 -16 3 -30 -1 -36 -9 -8 -11 -8 -10 -4 4 3 10 6 22
6 27 0 17 75 26 85 10z m-290 -10 c3 -5 2 -10 -4 -10 -5 0 -13 5 -16 10 -3 6
-2 10 4 10 5 0 13 -4 16 -10z m155 -1 c0 -5 -9 -9 -20 -9 -11 0 -20 -4 -20
-10 0 -15 -16 -12 -33 5 -13 13 -16 13 -27 0 -10 -12 -16 -13 -28 -3 -13 11
-12 13 7 18 39 9 121 8 121 -1z m203 -11 c8 -30 5 -31 -20 -2 -20 22 -20 24
-3 24 10 0 20 -10 23 -22z m-1943 8 c0 -3 -4 -8 -10 -11 -5 -3 -10 -1 -10 4 0
6 5 11 10 11 6 0 10 -2 10 -4z m2660 -16 c0 -14 -6 -20 -22 -19 -13 0 -17 3
-10 6 6 2 12 11 12 19 0 8 5 14 10 14 6 0 10 -9 10 -20z m-2135 -410 c3 -5 1
-10 -4 -10 -6 0 -11 5 -11 10 0 6 2 10 4 10 3 0 8 -4 11 -10z m3660 -30 c3 -5
1 -10 -4 -10 -6 0 -11 5 -11 10 0 6 2 10 4 10 3 0 8 -4 11 -10z m-4325 -166
c0 -8 -5 -12 -10 -9 -6 4 -8 11 -5 16 9 14 15 11 15 -7z m405 -3 c-8 -13 -45
-15 -45 -2 0 5 10 11 23 13 27 5 31 3 22 -11z m1595 -145 c0 -28 -1 -28 -19
-12 -15 14 -17 21 -7 41 13 28 26 14 26 -29z m-42 -27 c-2 -6 -8 -10 -13 -10
-5 0 -11 4 -13 10 -2 6 4 11 13 11 9 0 15 -5 13 -11z m197 -9 c-3 -5 -10 -10
-16 -10 -5 0 -9 5 -9 10 0 6 7 10 16 10 8 0 12 -4 9 -10z m1981 -176 c-3 -9
-6 -21 -6 -27 0 -8 -3 -8 -11 0 -13 13 -5 43 12 43 6 0 8 -7 5 -16z m720 -82
c-15 -15 -16 -15 -16 4 0 28 24 52 28 28 2 -9 -3 -24 -12 -32z m-596 24 c0 -3
-4 -8 -10 -11 -5 -3 -10 -1 -10 4 0 6 5 11 10 11 6 0 10 -2 10 -4z m878 -39
c-5 -32 -25 -31 -25 2 0 21 4 28 14 24 8 -3 13 -15 11 -26z m-945 -22 c-7 -21
-13 -19 -13 6 0 11 4 18 10 14 5 -3 7 -12 3 -20z m87 -32 c0 -6 6 -13 13 -16
6 -3 1 -4 -13 -4 -21 1 -50 18 -50 29 0 2 11 3 25 3 14 0 25 -5 25 -12z m-104
-20 c-10 -10 -19 5 -10 18 6 11 8 11 12 0 2 -7 1 -15 -2 -18z m777 -38 c7 -16
-8 -29 -23 -20 -15 9 -12 35 4 35 8 0 16 -7 19 -15z m-503 -21 c0 -8 -4 -12
-10 -9 -5 3 -10 10 -10 16 0 5 5 9 10 9 6 0 10 -7 10 -16z m-380 -14 c-20 -13
-43 -13 -35 0 3 6 16 10 28 10 18 0 19 -2 7 -10z m960 -71 c0 -5 -4 -9 -10 -9
-5 0 -10 7 -10 16 0 8 5 12 10 9 6 -3 10 -10 10 -16z m725 -47 c-12 -13 -24
22 -12 37 10 12 13 11 15 -8 2 -13 1 -26 -3 -29z m-897 -9 c-5 -25 -28 -28
-28 -4 0 12 6 21 16 21 9 0 14 -7 12 -17z m472 -43 c0 -5 -4 -10 -9 -10 -6 0
-13 5 -16 10 -3 6 1 10 9 10 9 0 16 -4 16 -10z"/>
<path d="M2680 2549 c0 -13 14 -16 45 -9 l30 6 -37 5 c-21 3 -38 2 -38 -2z"/>
<path d="M1555 2540 c-3 -5 -1 -10 4 -10 6 0 11 5 11 10 0 6 -2 10 -4 10 -3 0
-8 -4 -11 -10z"/>
<path d="M830 2504 c-10 -11 -10 -14 1 -14 8 0 20 4 27 9 11 7 11 9 -1 14 -9
3 -21 -1 -27 -9z"/>
<path d="M3808 2513 c7 -3 16 -2 19 1 4 3 -2 6 -13 5 -11 0 -14 -3 -6 -6z"/>
<path d="M1570 2500 c0 -5 5 -10 10 -10 6 0 10 5 10 10 0 6 -4 10 -10 10 -5 0
-10 -4 -10 -10z"/>
<path d="M3788 2493 c12 -2 30 -2 40 0 9 3 -1 5 -23 4 -22 0 -30 -2 -17 -4z"/>
<path d="M3910 2490 c19 -13 30 -13 30 0 0 6 -10 10 -22 10 -19 0 -20 -2 -8
-10z"/>
<path d="M3963 2493 c9 -2 23 -2 30 0 6 3 -1 5 -18 5 -16 0 -22 -2 -12 -5z"/>
<path d="M4095 2490 c-16 -7 -12 -9 18 -9 23 -1 36 3 32 9 -7 12 -23 12 -50 0z"/>
<path d="M4387 2494 c-13 -13 3 -21 32 -16 17 2 28 8 25 13 -6 10 -48 12 -57
3z"/>
<path d="M3843 2473 c9 -2 23 -2 30 0 6 3 -1 5 -18 5 -16 0 -22 -2 -12 -5z"/>
<path d="M5417 2444 c-3 -4 -122 -6 -264 -5 -142 1 -271 -3 -288 -8 -23 -7
-25 -10 -10 -11 30 -3 65 -2 115 4 31 4 37 3 20 -3 -15 -5 10 -6 64 -3 56 3
87 1 83 -5 -4 -6 39 -10 111 -10 76 -1 105 2 82 7 l-35 7 43 2 c29 1 41 -3 36
-10 -4 -8 9 -10 44 -8 27 2 49 2 47 -1 -2 -3 20 -6 48 -7 29 0 94 -4 145 -8
62 -4 92 -3 92 4 0 6 11 11 25 11 14 0 25 -5 25 -12 0 -6 7 -3 15 8 15 19 16
19 13 -1 -3 -16 4 -20 37 -21 22 -2 87 -5 145 -8 216 -12 325 -13 338 -3 8 7
12 5 12 -6 0 -13 16 -16 84 -19 46 -2 97 -1 112 2 16 3 47 2 69 -3 22 -4 83
-10 135 -13 52 -2 163 -9 245 -14 83 -6 180 -12 216 -14 36 -2 128 -10 203
-16 142 -13 235 -8 248 13 11 18 10 67 -2 67 -5 0 -10 8 -11 18 0 14 -2 14 -9
-3 -5 -11 -9 -14 -9 -8 -1 9 -8 10 -25 3 -15 -5 -27 -5 -34 2 -7 7 -21 6 -47
-2 -22 -7 -58 -9 -93 -6 -31 4 -115 8 -186 10 -95 3 -131 7 -137 17 -7 12 -9
12 -9 0 0 -10 -10 -12 -41 -7 -26 4 -46 2 -55 -5 -8 -6 -14 -7 -14 -3 0 5 -18
9 -40 9 -22 0 -40 -4 -40 -8 0 -9 -11 -8 -70 8 -24 6 -24 6 -6 -9 23 -18 21
-22 -17 -31 -25 -7 -27 -5 -27 26 0 26 -3 30 -12 21 -17 -17 -38 -15 -38 4 0
12 -3 14 -12 6 -21 -17 -204 -21 -194 -4 3 5 -48 8 -112 8 -64 0 -128 1 -142
2 -54 5 -165 -2 -171 -10 -3 -5 -26 -2 -50 6 -24 8 -87 18 -139 21 -52 3 -103
8 -113 11 -9 3 -31 -2 -49 -10 -17 -9 -34 -14 -36 -11 -3 3 0 5 6 5 7 0 12 5
12 11 0 9 -25 10 -88 6 -49 -4 -103 -2 -120 2 -19 6 -34 6 -37 0 -8 -12 -65
-12 -65 1 0 11 -13 13 -23 4z m403 -18 c0 -3 -4 -8 -10 -11 -5 -3 -10 -1 -10
4 0 6 5 11 10 11 6 0 10 -2 10 -4z m93 -13 c-7 -2 -19 -2 -25 0 -7 3 -2 5 12
5 14 0 19 -2 13 -5z m455 -30 c-10 -2 -26 -2 -35 0 -10 3 -2 5 17 5 19 0 27
-2 18 -5z m162 -3 c0 -5 -7 -7 -15 -4 -8 4 -15 8 -15 10 0 2 7 4 15 4 8 0 15
-4 15 -10z m-327 -7 c-7 -2 -21 -2 -30 0 -10 3 -4 5 12 5 17 0 24 -2 18 -5z
m525 -13 c-7 -11 -16 -20 -20 -20 -5 0 -8 9 -8 20 0 13 7 20 20 20 18 0 19 -2
8 -20z m-143 0 c-16 -4 -43 -8 -60 -8 -29 1 -29 1 5 8 19 4 46 7 60 8 22 0 22
-1 -5 -8z"/>
<path d="M8237 2443 c-12 -11 -8 -23 7 -23 7 0 19 7 26 15 10 12 9 15 -7 15
-11 0 -23 -3 -26 -7z"/>
<path d="M4485 2430 c3 -5 8 -10 11 -10 2 0 4 5 4 10 0 6 -5 10 -11 10 -5 0
-7 -4 -4 -10z"/>
<path d="M4683 2423 c9 -2 23 -2 30 0 6 3 -1 5 -18 5 -16 0 -22 -2 -12 -5z"/>
<path d="M7400 2400 c0 -19 3 -21 12 -12 9 9 9 15 0 24 -9 9 -12 7 -12 -12z"/>
<path d="M6568 2403 c6 -2 18 -2 25 0 6 3 1 5 -13 5 -14 0 -19 -2 -12 -5z"/>
<path d="M7450 2401 c0 -13 44 -22 79 -15 50 10 36 24 -24 24 -30 0 -55 -4
-55 -9z"/>
<path d="M7600 2389 c0 -5 5 -7 10 -4 6 3 10 8 10 11 0 2 -4 4 -10 4 -5 0 -10
-5 -10 -11z"/>
<path d="M9630 2150 c0 -5 5 -10 11 -10 5 0 7 5 4 10 -3 6 -8 10 -11 10 -2 0
-4 -4 -4 -10z"/>
<path d="M7865 1330 c-3 -6 1 -13 10 -16 19 -8 30 0 20 15 -8 14 -22 14 -30 1z"/>
<path d="M7760 1165 c0 -8 5 -15 10 -15 6 0 10 7 10 15 0 8 -4 15 -10 15 -5 0
-10 -7 -10 -15z"/>
<path d="M3814 1146 c-4 -10 -2 -22 4 -28 8 -8 13 -7 18 6 4 10 2 22 -4 28 -8
8 -13 7 -18 -6z"/>
<path d="M3000 1120 c0 -5 5 -10 10 -10 6 0 10 5 10 10 0 6 -4 10 -10 10 -5 0
-10 -4 -10 -10z"/>
<path d="M6726 1031 c-4 -7 -5 -15 -2 -18 9 -9 19 4 14 18 -4 11 -6 11 -12 0z"/>
<path d="M7878 1012 c-21 -9 -38 -20 -38 -24 0 -11 18 -10 25 2 3 6 15 10 25
10 17 0 37 17 29 25 -2 1 -21 -4 -41 -13z"/>
<path d="M3807 1014 c-12 -12 -8 -51 6 -63 16 -13 27 -5 27 19 0 21 -24 53
-33 44z"/>
<path d="M7731 944 c0 -11 3 -14 6 -6 3 7 2 16 -1 19 -3 4 -6 -2 -5 -13z"/>
<path d="M4832 938 c-14 -14 -16 -28 -3 -28 9 0 24 30 18 36 -2 2 -9 -2 -15
-8z"/>
<path d="M7527 815 c7 -19 79 -55 110 -55 25 0 26 1 17 25 -5 13 -8 14 -15 3
-7 -10 -9 -9 -9 5 0 14 -5 17 -20 12 -11 -4 -29 0 -42 9 -29 20 -49 21 -41 1z"/>
<path d="M5190 801 c0 -6 5 -13 10 -16 6 -3 10 1 10 9 0 9 -4 16 -10 16 -5 0
-10 -4 -10 -9z"/>
<path d="M7525 730 c3 -5 8 -10 11 -10 2 0 4 5 4 10 0 6 -5 10 -11 10 -5 0 -7
-4 -4 -10z"/>
<path d="M6340 560 c0 -5 5 -10 10 -10 6 0 10 5 10 10 0 6 -4 10 -10 10 -5 0
-10 -4 -10 -10z"/>
<path d="M7670 560 c0 -5 12 -10 26 -10 14 0 23 4 19 10 -3 6 -15 10 -26 10
-10 0 -19 -4 -19 -10z"/>
<path d="M7450 446 c0 -19 14 -28 34 -20 25 10 19 34 -9 34 -15 0 -25 -6 -25
-14z"/>
</g>
</svg>
