<?xml version="1.0" standalone="no"?>
<!DOCTYPE svg PUBLIC "-//W3C//DTD SVG 20010904//EN"
 "http://www.w3.org/TR/2001/REC-SVG-20010904/DTD/svg10.dtd">
<svg version="1.0" xmlns="http://www.w3.org/2000/svg"
 width="604.000000pt" height="404.000000pt" viewBox="0 0 604.000000 404.000000"
 preserveAspectRatio="xMidYMid meet">

<g transform="translate(0.000000,404.000000) scale(0.100000,-0.100000)"
fill="#000000" stroke="none">
<path d="M0 3571 c0 -366 3 -470 13 -474 9 -4 9 -6 0 -6 -23 -2 -14 -31 10
-31 12 0 108 -7 212 -15 105 -8 197 -14 205 -14 26 1 -94 28 -127 29 -59 0
-47 20 14 21 l58 1 -44 9 c-24 5 -96 13 -160 19 -64 5 -126 13 -138 16 -31 8
-19 24 17 24 20 0 35 8 46 25 20 30 28 31 82 5 46 -22 48 -22 142 31 42 23 78
25 86 4 4 -8 12 -15 20 -15 8 0 15 -6 15 -12 1 -7 2 -20 3 -28 0 -8 6 -15 11
-15 24 1 413 77 440 87 95 33 257 68 318 68 20 0 56 4 79 9 24 6 99 20 168 31
69 12 133 26 142 31 10 5 33 9 51 9 19 0 47 4 63 9 46 15 172 23 154 11 -11
-8 -7 -9 15 -4 43 10 67 25 28 18 -22 -4 -33 -3 -33 5 0 11 49 16 120 14 26
-1 30 0 15 6 -16 7 -13 9 20 16 22 5 58 9 80 10 22 1 58 5 80 8 28 5 34 4 20
-3 -14 -6 -15 -9 -5 -9 8 -1 26 -4 40 -6 22 -5 22 -4 5 4 l-20 10 20 0 c11 0
29 -4 40 -9 19 -8 19 -9 1 -9 -11 -1 -17 -3 -14 -6 3 -3 20 -2 38 2 29 5 31 7
15 14 -17 7 -18 8 -2 8 9 1 17 6 17 12 0 8 -18 10 -57 6 -44 -4 -52 -3 -33 4
42 17 161 28 184 18 16 -7 13 -8 -14 -4 -34 5 -34 4 -7 -6 32 -12 62 -5 51 12
-5 8 -3 9 5 5 7 -5 10 -14 7 -22 -7 -18 14 -17 38 1 18 13 17 14 -9 21 -23 6
-25 8 -11 16 9 5 14 13 11 19 -9 14 7 10 29 -6 11 -8 29 -15 40 -16 20 0 20
-1 2 -8 -14 -5 5 -14 72 -31 50 -13 90 -26 87 -28 -2 -3 -32 3 -66 12 -33 10
-63 15 -67 12 -3 -3 -1 -6 4 -6 5 0 39 -8 75 -19 l65 -19 3 39 c1 26 -2 39
-11 40 -7 0 -4 4 7 9 l20 9 -20 0 c-14 1 -16 4 -7 9 8 5 -2 8 -25 8 -21 -1
-41 -5 -45 -11 -4 -5 -10 -7 -13 -3 -16 15 31 36 108 47 85 13 161 8 173 -10
3 -6 -5 -7 -22 -3 -34 9 -44 9 -66 -1 -11 -4 -18 -3 -18 4 0 6 -7 11 -15 11
-34 0 -11 -18 53 -39 168 -56 274 -83 285 -72 9 9 6 11 -8 9 -21 -3 -198 42
-191 49 2 2 32 -3 67 -11 93 -21 182 -36 186 -32 2 2 -24 11 -58 20 -77 22
-73 30 6 11 66 -16 81 -18 73 -10 -8 8 -121 38 -140 37 -10 0 -46 6 -80 14
-60 13 -33 14 52 0 l35 -6 -40 15 c-39 15 -39 15 -6 10 18 -3 40 -5 48 -5 8 0
12 -4 9 -9 -6 -9 115 -44 123 -36 2 3 -17 10 -43 17 -25 7 -46 16 -46 20 0 4
12 3 26 -3 15 -5 29 -7 32 -5 3 3 -7 10 -22 16 -14 5 -25 15 -24 21 2 7 -8 18
-22 26 -18 9 -20 13 -8 13 11 0 15 5 12 15 -7 17 -1 19 24 6 9 -5 28 -14 42
-20 24 -11 24 -11 1 -5 -34 9 -17 -14 23 -32 17 -7 24 -14 16 -14 -21 -2 90
-29 115 -29 11 1 3 7 -20 15 l-40 14 45 -6 c33 -4 41 -2 30 5 -13 9 -12 11 5
12 l20 0 -20 9 c-11 5 -15 9 -10 10 6 0 -1 7 -15 15 -25 14 -25 15 10 10 27
-4 30 -3 15 4 -11 5 -15 10 -10 11 6 1 1 6 -10 11 -14 6 -7 8 25 4 35 -4 40
-3 25 5 -16 8 -13 9 15 5 19 -3 37 -10 38 -15 2 -6 12 -10 22 -10 10 0 20 -5
22 -11 2 -5 11 -7 22 -3 14 5 15 9 4 16 -9 7 -5 8 14 5 20 -3 28 0 28 10 0 11
-10 14 -37 12 -54 -3 -73 0 -73 10 0 5 15 8 33 7 27 -1 32 2 29 20 -3 20 3 23
50 29 29 3 65 8 79 11 18 3 28 0 33 -11 3 -9 2 -13 -3 -10 -5 3 -12 1 -16 -5
-10 -16 21 -12 35 5 7 8 17 12 22 9 6 -4 40 -6 77 -5 45 1 73 -3 86 -14 11 -8
28 -15 38 -15 10 0 16 -4 12 -9 -3 -5 3 -12 12 -14 11 -3 7 -5 -10 -6 -17 -1
-26 3 -22 9 3 6 -2 10 -12 10 -10 0 -27 7 -37 15 -11 8 -26 15 -34 15 -26 0
41 -50 75 -56 18 -3 30 -10 27 -15 -3 -5 3 -9 13 -10 12 0 14 -2 4 -6 -7 -3
-30 4 -50 15 -25 14 -41 18 -51 12 -13 -9 -13 -10 0 -11 8 -1 19 -1 24 0 5 1
12 -3 17 -10 4 -6 28 -15 53 -19 36 -5 46 -4 46 7 0 7 -10 18 -22 23 -17 7
-11 9 27 5 37 -3 43 -2 25 4 -14 5 -21 9 -15 10 19 2 -40 35 -74 42 l-36 7 36
1 c22 1 42 -5 49 -14 7 -8 27 -15 44 -16 26 0 28 -2 11 -9 -18 -8 -17 -9 8 -9
19 -1 26 -5 21 -13 -5 -8 -2 -9 10 -5 10 4 20 7 23 7 3 0 -6 9 -20 20 -14 11
-38 20 -54 21 -24 0 -26 1 -8 9 l20 9 -20 1 c-12 1 -15 4 -7 7 7 3 24 -2 37
-11 13 -9 31 -16 40 -16 9 0 13 -4 10 -10 -3 -5 3 -10 14 -10 12 0 21 -4 21
-9 0 -6 15 -8 33 -7 17 2 22 1 10 -1 -14 -3 -20 -9 -16 -19 4 -11 -6 -14 -45
-14 -51 0 -75 -13 -46 -24 26 -10 46 -7 38 6 -5 8 5 9 37 4 24 -3 39 -3 32 2
-21 14 3 33 48 39 30 3 40 1 30 -5 -11 -8 -11 -10 0 -15 8 -3 2 -6 -13 -6 -15
-1 -30 -6 -34 -13 -5 -8 -2 -9 10 -5 10 4 15 3 11 -3 -3 -6 3 -10 14 -10 10 0
28 -2 38 -5 10 -3 5 1 -12 9 -24 12 -26 15 -10 15 31 1 65 -10 60 -19 -6 -10
22 -22 65 -26 l35 -3 -35 15 -35 14 34 -5 c18 -3 38 -5 43 -5 5 0 6 -4 3 -10
-7 -12 2 -12 30 0 17 6 14 9 -18 15 -52 10 -39 18 16 10 33 -5 44 -11 40 -21
-3 -8 -15 -14 -26 -14 -16 0 -18 -3 -9 -12 9 -9 15 -9 24 0 7 7 21 12 33 12
16 0 17 2 5 10 -11 7 -8 10 16 10 16 0 39 -8 50 -19 26 -24 60 -42 67 -35 13
13 -8 43 -35 49 -16 4 -27 9 -24 12 3 3 19 1 35 -5 19 -7 33 -7 36 -1 4 5 -2
9 -12 9 -15 0 -16 2 -3 10 12 8 12 10 1 10 -8 0 -12 3 -8 6 3 3 44 -2 92 -11
47 -10 88 -15 91 -12 3 3 -21 10 -53 17 -80 16 -88 21 -23 15 39 -3 48 -2 30
4 l-25 9 25 0 c14 0 39 -4 55 -8 28 -7 29 -8 5 -10 -25 -2 -25 -2 5 -15 25
-11 26 -13 10 -17 -14 -3 -7 -7 20 -12 81 -15 133 -37 138 -56 3 -14 14 -20
32 -20 15 0 40 -9 56 -21 16 -11 29 -16 29 -10 0 5 -9 13 -20 16 -11 3 -20 13
-20 20 0 12 8 11 44 -2 25 -9 43 -20 40 -25 -7 -10 7 -10 24 1 10 6 7 10 -12
15 -15 4 -25 10 -22 15 6 10 33 7 66 -6 14 -6 29 -8 34 -5 5 3 6 -2 3 -12 -6
-15 -3 -17 26 -11 22 5 29 4 22 -3 -5 -6 -48 -13 -95 -17 -145 -11 -135 -8
-132 -44 3 -36 3 -36 -91 -12 -39 10 -86 19 -104 20 -27 1 -30 -2 -26 -19 4
-16 9 -18 19 -10 9 8 24 8 48 2 19 -6 37 -7 40 -4 4 3 16 -4 29 -16 12 -11 34
-24 49 -27 16 -4 28 -10 28 -14 0 -3 -20 -28 -45 -55 -25 -26 -45 -53 -45 -59
0 -7 4 -7 12 1 7 7 21 12 33 12 11 0 32 7 48 14 34 19 34 12 1 -19 -24 -22
-25 -25 -8 -26 19 -1 -58 -20 -86 -21 -8 0 -21 -6 -29 -12 -11 -8 -13 -8 -7 1
5 10 1 11 -20 3 -19 -8 -30 -8 -38 0 -12 12 -30 14 -23 3 3 -5 -18 -6 -45 -4
-39 2 -49 0 -43 -9 6 -9 4 -11 -5 -5 -7 4 -38 8 -69 9 -53 1 -56 2 -55 26 2
39 3 40 22 40 14 0 15 2 2 10 -12 8 1 25 68 87 46 43 80 81 77 85 -12 12 -34
-3 -100 -71 l-65 -66 0 32 c0 22 9 41 27 59 19 20 24 29 14 32 -7 2 -17 -2
-22 -9 -5 -9 -11 -11 -18 -4 -6 6 -28 9 -49 7 l-39 -4 1 -56 c2 -54 0 -59 -41
-101 -24 -25 -43 -49 -43 -55 0 -9 42 24 68 53 10 12 12 10 12 -14 0 -34 -36
-76 -58 -68 -8 4 -13 2 -9 -3 3 -5 -3 -10 -13 -10 -11 0 -16 6 -13 16 4 12 3
13 -5 1 -6 -8 -21 -16 -34 -17 -29 -4 -63 -12 -63 -14 0 -1 -28 -3 -62 -5 -34
-2 -67 -6 -72 -10 -6 -3 -11 1 -11 10 0 9 -5 13 -10 10 -6 -4 -8 -11 -5 -16 4
-5 0 -9 -9 -9 -8 0 -16 5 -18 11 -3 9 -10 9 -26 0 -15 -8 -22 -8 -22 -1 0 6
-9 5 -23 -4 -26 -17 -112 -15 -130 3 -20 20 23 36 91 34 6 -1 12 3 12 9 0 5
-20 7 -45 4 -25 -3 -45 -4 -45 -2 0 3 25 16 55 30 58 26 66 38 38 55 -10 6
-13 10 -8 10 6 0 18 -6 29 -14 13 -10 24 -11 36 -5 23 12 30 4 30 -36 0 -34
25 -53 44 -34 15 15 53 12 82 -6 13 -9 27 -14 31 -10 3 3 0 6 -8 6 -12 0 -11
2 1 11 12 8 12 10 -5 7 -13 -2 -34 12 -62 42 -24 25 -43 47 -43 51 0 5 85 49
96 49 3 0 4 -29 2 -65 -1 -36 -2 -65 0 -65 2 0 10 7 18 15 12 12 12 15 2 15
-10 0 -10 2 1 9 10 6 10 10 1 16 -9 6 -9 10 1 16 12 8 12 10 0 18 -11 7 -11
10 0 15 11 5 11 7 2 12 -10 4 -9 9 3 21 17 17 15 34 -6 41 -8 3 -10 0 -5 -7 4
-8 2 -11 -7 -9 -7 2 -33 -6 -58 -17 -32 -14 -45 -16 -48 -7 -2 6 -16 12 -30
12 -17 0 -22 3 -15 8 7 5 -6 7 -30 6 -74 -4 -73 -3 -59 -12 7 -5 -17 -9 -55
-10 -38 -1 -88 -4 -113 -7 -25 -2 -76 -7 -115 -10 -64 -5 -185 -18 -430 -46
-49 -5 -112 -14 -140 -19 -27 -4 -90 -14 -140 -21 -95 -13 -126 -28 -120 -60
2 -11 0 -17 -6 -14 -5 4 -13 3 -19 0 -5 -3 7 -20 28 -38 20 -18 40 -36 44 -42
4 -5 8 6 9 25 l1 35 13 -40 c8 -22 14 -34 14 -27 1 6 6 12 12 12 5 0 30 9 54
20 25 11 48 19 52 18 10 -3 73 30 73 38 0 3 -10 2 -22 -2 -27 -8 -23 -2 11 16
19 10 22 10 16 -1 -6 -9 -3 -11 9 -6 9 4 15 3 12 -2 -8 -13 63 -64 80 -57 13
5 13 9 -2 31 -9 14 -21 25 -26 25 -5 0 -6 5 -2 11 4 8 -1 9 -17 4 -16 -4 -20
-3 -11 3 11 8 11 10 -2 15 -8 3 -20 16 -27 29 -9 16 1 11 37 -19 27 -22 60
-53 73 -67 14 -14 30 -26 38 -26 7 0 13 -5 13 -11 0 -6 9 -8 20 -4 13 4 20 2
20 -6 0 -8 3 -9 9 -3 6 5 11 37 13 72 2 34 6 62 10 62 5 0 8 -6 9 -12 7 -115
10 -119 66 -114 27 2 62 5 78 5 l30 2 -40 36 c-21 21 -53 53 -69 72 l-31 34
30 -16 c17 -9 57 -41 90 -72 55 -51 62 -55 95 -49 19 4 45 13 57 21 29 19 60
9 66 -22 4 -22 1 -25 -25 -25 -25 0 -29 -4 -26 -22 4 -33 20 -48 36 -36 9 8
12 6 12 -6 0 -25 17 -19 24 9 8 32 31 32 80 -1 l39 -27 -29 37 c-16 20 -35 36
-41 36 -7 0 -13 4 -13 9 0 16 154 -14 199 -38 11 -6 23 -11 28 -11 4 1 -17 14
-47 30 l-55 29 63 1 64 0 -5 -34 c-6 -43 2 -54 33 -45 22 6 23 7 4 8 -20 1
-21 5 -14 37 11 47 13 49 47 27 24 -15 26 -15 15 -1 -11 14 -10 17 7 23 23 7
44 -2 36 -15 -3 -5 4 -14 15 -20 11 -6 20 -7 19 -3 -4 24 3 43 16 43 8 0 15 4
15 10 0 5 7 7 15 4 10 -4 14 -14 10 -28 -6 -20 -5 -20 13 2 16 20 27 24 83 23
119 0 109 5 109 -51 0 -36 4 -50 14 -50 15 0 26 30 26 77 l0 31 78 7 c42 3 89
10 104 15 17 5 30 5 33 -1 4 -5 13 -9 21 -9 8 0 13 4 10 9 -4 5 3 7 14 4 11
-3 20 -1 20 4 0 12 48 5 56 -8 3 -5 14 -4 25 2 11 5 32 9 47 7 23 -3 27 -8 30
-40 2 -21 7 -38 11 -38 5 0 9 6 8 13 -2 63 6 67 166 73 59 2 112 6 117 9 18
11 10 -8 -12 -32 -33 -35 -18 -36 35 -1 26 17 51 28 55 24 3 -4 0 -11 -8 -16
-10 -7 -11 -10 -2 -10 6 0 12 -9 12 -20 0 -11 7 -20 16 -20 8 0 12 5 9 10 -3
6 1 10 9 10 9 0 16 7 16 16 0 8 4 12 10 9 6 -3 10 2 10 13 0 16 7 18 63 17
113 -3 128 -5 123 -14 -3 -5 12 -9 35 -9 29 -1 45 -7 59 -24 l19 -23 1 24 c0
24 0 24 15 5 13 -16 16 -17 25 -4 9 13 12 13 20 -1 5 -9 29 -20 55 -23 79 -12
64 -34 -29 -43 -28 -2 -58 -9 -67 -14 -10 -5 -29 -9 -43 -9 -25 0 -26 -2 -27
-67 -1 -38 -1 -71 0 -75 0 -5 -5 -8 -12 -8 -6 0 -67 -3 -134 -7 -122 -6 -151
1 -100 24 12 6 42 27 65 47 24 20 48 36 54 36 5 0 16 7 24 15 13 13 57 21 87
16 4 0 7 3 7 8 0 4 -32 6 -72 3 -66 -5 -81 -10 -122 -47 -19 -18 -74 -55 -80
-55 -11 0 -6 36 6 48 9 9 9 12 -2 12 -13 0 -13 2 -1 9 11 7 9 10 -8 16 -32 10
-38 0 -39 -66 -1 -34 -4 -64 -7 -68 -16 -15 -325 -28 -339 -14 -4 5 23 36 61
70 41 38 61 63 52 63 -9 0 -40 -21 -68 -46 l-51 -46 0 46 c0 32 -4 46 -14 46
-9 0 -15 -19 -19 -61 -3 -34 -12 -68 -20 -76 -12 -12 -55 -16 -216 -18 -232
-3 -234 -2 -151 75 28 26 50 50 50 53 0 16 -23 5 -42 -18 -11 -14 -29 -30 -40
-36 -18 -10 -19 -8 -16 18 2 20 -2 29 -14 31 -13 3 -18 -3 -18 -22 0 -38 -18
-41 -51 -10 -16 15 -29 23 -29 18 0 -5 16 -24 36 -42 54 -50 44 -65 -51 -78
-44 -7 -131 -12 -192 -13 l-113 -2 0 56 c0 41 -4 55 -14 55 -9 0 -16 -12 -18
-32 l-3 -32 -38 33 c-54 48 -55 33 -2 -18 25 -24 45 -46 45 -51 0 -13 -39 -19
-145 -21 -129 -2 -135 0 -135 62 0 27 -4 49 -10 49 -5 0 -10 -16 -10 -35 0
-19 -3 -35 -6 -35 -3 0 -24 14 -46 31 -58 47 -57 28 2 -22 28 -23 47 -46 43
-50 -7 -6 -126 -13 -181 -10 -10 1 -12 14 -10 51 3 36 1 50 -8 50 -9 0 -14
-18 -16 -52 l-3 -53 -113 -3 -112 -3 0 46 c0 25 -4 45 -10 45 -11 0 -14 -11
-11 -57 l2 -33 -83 0 c-74 1 -91 10 -38 22 8 2 23 11 34 20 10 10 22 16 25 13
4 -2 18 5 31 16 l25 20 -35 -6 c-36 -5 -290 -25 -323 -25 -32 0 -9 -18 33 -25
23 -4 40 -12 40 -20 0 -7 7 -16 16 -19 22 -8 26 -8 19 3 -3 5 -1 12 4 15 5 4
10 -42 10 -109 1 -73 -2 -115 -9 -115 -6 0 -9 -36 -8 -97 1 -59 5 -88 9 -73 4
15 8 -10 9 -65 2 -82 3 -86 10 -40 10 68 20 96 31 90 5 -4 9 3 9 14 0 12 -7
21 -15 21 -26 0 -16 18 13 25 19 4 28 12 28 26 0 14 -5 19 -18 16 -10 -3 -16
-1 -12 4 3 5 15 9 27 9 16 0 19 3 8 9 -7 5 -10 14 -7 20 5 8 13 7 27 -3 23
-16 59 -10 59 9 0 8 15 16 33 20 69 14 66 10 69 98 l3 82 127 3 127 3 4 -48 3
-48 2 46 c2 45 3 47 40 53 20 3 66 6 100 6 l64 0 -3 -74 c-2 -41 0 -78 4 -82
4 -4 7 15 7 43 0 84 9 111 39 117 14 3 85 8 156 11 72 3 148 8 170 11 41 6
130 7 247 5 63 -1 67 -3 77 -28 l10 -28 -2 29 c-2 34 -9 33 157 37 92 3 126 7
126 17 0 8 16 12 48 12 31 0 42 -3 33 -9 -21 -13 41 -24 89 -16 l40 7 -6 -89
c-4 -48 -12 -91 -18 -95 -6 -4 -23 -8 -38 -8 -39 0 -35 -16 6 -31 19 -7 32
-17 29 -23 -4 -5 1 -7 11 -3 10 4 20 7 22 7 3 0 2 4 -1 10 -3 5 -1 18 4 27 6
10 11 12 11 6 0 -7 9 -13 20 -13 11 0 20 -4 20 -10 0 -5 -4 -10 -10 -10 -16 0
-11 -27 6 -34 9 -3 30 -6 47 -6 27 1 30 3 16 13 -23 18 -32 47 -14 47 9 0 12
-6 9 -15 -5 -11 1 -15 21 -15 20 0 26 -4 21 -15 -4 -12 4 -15 42 -16 39 0 43
-2 24 -10 -13 -5 -21 -13 -17 -18 3 -6 12 -8 19 -5 19 7 27 -8 15 -26 -8 -12
-12 -12 -16 -2 -6 15 -43 16 -43 1 0 -6 -9 -8 -20 -4 -11 4 -20 2 -20 -4 0 -7
23 -11 55 -11 l55 0 -6 -30 c-6 -26 -3 -30 14 -30 12 0 24 -4 27 -10 4 -6 -9
-8 -34 -5 -24 3 -41 1 -41 -5 0 -5 8 -10 18 -10 13 0 14 -2 4 -9 -11 -7 -11
-9 2 -14 10 -4 16 -1 16 8 0 8 6 15 14 15 27 0 25 -16 -4 -28 -29 -13 -33 -46
-4 -35 8 3 14 -1 14 -11 0 -11 -9 -16 -31 -16 -19 0 -28 4 -23 11 7 11 -12 29
-31 29 -5 0 -5 -4 2 -8 7 -4 10 -17 6 -30 -6 -23 -18 -29 -28 -12 -3 6 -25 9
-48 9 -34 -2 -36 -3 -12 -6 40 -6 60 -22 44 -37 -8 -8 -13 -8 -16 2 -6 15 -43
16 -43 1 0 -5 4 -8 9 -4 5 3 12 1 15 -4 4 -5 -4 -11 -16 -13 -21 -3 -21 -4 4
-9 31 -7 113 25 104 40 -3 5 4 11 15 14 15 4 23 0 26 -13 3 -10 15 -21 27 -23
21 -4 21 -4 -1 -6 -29 -1 -30 -17 -2 -24 13 -4 18 -10 14 -17 -5 -7 -10 -8
-14 -3 -11 18 -36 20 -63 7 -28 -15 -46 -14 -88 3 -15 6 -27 7 -31 1 -3 -5
-35 -6 -71 -4 -49 4 -69 2 -77 -8 -17 -21 -82 -30 -92 -14 -7 11 -11 10 -19
-2 -8 -12 -10 -12 -10 -1 0 9 -4 10 -12 4 -7 -6 -41 -11 -75 -11 -79 -2 -83 4
-85 111 -3 121 -30 36 -30 -96 -1 -42 -4 -64 -8 -52 -7 19 -7 19 -11 1 -2 -11
-4 42 -4 117 1 75 -3 137 -7 137 -4 0 -8 -64 -8 -143 l0 -143 -77 3 c-43 1
-152 5 -243 9 -91 3 -177 6 -193 7 -15 0 -27 5 -27 11 0 7 -11 13 -25 14 -14
1 -25 -3 -25 -9 0 -6 -43 -10 -122 -9 -68 1 -150 -3 -183 -8 l-60 -9 85 -3
c47 -1 101 -3 120 -5 19 -2 175 -8 345 -15 523 -20 634 -29 330 -25 -143 2
-249 0 -235 -3 25 -7 43 -52 21 -52 -6 0 -11 7 -11 15 0 8 -5 15 -11 15 -5 0
-7 -5 -3 -12 4 -6 0 -16 -8 -22 -21 -16 -30 -46 -14 -46 8 0 16 6 19 13 6 17
40 15 61 -2 8 -7 19 -11 23 -8 4 3 14 -1 21 -9 11 -12 8 -14 -17 -14 -16 0
-31 -5 -33 -11 -2 -6 -23 -12 -46 -13 -24 -2 -45 -6 -48 -9 -8 -8 129 -17 726
-52 146 -9 272 -18 280 -20 19 -6 -229 3 -435 15 -463 26 -593 32 -633 26 -24
-3 -41 -2 -38 2 2 4 -30 7 -72 7 -42 -1 -90 2 -106 7 -21 5 -33 4 -39 -5 -6
-9 -10 -9 -13 0 -3 7 -15 9 -32 5 -34 -9 -48 -8 -97 6 -29 9 -41 9 -46 0 -4
-7 -33 -11 -69 -11 -37 0 -57 -3 -49 -8 7 -4 10 -12 5 -16 -11 -11 -126 -10
-126 1 0 5 -6 4 -12 -2 -7 -6 -36 -14 -65 -20 -41 -7 -53 -6 -57 4 -6 16 -62
19 -71 4 -4 -6 9 -10 31 -10 21 0 34 -3 31 -7 -13 -13 -69 -13 -95 1 -46 23
-82 28 -82 12 0 -9 -14 -16 -37 -18 -49 -7 -54 -2 -12 11 l34 9 -37 1 c-27 1
-38 -3 -38 -13 0 -23 -19 -29 -28 -9 -9 24 -111 29 -127 6 -9 -11 -16 -12 -40
-3 -17 6 -97 14 -180 16 -82 3 -180 6 -216 7 -40 1 -73 8 -84 17 -15 13 -19
12 -30 -3 -7 -9 -20 -17 -30 -17 -14 0 -15 3 -6 14 9 11 6 15 -15 20 -18 5
-30 3 -35 -6 -5 -8 -32 -13 -76 -14 -37 -1 -85 -4 -105 -7 -29 -4 -38 -2 -38
10 0 10 -6 12 -20 8 -11 -3 -47 -8 -79 -10 -46 -3 -61 0 -65 11 -3 9 -10 12
-16 9 -6 -4 -8 -11 -5 -16 4 -5 -8 -6 -27 -1 -18 4 -49 7 -68 7 -20 0 -42 7
-51 17 -14 16 -18 16 -37 2 -23 -15 -87 -11 -98 7 -3 5 -13 5 -24 -1 -12 -6
-28 -6 -49 1 -18 7 -67 9 -120 6 -49 -3 -92 -3 -95 1 -4 3 -24 5 -45 3 -22 -1
-42 2 -45 8 -4 6 -14 7 -22 4 -9 -3 -20 0 -25 8 -7 12 -9 12 -9 0 0 -10 -3
-11 -14 -2 -7 6 -21 8 -31 5 -15 -6 -16 -2 -11 27 3 19 3 27 -1 19 -3 -8 -10
-18 -15 -21 -13 -8 -59 1 -53 11 7 11 -50 20 -85 14 -22 -5 -30 -3 -30 7 0 15
-151 12 -510 -11 -102 -6 -211 -8 -242 -5 -40 5 -58 3 -58 -4 0 -6 -7 -11 -16
-11 -8 0 -12 5 -9 10 7 11 -18 14 -28 4 -4 -4 -45 -6 -92 -5 l-85 2 0 -185 c0
-102 2 -186 5 -186 11 0 308 -63 400 -85 55 -13 141 -33 190 -44 50 -11 128
-29 175 -40 98 -23 267 -57 325 -64 46 -7 75 -16 75 -26 0 -3 -57 -17 -128
-30 -174 -32 -496 -93 -742 -141 -113 -22 -225 -43 -250 -48 l-45 -8 -3 -557
-2 -557 2482 2 2482 3 7 34 c4 18 11 36 16 40 5 3 29 46 53 96 25 50 53 99 63
110 10 11 19 25 20 30 1 6 14 22 29 37 16 15 28 31 27 35 -5 31 3 62 19 67 18
6 72 94 72 119 0 9 11 29 25 45 14 17 25 36 25 44 0 7 9 19 20 26 12 7 18 16
16 21 -3 5 6 25 19 46 14 20 23 41 20 46 -4 5 1 9 9 9 9 0 16 6 16 13 0 6 9
23 20 37 11 14 20 33 20 43 0 9 4 17 8 17 5 0 19 21 32 47 12 27 26 55 31 63
5 8 17 28 27 43 9 16 32 52 50 80 36 55 82 149 82 166 0 5 6 16 13 23 16 18
33 48 70 123 16 33 42 79 58 103 16 23 38 65 50 93 12 27 34 73 50 102 15 29
42 79 59 112 18 33 36 64 41 69 5 6 9 166 9 368 l0 358 -47 1 c-27 1 -52 1
-57 0 -5 -1 -13 4 -17 11 -7 10 -9 10 -9 1 0 -7 -7 -13 -16 -13 -15 0 -16 11
-11 91 3 50 7 93 9 94 2 2 36 5 76 6 l72 3 0 34 c0 26 -3 33 -15 28 -13 -4
-15 6 -13 67 l1 72 6 -65 6 -65 8 94 c4 52 7 176 7 276 l0 181 -95 23 c-52 13
-93 27 -90 31 6 10 102 24 153 23 l32 -1 0 239 0 239 -1295 0 c-834 0 -1295
-4 -1295 -10 0 -6 -5 -10 -11 -10 -5 0 -7 4 -4 10 4 6 -32 9 -96 9 -55 0 -100
-2 -98 -4 2 -1 27 -15 54 -30 67 -37 67 -36 67 -88 0 -34 4 -47 16 -50 15 -4
15 -5 0 -6 -11 -1 -18 -9 -18 -22 0 -16 -4 -19 -22 -14 -13 4 -27 11 -33 16
-5 5 -17 9 -26 9 -10 0 -19 3 -21 8 -1 4 -64 37 -138 75 -74 37 -148 76 -165
87 -29 19 -47 20 -379 19 l-349 -1 56 -54 c32 -31 57 -58 57 -61 0 -13 96
-103 110 -103 13 0 13 -1 0 -10 -12 -8 -12 -10 3 -16 24 -9 21 -23 -3 -17 -11
3 -20 10 -20 16 0 5 -23 32 -50 59 -28 27 -50 51 -50 53 0 12 -36 45 -49 45
-8 0 -11 3 -8 7 9 9 -33 53 -50 53 -8 0 -11 5 -8 10 9 14 -17 22 -57 18 l-33
-4 35 -17 c31 -16 32 -17 8 -12 -16 3 -39 8 -52 11 -17 4 -31 0 -47 -15 -18
-17 -20 -21 -6 -21 8 0 19 -5 23 -12 5 -8 2 -9 -9 -5 -14 5 -57 -6 -76 -20 -3
-2 4 -10 15 -17 14 -11 15 -14 4 -14 -25 2 -80 -14 -80 -23 0 -4 8 -10 18 -12
9 -2 4 -3 -13 0 -55 7 -114 34 -108 50 3 7 -3 21 -13 29 -17 12 -17 13 -1 8
22 -8 22 12 0 25 -17 10 -17 10 -1 11 10 0 16 7 15 18 -1 16 -14 18 -119 21
-102 2 -118 0 -118 -13 0 -20 -11 -20 -57 -1 -30 13 -142 15 -789 15 l-754 0
0 -469z m1791 432 c0 -16 2 -38 5 -50 5 -28 -14 -30 -56 -8 -36 19 -37 24 -7
58 30 35 57 35 58 0z m2161 -5 c-8 -8 -9 -15 -1 -25 8 -9 8 -13 1 -13 -18 0
-24 20 -12 35 7 8 15 15 18 15 3 0 1 -5 -6 -12z m-498 -20 c-4 -34 -4 -34 -13
-19 -10 15 -4 41 8 41 4 0 7 -10 5 -22z m-677 6 c-3 -3 -12 -4 -19 -1 -8 3 -5
6 6 6 11 1 17 -2 13 -5z m180 0 c-3 -3 -12 -4 -19 -1 -8 3 -5 6 6 6 11 1 17
-2 13 -5z m38 -22 c-3 -3 -11 0 -18 7 -9 10 -8 11 6 5 10 -3 15 -9 12 -12z
m-638 2 c-3 -3 -12 -4 -19 -1 -8 3 -5 6 6 6 11 1 17 -2 13 -5z m-272 -35 c5
-5 -5 -4 -23 2 -17 6 -32 13 -32 16 0 7 43 -8 55 -18z m819 -5 c10 -6 17 -17
14 -25 -3 -10 -9 -7 -23 9 -11 12 -25 22 -32 22 -6 0 -14 4 -17 9 -7 11 30 1
58 -15z m172 5 c3 -5 14 -9 25 -9 10 0 19 -4 19 -10 0 -5 6 -10 14 -10 8 0 18
-4 21 -10 7 -12 -17 -3 -63 22 -18 10 -39 18 -47 18 -8 0 -15 4 -15 9 0 11 38
2 46 -10z m764 6 c-10 -12 -10 -15 1 -16 15 0 -70 -29 -86 -28 -5 0 5 8 24 18
24 13 30 20 20 25 -8 3 -4 3 8 1 12 -3 24 -1 28 5 3 5 9 10 12 10 3 0 0 -7 -7
-15z m-215 -13 c-3 -3 -11 0 -18 7 -9 10 -8 11 6 5 10 -3 15 -9 12 -12z m288
3 c1 -6 -11 -11 -28 -13 -29 -2 -29 -2 -10 13 20 16 35 16 38 0z m-1726 -1
c-3 -3 -12 -4 -19 -1 -8 3 -5 6 6 6 11 1 17 -2 13 -5z m623 2 c0 -2 -7 -7 -16
-10 -8 -3 -12 -2 -9 4 6 10 25 14 25 6z m2043 -3 c-7 -2 -19 -2 -25 0 -7 3 -2
5 12 5 14 0 19 -2 13 -5z m434 1 c-3 -3 -12 -4 -19 -1 -8 3 -5 6 6 6 11 1 17
-2 13 -5z m-3727 -64 c7 0 19 9 28 20 10 12 26 20 37 20 11 -1 39 -2 62 -3 23
-1 40 -5 37 -9 -3 -4 11 -14 31 -22 21 -9 35 -22 36 -33 0 -10 2 -27 4 -38 2
-11 -1 -23 -8 -27 -7 -4 -3 -11 13 -18 l25 -10 -28 3 c-23 4 -25 2 -15 -11 11
-13 10 -14 -10 -8 -13 4 -22 3 -22 -3 0 -5 6 -11 13 -14 6 -2 -1 -2 -18 1 -29
4 -29 3 -10 -12 20 -15 20 -15 -2 -9 -14 3 -23 1 -23 -6 0 -6 10 -11 23 -12
21 0 21 -1 2 -9 -18 -7 -18 -8 8 -15 21 -6 25 -10 15 -16 -10 -6 -10 -9 0 -9
6 0 12 -7 12 -15 0 -8 5 -15 12 -15 6 0 9 -3 5 -6 -8 -8 -47 5 -47 17 0 15
-33 49 -48 49 -7 0 -10 -5 -6 -11 4 -8 -4 -9 -27 -4 -25 4 -30 3 -19 -4 13 -9
12 -11 -5 -12 l-20 0 20 -9 c17 -6 14 -9 -19 -15 l-39 -8 39 -13 c22 -8 53
-12 69 -9 23 3 21 1 -10 -10 -31 -10 -35 -14 -16 -14 13 -1 22 -4 18 -7 -3 -4
-18 -3 -34 0 -21 6 -24 9 -12 17 8 5 9 9 2 9 -6 0 -20 3 -30 6 -13 4 -14 3 -5
-4 20 -14 19 -19 -3 -37 -19 -15 -19 -15 9 -9 21 5 27 4 22 -5 -9 -13 16 -15
29 -2 11 11 215 64 221 58 2 -2 -42 -16 -98 -31 -56 -14 -104 -28 -106 -31
-11 -10 8 -17 20 -8 13 11 129 43 151 43 7 0 6 -5 -3 -11 -11 -7 -6 -8 20 -3
59 11 26 -6 -40 -22 -35 -8 -71 -12 -81 -9 -9 3 -20 1 -24 -5 -6 -9 17 -14 68
-13 9 0 17 -4 17 -9 0 -13 34 -8 55 9 19 15 18 15 -14 9 -50 -9 -32 3 28 19
30 8 48 9 45 3 -4 -6 2 -8 12 -6 11 2 18 10 16 17 -1 7 2 10 8 6 5 -3 26 -3
46 1 25 5 32 9 22 15 -16 11 0 10 27 0 16 -6 9 -10 -33 -20 -28 -7 -52 -18
-52 -23 0 -6 8 -7 18 -3 9 4 44 15 77 25 40 13 52 19 35 20 -18 1 -10 6 25 16
54 15 96 18 55 4 -19 -7 -15 -8 20 -6 25 2 36 1 25 -2 -18 -5 -18 -6 5 -13
l25 -7 -25 -1 c-20 -1 -22 -3 -10 -11 11 -7 7 -9 -15 -5 -18 4 -62 -4 -109
-19 -44 -14 -83 -23 -87 -20 -4 2 -26 0 -48 -5 -24 -5 -41 -5 -41 0 0 5 -5 9
-11 9 -6 0 -9 -7 -6 -15 5 -11 0 -13 -23 -8 -18 3 -30 1 -30 -5 0 -8 -9 -8
-29 -1 -23 8 -35 7 -53 -5 -30 -20 -165 -48 -191 -40 -13 4 -17 2 -13 -5 4 -6
0 -11 -11 -11 -10 0 -29 -3 -43 -6 -20 -4 -22 -3 -10 5 8 6 10 11 5 11 -6 0
-22 -8 -35 -17 -15 -11 -46 -18 -80 -19 -30 0 -91 -8 -135 -17 -95 -20 -88
-20 -80 -7 4 7 -2 9 -17 5 -19 -5 -27 -1 -36 17 -10 21 -11 21 -12 3 l-1 -20
-8 20 c-11 26 -2 53 10 33 6 -9 9 -4 9 15 0 15 0 30 -1 33 0 3 8 12 18 20 13
10 14 13 4 14 -8 0 8 12 35 26 27 15 61 26 76 26 27 -1 28 0 13 28 -8 16 -19
32 -25 35 -5 3 -15 16 -21 28 -9 17 -4 15 22 -10 22 -19 38 -28 44 -22 26 25
59 49 65 49 4 0 12 -10 18 -22 11 -23 11 -23 11 3 1 15 8 32 16 39 9 7 14 19
11 26 -3 7 4 16 15 19 10 4 19 11 19 17 0 5 14 23 31 39 18 17 25 29 18 30 -8
0 3 7 25 15 21 7 43 11 48 8 5 -4 3 8 -6 24 -9 17 -20 34 -26 37 -5 3 -15 16
-21 28 -8 15 -2 12 19 -10 17 -18 36 -33 42 -33z m1015 42 c-3 -3 -11 0 -18 7
-9 10 -8 11 6 5 10 -3 15 -9 12 -12z m982 12 c-3 -3 -12 -4 -19 -1 -8 3 -5 6
6 6 11 1 17 -2 13 -5z m113 -10 c0 -2 -7 -4 -15 -4 -8 0 -15 4 -15 10 0 5 7 7
15 4 8 -4 15 -8 15 -10z m-1263 0 c-3 -3 -12 -4 -19 -1 -8 3 -5 6 6 6 11 1 17
-2 13 -5z m2358 -12 c-3 -3 -11 0 -18 7 -9 10 -8 11 6 5 10 -3 15 -9 12 -12z
m105 14 c0 -9 -30 -14 -35 -6 -4 6 3 10 14 10 12 0 21 -2 21 -4z m-2855 -16
c13 -6 15 -9 5 -9 -8 0 -22 4 -30 9 -18 12 -2 12 25 0z m682 4 c-3 -3 -12 -4
-19 -1 -8 3 -5 6 6 6 11 1 17 -2 13 -5z m103 -4 c13 -8 13 -10 -2 -10 -9 0
-20 5 -23 10 -8 13 5 13 25 0z m810 0 c0 -5 8 -10 18 -11 9 0 12 -3 6 -5 -6
-3 -24 2 -40 11 -26 13 -27 15 -6 15 12 0 22 -4 22 -10z m1067 4 c-3 -3 -12
-4 -19 -1 -8 3 -5 6 6 6 11 1 17 -2 13 -5z m563 -4 c-34 -11 -60 -11 -35 0 11
5 29 8 40 8 16 0 15 -2 -5 -8z m327 4 c-3 -3 -12 -4 -19 -1 -8 3 -5 6 6 6 11
1 17 -2 13 -5z m-2930 -10 c-3 -3 -12 -4 -19 -1 -8 3 -5 6 6 6 11 1 17 -2 13
-5z m325 -19 c15 -14 32 -25 38 -25 5 0 9 -6 8 -12 -2 -8 7 -12 22 -11 14 1
19 -1 13 -3 -21 -9 -15 -21 20 -38 27 -13 28 -16 10 -16 -17 0 -70 24 -101 46
-2 1 -5 10 -6 19 -1 10 -20 25 -41 35 -38 18 -38 19 5 29 3 0 17 -10 32 -24z
m574 10 c23 -12 25 -15 11 -21 -9 -3 -15 -10 -12 -14 3 -5 -7 -9 -22 -9 -16 0
-37 -2 -47 -3 -14 -2 -19 4 -20 24 -1 14 2 24 6 22 3 -2 9 0 13 6 9 14 38 12
71 -5z m-1399 -1 c-3 -3 -12 -4 -19 -1 -8 3 -5 6 6 6 11 1 17 -2 13 -5z m610
0 c-3 -3 -12 -4 -19 -1 -8 3 -5 6 6 6 11 1 17 -2 13 -5z m1783 -14 c-9 -6 -9
-9 1 -13 8 -3 4 -6 -9 -6 -13 -1 -20 3 -17 9 9 14 -8 12 -24 -2 -11 -11 -11
-9 -1 8 9 15 20 19 37 16 16 -3 21 -7 13 -12z m53 13 c-7 -2 -19 -2 -25 0 -7
3 -2 5 12 5 14 0 19 -2 13 -5z m280 0 c-7 -2 -21 -2 -30 0 -10 3 -4 5 12 5 17
0 24 -2 18 -5z m580 0 c-7 -2 -21 -2 -30 0 -10 3 -4 5 12 5 17 0 24 -2 18 -5z
m-206 -9 c-3 -3 -12 -4 -19 -1 -8 3 -5 6 6 6 11 1 17 -2 13 -5z m-2880 -10
c-3 -3 -12 -4 -19 -1 -8 3 -5 6 6 6 11 1 17 -2 13 -5z m443 -4 c0 -5 -7 -7
-15 -4 -8 4 -15 8 -15 10 0 2 7 4 15 4 8 0 15 -4 15 -10z m489 -26 c2 -2 -2
-4 -10 -4 -8 0 -25 10 -39 21 l-25 20 35 -17 c19 -9 37 -18 39 -20z m1421 26
c0 -5 -8 -10 -17 -10 -15 0 -16 2 -3 10 19 12 20 12 20 0z m177 4 c-3 -3 -12
-4 -19 -1 -8 3 -5 6 6 6 11 1 17 -2 13 -5z m170 0 c-3 -3 -12 -4 -19 -1 -8 3
-5 6 6 6 11 1 17 -2 13 -5z m126 -1 c-7 -2 -21 -2 -30 0 -10 3 -4 5 12 5 17 0
24 -2 18 -5z m284 1 c-3 -3 -12 -4 -19 -1 -8 3 -5 6 6 6 11 1 17 -2 13 -5z
m-2560 -10 c-3 -3 -12 -4 -19 -1 -8 3 -5 6 6 6 11 1 17 -2 13 -5z m1548 -4 c7
-12 -2 -12 -30 0 -19 8 -19 9 2 9 12 1 25 -3 28 -9z m368 3 c-7 -2 -19 -2 -25
0 -7 3 -2 5 12 5 14 0 19 -2 13 -5z m444 1 c-3 -3 -12 -4 -19 -1 -8 3 -5 6 6
6 11 1 17 -2 13 -5z m160 0 c-3 -3 -12 -4 -19 -1 -8 3 -5 6 6 6 11 1 17 -2 13
-5z m130 0 c-3 -3 -12 -4 -19 -1 -8 3 -5 6 6 6 11 1 17 -2 13 -5z m-790 -10
c-3 -3 -12 -4 -19 -1 -8 3 -5 6 6 6 11 1 17 -2 13 -5z m423 -4 c-14 -4 -32 -8
-40 -9 -13 -1 -13 0 0 9 8 5 26 9 40 9 l25 -1 -25 -8z m-2385 -14 c12 -12 12
-15 -2 -21 -14 -5 -15 -8 -4 -14 11 -7 10 -11 -5 -20 -18 -10 -18 -10 1 -11
19 -1 19 -1 1 -11 -15 -9 -16 -13 -5 -21 11 -8 11 -9 -1 -5 -21 5 -22 75 -1
87 14 8 14 9 -1 10 -10 0 -18 5 -18 10 0 14 19 12 35 -4z m2064 10 c-12 -10
-60 -16 -54 -6 3 5 18 10 32 10 15 0 24 -2 22 -4z m138 -2 c-3 -3 -12 -4 -19
-1 -8 3 -5 6 6 6 11 1 17 -2 13 -5z m290 0 c-3 -3 -12 -4 -19 -1 -8 3 -5 6 6
6 11 1 17 -2 13 -5z m140 0 c-3 -3 -12 -4 -19 -1 -8 3 -5 6 6 6 11 1 17 -2 13
-5z m-3296 -22 c-7 -2 -18 1 -23 6 -8 8 -4 9 13 5 13 -4 18 -8 10 -11z m414 8
c3 -5 1 -10 -4 -10 -6 0 -11 5 -11 10 0 6 2 10 4 10 3 0 8 -4 11 -10z m1022 4
c-3 -3 -12 -4 -19 -1 -8 3 -5 6 6 6 11 1 17 -2 13 -5z m829 -9 c16 -8 22 -15
14 -15 -8 1 -24 7 -34 15 -25 19 -16 19 20 0z m99 5 c-11 -5 -29 -9 -40 -9
-31 -1 -1 14 32 16 24 1 25 0 8 -7z m162 4 c-3 -3 -12 -4 -19 -1 -8 3 -5 6 6
6 11 1 17 -2 13 -5z m273 -4 l-25 -8 28 -1 c18 -1 26 -5 21 -12 -5 -8 9 -9 47
-5 40 4 49 3 34 -4 -15 -8 -4 -9 40 -6 38 3 49 2 30 -3 -16 -4 -29 -12 -27
-19 1 -7 -4 -12 -10 -12 -9 0 -8 -4 2 -10 12 -7 8 -10 -14 -10 -39 0 -30 -6
22 -14 29 -4 41 -3 37 4 -3 5 -1 10 5 10 6 0 8 5 5 10 -3 6 0 10 8 10 8 0 17
-7 21 -15 3 -9 0 -15 -10 -15 -8 0 -12 -5 -9 -11 5 -7 -13 -9 -57 -5 -38 3
-51 2 -33 -2 28 -7 26 -9 -25 -17 -30 -4 -47 -10 -37 -12 27 -7 2 -33 -32 -34
l-26 0 24 -10 c31 -12 21 -22 -13 -13 -21 5 -24 9 -15 20 6 8 23 14 38 15 17
0 21 3 11 7 -15 7 -26 33 -12 31 4 -1 18 0 32 1 20 2 21 3 6 7 -15 4 -16 7 -5
14 11 7 11 9 -3 9 -10 0 -18 4 -18 10 0 5 -16 12 -35 16 -19 3 -38 10 -40 14
-3 5 -22 7 -43 4 -31 -3 -33 -2 -12 5 24 9 23 9 -10 11 -33 2 -33 3 -10 10 25
8 25 8 -4 9 -16 1 -27 4 -23 7 6 7 99 21 137 22 l25 0 -25 -8z m157 4 c-3 -3
-12 -4 -19 -1 -8 3 -5 6 6 6 11 1 17 -2 13 -5z m270 0 c-3 -3 -12 -4 -19 -1
-8 3 -5 6 6 6 11 1 17 -2 13 -5z m150 0 c-3 -3 -12 -4 -19 -1 -8 3 -5 6 6 6
11 1 17 -2 13 -5z m-3287 -13 c0 -5 -6 -12 -12 -14 -7 -3 -1 -6 14 -6 15 -1
30 -5 33 -11 3 -5 18 -10 33 -9 l27 0 -24 10 c-38 15 -19 20 22 5 40 -13 66
-33 30 -22 -13 4 -23 4 -23 -1 0 -9 48 -33 68 -33 7 0 11 -4 7 -9 -3 -5 2 -17
11 -25 14 -15 14 -16 -1 -16 -9 0 -14 -3 -12 -7 3 -5 -13 -9 -34 -10 -21 0
-39 3 -39 8 0 5 -10 9 -22 10 -21 1 -20 2 7 15 32 16 30 16 -50 0 -26 -6 -31
-4 -31 13 0 11 3 19 6 19 21 -2 21 5 0 18 -17 11 -19 13 -5 9 11 -4 36 -9 55
-11 l35 -4 -40 15 c-23 9 -53 14 -70 11 -21 -4 -26 -3 -15 3 16 11 15 12 -20
29 l-25 11 28 -5 c16 -4 27 -2 27 5 0 6 5 11 10 11 6 0 10 -4 10 -9z m177 3
c-3 -3 -12 -4 -19 -1 -8 3 -5 6 6 6 11 1 17 -2 13 -5z m1820 0 c-3 -3 -12 -4
-19 -1 -8 3 -5 6 6 6 11 1 17 -2 13 -5z m363 2 c0 -11 -19 -15 -25 -6 -3 5 1
10 9 10 9 0 16 -2 16 -4z m202 -31 c23 -22 47 -35 65 -36 l28 -1 -25 -8 c-25
-8 -25 -8 5 -10 28 -3 29 -3 5 -8 l-25 -5 25 -7 c14 -3 -13 -6 -59 -6 -46 0
-75 3 -65 7 17 6 16 7 -6 12 -14 2 2 3 35 1 43 -3 53 -1 35 5 -14 5 -21 9 -16
10 4 1 -6 15 -24 31 -18 17 -28 30 -24 31 5 0 0 4 -11 9 l-20 9 20 0 c11 1 37
-15 57 -34z m241 28 c-7 -2 -19 -2 -25 0 -7 3 -2 5 12 5 14 0 19 -2 13 -5z
m150 0 c-7 -2 -21 -2 -30 0 -10 3 -4 5 12 5 17 0 24 -2 18 -5z m134 1 c-3 -3
-12 -4 -19 -1 -8 3 -5 6 6 6 11 1 17 -2 13 -5z m140 0 c-3 -3 -12 -4 -19 -1
-8 3 -5 6 6 6 11 1 17 -2 13 -5z m-3100 -10 c-3 -3 -12 -4 -19 -1 -8 3 -5 6 6
6 11 1 17 -2 13 -5z m160 0 c-3 -3 -12 -4 -19 -1 -8 3 -5 6 6 6 11 1 17 -2 13
-5z m1663 -9 c-13 -16 -45 -21 -36 -6 4 5 0 12 -6 14 -7 3 2 6 21 6 29 1 32
-1 21 -14z m325 5 c3 -6 -4 -10 -17 -10 -18 0 -20 2 -8 10 19 12 18 12 25 0z
m182 4 c-3 -3 -12 -4 -19 -1 -8 3 -5 6 6 6 11 1 17 -2 13 -5z m436 -1 c-7 -2
-19 -2 -25 0 -7 3 -2 5 12 5 14 0 19 -2 13 -5z m140 0 c-7 -2 -19 -2 -25 0 -7
3 -2 5 12 5 14 0 19 -2 13 -5z m274 1 c-3 -3 -12 -4 -19 -1 -8 3 -5 6 6 6 11
1 17 -2 13 -5z m-2387 -20 c0 -2 -9 -4 -21 -4 -11 0 -18 4 -14 10 5 8 35 3 35
-6z m2047 10 c-3 -3 -12 -4 -19 -1 -8 3 -5 6 6 6 11 1 17 -2 13 -5z m146 -1
c-7 -2 -19 -2 -25 0 -7 3 -2 5 12 5 14 0 19 -2 13 -5z m124 1 c-3 -3 -12 -4
-19 -1 -8 3 -5 6 6 6 11 1 17 -2 13 -5z m-1367 -14 c18 -12 2 -12 -25 0 -13 6
-15 9 -5 9 8 0 22 -4 30 -9z m355 0 c-3 -5 0 -10 7 -11 7 -1 -5 -7 -27 -14
-32 -11 -35 -14 -15 -14 20 -1 22 -3 10 -11 -8 -5 -26 -10 -40 -10 -18 0 -21
3 -11 9 7 5 10 14 7 20 -4 6 -4 11 1 10 4 -1 19 -1 32 0 20 1 21 3 11 16 -10
13 -9 15 9 15 12 0 19 -4 16 -10z m252 4 c-3 -3 -12 -4 -19 -1 -8 3 -5 6 6 6
11 1 17 -2 13 -5z m576 -1 c-7 -2 -21 -2 -30 0 -10 3 -4 5 12 5 17 0 24 -2 18
-5z m120 0 c-7 -2 -19 -2 -25 0 -7 3 -2 5 12 5 14 0 19 -2 13 -5z m144 1 c-3
-3 -12 -4 -19 -1 -8 3 -5 6 6 6 11 1 17 -2 13 -5z m-3040 -10 c-3 -3 -12 -4
-19 -1 -8 3 -5 6 6 6 11 1 17 -2 13 -5z m1510 0 c-3 -3 -12 -4 -19 -1 -8 3 -5
6 6 6 11 1 17 -2 13 -5z m256 -1 c-7 -2 -19 -2 -25 0 -7 3 -2 5 12 5 14 0 19
-2 13 -5z m951 -2 c3 -5 25 -5 48 0 65 12 79 8 23 -7 l-50 -13 55 4 c36 3 48
2 35 -4 -16 -7 -8 -10 37 -16 34 -4 56 -12 55 -19 -1 -7 16 -10 52 -10 30 1
48 -2 41 -6 -8 -5 4 -10 31 -15 69 -11 74 -17 38 -49 l-31 -28 -77 21 c-42 11
-112 28 -156 37 -44 8 -88 18 -97 21 -10 2 -18 0 -18 -6 0 -5 10 -12 23 -14
l22 -4 -23 -2 c-12 0 -25 6 -28 14 -4 8 -12 15 -19 15 -9 0 -12 9 -9 28 3 15
6 35 7 45 1 17 32 24 41 8z m243 3 c-3 -3 -12 -4 -19 -1 -8 3 -5 6 6 6 11 1
17 -2 13 -5z m140 0 c-3 -3 -12 -4 -19 -1 -8 3 -5 6 6 6 11 1 17 -2 13 -5z
m-3150 -10 c-3 -3 -12 -4 -19 -1 -8 3 -5 6 6 6 11 1 17 -2 13 -5z m730 0 c-3
-3 -12 -4 -19 -1 -8 3 -5 6 6 6 11 1 17 -2 13 -5z m766 -1 c-7 -2 -19 -2 -25
0 -7 3 -2 5 12 5 14 0 19 -2 13 -5z m213 -8 c-18 -14 -18 -15 -2 -15 9 0 14
-4 11 -10 -3 -5 2 -11 12 -11 16 -1 16 -2 1 -6 -9 -2 -28 6 -43 19 l-27 23 29
6 c15 4 30 7 33 7 3 1 -4 -5 -14 -13z m201 9 c-3 -3 -12 -4 -19 -1 -8 3 -5 6
6 6 11 1 17 -2 13 -5z m360 0 c-3 -3 -12 -4 -19 -1 -8 3 -5 6 6 6 11 1 17 -2
13 -5z m416 -1 c-7 -2 -19 -2 -25 0 -7 3 -2 5 12 5 14 0 19 -2 13 -5z m280 0
c-7 -2 -21 -2 -30 0 -10 3 -4 5 12 5 17 0 24 -2 18 -5z m-3016 -9 c-3 -3 -12
-4 -19 -1 -8 3 -5 6 6 6 11 1 17 -2 13 -5z m133 -1 l-24 -5 24 -14 c24 -13 24
-13 3 -14 -12 0 -25 5 -28 10 -3 6 -16 11 -28 11 -17 1 -15 3 8 9 17 4 39 8
50 7 14 0 12 -1 -5 -4z m437 1 c-3 -3 -12 -4 -19 -1 -8 3 -5 6 6 6 11 1 17 -2
13 -5z m150 0 c-3 -3 -12 -4 -19 -1 -8 3 -5 6 6 6 11 1 17 -2 13 -5z m260 0
c-3 -3 -12 -4 -19 -1 -8 3 -5 6 6 6 11 1 17 -2 13 -5z m916 -1 c-7 -2 -21 -2
-30 0 -10 3 -4 5 12 5 17 0 24 -2 18 -5z m275 -15 c17 -13 20 -19 9 -15 -10 4
-26 7 -35 7 -14 0 -14 2 -3 9 11 7 10 10 -5 14 -10 2 -13 5 -6 6 8 0 26 -9 40
-21z m100 15 c-10 -2 -26 -2 -35 0 -10 3 -2 5 17 5 19 0 27 -2 18 -5z m795 0
c-7 -2 -19 -2 -25 0 -7 3 -2 5 12 5 14 0 19 -2 13 -5z m-1236 -9 c-3 -3 -12
-4 -19 -1 -8 3 -5 6 6 6 11 1 17 -2 13 -5z m506 -1 c-7 -2 -19 -2 -25 0 -7 3
-2 5 12 5 14 0 19 -2 13 -5z m188 -11 c-13 -2 -27 0 -32 5 -6 6 3 7 23 4 28
-4 29 -6 9 -9z m492 11 c-7 -2 -21 -2 -30 0 -10 3 -4 5 12 5 17 0 24 -2 18 -5z
m-2970 -10 c-7 -2 -19 -2 -25 0 -7 3 -2 5 12 5 14 0 19 -2 13 -5z m564 1 c-3
-3 -12 -4 -19 -1 -8 3 -5 6 6 6 11 1 17 -2 13 -5z m1323 -4 c18 -12 2 -12 -25
0 -13 6 -15 9 -5 9 8 0 22 -4 30 -9z m343 3 c-7 -2 -19 -2 -25 0 -7 3 -2 5 12
5 14 0 19 -2 13 -5z m800 0 c-7 -2 -21 -2 -30 0 -10 3 -4 5 12 5 17 0 24 -2
18 -5z m-3656 -9 c-3 -3 -12 -4 -19 -1 -8 3 -5 6 6 6 11 1 17 -2 13 -5z m1130
0 c-3 -3 -12 -4 -19 -1 -8 3 -5 6 6 6 11 1 17 -2 13 -5z m1300 0 c-3 -3 -12
-4 -19 -1 -8 3 -5 6 6 6 11 1 17 -2 13 -5z m260 0 c-3 -3 -12 -4 -19 -1 -8 3
-5 6 6 6 11 1 17 -2 13 -5z m1020 0 c-3 -3 -12 -4 -19 -1 -8 3 -5 6 6 6 11 1
17 -2 13 -5z m-2916 -19 c19 -8 27 -14 18 -15 -9 0 -30 7 -45 15 -37 19 -17
19 27 0z m126 9 c-3 -3 -12 -4 -19 -1 -8 3 -5 6 6 6 11 1 17 -2 13 -5z m1572
-14 c13 0 22 -3 18 -6 -3 -3 -25 -3 -48 1 -29 5 -37 10 -28 16 8 5 18 4 23 -1
6 -6 21 -10 35 -10z m378 14 c-3 -3 -12 -4 -19 -1 -8 3 -5 6 6 6 11 1 17 -2
13 -5z m246 -1 c-7 -2 -19 -2 -25 0 -7 3 -2 5 12 5 14 0 19 -2 13 -5z m520 0
c-7 -2 -19 -2 -25 0 -7 3 -2 5 12 5 14 0 19 -2 13 -5z m134 1 c-3 -3 -12 -4
-19 -1 -8 3 -5 6 6 6 11 1 17 -2 13 -5z m-3050 -10 c-3 -3 -12 -4 -19 -1 -8 3
-5 6 6 6 11 1 17 -2 13 -5z m150 0 c-3 -3 -12 -4 -19 -1 -8 3 -5 6 6 6 11 1
17 -2 13 -5z m1699 -3 c-4 -5 0 -12 6 -14 7 -3 1 -6 -14 -6 -27 -1 -43 11 -31
23 10 10 45 7 39 -3z m154 0 c24 -7 24 -7 -9 -14 -19 -4 -36 -5 -39 -2 -3 3 3
5 14 6 18 0 18 1 -1 9 -24 10 -1 11 35 1z m77 3 c-3 -3 -12 -4 -19 -1 -8 3 -5
6 6 6 11 1 17 -2 13 -5z m-2036 -22 c-7 -2 -18 1 -23 6 -8 8 -4 9 13 5 13 -4
18 -8 10 -11z m296 12 c-3 -3 -12 -4 -19 -1 -8 3 -5 6 6 6 11 1 17 -2 13 -5z
m150 0 c-3 -3 -12 -4 -19 -1 -8 3 -5 6 6 6 11 1 17 -2 13 -5z m1430 0 c-3 -3
-12 -4 -19 -1 -8 3 -5 6 6 6 11 1 17 -2 13 -5z m302 -10 c8 -7 -54 -2 -79 6
-17 6 -9 7 25 3 28 -3 52 -7 54 -9z m96 6 l30 -8 -30 0 c-16 0 -43 4 -60 8
l-30 8 30 0 c17 0 44 -4 60 -8z m82 4 c-3 -3 -12 -4 -19 -1 -8 3 -5 6 6 6 11
1 17 -2 13 -5z m650 0 c-3 -3 -12 -4 -19 -1 -8 3 -5 6 6 6 11 1 17 -2 13 -5z
m-3810 -10 c-3 -3 -12 -4 -19 -1 -8 3 -5 6 6 6 11 1 17 -2 13 -5z m1196 -1
c-7 -2 -19 -2 -25 0 -7 3 -2 5 12 5 14 0 19 -2 13 -5z m154 1 c-3 -3 -12 -4
-19 -1 -8 3 -5 6 6 6 11 1 17 -2 13 -5z m1510 0 c-3 -3 -12 -4 -19 -1 -8 3 -5
6 6 6 11 1 17 -2 13 -5z m-2660 -10 c-3 -3 -12 -4 -19 -1 -8 3 -5 6 6 6 11 1
17 -2 13 -5z m963 -4 c11 -8 7 -9 -15 -4 -37 8 -45 14 -19 14 10 0 26 -5 34
-10z m363 -5 c-18 -13 -73 -10 -73 4 0 3 21 7 46 7 39 1 43 0 27 -11z m1047 0
c0 -8 8 -15 17 -15 9 0 14 -2 12 -5 -3 -2 -21 -2 -40 1 -40 7 -50 34 -12 34
14 0 23 -6 23 -15z m90 5 l-25 -8 25 -2 c19 -2 20 -4 7 -7 -10 -3 -26 -2 -35
2 -14 5 -14 7 -2 15 8 6 24 9 35 9 16 -1 16 -2 -5 -9z m66 -8 c-10 -2 -22 0
-28 6 -6 6 0 7 19 4 21 -5 23 -7 9 -10z m67 11 c-7 -2 -19 -2 -25 0 -7 3 -2 5
12 5 14 0 19 -2 13 -5z m484 1 c-3 -3 -12 -4 -19 -1 -8 3 -5 6 6 6 11 1 17 -2
13 -5z m116 -1 c-7 -2 -19 -2 -25 0 -7 3 -2 5 12 5 14 0 19 -2 13 -5z m-3240
-10 c-7 -2 -19 -2 -25 0 -7 3 -2 5 12 5 14 0 19 -2 13 -5z m504 1 c-3 -3 -12
-4 -19 -1 -8 3 -5 6 6 6 11 1 17 -2 13 -5z m430 0 c-3 -3 -12 -4 -19 -1 -8 3
-5 6 6 6 11 1 17 -2 13 -5z m2278 -12 c-3 -3 -11 0 -18 7 -9 10 -8 11 6 5 10
-3 15 -9 12 -12z m-3258 2 c-3 -3 -12 -4 -19 -1 -8 3 -5 6 6 6 11 1 17 -2 13
-5z m230 0 c-3 -3 -12 -4 -19 -1 -8 3 -5 6 6 6 11 1 17 -2 13 -5z m790 0 c-3
-3 -12 -4 -19 -1 -8 3 -5 6 6 6 11 1 17 -2 13 -5z m1698 -4 c25 -11 -1 -11
-35 0 -20 6 -21 8 -5 8 11 0 29 -3 40 -8z m312 4 c-3 -3 -12 -4 -19 -1 -8 3
-5 6 6 6 11 1 17 -2 13 -5z m403 -4 l25 -8 -25 0 c-14 0 -34 3 -45 8 l-20 9
20 -1 c11 0 31 -4 45 -8z m391 -6 c4 -2 9 -13 12 -24 4 -17 0 -20 -25 -20 -26
0 -29 -2 -18 -16 12 -13 10 -14 -13 -3 -20 9 -27 20 -27 39 0 15 3 30 6 33 6
6 49 0 65 -9z m-3886 -4 c-11 -5 -29 -8 -40 -8 -16 0 -15 2 5 8 34 11 60 11
35 0z m252 4 c-3 -3 -12 -4 -19 -1 -8 3 -5 6 6 6 11 1 17 -2 13 -5z m780 0
c-3 -3 -12 -4 -19 -1 -8 3 -5 6 6 6 11 1 17 -2 13 -5z m1688 -4 l20 -9 -20 1
c-11 0 -31 4 -45 8 l-25 8 25 0 c14 0 34 -3 45 -8z m542 4 c-3 -3 -12 -4 -19
-1 -8 3 -5 6 6 6 11 1 17 -2 13 -5z m158 -12 c-3 -3 -11 0 -18 7 -9 10 -8 11
6 5 10 -3 15 -9 12 -12z m-3218 2 c-3 -3 -12 -4 -19 -1 -8 3 -5 6 6 6 11 1 17
-2 13 -5z m90 0 c-3 -3 -12 -4 -19 -1 -8 3 -5 6 6 6 11 1 17 -2 13 -5z m933
-3 c0 -5 -7 -11 -15 -15 -15 -5 -20 5 -8 17 9 10 23 9 23 -2z m94 -12 c5 -4
-8 -3 -30 2 -21 6 -41 13 -44 16 -9 9 65 -9 74 -18z m200 12 c3 -4 -6 -6 -19
-3 -14 2 -25 6 -25 8 0 8 39 4 44 -5z m1673 3 c-3 -3 -12 -4 -19 -1 -8 3 -5 6
6 6 11 1 17 -2 13 -5z m-3340 -10 c-3 -3 -12 -4 -19 -1 -8 3 -5 6 6 6 11 1 17
-2 13 -5z m310 0 c-3 -3 -12 -4 -19 -1 -8 3 -5 6 6 6 11 1 17 -2 13 -5z m1010
0 c-3 -3 -12 -4 -19 -1 -8 3 -5 6 6 6 11 1 17 -2 13 -5z m280 0 c-3 -3 -12 -4
-19 -1 -8 3 -5 6 6 6 11 1 17 -2 13 -5z m1907 -3 c4 -5 -3 -7 -14 -4 -23 6
-26 13 -6 13 8 0 17 -4 20 -9z m261 -1 c7 -12 -2 -12 -30 0 -19 8 -19 9 2 9
12 1 25 -3 28 -9z m165 -5 c0 -8 -7 -15 -15 -15 -26 0 -18 20 13 29 1 1 2 -6
2 -14z m175 5 c4 -6 -5 -10 -20 -10 -15 0 -24 4 -20 10 3 6 12 10 20 10 8 0
17 -4 20 -10z m-3838 -6 c-3 -3 -12 -4 -19 -1 -8 3 -5 6 6 6 11 1 17 -2 13 -5z
m73 -4 c-14 -4 -34 -8 -45 -8 -16 0 -15 2 5 8 14 4 34 8 45 8 16 0 15 -2 -5
-8z m237 4 c-3 -3 -12 -4 -19 -1 -8 3 -5 6 6 6 11 1 17 -2 13 -5z m708 -4 l20
-9 -20 0 c-11 0 -29 4 -40 9 l-20 9 20 0 c11 0 29 -4 40 -9z m154 -6 c10 -9
-35 -3 -49 6 -11 8 -7 9 15 4 17 -4 32 -8 34 -10z m2001 6 c8 -5 11 -10 5 -10
-5 0 -17 5 -25 10 -8 5 -10 10 -5 10 6 0 17 -5 25 -10z m-3255 -16 c-27 -7
-54 -13 -60 -13 -17 2 69 27 90 27 11 0 -2 -6 -30 -14z m305 0 c-30 -8 -59
-12 -65 -10 -5 3 -1 5 10 5 12 1 16 4 9 9 -7 4 13 7 45 8 l56 1 -55 -13z
m2890 6 c13 -9 13 -10 0 -10 -8 0 -22 5 -30 10 -13 9 -13 10 0 10 8 0 22 -5
30 -10z m220 0 c8 -5 11 -10 5 -10 -5 0 -17 5 -25 10 -8 5 -10 10 -5 10 6 0
17 -5 25 -10z m-3333 -6 c-3 -3 -12 -4 -19 -1 -8 3 -5 6 6 6 11 1 17 -2 13 -5z
m3503 -9 c33 -19 21 -19 -21 0 -19 8 -27 14 -19 14 8 0 26 -6 40 -14z m-3543
-1 c-3 -3 -12 -4 -19 -1 -8 3 -5 6 6 6 11 1 17 -2 13 -5z m310 0 c-3 -3 -12
-4 -19 -1 -8 3 -5 6 6 6 11 1 17 -2 13 -5z m3340 0 c-3 -3 -12 -4 -19 -1 -8 3
-5 6 6 6 11 1 17 -2 13 -5z m-3770 -10 c-3 -3 -12 -4 -19 -1 -8 3 -5 6 6 6 11
1 17 -2 13 -5z m300 0 c-3 -3 -12 -4 -19 -1 -8 3 -5 6 6 6 11 1 17 -2 13 -5z
m220 0 c-3 -3 -12 -4 -19 -1 -8 3 -5 6 6 6 11 1 17 -2 13 -5z m628 -4 c25 -11
-1 -11 -35 0 -20 6 -21 8 -5 8 11 0 29 -3 40 -8z m2570 0 c3 -6 -1 -7 -9 -4
-18 7 -21 14 -7 14 6 0 13 -4 16 -10z m-3758 -6 c-3 -3 -12 -4 -19 -1 -8 3 -5
6 6 6 11 1 17 -2 13 -5z m600 0 c-3 -3 -12 -4 -19 -1 -8 3 -5 6 6 6 11 1 17
-2 13 -5z m689 -5 c24 -6 47 -15 49 -19 4 -7 -86 12 -120 25 -24 9 30 4 71 -6z
m2357 4 c-7 -2 -21 -2 -30 0 -10 3 -4 5 12 5 17 0 24 -2 18 -5z m-3686 -9 c-3
-3 -12 -4 -19 -1 -8 3 -5 6 6 6 11 1 17 -2 13 -5z m596 -1 c-7 -2 -19 -2 -25
0 -7 3 -2 5 12 5 14 0 19 -2 13 -5z m3050 -10 c25 -13 28 -18 14 -21 -10 -2
-25 2 -33 9 -8 7 -32 16 -52 20 l-37 7 38 1 c21 0 52 -7 70 -16z m-2716 1 c-3
-3 -12 -4 -19 -1 -8 3 -5 6 6 6 11 1 17 -2 13 -5z m86 -1 c-7 -2 -19 -2 -25 0
-7 3 -2 5 12 5 14 0 19 -2 13 -5z m-46 -9 c-3 -3 -12 -4 -19 -1 -8 3 -5 6 6 6
11 1 17 -2 13 -5z m40 -10 c-3 -3 -12 -4 -19 -1 -8 3 -5 6 6 6 11 1 17 -2 13
-5z m-40 -10 c-3 -3 -12 -4 -19 -1 -8 3 -5 6 6 6 11 1 17 -2 13 -5z m-370 -30
c-3 -3 -12 -4 -19 -1 -8 3 -5 6 6 6 11 1 17 -2 13 -5z m-1252 -115 c9 -26 7
-27 -39 -34 -35 -6 -37 -6 -24 14 7 12 21 21 31 21 10 0 15 5 12 10 -3 6 -2
10 4 10 5 0 13 -9 16 -21z m3005 -39 c8 -5 11 -10 5 -10 -5 0 -17 5 -25 10 -8
5 -10 10 -5 10 6 0 17 -5 25 -10z m1147 -7 c-9 -9 -19 -14 -23 -11 -10 10 6
28 24 28 15 0 15 -1 -1 -17z m-1329 -19 l27 -25 -27 12 c-15 6 -29 18 -32 25
-8 21 2 17 32 -12z m1209 4 c-3 -8 -6 -5 -6 6 -1 11 2 17 5 13 3 -3 4 -12 1
-19z m188 2 c-28 -12 -37 -12 -30 0 3 6 16 10 28 9 21 0 21 -1 2 -9z m-1581
-16 c21 -11 36 -26 39 -40 5 -29 2 -29 -57 -3 -25 11 -50 18 -55 14 -14 -8
-42 6 -34 18 3 5 1 7 -5 4 -5 -4 -21 -3 -34 2 -21 9 -21 10 10 10 18 1 42 -3
52 -9 13 -7 19 -6 24 5 7 19 17 19 60 -1z m1646 -29 c0 -14 -52 -25 -124 -25
-48 0 -49 0 -31 20 15 16 30 20 86 19 48 -1 69 -5 69 -14z m118 0 c3 -3 -6 -5
-19 -6 -13 0 -34 -2 -46 -3 -14 -2 -23 3 -23 10 0 9 12 12 41 9 23 -3 44 -7
47 -10z m-1524 -24 c-2 -3 -12 3 -22 13 -16 17 -16 18 5 5 12 -7 20 -15 17
-18z m-68 -15 c0 -24 -4 -32 -13 -29 -8 3 -12 16 -9 32 6 33 5 31 14 31 4 0 8
-15 8 -34z m388 15 c3 -5 -1 -14 -9 -21 -13 -10 -15 -9 -15 9 0 21 14 28 24
12z m-1229 -21 c-3 -5 -14 -10 -23 -10 -15 0 -15 2 -2 10 20 13 33 13 25 0z
m750 -8 c-3 -3 -11 0 -18 7 -9 10 -8 11 6 5 10 -3 15 -9 12 -12z m-715 4 c0
-2 -7 -7 -16 -10 -8 -3 -12 -2 -9 4 6 10 25 14 25 6z m861 -21 c-18 -8 -36
-15 -40 -15 -13 1 45 29 59 29 8 0 0 -6 -19 -14z m-3746 -94 c35 -6 37 -8 17
-15 -24 -8 -124 1 -157 15 -26 10 85 11 140 0z m5776 -86 l2 40 7 -50 7 -50 3
55 c2 48 3 51 10 25 11 -45 11 -105 0 -105 -5 0 -10 6 -11 13 0 8 -2 8 -6 -2
-5 -11 -7 -11 -14 0 -6 10 -9 11 -9 2 0 -7 -9 -13 -20 -13 -18 0 -20 6 -19 58
1 47 3 52 9 27 7 -29 8 -29 10 10 l2 40 13 -45 13 -45 3 40z m-64 -67 c-2 -13
-4 -5 -4 17 -1 22 1 32 4 23 2 -10 2 -28 0 -40z m-65 -176 c-4 -106 9 -99
-174 -101 l-119 -2 3 88 3 88 70 5 c39 3 104 6 145 8 l75 3 -3 -89z m-328 -20
c-8 -95 6 -88 -179 -91 -71 -2 -132 -6 -135 -10 -3 -4 -10 -7 -17 -6 -27 0
-34 24 -31 106 l3 84 175 5 c96 3 179 2 183 -1 4 -3 5 -42 1 -87z m-2074 -62
l0 -80 -110 0 -110 0 0 80 0 80 110 0 110 0 0 -80z m1987 -126 c-3 -3 -12 -4
-19 -1 -8 3 -5 6 6 6 11 1 17 -2 13 -5z m-17 -35 c0 -5 6 -7 13 -3 8 5 8 3 -2
-9 -7 -9 -17 -14 -22 -11 -5 3 -9 0 -9 -5 0 -6 10 -12 23 -12 18 -1 19 -2 3
-6 -25 -7 -39 10 -31 36 7 22 25 29 25 10z m70 2 c0 -14 -29 -21 -36 -9 -4 7
-3 8 4 4 7 -4 12 -2 12 3 0 6 5 11 10 11 6 0 10 -4 10 -9z m80 -62 c0 -13 -7
-19 -21 -19 -11 0 -17 5 -14 10 3 6 1 10 -4 10 -6 0 -11 -6 -12 -12 0 -9 -2
-9 -6 1 -5 11 -7 11 -14 0 -7 -11 -9 -11 -9 3 0 19 8 23 50 24 23 1 30 -3 30
-17z m90 12 c0 -6 -4 -12 -8 -15 -5 -3 -9 1 -9 9 0 8 4 15 9 15 4 0 8 -4 8 -9z
m88 3 c12 -4 22 -10 22 -13 0 -4 -10 -7 -22 -5 -13 1 -26 3 -30 3 -5 1 -8 6
-8 11 0 11 6 12 38 4z m-268 -28 c0 -8 -4 -18 -10 -21 -5 -3 -10 3 -10 14 0
12 5 21 10 21 6 0 10 -6 10 -14z m0 -198 c0 -89 -2 -159 -5 -156 -3 3 -6 47
-6 97 0 55 -4 91 -10 91 -12 0 -39 25 -39 36 0 3 6 1 13 -5 20 -16 27 -3 27
51 0 26 5 48 10 48 6 0 10 -61 10 -162z m-110 -58 c0 -5 -4 -10 -10 -10 -5 0
-10 5 -10 10 0 6 5 10 10 10 6 0 10 -4 10 -10z m-445 -70 c7 -12 -2 -12 -30 0
-19 8 -19 9 2 9 12 1 25 -3 28 -9z m133 1 c8 -1 12 -9 10 -18 -3 -19 -137 -58
-151 -44 -4 4 26 14 67 20 42 7 76 16 76 20 0 5 -25 8 -56 7 -32 0 -59 4 -61
9 -3 9 13 10 115 6z m235 -18 c-7 -2 -21 -2 -30 0 -10 3 -4 5 12 5 17 0 24 -2
18 -5z m134 1 c-3 -3 -12 -4 -19 -1 -8 3 -5 6 6 6 11 1 17 -2 13 -5z m-933
-69 c-18 -27 -34 -33 -34 -12 0 11 27 31 48 36 1 1 -5 -10 -14 -24z m-3451
-52 c-7 -2 -19 -2 -25 0 -7 3 -2 5 12 5 14 0 19 -2 13 -5z m94 -9 c-3 -3 -12
-4 -19 -1 -8 3 -5 6 6 6 11 1 17 -2 13 -5z m3403 -4 c0 -5 -7 -10 -16 -10 -8
0 -12 5 -9 10 3 6 10 10 16 10 5 0 9 -4 9 -10z m27 -36 c-3 -3 -12 -4 -19 -1
-8 3 -5 6 6 6 11 1 17 -2 13 -5z m-670 -50 c-3 -3 -12 -4 -19 -1 -8 3 -5 6 6
6 11 1 17 -2 13 -5z m101 -32 c2 -8 -2 -10 -13 -6 -9 4 -20 2 -24 -5 -6 -9
-15 -9 -37 -1 -16 6 -45 9 -64 6 l-35 -6 30 13 c37 17 137 16 143 -1z m92 -6
c0 -2 -7 -6 -15 -10 -8 -3 -15 -1 -15 4 0 6 7 10 15 10 8 0 15 -2 15 -4z
m-311 -10 c-11 -10 -89 -15 -89 -6 0 5 21 10 47 10 25 0 44 -2 42 -4z m1769
-13 c-21 -2 -57 -2 -80 0 -24 2 -7 4 37 4 44 0 63 -2 43 -4z m160 -10 c-15 -2
-42 -2 -60 0 -18 2 -6 4 27 4 33 0 48 -2 33 -4z m140 -10 c-15 -2 -42 -2 -60
0 -18 2 -6 4 27 4 33 0 48 -2 33 -4z m-5123 -133 c-28 -12 -65 -12 -65 0 0 6
19 10 43 9 32 0 37 -2 22 -9z"/>
<path d="M1670 3670 c0 -5 5 -10 11 -10 5 0 7 5 4 10 -3 6 -8 10 -11 10 -2 0
-4 -4 -4 -10z"/>
<path d="M2129 3541 c19 -5 10 -10 -48 -25 -39 -10 -71 -23 -71 -28 0 -5 7 -5
18 0 9 5 50 18 91 28 59 15 69 20 50 25 -13 4 -33 7 -44 7 -16 0 -15 -1 4 -7z"/>
<path d="M1760 3510 c-20 -6 -21 -8 -5 -8 11 0 29 3 40 8 25 11 -1 11 -35 0z"/>
<path d="M1391 3494 c0 -11 3 -14 6 -6 3 7 2 16 -1 19 -3 4 -6 -2 -5 -13z"/>
<path d="M1355 3475 c0 -14 3 -25 8 -25 4 0 7 11 7 25 0 14 -3 25 -7 25 -5 0
-8 -11 -8 -25z"/>
<path d="M1590 3489 c0 -5 5 -7 10 -4 6 3 10 8 10 11 0 2 -4 4 -10 4 -5 0 -10
-5 -10 -11z"/>
<path d="M1628 3483 c7 -3 16 -2 19 1 4 3 -2 6 -13 5 -11 0 -14 -3 -6 -6z"/>
<path d="M1928 3483 c7 -3 16 -2 19 1 4 3 -2 6 -13 5 -11 0 -14 -3 -6 -6z"/>
<path d="M1558 3473 c7 -3 16 -2 19 1 4 3 -2 6 -13 5 -11 0 -14 -3 -6 -6z"/>
<path d="M1390 3455 c0 -8 2 -15 4 -15 2 0 6 7 10 15 3 8 1 15 -4 15 -6 0 -10
-7 -10 -15z"/>
<path d="M1598 3463 c7 -3 16 -2 19 1 4 3 -2 6 -13 5 -11 0 -14 -3 -6 -6z"/>
<path d="M1730 3462 c0 -7 -10 -13 -22 -13 -19 -1 -20 -2 -4 -6 20 -5 44 12
33 24 -4 3 -7 1 -7 -5z"/>
<path d="M1420 3440 c0 -5 5 -10 11 -10 5 0 7 5 4 10 -3 6 -8 10 -11 10 -2 0
-4 -4 -4 -10z"/>
<path d="M1390 3422 c0 -6 -8 -13 -17 -15 -16 -4 -16 -5 -1 -6 18 -1 34 16 24
26 -3 4 -6 1 -6 -5z"/>
<path d="M1468 3423 c7 -3 16 -2 19 1 4 3 -2 6 -13 5 -11 0 -14 -3 -6 -6z"/>
<path d="M1588 3413 c7 -3 16 -2 19 1 4 3 -2 6 -13 5 -11 0 -14 -3 -6 -6z"/>
<path d="M1408 3393 c7 -3 16 -2 19 1 4 3 -2 6 -13 5 -11 0 -14 -3 -6 -6z"/>
<path d="M1365 3380 c11 -5 27 -9 35 -9 13 -1 13 0 0 9 -8 5 -24 9 -35 9 l-20
0 20 -9z"/>
<path d="M2378 3673 c7 -3 16 -2 19 1 4 3 -2 6 -13 5 -11 0 -14 -3 -6 -6z"/>
<path d="M5410 3656 c0 -2 7 -6 15 -10 8 -3 15 -1 15 4 0 6 -7 10 -15 10 -8 0
-15 -2 -15 -4z"/>
<path d="M3800 3720 c8 -5 24 -10 35 -10 17 0 17 2 5 10 -8 5 -24 10 -35 10
-17 0 -17 -2 -5 -10z"/>
<path d="M3858 3693 c7 -3 16 -2 19 1 4 3 -2 6 -13 5 -11 0 -14 -3 -6 -6z"/>
<path d="M3445 3659 c-16 -6 -16 -8 -3 -8 9 -1 18 -5 20 -10 2 -5 14 -11 28
-14 14 -2 19 -2 12 0 -7 3 -10 8 -8 12 8 13 -28 28 -49 20z"/>
<path d="M4123 3663 c9 -2 23 -2 30 0 6 3 -1 5 -18 5 -16 0 -22 -2 -12 -5z"/>
<path d="M3628 3643 c7 -3 16 -2 19 1 4 3 -2 6 -13 5 -11 0 -14 -3 -6 -6z"/>
<path d="M3660 3620 c8 -5 26 -10 39 -10 32 0 24 6 -19 14 -25 4 -31 3 -20 -4z"/>
<path d="M3974 3611 c18 -19 76 -34 76 -19 0 4 -12 8 -26 8 -14 0 -23 4 -20 9
3 5 -1 12 -10 15 -29 11 -37 6 -20 -13z"/>
<path d="M3458 3613 c7 -3 16 -2 19 1 4 3 -2 6 -13 5 -11 0 -14 -3 -6 -6z"/>
<path d="M4045 3610 c27 -12 35 -12 35 0 0 6 -12 10 -27 9 -25 0 -26 -1 -8 -9z"/>
<path d="M4181 3615 c3 -2 23 -7 45 -10 28 -3 34 -2 19 4 -21 10 -72 15 -64 6z"/>
<path d="M3655 3600 c3 -5 0 -10 -7 -11 -7 0 3 -7 22 -14 41 -16 31 -18 -23
-6 -44 11 -41 2 6 -16 32 -13 32 -13 -13 -8 l-45 5 40 -15 c51 -20 70 -38 24
-24 -84 26 -101 30 -105 26 -8 -8 188 -67 199 -60 5 3 7 1 3 -5 -8 -13 59 -36
75 -26 8 4 9 3 5 -4 -4 -7 -1 -12 7 -12 7 0 14 6 14 14 0 9 -25 24 -59 37 -32
12 -57 24 -54 26 2 3 37 -7 76 -21 39 -15 76 -24 81 -20 13 7 50 -6 44 -16 -6
-9 25 -23 33 -15 3 3 -1 5 -9 5 -12 0 -12 2 0 9 9 6 1 13 -30 25 -24 9 -55 18
-69 19 -31 3 -133 38 -127 43 2 2 24 -3 48 -12 24 -9 64 -18 87 -21 24 -2 63
-11 85 -19 36 -12 39 -12 24 0 -10 8 -38 20 -63 27 -24 7 -44 19 -44 25 0 7
-36 18 -85 28 -47 8 -96 22 -108 31 -24 17 -41 20 -32 5z m165 -56 l35 -14
-35 5 c-19 3 -39 10 -44 15 -14 14 2 12 44 -6z m-10 -84 c8 -5 11 -10 5 -10
-5 0 -17 5 -25 10 -8 5 -10 10 -5 10 6 0 17 -5 25 -10z"/>
<path d="M3715 3590 c11 -5 31 -9 45 -9 23 0 23 1 5 9 -11 5 -31 9 -45 9 -23
0 -23 -1 -5 -9z"/>
<path d="M4163 3593 c9 -2 23 -2 30 0 6 3 -1 5 -18 5 -16 0 -22 -2 -12 -5z"/>
<path d="M4300 3595 c0 -2 15 -9 33 -14 27 -9 24 -10 -22 -5 -47 6 -52 4 -40
-9 8 -8 21 -12 29 -9 8 3 4 -5 -9 -16 -13 -12 -29 -22 -34 -22 -6 0 -2 7 9 15
10 8 14 15 8 15 -6 0 -18 -7 -25 -17 -11 -13 -11 -17 -1 -20 24 -9 11 -23 -15
-18 -27 6 -27 6 -9 -9 21 -17 61 -22 51 -7 -3 5 4 16 16 25 12 8 18 19 15 24
-4 7 6 7 29 1 20 -6 42 -8 48 -6 7 3 -3 8 -20 12 -18 4 -33 12 -33 17 0 6 6 8
14 5 8 -3 32 -8 53 -11 l38 -6 -33 10 c-18 6 -30 15 -27 20 4 6 -6 15 -20 20
-28 11 -55 13 -55 5z"/>
<path d="M4855 3590 c28 -12 47 -12 40 0 -3 6 -18 10 -33 9 -24 0 -25 -1 -7
-9z"/>
<path d="M3960 3580 c0 -5 12 -10 28 -9 24 0 25 1 7 9 -27 12 -35 12 -35 0z"/>
<path d="M4138 3573 c7 -3 16 -2 19 1 4 3 -2 6 -13 5 -11 0 -14 -3 -6 -6z"/>
<path d="M4188 3568 c5 -5 16 -8 23 -6 8 3 3 7 -10 11 -17 4 -21 3 -13 -5z"/>
<path d="M4410 3570 c14 -4 32 -8 40 -9 13 -1 13 0 0 9 -8 5 -26 9 -40 9 l-25
-1 25 -8z"/>
<path d="M4955 3570 c-3 -5 -2 -10 4 -10 5 0 13 5 16 10 3 6 2 10 -4 10 -5 0
-13 -4 -16 -10z"/>
<path d="M2718 3563 c7 -3 16 -2 19 1 4 3 -2 6 -13 5 -11 0 -14 -3 -6 -6z"/>
<path d="M3280 3562 c8 -6 31 -13 50 -16 23 -5 30 -4 20 2 -8 6 -31 13 -50 16
-23 5 -30 4 -20 -2z"/>
<path d="M4080 3560 c8 -5 22 -9 30 -9 10 0 8 3 -5 9 -27 12 -43 12 -25 0z"/>
<path d="M4880 3555 c14 -7 27 -11 30 -9 6 7 -22 24 -40 23 -9 0 -5 -6 10 -14z"/>
<path d="M3955 3550 c11 -5 27 -9 35 -9 13 -1 13 0 0 9 -8 5 -24 9 -35 9 l-20
0 20 -9z"/>
<path d="M4595 3550 c3 -5 12 -10 19 -10 8 0 20 -7 27 -17 13 -15 12 -15 -8
-5 -12 7 -26 12 -32 12 -22 0 -10 -20 20 -36 24 -12 43 -14 83 -8 28 4 60 6
71 5 29 -4 13 8 -24 19 -23 6 -30 6 -24 -3 3 -7 -2 -4 -13 5 -37 33 -135 64
-119 38z"/>
<path d="M4180 3540 c8 -5 22 -10 30 -10 13 0 13 1 0 10 -8 5 -22 10 -30 10
-13 0 -13 -1 0 -10z"/>
<path d="M4916 3541 c-3 -4 -17 -6 -31 -3 -31 5 -33 -13 -2 -22 29 -8 52 -8
44 1 -4 3 1 12 11 19 16 12 16 13 0 14 -9 0 -19 -4 -22 -9z"/>
<path d="M3908 3533 c6 -2 18 -2 25 0 6 3 1 5 -13 5 -14 0 -19 -2 -12 -5z"/>
<path d="M2828 3523 c7 -3 16 -2 19 1 4 3 -2 6 -13 5 -11 0 -14 -3 -6 -6z"/>
<path d="M3960 3520 c0 -5 10 -10 23 -10 18 0 19 2 7 10 -19 13 -30 13 -30 0z"/>
<path d="M4795 3520 c-3 -5 1 -10 9 -10 9 0 16 5 16 10 0 6 -4 10 -9 10 -6 0
-13 -4 -16 -10z"/>
<path d="M2841 3511 c-18 -5 8 -15 110 -44 74 -20 139 -37 144 -37 14 1 -125
46 -188 61 -41 10 -48 14 -32 20 25 9 0 10 -34 0z"/>
<path d="M3530 3510 c-13 -8 35 -30 60 -28 33 3 55 -2 43 -10 -6 -4 6 -7 28
-7 l41 0 -43 18 c-57 24 -114 36 -129 27z"/>
<path d="M4175 3510 c3 -5 11 -10 16 -10 6 0 7 5 4 10 -3 6 -11 10 -16 10 -6
0 -7 -4 -4 -10z"/>
<path d="M4340 3495 c14 -7 27 -11 30 -9 6 7 -22 24 -40 23 -9 0 -5 -6 10 -14z"/>
<path d="M4559 3487 c-14 -11 -11 -13 22 -13 40 -1 52 9 23 20 -21 8 -26 7
-45 -7z"/>
<path d="M2535 3480 c-3 -5 1 -10 9 -10 9 0 16 5 16 10 0 6 -4 10 -9 10 -6 0
-13 -4 -16 -10z"/>
<path d="M2830 3480 c14 -5 45 -14 69 -20 23 -6 41 -14 38 -16 -3 -3 -29 2
-58 10 -29 9 -54 16 -56 16 -1 0 -1 -10 1 -22 1 -13 11 -24 22 -26 16 -3 17
-1 4 7 -22 15 -12 14 84 -14 95 -28 139 -33 64 -8 -46 15 -64 33 -33 33 8 0
15 -5 15 -11 0 -6 9 -9 20 -6 11 3 20 1 20 -3 0 -5 9 -8 20 -7 34 2 8 15 -99
46 -93 28 -175 43 -111 21z"/>
<path d="M3535 3472 c28 -13 35 -21 25 -25 -8 -3 -1 -4 15 -1 24 4 27 3 15 -5
-12 -9 -8 -10 15 -5 18 3 25 2 18 -3 -7 -5 3 -8 28 -8 21 0 39 0 39 1 0 3
-155 55 -180 61 -8 2 3 -5 25 -15z"/>
<path d="M2385 3470 l-20 -9 20 0 c17 -1 18 -3 5 -11 -11 -7 -5 -9 20 -5 28 4
31 3 15 -5 -16 -8 -12 -8 15 -3 19 3 53 9 75 13 40 6 40 6 11 13 -17 5 -33 4
-39 -2 -6 -6 -20 -11 -31 -10 -21 0 -21 0 -1 9 14 7 9 8 -20 5 -30 -4 -35 -3
-20 4 26 12 -2 13 -30 1z"/>
<path d="M4218 3455 c9 -13 21 -20 26 -15 11 11 1 26 -24 33 -19 5 -19 4 -2
-18z"/>
<path d="M2655 3450 c3 -5 8 -10 11 -10 2 0 4 5 4 10 0 6 -5 10 -11 10 -5 0
-7 -4 -4 -10z"/>
<path d="M3733 3446 c15 -7 25 -15 21 -18 -3 -4 5 -4 18 -1 16 3 19 2 10 -5
-19 -13 12 -24 45 -16 23 6 19 10 -38 30 -67 25 -104 31 -56 10z m84 -32 c-3
-3 -12 -4 -19 -1 -8 3 -5 6 6 6 11 1 17 -2 13 -5z"/>
<path d="M2058 3443 c7 -3 16 -2 19 1 4 3 -2 6 -13 5 -11 0 -14 -3 -6 -6z"/>
<path d="M2575 3440 c11 -5 27 -9 35 -9 9 0 8 4 -5 9 -11 5 -27 9 -35 9 -9 0
-8 -4 5 -9z"/>
<path d="M2680 3440 c0 -5 7 -10 15 -10 8 0 15 5 15 10 0 6 -7 10 -15 10 -8 0
-15 -4 -15 -10z"/>
<path d="M3495 3440 c11 -5 27 -9 35 -9 9 0 8 4 -5 9 -11 5 -27 9 -35 9 -9 0
-8 -4 5 -9z"/>
<path d="M3873 3435 c4 -9 7 -19 7 -21 0 -2 8 -4 18 -4 15 0 15 2 2 11 -12 9
-10 10 9 5 30 -6 15 9 -18 19 -20 6 -23 4 -18 -10z"/>
<path d="M4205 3440 c-3 -5 -1 -10 4 -10 6 0 11 5 11 10 0 6 -2 10 -4 10 -3 0
-8 -4 -11 -10z"/>
<path d="M2070 3431 c-17 -5 -7 -7 33 -7 34 0 50 3 40 7 -22 9 -41 9 -73 0z"/>
<path d="M2338 3433 c7 -3 16 -2 19 1 4 3 -2 6 -13 5 -11 0 -14 -3 -6 -6z"/>
<path d="M2465 3430 l-20 -9 20 -1 20 -1 -20 -10 c-16 -8 -15 -8 8 -4 15 3 46
1 68 -5 23 -6 43 -9 46 -7 2 3 -21 11 -53 18 -31 7 -52 15 -47 16 6 2 46 -5
88 -16 77 -20 92 -15 25 8 -48 17 -111 22 -135 11z"/>
<path d="M2720 3430 c0 -5 4 -10 9 -10 5 0 18 -3 28 -7 16 -6 16 -5 4 10 -15
19 -41 23 -41 7z"/>
<path d="M3535 3420 l-20 -9 20 0 c17 -1 17 -3 5 -11 -18 -12 -2 -12 25 0 l20
9 -20 0 c-17 1 -17 3 -5 11 18 12 2 12 -25 0z"/>
<path d="M4000 3420 c8 -5 20 -10 25 -10 6 0 3 5 -5 10 -8 5 -19 10 -25 10 -5
0 -3 -5 5 -10z"/>
<path d="M2418 3413 c7 -3 16 -2 19 1 4 3 -2 6 -13 5 -11 0 -14 -3 -6 -6z"/>
<path d="M2698 3408 c6 -6 18 -8 28 -6 14 3 12 5 -9 10 -19 3 -25 2 -19 -4z"/>
<path d="M2860 3410 c0 -5 6 -10 14 -10 8 0 18 5 21 10 3 6 -3 10 -14 10 -12
0 -21 -4 -21 -10z"/>
<path d="M3630 3410 c-8 -5 -10 -10 -5 -10 6 0 17 5 25 10 8 5 11 10 5 10 -5
0 -17 -5 -25 -10z"/>
<path d="M2228 3403 c7 -3 16 -2 19 1 4 3 -2 6 -13 5 -11 0 -14 -3 -6 -6z"/>
<path d="M2905 3400 c-3 -5 1 -10 9 -10 9 0 16 5 16 10 0 6 -4 10 -9 10 -6 0
-13 -4 -16 -10z"/>
<path d="M1948 3393 c7 -3 16 -2 19 1 4 3 -2 6 -13 5 -11 0 -14 -3 -6 -6z"/>
<path d="M2504 3385 c11 -8 27 -15 35 -15 9 0 3 7 -13 15 -36 19 -47 19 -22 0z"/>
<path d="M2755 3390 c-3 -5 -1 -10 4 -10 6 0 11 5 11 10 0 6 -2 10 -4 10 -3 0
-8 -4 -11 -10z"/>
<path d="M2842 3386 c7 -7 19 -11 27 -8 11 4 10 7 -5 13 -29 12 -36 10 -22 -5z"/>
<path d="M1758 3383 c7 -3 16 -2 19 1 4 3 -2 6 -13 5 -11 0 -14 -3 -6 -6z"/>
<path d="M1988 3383 c7 -3 16 -2 19 1 4 3 -2 6 -13 5 -11 0 -14 -3 -6 -6z"/>
<path d="M2298 3383 c7 -3 16 -2 19 1 4 3 -2 6 -13 5 -11 0 -14 -3 -6 -6z"/>
<path d="M2600 3381 c0 -8 34 -21 55 -21 11 1 -35 29 -47 30 -5 0 -8 -4 -8 -9z"/>
<path d="M4155 3223 c13 -15 12 -18 -13 -30 l-27 -13 30 6 c41 8 42 11 17 34
-12 11 -15 12 -7 3z"/>
<path d="M2415 3144 c-465 -67 -515 -74 -590 -82 -65 -7 -69 -8 -69 -32 0 -16
8 -29 23 -36 13 -7 27 -17 31 -23 4 -8 19 0 43 22 21 18 34 37 30 40 -11 12
47 7 177 -13 69 -11 129 -20 133 -20 5 0 6 -4 2 -9 -3 -5 5 -12 17 -14 l23 -4
-22 -2 c-16 -1 -23 -7 -23 -22 0 -20 4 -21 43 -16 23 3 101 12 172 19 129 13
130 13 61 18 -38 3 -101 3 -139 0 -38 -3 -71 -2 -73 1 -6 10 23 19 60 19 72 0
125 12 119 27 -8 20 30 52 82 68 25 7 45 11 45 9 0 -2 9 4 20 13 12 11 16 20
9 24 -6 3 31 16 81 27 51 12 96 20 100 17 5 -3 11 -1 15 5 10 16 -49 10 -370
-36z m-610 -116 c-19 -11 -30 -5 -21 11 4 6 14 7 22 4 15 -5 14 -7 -1 -15z"/>
<path d="M5806 3151 c-4 -7 -5 -15 -2 -18 9 -9 19 4 14 18 -4 11 -6 11 -12 0z"/>
<path d="M3237 3132 c-15 -16 -15 -19 3 -30 18 -11 20 -9 20 18 0 35 -2 36
-23 12z"/>
<path d="M4105 3140 c-3 -5 -1 -10 4 -10 6 0 11 5 11 10 0 6 -2 10 -4 10 -3 0
-8 -4 -11 -10z"/>
<path d="M2922 3108 c13 -10 27 -18 31 -18 5 0 5 -4 2 -10 -3 -6 5 -10 18 -10
14 0 27 6 30 14 8 20 -2 26 -32 21 -14 -3 -20 -2 -13 1 23 11 12 20 -24 20
l-35 0 23 -18z m78 -12 c0 -2 -7 -7 -16 -10 -8 -3 -12 -2 -9 4 6 10 25 14 25
6z"/>
<path d="M3670 3080 c-41 -5 -115 -9 -165 -10 -49 -2 -96 -6 -105 -11 -8 -4
-40 -12 -70 -17 l-55 -9 60 -2 c34 0 66 4 72 10 8 8 17 8 33 -1 40 -22 67 -22
73 0 6 25 27 27 27 3 0 -15 12 -18 80 -21 80 -3 84 -2 130 40 10 9 31 18 47
21 49 7 -45 5 -127 -3z"/>
<path d="M4329 3068 c-11 -8 -10 -9 4 -4 11 3 17 0 17 -10 0 -8 5 -12 10 -9 6
3 10 10 10 15 0 13 -26 19 -41 8z"/>
<path d="M1483 3055 c-7 -20 5 -35 28 -35 15 0 20 6 17 22 -3 24 -36 34 -45
13z"/>
<path d="M1560 3049 c0 -5 -4 -7 -10 -4 -5 3 -10 1 -10 -5 0 -8 20 -10 68 -5
91 10 103 25 19 25 -40 0 -67 -4 -67 -11z"/>
<path d="M3195 3030 c-33 -5 -100 -12 -150 -16 -49 -4 -84 -9 -76 -12 22 -7
301 20 301 30 0 4 -3 7 -7 7 -5 -1 -35 -5 -68 -9z"/>
<path d="M4330 3021 c0 -7 -7 -11 -14 -8 -10 4 -13 1 -9 -9 3 -7 9 -14 14 -14
12 0 24 29 15 37 -3 4 -6 1 -6 -6z"/>
<path d="M2873 2993 c9 -2 25 -2 35 0 9 3 1 5 -18 5 -19 0 -27 -2 -17 -5z"/>
<path d="M2773 2983 c9 -2 23 -2 30 0 6 3 -1 5 -18 5 -16 0 -22 -2 -12 -5z"/>
<path d="M2746 2866 c5 -14 16 -16 51 -12 31 3 53 0 69 -10 25 -17 85 -15 91
2 2 7 -23 14 -69 18 -40 4 -90 9 -111 13 -32 5 -36 3 -31 -11z"/>
<path d="M6033 2715 c0 -22 2 -30 4 -17 2 12 2 30 0 40 -3 9 -5 -1 -4 -23z"/>
<path d="M4232 2700 c0 -14 2 -19 5 -12 2 6 2 18 0 25 -3 6 -5 1 -5 -13z"/>
<path d="M5010 2610 c0 -5 5 -10 11 -10 5 0 7 5 4 10 -3 6 -8 10 -11 10 -2 0
-4 -4 -4 -10z"/>
<path d="M5048 2583 c6 -2 18 -2 25 0 6 3 1 5 -13 5 -14 0 -19 -2 -12 -5z"/>
<path d="M5078 2533 c7 -3 16 -2 19 1 4 3 -2 6 -13 5 -11 0 -14 -3 -6 -6z"/>
<path d="M4760 2519 c0 -5 5 -7 10 -4 6 3 10 8 10 11 0 2 -4 4 -10 4 -5 0 -10
-5 -10 -11z"/>
<path d="M5158 2523 c6 -2 18 -2 25 0 6 3 1 5 -13 5 -14 0 -19 -2 -12 -5z"/>
<path d="M4775 2500 c-3 -5 -1 -10 4 -10 6 0 11 5 11 10 0 6 -2 10 -4 10 -3 0
-8 -4 -11 -10z"/>
<path d="M5147 2499 c7 -7 15 -10 18 -7 3 3 -2 9 -12 12 -14 6 -15 5 -6 -5z"/>
<path d="M821 2484 c0 -11 3 -14 6 -6 3 7 2 16 -1 19 -3 4 -6 -2 -5 -13z"/>
<path d="M4700 2480 c0 -15 7 -20 25 -20 14 0 25 4 25 8 0 5 -11 14 -25 20
-22 10 -25 9 -25 -8z"/>
<path d="M5198 2493 c-24 -6 -23 -19 1 -26 22 -5 31 0 31 20 0 13 -3 14 -32 6z"/>
<path d="M4868 2473 c7 -3 16 -2 19 1 4 3 -2 6 -13 5 -11 0 -14 -3 -6 -6z"/>
<path d="M4188 2463 c6 -2 18 -2 25 0 6 3 1 5 -13 5 -14 0 -19 -2 -12 -5z"/>
<path d="M3670 2440 c0 -5 7 -10 15 -10 8 0 15 5 15 10 0 6 -7 10 -15 10 -8 0
-15 -4 -15 -10z"/>
<path d="M3171 2384 c0 -11 3 -14 6 -6 3 7 2 16 -1 19 -3 4 -6 -2 -5 -13z"/>
<path d="M4111 2384 c0 -11 3 -14 6 -6 3 7 2 16 -1 19 -3 4 -6 -2 -5 -13z"/>
<path d="M5168 2383 c6 -2 18 -2 25 0 6 3 1 5 -13 5 -14 0 -19 -2 -12 -5z"/>
<path d="M5263 2383 c9 -2 23 -2 30 0 6 3 -1 5 -18 5 -16 0 -22 -2 -12 -5z"/>
<path d="M3171 2334 c0 -11 3 -14 6 -6 3 7 2 16 -1 19 -3 4 -6 -2 -5 -13z"/>
<path d="M5200 2340 c0 -5 7 -7 15 -4 8 4 15 8 15 10 0 2 -7 4 -15 4 -8 0 -15
-4 -15 -10z"/>
<path d="M5258 2343 c7 -3 16 -2 19 1 4 3 -2 6 -13 5 -11 0 -14 -3 -6 -6z"/>
<path d="M5080 2320 c0 -5 4 -10 9 -10 6 0 13 5 16 10 3 6 -1 10 -9 10 -9 0
-16 -4 -16 -10z"/>
<path d="M5240 2320 c0 -5 4 -10 9 -10 6 0 13 5 16 10 3 6 -1 10 -9 10 -9 0
-16 -4 -16 -10z"/>
<path d="M5120 2306 c0 -2 9 -6 20 -9 11 -3 20 -1 20 4 0 5 -9 9 -20 9 -11 0
-20 -2 -20 -4z"/>
<path d="M3641 2284 c0 -11 3 -14 6 -6 3 7 2 16 -1 19 -3 4 -6 -2 -5 -13z"/>
<path d="M806 2264 c-8 -22 1 -31 16 -16 9 9 9 15 1 23 -7 7 -12 5 -17 -7z"/>
<path d="M4113 2235 c0 -27 2 -38 4 -22 2 15 2 37 0 50 -2 12 -4 0 -4 -28z"/>
<path d="M4968 2253 c7 -3 16 -2 19 1 4 3 -2 6 -13 5 -11 0 -14 -3 -6 -6z"/>
<path d="M5122 2251 c-11 -6 -10 -10 4 -15 10 -4 24 0 33 9 14 13 13 15 -4 15
-11 0 -26 -4 -33 -9z"/>
<path d="M4793 2226 c3 -7 0 -19 -6 -25 -8 -8 -5 -11 10 -11 12 0 25 5 28 10
3 6 1 10 -5 10 -7 0 -10 7 -6 15 3 9 0 15 -10 15 -10 0 -14 -6 -11 -14z"/>
<path d="M5078 2233 c7 -3 16 -2 19 1 4 3 -2 6 -13 5 -11 0 -14 -3 -6 -6z"/>
<path d="M3208 2223 c7 -3 16 -2 19 1 4 3 -2 6 -13 5 -11 0 -14 -3 -6 -6z"/>
<path d="M5275 2220 c-3 -5 3 -10 14 -10 12 0 21 5 21 10 0 6 -6 10 -14 10 -8
0 -18 -4 -21 -10z"/>
<path d="M3190 2179 c0 -11 -4 -18 -9 -14 -5 3 -15 -1 -23 -8 -7 -8 -20 -16
-28 -19 -7 -2 58 -5 146 -6 87 -1 219 -4 292 -7 72 -3 132 -1 132 3 0 5 24 8
53 6 39 -2 32 0 -28 10 -47 7 -85 9 -92 3 -12 -8 -380 1 -396 10 -4 3 -5 13
-2 24 5 15 1 19 -19 19 -20 0 -26 -5 -26 -21z m25 1 c3 -5 1 -10 -4 -10 -6 0
-11 5 -11 10 0 6 2 10 4 10 3 0 8 -4 11 -10z m12 -26 c-3 -3 -12 -4 -19 -1 -8
3 -5 6 6 6 11 1 17 -2 13 -5z"/>
<path d="M3803 2173 c9 -2 25 -2 35 0 9 3 1 5 -18 5 -19 0 -27 -2 -17 -5z"/>
<path d="M4522 2150 c0 -14 2 -19 5 -12 2 6 2 18 0 25 -3 6 -5 1 -5 -13z"/>
<path d="M3818 2143 c7 -3 16 -2 19 1 4 3 -2 6 -13 5 -11 0 -14 -3 -6 -6z"/>
<path d="M3063 2133 c9 -2 23 -2 30 0 6 3 -1 5 -18 5 -16 0 -22 -2 -12 -5z"/>
<path d="M4140 2056 c0 -2 7 -7 16 -10 8 -3 12 -2 9 4 -6 10 -25 14 -25 6z"/>
<path d="M800 2025 c0 -8 5 -15 10 -15 6 0 10 7 10 15 0 8 -4 15 -10 15 -5 0
-10 -7 -10 -15z"/>
<path d="M4275 1990 c8 -13 35 -13 55 0 11 7 5 10 -23 10 -23 0 -36 -4 -32
-10z"/>
<path d="M4368 1928 c14 -7 26 -8 32 -2 5 5 -4 10 -23 11 -30 1 -31 1 -9 -9z"/>
<path d="M3978 1923 c7 -3 16 -2 19 1 4 3 -2 6 -13 5 -11 0 -14 -3 -6 -6z"/>
<path d="M4038 1923 c7 -3 16 -2 19 1 4 3 -2 6 -13 5 -11 0 -14 -3 -6 -6z"/>
<path d="M4090 1920 c-10 -7 5 -10 49 -10 35 0 62 2 60 4 -11 9 -96 14 -109 6z"/>
<path d="M4219 1919 c-7 -4 6 -10 34 -14 63 -10 80 -1 24 11 -25 6 -51 8 -58
3z"/>
<path d="M3738 1903 c7 -3 16 -2 19 1 4 3 -2 6 -13 5 -11 0 -14 -3 -6 -6z"/>
<path d="M1958 1883 c7 -3 16 -2 19 1 4 3 -2 6 -13 5 -11 0 -14 -3 -6 -6z"/>
<path d="M2298 1883 c7 -3 16 -2 19 1 4 3 -2 6 -13 5 -11 0 -14 -3 -6 -6z"/>
<path d="M3068 1873 c7 -3 16 -2 19 1 4 3 -2 6 -13 5 -11 0 -14 -3 -6 -6z"/>
<path d="M3120 1869 c0 -5 5 -7 10 -4 6 3 10 8 10 11 0 2 -4 4 -10 4 -5 0 -10
-5 -10 -11z"/>
<path d="M3368 1873 c6 -2 18 -2 25 0 6 3 1 5 -13 5 -14 0 -19 -2 -12 -5z"/>
<path d="M5981 1738 c-29 -73 -57 -142 -63 -153 -31 -54 -108 -219 -108 -230
0 -4 -9 -18 -20 -32 -11 -14 -20 -33 -20 -42 0 -16 -49 -122 -61 -131 -3 -3
-10 -16 -14 -29 -4 -13 -22 -49 -41 -80 -19 -31 -34 -61 -34 -68 0 -11 -78
-163 -89 -173 -3 -3 -6 -9 -7 -15 -3 -29 -18 -55 -35 -60 -14 -5 -18 -14 -15
-35 2 -19 -2 -31 -12 -35 -8 -3 -12 -8 -9 -11 3 -3 -6 -22 -19 -41 -13 -20
-24 -42 -24 -49 0 -8 -6 -14 -12 -14 -10 0 -9 -3 1 -9 9 -6 10 -11 2 -15 -6
-4 -9 -12 -6 -17 4 -5 1 -9 -4 -9 -6 0 -10 -3 -10 -7 3 -19 -2 -33 -17 -47 -8
-9 -16 -26 -17 -38 0 -13 -5 -26 -10 -29 -4 -3 -9 -13 -11 -22 -3 -22 -46 -67
-63 -67 -10 0 -11 -5 -4 -18 8 -14 5 -22 -11 -33 -34 -24 -48 -40 -43 -50 4
-5 -1 -9 -10 -9 -12 0 -14 -6 -9 -26 5 -19 4 -25 -5 -20 -13 9 -11 -15 3 -25
5 -4 -3 -14 -17 -24 -17 -11 -24 -22 -20 -32 4 -9 -1 -22 -12 -29 -16 -12 52
-14 443 -14 l462 0 0 935 c0 514 -2 935 -4 935 -2 0 -27 -60 -55 -132z"/>
<path d="M0 1357 l0 -224 42 8 c24 4 54 10 68 12 14 3 39 8 55 11 17 3 53 10
80 16 66 14 89 18 160 30 91 16 179 32 427 81 l227 44 -62 17 c-34 9 -107 27
-162 38 -55 12 -173 39 -262 61 -157 38 -558 129 -568 129 -3 0 -5 -101 -5
-223z"/>
<path d="M5126 95 c4 -8 10 -15 15 -15 4 0 6 7 3 15 -4 8 -10 15 -15 15 -4 0
-6 -7 -3 -15z"/>
<path d="M5015 29 c-10 -15 3 -25 16 -12 7 7 7 13 1 17 -6 3 -14 1 -17 -5z"/>
</g>
</svg>
